ISO-10303-21;
HEADER;
/* Generated by software containing ST-Developer
 * from STEP Tools, Inc. (www.steptools.com) 
 */

FILE_DESCRIPTION(
/* description */ (''),
/* implementation_level */ '2;1');

FILE_NAME(
/* name */ 'GoPro Clamp_Clamp Top.step',
/* time_stamp */ '2026-06-16T21:30:56-04:00',
/* author */ (''),
/* organization */ (''),
/* preprocessor_version */ 'ST-DEVELOPER v20.1',
/* originating_system */ 'Autodesk Translation Framework v15.8.0.0',
/* authorisation */ '');

FILE_SCHEMA (('AUTOMOTIVE_DESIGN { 1 0 10303 214 3 1 1 }'));
ENDSEC;

DATA;
#10=MECHANICAL_DESIGN_GEOMETRIC_PRESENTATION_REPRESENTATION('',(#13),#1744);
#11=SHAPE_REPRESENTATION_RELATIONSHIP('SRR','None',#1751,#12);
#12=ADVANCED_BREP_SHAPE_REPRESENTATION('',(#14),#1743);
#13=STYLED_ITEM('',(#1760),#14);
#14=MANIFOLD_SOLID_BREP('Body1',#1086);
#15=CYLINDRICAL_SURFACE('',#1120,1.6);
#16=CYLINDRICAL_SURFACE('',#1122,1.6);
#17=CYLINDRICAL_SURFACE('',#1146,2.63660254037842);
#18=CYLINDRICAL_SURFACE('',#1150,7.5);
#19=CYLINDRICAL_SURFACE('',#1155,2.63660254037842);
#20=CYLINDRICAL_SURFACE('',#1159,7.5);
#21=FACE_BOUND('',#112,.T.);
#22=FACE_BOUND('',#113,.T.);
#23=FACE_BOUND('',#121,.T.);
#24=FACE_BOUND('',#122,.T.);
#25=FACE_BOUND('',#144,.T.);
#26=FACE_BOUND('',#146,.T.);
#27=FACE_BOUND('',#152,.T.);
#28=FACE_BOUND('',#154,.T.);
#29=CIRCLE('',#1118,1.6);
#30=CIRCLE('',#1119,1.6);
#31=CIRCLE('',#1121,1.6);
#32=CIRCLE('',#1123,1.6);
#33=CIRCLE('',#1147,2.63660254037842);
#34=CIRCLE('',#1148,2.63660254037842);
#35=CIRCLE('',#1151,7.5);
#36=CIRCLE('',#1152,7.5);
#37=CIRCLE('',#1156,2.63660254037842);
#38=CIRCLE('',#1157,2.63660254037842);
#39=CIRCLE('',#1160,7.5);
#40=CIRCLE('',#1161,7.5);
#41=FACE_OUTER_BOUND('',#94,.T.);
#42=FACE_OUTER_BOUND('',#95,.T.);
#43=FACE_OUTER_BOUND('',#96,.T.);
#44=FACE_OUTER_BOUND('',#97,.T.);
#45=FACE_OUTER_BOUND('',#98,.T.);
#46=FACE_OUTER_BOUND('',#99,.T.);
#47=FACE_OUTER_BOUND('',#100,.T.);
#48=FACE_OUTER_BOUND('',#101,.T.);
#49=FACE_OUTER_BOUND('',#102,.T.);
#50=FACE_OUTER_BOUND('',#103,.T.);
#51=FACE_OUTER_BOUND('',#104,.T.);
#52=FACE_OUTER_BOUND('',#105,.T.);
#53=FACE_OUTER_BOUND('',#106,.T.);
#54=FACE_OUTER_BOUND('',#107,.T.);
#55=FACE_OUTER_BOUND('',#108,.T.);
#56=FACE_OUTER_BOUND('',#109,.T.);
#57=FACE_OUTER_BOUND('',#110,.T.);
#58=FACE_OUTER_BOUND('',#111,.T.);
#59=FACE_OUTER_BOUND('',#114,.T.);
#60=FACE_OUTER_BOUND('',#115,.T.);
#61=FACE_OUTER_BOUND('',#116,.T.);
#62=FACE_OUTER_BOUND('',#117,.T.);
#63=FACE_OUTER_BOUND('',#118,.T.);
#64=FACE_OUTER_BOUND('',#119,.T.);
#65=FACE_OUTER_BOUND('',#120,.T.);
#66=FACE_OUTER_BOUND('',#123,.T.);
#67=FACE_OUTER_BOUND('',#124,.T.);
#68=FACE_OUTER_BOUND('',#125,.T.);
#69=FACE_OUTER_BOUND('',#126,.T.);
#70=FACE_OUTER_BOUND('',#127,.T.);
#71=FACE_OUTER_BOUND('',#128,.T.);
#72=FACE_OUTER_BOUND('',#129,.T.);
#73=FACE_OUTER_BOUND('',#130,.T.);
#74=FACE_OUTER_BOUND('',#131,.T.);
#75=FACE_OUTER_BOUND('',#132,.T.);
#76=FACE_OUTER_BOUND('',#133,.T.);
#77=FACE_OUTER_BOUND('',#134,.T.);
#78=FACE_OUTER_BOUND('',#135,.T.);
#79=FACE_OUTER_BOUND('',#136,.T.);
#80=FACE_OUTER_BOUND('',#137,.T.);
#81=FACE_OUTER_BOUND('',#138,.T.);
#82=FACE_OUTER_BOUND('',#139,.T.);
#83=FACE_OUTER_BOUND('',#140,.T.);
#84=FACE_OUTER_BOUND('',#141,.T.);
#85=FACE_OUTER_BOUND('',#142,.T.);
#86=FACE_OUTER_BOUND('',#143,.T.);
#87=FACE_OUTER_BOUND('',#145,.T.);
#88=FACE_OUTER_BOUND('',#147,.T.);
#89=FACE_OUTER_BOUND('',#148,.T.);
#90=FACE_OUTER_BOUND('',#149,.T.);
#91=FACE_OUTER_BOUND('',#150,.T.);
#92=FACE_OUTER_BOUND('',#151,.T.);
#93=FACE_OUTER_BOUND('',#153,.T.);
#94=EDGE_LOOP('',(#684,#685,#686,#687,#688,#689,#690,#691));
#95=EDGE_LOOP('',(#692,#693,#694,#695));
#96=EDGE_LOOP('',(#696,#697,#698,#699,#700,#701,#702,#703));
#97=EDGE_LOOP('',(#704,#705,#706,#707));
#98=EDGE_LOOP('',(#708,#709,#710,#711));
#99=EDGE_LOOP('',(#712,#713,#714,#715));
#100=EDGE_LOOP('',(#716,#717,#718,#719));
#101=EDGE_LOOP('',(#720,#721,#722,#723,#724,#725,#726,#727,#728,#729,#730,
#731,#732,#733,#734,#735,#736,#737,#738,#739));
#102=EDGE_LOOP('',(#740,#741,#742,#743));
#103=EDGE_LOOP('',(#744,#745,#746,#747));
#104=EDGE_LOOP('',(#748,#749,#750,#751));
#105=EDGE_LOOP('',(#752,#753,#754,#755));
#106=EDGE_LOOP('',(#756,#757,#758,#759));
#107=EDGE_LOOP('',(#760,#761,#762,#763));
#108=EDGE_LOOP('',(#764,#765,#766,#767));
#109=EDGE_LOOP('',(#768,#769,#770,#771,#772,#773,#774,#775));
#110=EDGE_LOOP('',(#776,#777,#778,#779));
#111=EDGE_LOOP('',(#780,#781,#782,#783,#784,#785,#786,#787,#788,#789,#790,
#791,#792,#793,#794,#795,#796,#797,#798,#799,#800));
#112=EDGE_LOOP('',(#801));
#113=EDGE_LOOP('',(#802));
#114=EDGE_LOOP('',(#803,#804,#805,#806));
#115=EDGE_LOOP('',(#807,#808,#809,#810));
#116=EDGE_LOOP('',(#811,#812,#813,#814));
#117=EDGE_LOOP('',(#815,#816,#817,#818));
#118=EDGE_LOOP('',(#819,#820,#821,#822));
#119=EDGE_LOOP('',(#823,#824,#825,#826));
#120=EDGE_LOOP('',(#827,#828,#829,#830,#831,#832,#833,#834,#835,#836,#837));
#121=EDGE_LOOP('',(#838));
#122=EDGE_LOOP('',(#839));
#123=EDGE_LOOP('',(#840,#841,#842,#843,#844,#845,#846,#847));
#124=EDGE_LOOP('',(#848,#849,#850,#851));
#125=EDGE_LOOP('',(#852,#853,#854,#855,#856,#857,#858,#859));
#126=EDGE_LOOP('',(#860,#861,#862,#863));
#127=EDGE_LOOP('',(#864,#865,#866,#867));
#128=EDGE_LOOP('',(#868,#869,#870,#871));
#129=EDGE_LOOP('',(#872,#873,#874,#875));
#130=EDGE_LOOP('',(#876,#877,#878,#879));
#131=EDGE_LOOP('',(#880,#881,#882,#883));
#132=EDGE_LOOP('',(#884,#885,#886,#887));
#133=EDGE_LOOP('',(#888,#889,#890,#891));
#134=EDGE_LOOP('',(#892,#893,#894,#895,#896,#897,#898,#899,#900,#901));
#135=EDGE_LOOP('',(#902,#903,#904,#905,#906,#907,#908,#909));
#136=EDGE_LOOP('',(#910,#911,#912,#913));
#137=EDGE_LOOP('',(#914,#915,#916,#917));
#138=EDGE_LOOP('',(#918,#919,#920,#921));
#139=EDGE_LOOP('',(#922,#923,#924,#925,#926,#927,#928,#929));
#140=EDGE_LOOP('',(#930,#931,#932,#933));
#141=EDGE_LOOP('',(#934,#935,#936,#937));
#142=EDGE_LOOP('',(#938,#939,#940,#941));
#143=EDGE_LOOP('',(#942,#943,#944,#945));
#144=EDGE_LOOP('',(#946));
#145=EDGE_LOOP('',(#947,#948,#949,#950));
#146=EDGE_LOOP('',(#951));
#147=EDGE_LOOP('',(#952,#953,#954,#955));
#148=EDGE_LOOP('',(#956,#957,#958,#959,#960,#961,#962,#963,#964,#965,#966,
#967));
#149=EDGE_LOOP('',(#968,#969,#970,#971));
#150=EDGE_LOOP('',(#972,#973,#974,#975));
#151=EDGE_LOOP('',(#976,#977,#978,#979));
#152=EDGE_LOOP('',(#980));
#153=EDGE_LOOP('',(#981,#982,#983,#984));
#154=EDGE_LOOP('',(#985));
#155=LINE('',#1440,#294);
#156=LINE('',#1442,#295);
#157=LINE('',#1444,#296);
#158=LINE('',#1446,#297);
#159=LINE('',#1448,#298);
#160=LINE('',#1450,#299);
#161=LINE('',#1452,#300);
#162=LINE('',#1453,#301);
#163=LINE('',#1456,#302);
#164=LINE('',#1458,#303);
#165=LINE('',#1459,#304);
#166=LINE('',#1463,#305);
#167=LINE('',#1465,#306);
#168=LINE('',#1467,#307);
#169=LINE('',#1469,#308);
#170=LINE('',#1471,#309);
#171=LINE('',#1472,#310);
#172=LINE('',#1473,#311);
#173=LINE('',#1475,#312);
#174=LINE('',#1476,#313);
#175=LINE('',#1480,#314);
#176=LINE('',#1482,#315);
#177=LINE('',#1483,#316);
#178=LINE('',#1486,#317);
#179=LINE('',#1488,#318);
#180=LINE('',#1489,#319);
#181=LINE('',#1492,#320);
#182=LINE('',#1494,#321);
#183=LINE('',#1496,#322);
#184=LINE('',#1498,#323);
#185=LINE('',#1500,#324);
#186=LINE('',#1502,#325);
#187=LINE('',#1504,#326);
#188=LINE('',#1506,#327);
#189=LINE('',#1508,#328);
#190=LINE('',#1509,#329);
#191=LINE('',#1511,#330);
#192=LINE('',#1512,#331);
#193=LINE('',#1515,#332);
#194=LINE('',#1516,#333);
#195=LINE('',#1518,#334);
#196=LINE('',#1521,#335);
#197=LINE('',#1523,#336);
#198=LINE('',#1524,#337);
#199=LINE('',#1527,#338);
#200=LINE('',#1529,#339);
#201=LINE('',#1530,#340);
#202=LINE('',#1532,#341);
#203=LINE('',#1533,#342);
#204=LINE('',#1536,#343);
#205=LINE('',#1537,#344);
#206=LINE('',#1539,#345);
#207=LINE('',#1545,#346);
#208=LINE('',#1547,#347);
#209=LINE('',#1549,#348);
#210=LINE('',#1551,#349);
#211=LINE('',#1552,#350);
#212=LINE('',#1554,#351);
#213=LINE('',#1556,#352);
#214=LINE('',#1558,#353);
#215=LINE('',#1560,#354);
#216=LINE('',#1562,#355);
#217=LINE('',#1564,#356);
#218=LINE('',#1566,#357);
#219=LINE('',#1568,#358);
#220=LINE('',#1570,#359);
#221=LINE('',#1572,#360);
#222=LINE('',#1574,#361);
#223=LINE('',#1576,#362);
#224=LINE('',#1578,#363);
#225=LINE('',#1580,#364);
#226=LINE('',#1581,#365);
#227=LINE('',#1589,#366);
#228=LINE('',#1593,#367);
#229=LINE('',#1596,#368);
#230=LINE('',#1598,#369);
#231=LINE('',#1599,#370);
#232=LINE('',#1602,#371);
#233=LINE('',#1603,#372);
#234=LINE('',#1606,#373);
#235=LINE('',#1607,#374);
#236=LINE('',#1610,#375);
#237=LINE('',#1611,#376);
#238=LINE('',#1613,#377);
#239=LINE('',#1614,#378);
#240=LINE('',#1618,#379);
#241=LINE('',#1620,#380);
#242=LINE('',#1622,#381);
#243=LINE('',#1624,#382);
#244=LINE('',#1626,#383);
#245=LINE('',#1628,#384);
#246=LINE('',#1630,#385);
#247=LINE('',#1631,#386);
#248=LINE('',#1634,#387);
#249=LINE('',#1636,#388);
#250=LINE('',#1637,#389);
#251=LINE('',#1641,#390);
#252=LINE('',#1643,#391);
#253=LINE('',#1645,#392);
#254=LINE('',#1647,#393);
#255=LINE('',#1649,#394);
#256=LINE('',#1650,#395);
#257=LINE('',#1651,#396);
#258=LINE('',#1653,#397);
#259=LINE('',#1654,#398);
#260=LINE('',#1657,#399);
#261=LINE('',#1658,#400);
#262=LINE('',#1661,#401);
#263=LINE('',#1663,#402);
#264=LINE('',#1664,#403);
#265=LINE('',#1666,#404);
#266=LINE('',#1669,#405);
#267=LINE('',#1670,#406);
#268=LINE('',#1672,#407);
#269=LINE('',#1675,#408);
#270=LINE('',#1676,#409);
#271=LINE('',#1679,#410);
#272=LINE('',#1680,#411);
#273=LINE('',#1683,#412);
#274=LINE('',#1684,#413);
#275=LINE('',#1687,#414);
#276=LINE('',#1688,#415);
#277=LINE('',#1691,#416);
#278=LINE('',#1692,#417);
#279=LINE('',#1694,#418);
#280=LINE('',#1700,#419);
#281=LINE('',#1704,#420);
#282=LINE('',#1706,#421);
#283=LINE('',#1707,#422);
#284=LINE('',#1712,#423);
#285=LINE('',#1715,#424);
#286=LINE('',#1717,#425);
#287=LINE('',#1722,#426);
#288=LINE('',#1726,#427);
#289=LINE('',#1728,#428);
#290=LINE('',#1729,#429);
#291=LINE('',#1735,#430);
#292=LINE('',#1737,#431);
#293=LINE('',#1738,#432);
#294=VECTOR('',#1169,10.);
#295=VECTOR('',#1170,10.);
#296=VECTOR('',#1171,10.);
#297=VECTOR('',#1172,10.);
#298=VECTOR('',#1173,10.);
#299=VECTOR('',#1174,10.);
#300=VECTOR('',#1175,10.);
#301=VECTOR('',#1176,10.);
#302=VECTOR('',#1179,10.);
#303=VECTOR('',#1180,10.);
#304=VECTOR('',#1181,10.);
#305=VECTOR('',#1184,10.);
#306=VECTOR('',#1185,10.);
#307=VECTOR('',#1186,10.);
#308=VECTOR('',#1187,10.);
#309=VECTOR('',#1188,10.);
#310=VECTOR('',#1189,10.);
#311=VECTOR('',#1190,10.);
#312=VECTOR('',#1193,10.);
#313=VECTOR('',#1194,10.);
#314=VECTOR('',#1199,10.);
#315=VECTOR('',#1200,10.);
#316=VECTOR('',#1201,10.);
#317=VECTOR('',#1204,10.);
#318=VECTOR('',#1205,10.);
#319=VECTOR('',#1206,10.);
#320=VECTOR('',#1209,10.);
#321=VECTOR('',#1210,10.);
#322=VECTOR('',#1211,10.);
#323=VECTOR('',#1212,10.);
#324=VECTOR('',#1213,10.);
#325=VECTOR('',#1214,10.);
#326=VECTOR('',#1215,10.);
#327=VECTOR('',#1216,10.);
#328=VECTOR('',#1217,10.);
#329=VECTOR('',#1218,10.);
#330=VECTOR('',#1219,10.);
#331=VECTOR('',#1220,10.);
#332=VECTOR('',#1223,10.);
#333=VECTOR('',#1224,10.);
#334=VECTOR('',#1227,10.);
#335=VECTOR('',#1230,10.);
#336=VECTOR('',#1231,10.);
#337=VECTOR('',#1232,10.);
#338=VECTOR('',#1235,10.);
#339=VECTOR('',#1236,10.);
#340=VECTOR('',#1237,10.);
#341=VECTOR('',#1240,10.);
#342=VECTOR('',#1241,10.);
#343=VECTOR('',#1244,10.);
#344=VECTOR('',#1245,10.);
#345=VECTOR('',#1248,10.);
#346=VECTOR('',#1255,10.);
#347=VECTOR('',#1256,10.);
#348=VECTOR('',#1257,10.);
#349=VECTOR('',#1258,10.);
#350=VECTOR('',#1259,10.);
#351=VECTOR('',#1260,10.);
#352=VECTOR('',#1261,10.);
#353=VECTOR('',#1262,10.);
#354=VECTOR('',#1263,10.);
#355=VECTOR('',#1264,10.);
#356=VECTOR('',#1265,10.);
#357=VECTOR('',#1266,10.);
#358=VECTOR('',#1267,10.);
#359=VECTOR('',#1268,10.);
#360=VECTOR('',#1269,10.);
#361=VECTOR('',#1270,10.);
#362=VECTOR('',#1271,10.);
#363=VECTOR('',#1272,10.);
#364=VECTOR('',#1273,10.);
#365=VECTOR('',#1274,10.);
#366=VECTOR('',#1283,1.6);
#367=VECTOR('',#1288,1.6);
#368=VECTOR('',#1291,10.);
#369=VECTOR('',#1292,10.);
#370=VECTOR('',#1293,10.);
#371=VECTOR('',#1296,10.);
#372=VECTOR('',#1297,10.);
#373=VECTOR('',#1300,10.);
#374=VECTOR('',#1301,10.);
#375=VECTOR('',#1304,10.);
#376=VECTOR('',#1305,10.);
#377=VECTOR('',#1308,10.);
#378=VECTOR('',#1309,10.);
#379=VECTOR('',#1312,10.);
#380=VECTOR('',#1313,10.);
#381=VECTOR('',#1314,10.);
#382=VECTOR('',#1315,10.);
#383=VECTOR('',#1316,10.);
#384=VECTOR('',#1317,10.);
#385=VECTOR('',#1318,10.);
#386=VECTOR('',#1319,10.);
#387=VECTOR('',#1322,10.);
#388=VECTOR('',#1323,10.);
#389=VECTOR('',#1324,10.);
#390=VECTOR('',#1327,10.);
#391=VECTOR('',#1328,10.);
#392=VECTOR('',#1329,10.);
#393=VECTOR('',#1330,10.);
#394=VECTOR('',#1331,10.);
#395=VECTOR('',#1332,10.);
#396=VECTOR('',#1333,10.);
#397=VECTOR('',#1336,10.);
#398=VECTOR('',#1337,10.);
#399=VECTOR('',#1342,10.);
#400=VECTOR('',#1343,10.);
#401=VECTOR('',#1346,10.);
#402=VECTOR('',#1347,10.);
#403=VECTOR('',#1348,10.);
#404=VECTOR('',#1351,10.);
#405=VECTOR('',#1354,10.);
#406=VECTOR('',#1355,10.);
#407=VECTOR('',#1358,10.);
#408=VECTOR('',#1361,10.);
#409=VECTOR('',#1362,10.);
#410=VECTOR('',#1365,10.);
#411=VECTOR('',#1366,10.);
#412=VECTOR('',#1369,10.);
#413=VECTOR('',#1370,10.);
#414=VECTOR('',#1373,10.);
#415=VECTOR('',#1374,10.);
#416=VECTOR('',#1377,10.);
#417=VECTOR('',#1378,10.);
#418=VECTOR('',#1381,10.);
#419=VECTOR('',#1388,2.63660254037842);
#420=VECTOR('',#1393,10.);
#421=VECTOR('',#1394,10.);
#422=VECTOR('',#1395,10.);
#423=VECTOR('',#1400,10.);
#424=VECTOR('',#1405,10.);
#425=VECTOR('',#1408,10.);
#426=VECTOR('',#1413,2.63660254037842);
#427=VECTOR('',#1418,10.);
#428=VECTOR('',#1419,10.);
#429=VECTOR('',#1420,10.);
#430=VECTOR('',#1427,10.);
#431=VECTOR('',#1430,10.);
#432=VECTOR('',#1431,10.);
#433=VERTEX_POINT('',#1438);
#434=VERTEX_POINT('',#1439);
#435=VERTEX_POINT('',#1441);
#436=VERTEX_POINT('',#1443);
#437=VERTEX_POINT('',#1445);
#438=VERTEX_POINT('',#1447);
#439=VERTEX_POINT('',#1449);
#440=VERTEX_POINT('',#1451);
#441=VERTEX_POINT('',#1455);
#442=VERTEX_POINT('',#1457);
#443=VERTEX_POINT('',#1461);
#444=VERTEX_POINT('',#1462);
#445=VERTEX_POINT('',#1464);
#446=VERTEX_POINT('',#1466);
#447=VERTEX_POINT('',#1468);
#448=VERTEX_POINT('',#1470);
#449=VERTEX_POINT('',#1479);
#450=VERTEX_POINT('',#1481);
#451=VERTEX_POINT('',#1485);
#452=VERTEX_POINT('',#1487);
#453=VERTEX_POINT('',#1491);
#454=VERTEX_POINT('',#1493);
#455=VERTEX_POINT('',#1495);
#456=VERTEX_POINT('',#1497);
#457=VERTEX_POINT('',#1499);
#458=VERTEX_POINT('',#1501);
#459=VERTEX_POINT('',#1503);
#460=VERTEX_POINT('',#1505);
#461=VERTEX_POINT('',#1507);
#462=VERTEX_POINT('',#1510);
#463=VERTEX_POINT('',#1514);
#464=VERTEX_POINT('',#1520);
#465=VERTEX_POINT('',#1522);
#466=VERTEX_POINT('',#1526);
#467=VERTEX_POINT('',#1528);
#468=VERTEX_POINT('',#1535);
#469=VERTEX_POINT('',#1543);
#470=VERTEX_POINT('',#1544);
#471=VERTEX_POINT('',#1546);
#472=VERTEX_POINT('',#1548);
#473=VERTEX_POINT('',#1550);
#474=VERTEX_POINT('',#1553);
#475=VERTEX_POINT('',#1555);
#476=VERTEX_POINT('',#1557);
#477=VERTEX_POINT('',#1559);
#478=VERTEX_POINT('',#1561);
#479=VERTEX_POINT('',#1563);
#480=VERTEX_POINT('',#1565);
#481=VERTEX_POINT('',#1567);
#482=VERTEX_POINT('',#1569);
#483=VERTEX_POINT('',#1571);
#484=VERTEX_POINT('',#1573);
#485=VERTEX_POINT('',#1575);
#486=VERTEX_POINT('',#1577);
#487=VERTEX_POINT('',#1579);
#488=VERTEX_POINT('',#1582);
#489=VERTEX_POINT('',#1584);
#490=VERTEX_POINT('',#1587);
#491=VERTEX_POINT('',#1591);
#492=VERTEX_POINT('',#1595);
#493=VERTEX_POINT('',#1597);
#494=VERTEX_POINT('',#1601);
#495=VERTEX_POINT('',#1605);
#496=VERTEX_POINT('',#1609);
#497=VERTEX_POINT('',#1616);
#498=VERTEX_POINT('',#1617);
#499=VERTEX_POINT('',#1619);
#500=VERTEX_POINT('',#1621);
#501=VERTEX_POINT('',#1623);
#502=VERTEX_POINT('',#1625);
#503=VERTEX_POINT('',#1627);
#504=VERTEX_POINT('',#1629);
#505=VERTEX_POINT('',#1633);
#506=VERTEX_POINT('',#1635);
#507=VERTEX_POINT('',#1639);
#508=VERTEX_POINT('',#1640);
#509=VERTEX_POINT('',#1642);
#510=VERTEX_POINT('',#1644);
#511=VERTEX_POINT('',#1646);
#512=VERTEX_POINT('',#1648);
#513=VERTEX_POINT('',#1660);
#514=VERTEX_POINT('',#1662);
#515=VERTEX_POINT('',#1668);
#516=VERTEX_POINT('',#1674);
#517=VERTEX_POINT('',#1678);
#518=VERTEX_POINT('',#1682);
#519=VERTEX_POINT('',#1686);
#520=VERTEX_POINT('',#1690);
#521=VERTEX_POINT('',#1697);
#522=VERTEX_POINT('',#1699);
#523=VERTEX_POINT('',#1703);
#524=VERTEX_POINT('',#1705);
#525=VERTEX_POINT('',#1709);
#526=VERTEX_POINT('',#1711);
#527=VERTEX_POINT('',#1719);
#528=VERTEX_POINT('',#1721);
#529=VERTEX_POINT('',#1725);
#530=VERTEX_POINT('',#1727);
#531=VERTEX_POINT('',#1731);
#532=VERTEX_POINT('',#1733);
#533=EDGE_CURVE('',#433,#434,#155,.T.);
#534=EDGE_CURVE('',#435,#433,#156,.T.);
#535=EDGE_CURVE('',#435,#436,#157,.T.);
#536=EDGE_CURVE('',#436,#437,#158,.T.);
#537=EDGE_CURVE('',#438,#437,#159,.T.);
#538=EDGE_CURVE('',#439,#438,#160,.T.);
#539=EDGE_CURVE('',#440,#439,#161,.T.);
#540=EDGE_CURVE('',#434,#440,#162,.T.);
#541=EDGE_CURVE('',#441,#435,#163,.T.);
#542=EDGE_CURVE('',#441,#442,#164,.T.);
#543=EDGE_CURVE('',#442,#436,#165,.T.);
#544=EDGE_CURVE('',#443,#444,#166,.T.);
#545=EDGE_CURVE('',#445,#443,#167,.T.);
#546=EDGE_CURVE('',#446,#445,#168,.T.);
#547=EDGE_CURVE('',#447,#446,#169,.T.);
#548=EDGE_CURVE('',#447,#448,#170,.T.);
#549=EDGE_CURVE('',#448,#442,#171,.T.);
#550=EDGE_CURVE('',#444,#441,#172,.T.);
#551=EDGE_CURVE('',#438,#447,#173,.T.);
#552=EDGE_CURVE('',#437,#448,#174,.T.);
#553=EDGE_CURVE('',#434,#449,#175,.T.);
#554=EDGE_CURVE('',#450,#449,#176,.T.);
#555=EDGE_CURVE('',#433,#450,#177,.T.);
#556=EDGE_CURVE('',#451,#444,#178,.T.);
#557=EDGE_CURVE('',#452,#451,#179,.T.);
#558=EDGE_CURVE('',#452,#443,#180,.T.);
#559=EDGE_CURVE('',#453,#450,#181,.T.);
#560=EDGE_CURVE('',#454,#453,#182,.T.);
#561=EDGE_CURVE('',#455,#454,#183,.T.);
#562=EDGE_CURVE('',#456,#455,#184,.T.);
#563=EDGE_CURVE('',#456,#457,#185,.T.);
#564=EDGE_CURVE('',#457,#458,#186,.T.);
#565=EDGE_CURVE('',#459,#458,#187,.T.);
#566=EDGE_CURVE('',#459,#460,#188,.T.);
#567=EDGE_CURVE('',#461,#460,#189,.T.);
#568=EDGE_CURVE('',#439,#461,#190,.T.);
#569=EDGE_CURVE('',#462,#446,#191,.T.);
#570=EDGE_CURVE('',#451,#462,#192,.T.);
#571=EDGE_CURVE('',#440,#463,#193,.T.);
#572=EDGE_CURVE('',#449,#463,#194,.T.);
#573=EDGE_CURVE('',#463,#461,#195,.T.);
#574=EDGE_CURVE('',#454,#464,#196,.T.);
#575=EDGE_CURVE('',#465,#453,#197,.T.);
#576=EDGE_CURVE('',#464,#465,#198,.T.);
#577=EDGE_CURVE('',#464,#466,#199,.T.);
#578=EDGE_CURVE('',#467,#465,#200,.T.);
#579=EDGE_CURVE('',#466,#467,#201,.T.);
#580=EDGE_CURVE('',#466,#459,#202,.T.);
#581=EDGE_CURVE('',#460,#467,#203,.T.);
#582=EDGE_CURVE('',#468,#445,#204,.T.);
#583=EDGE_CURVE('',#462,#468,#205,.T.);
#584=EDGE_CURVE('',#468,#452,#206,.T.);
#585=EDGE_CURVE('',#469,#470,#207,.T.);
#586=EDGE_CURVE('',#470,#471,#208,.T.);
#587=EDGE_CURVE('',#472,#471,#209,.T.);
#588=EDGE_CURVE('',#473,#472,#210,.T.);
#589=EDGE_CURVE('',#457,#473,#211,.T.);
#590=EDGE_CURVE('',#474,#456,#212,.T.);
#591=EDGE_CURVE('',#475,#474,#213,.T.);
#592=EDGE_CURVE('',#476,#475,#214,.T.);
#593=EDGE_CURVE('',#476,#477,#215,.T.);
#594=EDGE_CURVE('',#477,#478,#216,.T.);
#595=EDGE_CURVE('',#479,#478,#217,.T.);
#596=EDGE_CURVE('',#480,#479,#218,.T.);
#597=EDGE_CURVE('',#481,#480,#219,.T.);
#598=EDGE_CURVE('',#482,#481,#220,.T.);
#599=EDGE_CURVE('',#483,#482,#221,.T.);
#600=EDGE_CURVE('',#484,#483,#222,.T.);
#601=EDGE_CURVE('',#485,#484,#223,.T.);
#602=EDGE_CURVE('',#485,#486,#224,.T.);
#603=EDGE_CURVE('',#487,#486,#225,.T.);
#604=EDGE_CURVE('',#469,#487,#226,.T.);
#605=EDGE_CURVE('',#488,#488,#29,.T.);
#606=EDGE_CURVE('',#489,#489,#30,.T.);
#607=EDGE_CURVE('',#490,#490,#31,.T.);
#608=EDGE_CURVE('',#490,#488,#227,.T.);
#609=EDGE_CURVE('',#491,#491,#32,.T.);
#610=EDGE_CURVE('',#491,#489,#228,.T.);
#611=EDGE_CURVE('',#481,#492,#229,.T.);
#612=EDGE_CURVE('',#493,#492,#230,.T.);
#613=EDGE_CURVE('',#482,#493,#231,.T.);
#614=EDGE_CURVE('',#494,#493,#232,.T.);
#615=EDGE_CURVE('',#483,#494,#233,.T.);
#616=EDGE_CURVE('',#473,#495,#234,.T.);
#617=EDGE_CURVE('',#458,#495,#235,.T.);
#618=EDGE_CURVE('',#496,#455,#236,.T.);
#619=EDGE_CURVE('',#474,#496,#237,.T.);
#620=EDGE_CURVE('',#495,#494,#238,.T.);
#621=EDGE_CURVE('',#492,#496,#239,.T.);
#622=EDGE_CURVE('',#497,#498,#240,.T.);
#623=EDGE_CURVE('',#499,#497,#241,.T.);
#624=EDGE_CURVE('',#499,#500,#242,.T.);
#625=EDGE_CURVE('',#500,#501,#243,.T.);
#626=EDGE_CURVE('',#502,#501,#244,.T.);
#627=EDGE_CURVE('',#503,#502,#245,.T.);
#628=EDGE_CURVE('',#504,#503,#246,.T.);
#629=EDGE_CURVE('',#498,#504,#247,.T.);
#630=EDGE_CURVE('',#505,#499,#248,.T.);
#631=EDGE_CURVE('',#505,#506,#249,.T.);
#632=EDGE_CURVE('',#506,#500,#250,.T.);
#633=EDGE_CURVE('',#507,#508,#251,.T.);
#634=EDGE_CURVE('',#509,#507,#252,.T.);
#635=EDGE_CURVE('',#510,#509,#253,.T.);
#636=EDGE_CURVE('',#511,#510,#254,.T.);
#637=EDGE_CURVE('',#511,#512,#255,.T.);
#638=EDGE_CURVE('',#512,#506,#256,.T.);
#639=EDGE_CURVE('',#508,#505,#257,.T.);
#640=EDGE_CURVE('',#502,#511,#258,.T.);
#641=EDGE_CURVE('',#501,#512,#259,.T.);
#642=EDGE_CURVE('',#477,#508,#260,.T.);
#643=EDGE_CURVE('',#476,#507,#261,.T.);
#644=EDGE_CURVE('',#498,#513,#262,.T.);
#645=EDGE_CURVE('',#514,#513,#263,.T.);
#646=EDGE_CURVE('',#497,#514,#264,.T.);
#647=EDGE_CURVE('',#475,#509,#265,.T.);
#648=EDGE_CURVE('',#504,#515,#266,.T.);
#649=EDGE_CURVE('',#513,#515,#267,.T.);
#650=EDGE_CURVE('',#474,#510,#268,.T.);
#651=EDGE_CURVE('',#503,#516,#269,.T.);
#652=EDGE_CURVE('',#515,#516,#270,.T.);
#653=EDGE_CURVE('',#481,#517,#271,.T.);
#654=EDGE_CURVE('',#516,#517,#272,.T.);
#655=EDGE_CURVE('',#518,#514,#273,.T.);
#656=EDGE_CURVE('',#478,#518,#274,.T.);
#657=EDGE_CURVE('',#519,#518,#275,.T.);
#658=EDGE_CURVE('',#479,#519,#276,.T.);
#659=EDGE_CURVE('',#520,#519,#277,.T.);
#660=EDGE_CURVE('',#480,#520,#278,.T.);
#661=EDGE_CURVE('',#517,#520,#279,.T.);
#662=EDGE_CURVE('',#521,#521,#33,.T.);
#663=EDGE_CURVE('',#521,#522,#280,.T.);
#664=EDGE_CURVE('',#522,#522,#34,.T.);
#665=EDGE_CURVE('',#523,#485,#281,.T.);
#666=EDGE_CURVE('',#523,#524,#282,.T.);
#667=EDGE_CURVE('',#486,#524,#283,.T.);
#668=EDGE_CURVE('',#523,#525,#35,.T.);
#669=EDGE_CURVE('',#525,#526,#284,.T.);
#670=EDGE_CURVE('',#524,#526,#36,.T.);
#671=EDGE_CURVE('',#526,#487,#285,.T.);
#672=EDGE_CURVE('',#484,#525,#286,.T.);
#673=EDGE_CURVE('',#527,#527,#37,.T.);
#674=EDGE_CURVE('',#527,#528,#287,.T.);
#675=EDGE_CURVE('',#528,#528,#38,.T.);
#676=EDGE_CURVE('',#529,#469,#288,.T.);
#677=EDGE_CURVE('',#530,#472,#289,.T.);
#678=EDGE_CURVE('',#529,#530,#290,.T.);
#679=EDGE_CURVE('',#531,#529,#39,.T.);
#680=EDGE_CURVE('',#532,#530,#40,.T.);
#681=EDGE_CURVE('',#531,#532,#291,.T.);
#682=EDGE_CURVE('',#470,#531,#292,.T.);
#683=EDGE_CURVE('',#471,#532,#293,.T.);
#684=ORIENTED_EDGE('',*,*,#533,.F.);
#685=ORIENTED_EDGE('',*,*,#534,.F.);
#686=ORIENTED_EDGE('',*,*,#535,.T.);
#687=ORIENTED_EDGE('',*,*,#536,.T.);
#688=ORIENTED_EDGE('',*,*,#537,.F.);
#689=ORIENTED_EDGE('',*,*,#538,.F.);
#690=ORIENTED_EDGE('',*,*,#539,.F.);
#691=ORIENTED_EDGE('',*,*,#540,.F.);
#692=ORIENTED_EDGE('',*,*,#541,.F.);
#693=ORIENTED_EDGE('',*,*,#542,.T.);
#694=ORIENTED_EDGE('',*,*,#543,.T.);
#695=ORIENTED_EDGE('',*,*,#535,.F.);
#696=ORIENTED_EDGE('',*,*,#544,.F.);
#697=ORIENTED_EDGE('',*,*,#545,.F.);
#698=ORIENTED_EDGE('',*,*,#546,.F.);
#699=ORIENTED_EDGE('',*,*,#547,.F.);
#700=ORIENTED_EDGE('',*,*,#548,.T.);
#701=ORIENTED_EDGE('',*,*,#549,.T.);
#702=ORIENTED_EDGE('',*,*,#542,.F.);
#703=ORIENTED_EDGE('',*,*,#550,.F.);
#704=ORIENTED_EDGE('',*,*,#551,.F.);
#705=ORIENTED_EDGE('',*,*,#537,.T.);
#706=ORIENTED_EDGE('',*,*,#552,.T.);
#707=ORIENTED_EDGE('',*,*,#548,.F.);
#708=ORIENTED_EDGE('',*,*,#536,.F.);
#709=ORIENTED_EDGE('',*,*,#543,.F.);
#710=ORIENTED_EDGE('',*,*,#549,.F.);
#711=ORIENTED_EDGE('',*,*,#552,.F.);
#712=ORIENTED_EDGE('',*,*,#533,.T.);
#713=ORIENTED_EDGE('',*,*,#553,.T.);
#714=ORIENTED_EDGE('',*,*,#554,.F.);
#715=ORIENTED_EDGE('',*,*,#555,.F.);
#716=ORIENTED_EDGE('',*,*,#544,.T.);
#717=ORIENTED_EDGE('',*,*,#556,.F.);
#718=ORIENTED_EDGE('',*,*,#557,.F.);
#719=ORIENTED_EDGE('',*,*,#558,.T.);
#720=ORIENTED_EDGE('',*,*,#550,.T.);
#721=ORIENTED_EDGE('',*,*,#541,.T.);
#722=ORIENTED_EDGE('',*,*,#534,.T.);
#723=ORIENTED_EDGE('',*,*,#555,.T.);
#724=ORIENTED_EDGE('',*,*,#559,.F.);
#725=ORIENTED_EDGE('',*,*,#560,.F.);
#726=ORIENTED_EDGE('',*,*,#561,.F.);
#727=ORIENTED_EDGE('',*,*,#562,.F.);
#728=ORIENTED_EDGE('',*,*,#563,.T.);
#729=ORIENTED_EDGE('',*,*,#564,.T.);
#730=ORIENTED_EDGE('',*,*,#565,.F.);
#731=ORIENTED_EDGE('',*,*,#566,.T.);
#732=ORIENTED_EDGE('',*,*,#567,.F.);
#733=ORIENTED_EDGE('',*,*,#568,.F.);
#734=ORIENTED_EDGE('',*,*,#538,.T.);
#735=ORIENTED_EDGE('',*,*,#551,.T.);
#736=ORIENTED_EDGE('',*,*,#547,.T.);
#737=ORIENTED_EDGE('',*,*,#569,.F.);
#738=ORIENTED_EDGE('',*,*,#570,.F.);
#739=ORIENTED_EDGE('',*,*,#556,.T.);
#740=ORIENTED_EDGE('',*,*,#540,.T.);
#741=ORIENTED_EDGE('',*,*,#571,.T.);
#742=ORIENTED_EDGE('',*,*,#572,.F.);
#743=ORIENTED_EDGE('',*,*,#553,.F.);
#744=ORIENTED_EDGE('',*,*,#539,.T.);
#745=ORIENTED_EDGE('',*,*,#568,.T.);
#746=ORIENTED_EDGE('',*,*,#573,.F.);
#747=ORIENTED_EDGE('',*,*,#571,.F.);
#748=ORIENTED_EDGE('',*,*,#574,.F.);
#749=ORIENTED_EDGE('',*,*,#560,.T.);
#750=ORIENTED_EDGE('',*,*,#575,.F.);
#751=ORIENTED_EDGE('',*,*,#576,.F.);
#752=ORIENTED_EDGE('',*,*,#577,.F.);
#753=ORIENTED_EDGE('',*,*,#576,.T.);
#754=ORIENTED_EDGE('',*,*,#578,.F.);
#755=ORIENTED_EDGE('',*,*,#579,.F.);
#756=ORIENTED_EDGE('',*,*,#580,.F.);
#757=ORIENTED_EDGE('',*,*,#579,.T.);
#758=ORIENTED_EDGE('',*,*,#581,.F.);
#759=ORIENTED_EDGE('',*,*,#566,.F.);
#760=ORIENTED_EDGE('',*,*,#546,.T.);
#761=ORIENTED_EDGE('',*,*,#582,.F.);
#762=ORIENTED_EDGE('',*,*,#583,.F.);
#763=ORIENTED_EDGE('',*,*,#569,.T.);
#764=ORIENTED_EDGE('',*,*,#545,.T.);
#765=ORIENTED_EDGE('',*,*,#558,.F.);
#766=ORIENTED_EDGE('',*,*,#584,.F.);
#767=ORIENTED_EDGE('',*,*,#582,.T.);
#768=ORIENTED_EDGE('',*,*,#572,.T.);
#769=ORIENTED_EDGE('',*,*,#573,.T.);
#770=ORIENTED_EDGE('',*,*,#567,.T.);
#771=ORIENTED_EDGE('',*,*,#581,.T.);
#772=ORIENTED_EDGE('',*,*,#578,.T.);
#773=ORIENTED_EDGE('',*,*,#575,.T.);
#774=ORIENTED_EDGE('',*,*,#559,.T.);
#775=ORIENTED_EDGE('',*,*,#554,.T.);
#776=ORIENTED_EDGE('',*,*,#583,.T.);
#777=ORIENTED_EDGE('',*,*,#584,.T.);
#778=ORIENTED_EDGE('',*,*,#557,.T.);
#779=ORIENTED_EDGE('',*,*,#570,.T.);
#780=ORIENTED_EDGE('',*,*,#585,.T.);
#781=ORIENTED_EDGE('',*,*,#586,.T.);
#782=ORIENTED_EDGE('',*,*,#587,.F.);
#783=ORIENTED_EDGE('',*,*,#588,.F.);
#784=ORIENTED_EDGE('',*,*,#589,.F.);
#785=ORIENTED_EDGE('',*,*,#563,.F.);
#786=ORIENTED_EDGE('',*,*,#590,.F.);
#787=ORIENTED_EDGE('',*,*,#591,.F.);
#788=ORIENTED_EDGE('',*,*,#592,.F.);
#789=ORIENTED_EDGE('',*,*,#593,.T.);
#790=ORIENTED_EDGE('',*,*,#594,.T.);
#791=ORIENTED_EDGE('',*,*,#595,.F.);
#792=ORIENTED_EDGE('',*,*,#596,.F.);
#793=ORIENTED_EDGE('',*,*,#597,.F.);
#794=ORIENTED_EDGE('',*,*,#598,.F.);
#795=ORIENTED_EDGE('',*,*,#599,.F.);
#796=ORIENTED_EDGE('',*,*,#600,.F.);
#797=ORIENTED_EDGE('',*,*,#601,.F.);
#798=ORIENTED_EDGE('',*,*,#602,.T.);
#799=ORIENTED_EDGE('',*,*,#603,.F.);
#800=ORIENTED_EDGE('',*,*,#604,.F.);
#801=ORIENTED_EDGE('',*,*,#605,.F.);
#802=ORIENTED_EDGE('',*,*,#606,.F.);
#803=ORIENTED_EDGE('',*,*,#607,.F.);
#804=ORIENTED_EDGE('',*,*,#608,.T.);
#805=ORIENTED_EDGE('',*,*,#605,.T.);
#806=ORIENTED_EDGE('',*,*,#608,.F.);
#807=ORIENTED_EDGE('',*,*,#609,.F.);
#808=ORIENTED_EDGE('',*,*,#610,.T.);
#809=ORIENTED_EDGE('',*,*,#606,.T.);
#810=ORIENTED_EDGE('',*,*,#610,.F.);
#811=ORIENTED_EDGE('',*,*,#598,.T.);
#812=ORIENTED_EDGE('',*,*,#611,.T.);
#813=ORIENTED_EDGE('',*,*,#612,.F.);
#814=ORIENTED_EDGE('',*,*,#613,.F.);
#815=ORIENTED_EDGE('',*,*,#599,.T.);
#816=ORIENTED_EDGE('',*,*,#613,.T.);
#817=ORIENTED_EDGE('',*,*,#614,.F.);
#818=ORIENTED_EDGE('',*,*,#615,.F.);
#819=ORIENTED_EDGE('',*,*,#589,.T.);
#820=ORIENTED_EDGE('',*,*,#616,.T.);
#821=ORIENTED_EDGE('',*,*,#617,.F.);
#822=ORIENTED_EDGE('',*,*,#564,.F.);
#823=ORIENTED_EDGE('',*,*,#590,.T.);
#824=ORIENTED_EDGE('',*,*,#562,.T.);
#825=ORIENTED_EDGE('',*,*,#618,.F.);
#826=ORIENTED_EDGE('',*,*,#619,.F.);
#827=ORIENTED_EDGE('',*,*,#580,.T.);
#828=ORIENTED_EDGE('',*,*,#565,.T.);
#829=ORIENTED_EDGE('',*,*,#617,.T.);
#830=ORIENTED_EDGE('',*,*,#620,.T.);
#831=ORIENTED_EDGE('',*,*,#614,.T.);
#832=ORIENTED_EDGE('',*,*,#612,.T.);
#833=ORIENTED_EDGE('',*,*,#621,.T.);
#834=ORIENTED_EDGE('',*,*,#618,.T.);
#835=ORIENTED_EDGE('',*,*,#561,.T.);
#836=ORIENTED_EDGE('',*,*,#574,.T.);
#837=ORIENTED_EDGE('',*,*,#577,.T.);
#838=ORIENTED_EDGE('',*,*,#609,.T.);
#839=ORIENTED_EDGE('',*,*,#607,.T.);
#840=ORIENTED_EDGE('',*,*,#622,.F.);
#841=ORIENTED_EDGE('',*,*,#623,.F.);
#842=ORIENTED_EDGE('',*,*,#624,.T.);
#843=ORIENTED_EDGE('',*,*,#625,.T.);
#844=ORIENTED_EDGE('',*,*,#626,.F.);
#845=ORIENTED_EDGE('',*,*,#627,.F.);
#846=ORIENTED_EDGE('',*,*,#628,.F.);
#847=ORIENTED_EDGE('',*,*,#629,.F.);
#848=ORIENTED_EDGE('',*,*,#630,.F.);
#849=ORIENTED_EDGE('',*,*,#631,.T.);
#850=ORIENTED_EDGE('',*,*,#632,.T.);
#851=ORIENTED_EDGE('',*,*,#624,.F.);
#852=ORIENTED_EDGE('',*,*,#633,.F.);
#853=ORIENTED_EDGE('',*,*,#634,.F.);
#854=ORIENTED_EDGE('',*,*,#635,.F.);
#855=ORIENTED_EDGE('',*,*,#636,.F.);
#856=ORIENTED_EDGE('',*,*,#637,.T.);
#857=ORIENTED_EDGE('',*,*,#638,.T.);
#858=ORIENTED_EDGE('',*,*,#631,.F.);
#859=ORIENTED_EDGE('',*,*,#639,.F.);
#860=ORIENTED_EDGE('',*,*,#640,.F.);
#861=ORIENTED_EDGE('',*,*,#626,.T.);
#862=ORIENTED_EDGE('',*,*,#641,.T.);
#863=ORIENTED_EDGE('',*,*,#637,.F.);
#864=ORIENTED_EDGE('',*,*,#625,.F.);
#865=ORIENTED_EDGE('',*,*,#632,.F.);
#866=ORIENTED_EDGE('',*,*,#638,.F.);
#867=ORIENTED_EDGE('',*,*,#641,.F.);
#868=ORIENTED_EDGE('',*,*,#633,.T.);
#869=ORIENTED_EDGE('',*,*,#642,.F.);
#870=ORIENTED_EDGE('',*,*,#593,.F.);
#871=ORIENTED_EDGE('',*,*,#643,.T.);
#872=ORIENTED_EDGE('',*,*,#622,.T.);
#873=ORIENTED_EDGE('',*,*,#644,.T.);
#874=ORIENTED_EDGE('',*,*,#645,.F.);
#875=ORIENTED_EDGE('',*,*,#646,.F.);
#876=ORIENTED_EDGE('',*,*,#634,.T.);
#877=ORIENTED_EDGE('',*,*,#643,.F.);
#878=ORIENTED_EDGE('',*,*,#592,.T.);
#879=ORIENTED_EDGE('',*,*,#647,.T.);
#880=ORIENTED_EDGE('',*,*,#629,.T.);
#881=ORIENTED_EDGE('',*,*,#648,.T.);
#882=ORIENTED_EDGE('',*,*,#649,.F.);
#883=ORIENTED_EDGE('',*,*,#644,.F.);
#884=ORIENTED_EDGE('',*,*,#635,.T.);
#885=ORIENTED_EDGE('',*,*,#647,.F.);
#886=ORIENTED_EDGE('',*,*,#591,.T.);
#887=ORIENTED_EDGE('',*,*,#650,.T.);
#888=ORIENTED_EDGE('',*,*,#628,.T.);
#889=ORIENTED_EDGE('',*,*,#651,.T.);
#890=ORIENTED_EDGE('',*,*,#652,.F.);
#891=ORIENTED_EDGE('',*,*,#648,.F.);
#892=ORIENTED_EDGE('',*,*,#627,.T.);
#893=ORIENTED_EDGE('',*,*,#640,.T.);
#894=ORIENTED_EDGE('',*,*,#636,.T.);
#895=ORIENTED_EDGE('',*,*,#650,.F.);
#896=ORIENTED_EDGE('',*,*,#619,.T.);
#897=ORIENTED_EDGE('',*,*,#621,.F.);
#898=ORIENTED_EDGE('',*,*,#611,.F.);
#899=ORIENTED_EDGE('',*,*,#653,.T.);
#900=ORIENTED_EDGE('',*,*,#654,.F.);
#901=ORIENTED_EDGE('',*,*,#651,.F.);
#902=ORIENTED_EDGE('',*,*,#623,.T.);
#903=ORIENTED_EDGE('',*,*,#646,.T.);
#904=ORIENTED_EDGE('',*,*,#655,.F.);
#905=ORIENTED_EDGE('',*,*,#656,.F.);
#906=ORIENTED_EDGE('',*,*,#594,.F.);
#907=ORIENTED_EDGE('',*,*,#642,.T.);
#908=ORIENTED_EDGE('',*,*,#639,.T.);
#909=ORIENTED_EDGE('',*,*,#630,.T.);
#910=ORIENTED_EDGE('',*,*,#595,.T.);
#911=ORIENTED_EDGE('',*,*,#656,.T.);
#912=ORIENTED_EDGE('',*,*,#657,.F.);
#913=ORIENTED_EDGE('',*,*,#658,.F.);
#914=ORIENTED_EDGE('',*,*,#596,.T.);
#915=ORIENTED_EDGE('',*,*,#658,.T.);
#916=ORIENTED_EDGE('',*,*,#659,.F.);
#917=ORIENTED_EDGE('',*,*,#660,.F.);
#918=ORIENTED_EDGE('',*,*,#597,.T.);
#919=ORIENTED_EDGE('',*,*,#660,.T.);
#920=ORIENTED_EDGE('',*,*,#661,.F.);
#921=ORIENTED_EDGE('',*,*,#653,.F.);
#922=ORIENTED_EDGE('',*,*,#661,.T.);
#923=ORIENTED_EDGE('',*,*,#659,.T.);
#924=ORIENTED_EDGE('',*,*,#657,.T.);
#925=ORIENTED_EDGE('',*,*,#655,.T.);
#926=ORIENTED_EDGE('',*,*,#645,.T.);
#927=ORIENTED_EDGE('',*,*,#649,.T.);
#928=ORIENTED_EDGE('',*,*,#652,.T.);
#929=ORIENTED_EDGE('',*,*,#654,.T.);
#930=ORIENTED_EDGE('',*,*,#662,.F.);
#931=ORIENTED_EDGE('',*,*,#663,.T.);
#932=ORIENTED_EDGE('',*,*,#664,.T.);
#933=ORIENTED_EDGE('',*,*,#663,.F.);
#934=ORIENTED_EDGE('',*,*,#665,.F.);
#935=ORIENTED_EDGE('',*,*,#666,.T.);
#936=ORIENTED_EDGE('',*,*,#667,.F.);
#937=ORIENTED_EDGE('',*,*,#602,.F.);
#938=ORIENTED_EDGE('',*,*,#668,.T.);
#939=ORIENTED_EDGE('',*,*,#669,.T.);
#940=ORIENTED_EDGE('',*,*,#670,.F.);
#941=ORIENTED_EDGE('',*,*,#666,.F.);
#942=ORIENTED_EDGE('',*,*,#670,.T.);
#943=ORIENTED_EDGE('',*,*,#671,.T.);
#944=ORIENTED_EDGE('',*,*,#603,.T.);
#945=ORIENTED_EDGE('',*,*,#667,.T.);
#946=ORIENTED_EDGE('',*,*,#662,.T.);
#947=ORIENTED_EDGE('',*,*,#668,.F.);
#948=ORIENTED_EDGE('',*,*,#665,.T.);
#949=ORIENTED_EDGE('',*,*,#601,.T.);
#950=ORIENTED_EDGE('',*,*,#672,.T.);
#951=ORIENTED_EDGE('',*,*,#664,.F.);
#952=ORIENTED_EDGE('',*,*,#673,.F.);
#953=ORIENTED_EDGE('',*,*,#674,.T.);
#954=ORIENTED_EDGE('',*,*,#675,.T.);
#955=ORIENTED_EDGE('',*,*,#674,.F.);
#956=ORIENTED_EDGE('',*,*,#676,.T.);
#957=ORIENTED_EDGE('',*,*,#604,.T.);
#958=ORIENTED_EDGE('',*,*,#671,.F.);
#959=ORIENTED_EDGE('',*,*,#669,.F.);
#960=ORIENTED_EDGE('',*,*,#672,.F.);
#961=ORIENTED_EDGE('',*,*,#600,.T.);
#962=ORIENTED_EDGE('',*,*,#615,.T.);
#963=ORIENTED_EDGE('',*,*,#620,.F.);
#964=ORIENTED_EDGE('',*,*,#616,.F.);
#965=ORIENTED_EDGE('',*,*,#588,.T.);
#966=ORIENTED_EDGE('',*,*,#677,.F.);
#967=ORIENTED_EDGE('',*,*,#678,.F.);
#968=ORIENTED_EDGE('',*,*,#679,.T.);
#969=ORIENTED_EDGE('',*,*,#678,.T.);
#970=ORIENTED_EDGE('',*,*,#680,.F.);
#971=ORIENTED_EDGE('',*,*,#681,.F.);
#972=ORIENTED_EDGE('',*,*,#682,.T.);
#973=ORIENTED_EDGE('',*,*,#681,.T.);
#974=ORIENTED_EDGE('',*,*,#683,.F.);
#975=ORIENTED_EDGE('',*,*,#586,.F.);
#976=ORIENTED_EDGE('',*,*,#683,.T.);
#977=ORIENTED_EDGE('',*,*,#680,.T.);
#978=ORIENTED_EDGE('',*,*,#677,.T.);
#979=ORIENTED_EDGE('',*,*,#587,.T.);
#980=ORIENTED_EDGE('',*,*,#673,.T.);
#981=ORIENTED_EDGE('',*,*,#682,.F.);
#982=ORIENTED_EDGE('',*,*,#585,.F.);
#983=ORIENTED_EDGE('',*,*,#676,.F.);
#984=ORIENTED_EDGE('',*,*,#679,.F.);
#985=ORIENTED_EDGE('',*,*,#675,.F.);
#986=PLANE('',#1100);
#987=PLANE('',#1101);
#988=PLANE('',#1102);
#989=PLANE('',#1103);
#990=PLANE('',#1104);
#991=PLANE('',#1105);
#992=PLANE('',#1106);
#993=PLANE('',#1107);
#994=PLANE('',#1108);
#995=PLANE('',#1109);
#996=PLANE('',#1110);
#997=PLANE('',#1111);
#998=PLANE('',#1112);
#999=PLANE('',#1113);
#1000=PLANE('',#1114);
#1001=PLANE('',#1115);
#1002=PLANE('',#1116);
#1003=PLANE('',#1117);
#1004=PLANE('',#1124);
#1005=PLANE('',#1125);
#1006=PLANE('',#1126);
#1007=PLANE('',#1127);
#1008=PLANE('',#1128);
#1009=PLANE('',#1129);
#1010=PLANE('',#1130);
#1011=PLANE('',#1131);
#1012=PLANE('',#1132);
#1013=PLANE('',#1133);
#1014=PLANE('',#1134);
#1015=PLANE('',#1135);
#1016=PLANE('',#1136);
#1017=PLANE('',#1137);
#1018=PLANE('',#1138);
#1019=PLANE('',#1139);
#1020=PLANE('',#1140);
#1021=PLANE('',#1141);
#1022=PLANE('',#1142);
#1023=PLANE('',#1143);
#1024=PLANE('',#1144);
#1025=PLANE('',#1145);
#1026=PLANE('',#1149);
#1027=PLANE('',#1153);
#1028=PLANE('',#1154);
#1029=PLANE('',#1158);
#1030=PLANE('',#1162);
#1031=PLANE('',#1163);
#1032=PLANE('',#1164);
#1033=ADVANCED_FACE('',(#41),#986,.F.);
#1034=ADVANCED_FACE('',(#42),#987,.F.);
#1035=ADVANCED_FACE('',(#43),#988,.F.);
#1036=ADVANCED_FACE('',(#44),#989,.F.);
#1037=ADVANCED_FACE('',(#45),#990,.F.);
#1038=ADVANCED_FACE('',(#46),#991,.T.);
#1039=ADVANCED_FACE('',(#47),#992,.T.);
#1040=ADVANCED_FACE('',(#48),#993,.T.);
#1041=ADVANCED_FACE('',(#49),#994,.T.);
#1042=ADVANCED_FACE('',(#50),#995,.T.);
#1043=ADVANCED_FACE('',(#51),#996,.T.);
#1044=ADVANCED_FACE('',(#52),#997,.T.);
#1045=ADVANCED_FACE('',(#53),#998,.T.);
#1046=ADVANCED_FACE('',(#54),#999,.T.);
#1047=ADVANCED_FACE('',(#55),#1000,.T.);
#1048=ADVANCED_FACE('',(#56),#1001,.T.);
#1049=ADVANCED_FACE('',(#57),#1002,.T.);
#1050=ADVANCED_FACE('',(#58,#21,#22),#1003,.F.);
#1051=ADVANCED_FACE('',(#59),#15,.F.);
#1052=ADVANCED_FACE('',(#60),#16,.F.);
#1053=ADVANCED_FACE('',(#61),#1004,.T.);
#1054=ADVANCED_FACE('',(#62),#1005,.T.);
#1055=ADVANCED_FACE('',(#63),#1006,.T.);
#1056=ADVANCED_FACE('',(#64),#1007,.T.);
#1057=ADVANCED_FACE('',(#65,#23,#24),#1008,.T.);
#1058=ADVANCED_FACE('',(#66),#1009,.F.);
#1059=ADVANCED_FACE('',(#67),#1010,.F.);
#1060=ADVANCED_FACE('',(#68),#1011,.F.);
#1061=ADVANCED_FACE('',(#69),#1012,.F.);
#1062=ADVANCED_FACE('',(#70),#1013,.F.);
#1063=ADVANCED_FACE('',(#71),#1014,.T.);
#1064=ADVANCED_FACE('',(#72),#1015,.T.);
#1065=ADVANCED_FACE('',(#73),#1016,.T.);
#1066=ADVANCED_FACE('',(#74),#1017,.T.);
#1067=ADVANCED_FACE('',(#75),#1018,.T.);
#1068=ADVANCED_FACE('',(#76),#1019,.T.);
#1069=ADVANCED_FACE('',(#77),#1020,.T.);
#1070=ADVANCED_FACE('',(#78),#1021,.T.);
#1071=ADVANCED_FACE('',(#79),#1022,.T.);
#1072=ADVANCED_FACE('',(#80),#1023,.T.);
#1073=ADVANCED_FACE('',(#81),#1024,.T.);
#1074=ADVANCED_FACE('',(#82),#1025,.T.);
#1075=ADVANCED_FACE('',(#83),#17,.F.);
#1076=ADVANCED_FACE('',(#84),#1026,.T.);
#1077=ADVANCED_FACE('',(#85),#18,.T.);
#1078=ADVANCED_FACE('',(#86,#25),#1027,.T.);
#1079=ADVANCED_FACE('',(#87,#26),#1028,.F.);
#1080=ADVANCED_FACE('',(#88),#19,.F.);
#1081=ADVANCED_FACE('',(#89),#1029,.T.);
#1082=ADVANCED_FACE('',(#90),#20,.T.);
#1083=ADVANCED_FACE('',(#91),#1030,.T.);
#1084=ADVANCED_FACE('',(#92,#27),#1031,.T.);
#1085=ADVANCED_FACE('',(#93,#28),#1032,.F.);
#1086=CLOSED_SHELL('',(#1033,#1034,#1035,#1036,#1037,#1038,#1039,#1040,
#1041,#1042,#1043,#1044,#1045,#1046,#1047,#1048,#1049,#1050,#1051,#1052,
#1053,#1054,#1055,#1056,#1057,#1058,#1059,#1060,#1061,#1062,#1063,#1064,
#1065,#1066,#1067,#1068,#1069,#1070,#1071,#1072,#1073,#1074,#1075,#1076,
#1077,#1078,#1079,#1080,#1081,#1082,#1083,#1084,#1085));
#1087=DERIVED_UNIT_ELEMENT(#1089,1.);
#1088=DERIVED_UNIT_ELEMENT(#1746,-3.);
#1089=(
MASS_UNIT()
NAMED_UNIT(*)
SI_UNIT(.KILO.,.GRAM.)
);
#1090=DERIVED_UNIT((#1087,#1088));
#1091=MEASURE_REPRESENTATION_ITEM('density measure',
POSITIVE_RATIO_MEASURE(7850.),#1090);
#1092=PROPERTY_DEFINITION_REPRESENTATION(#1097,#1094);
#1093=PROPERTY_DEFINITION_REPRESENTATION(#1098,#1095);
#1094=REPRESENTATION('material name',(#1096),#1743);
#1095=REPRESENTATION('density',(#1091),#1743);
#1096=DESCRIPTIVE_REPRESENTATION_ITEM('Steel','Steel');
#1097=PROPERTY_DEFINITION('material property','material name',#1753);
#1098=PROPERTY_DEFINITION('material property','density of part',#1753);
#1099=AXIS2_PLACEMENT_3D('',#1436,#1165,#1166);
#1100=AXIS2_PLACEMENT_3D('',#1437,#1167,#1168);
#1101=AXIS2_PLACEMENT_3D('',#1454,#1177,#1178);
#1102=AXIS2_PLACEMENT_3D('',#1460,#1182,#1183);
#1103=AXIS2_PLACEMENT_3D('',#1474,#1191,#1192);
#1104=AXIS2_PLACEMENT_3D('',#1477,#1195,#1196);
#1105=AXIS2_PLACEMENT_3D('',#1478,#1197,#1198);
#1106=AXIS2_PLACEMENT_3D('',#1484,#1202,#1203);
#1107=AXIS2_PLACEMENT_3D('',#1490,#1207,#1208);
#1108=AXIS2_PLACEMENT_3D('',#1513,#1221,#1222);
#1109=AXIS2_PLACEMENT_3D('',#1517,#1225,#1226);
#1110=AXIS2_PLACEMENT_3D('',#1519,#1228,#1229);
#1111=AXIS2_PLACEMENT_3D('',#1525,#1233,#1234);
#1112=AXIS2_PLACEMENT_3D('',#1531,#1238,#1239);
#1113=AXIS2_PLACEMENT_3D('',#1534,#1242,#1243);
#1114=AXIS2_PLACEMENT_3D('',#1538,#1246,#1247);
#1115=AXIS2_PLACEMENT_3D('',#1540,#1249,#1250);
#1116=AXIS2_PLACEMENT_3D('',#1541,#1251,#1252);
#1117=AXIS2_PLACEMENT_3D('',#1542,#1253,#1254);
#1118=AXIS2_PLACEMENT_3D('',#1583,#1275,#1276);
#1119=AXIS2_PLACEMENT_3D('',#1585,#1277,#1278);
#1120=AXIS2_PLACEMENT_3D('',#1586,#1279,#1280);
#1121=AXIS2_PLACEMENT_3D('',#1588,#1281,#1282);
#1122=AXIS2_PLACEMENT_3D('',#1590,#1284,#1285);
#1123=AXIS2_PLACEMENT_3D('',#1592,#1286,#1287);
#1124=AXIS2_PLACEMENT_3D('',#1594,#1289,#1290);
#1125=AXIS2_PLACEMENT_3D('',#1600,#1294,#1295);
#1126=AXIS2_PLACEMENT_3D('',#1604,#1298,#1299);
#1127=AXIS2_PLACEMENT_3D('',#1608,#1302,#1303);
#1128=AXIS2_PLACEMENT_3D('',#1612,#1306,#1307);
#1129=AXIS2_PLACEMENT_3D('',#1615,#1310,#1311);
#1130=AXIS2_PLACEMENT_3D('',#1632,#1320,#1321);
#1131=AXIS2_PLACEMENT_3D('',#1638,#1325,#1326);
#1132=AXIS2_PLACEMENT_3D('',#1652,#1334,#1335);
#1133=AXIS2_PLACEMENT_3D('',#1655,#1338,#1339);
#1134=AXIS2_PLACEMENT_3D('',#1656,#1340,#1341);
#1135=AXIS2_PLACEMENT_3D('',#1659,#1344,#1345);
#1136=AXIS2_PLACEMENT_3D('',#1665,#1349,#1350);
#1137=AXIS2_PLACEMENT_3D('',#1667,#1352,#1353);
#1138=AXIS2_PLACEMENT_3D('',#1671,#1356,#1357);
#1139=AXIS2_PLACEMENT_3D('',#1673,#1359,#1360);
#1140=AXIS2_PLACEMENT_3D('',#1677,#1363,#1364);
#1141=AXIS2_PLACEMENT_3D('',#1681,#1367,#1368);
#1142=AXIS2_PLACEMENT_3D('',#1685,#1371,#1372);
#1143=AXIS2_PLACEMENT_3D('',#1689,#1375,#1376);
#1144=AXIS2_PLACEMENT_3D('',#1693,#1379,#1380);
#1145=AXIS2_PLACEMENT_3D('',#1695,#1382,#1383);
#1146=AXIS2_PLACEMENT_3D('',#1696,#1384,#1385);
#1147=AXIS2_PLACEMENT_3D('',#1698,#1386,#1387);
#1148=AXIS2_PLACEMENT_3D('',#1701,#1389,#1390);
#1149=AXIS2_PLACEMENT_3D('',#1702,#1391,#1392);
#1150=AXIS2_PLACEMENT_3D('',#1708,#1396,#1397);
#1151=AXIS2_PLACEMENT_3D('',#1710,#1398,#1399);
#1152=AXIS2_PLACEMENT_3D('',#1713,#1401,#1402);
#1153=AXIS2_PLACEMENT_3D('',#1714,#1403,#1404);
#1154=AXIS2_PLACEMENT_3D('',#1716,#1406,#1407);
#1155=AXIS2_PLACEMENT_3D('',#1718,#1409,#1410);
#1156=AXIS2_PLACEMENT_3D('',#1720,#1411,#1412);
#1157=AXIS2_PLACEMENT_3D('',#1723,#1414,#1415);
#1158=AXIS2_PLACEMENT_3D('',#1724,#1416,#1417);
#1159=AXIS2_PLACEMENT_3D('',#1730,#1421,#1422);
#1160=AXIS2_PLACEMENT_3D('',#1732,#1423,#1424);
#1161=AXIS2_PLACEMENT_3D('',#1734,#1425,#1426);
#1162=AXIS2_PLACEMENT_3D('',#1736,#1428,#1429);
#1163=AXIS2_PLACEMENT_3D('',#1739,#1432,#1433);
#1164=AXIS2_PLACEMENT_3D('',#1740,#1434,#1435);
#1165=DIRECTION('axis',(0.,0.,1.));
#1166=DIRECTION('refdir',(1.,0.,0.));
#1167=DIRECTION('center_axis',(-8.23825573478926E-9,1.,-8.93444658287575E-9));
#1168=DIRECTION('ref_axis',(-1.21140180242822E-9,8.93444657289592E-9,1.));
#1169=DIRECTION('',(1.,8.23825573478926E-9,-4.89804275569922E-16));
#1170=DIRECTION('',(-2.96059473233375E-16,8.93444658287575E-9,1.));
#1171=DIRECTION('',(1.,8.23825573969029E-9,5.485544286694E-10));
#1172=DIRECTION('',(-1.21140180242822E-9,8.93444657289592E-9,1.));
#1173=DIRECTION('',(1.,8.23825573969029E-9,5.485544286694E-10));
#1174=DIRECTION('',(-2.96059473233375E-16,8.93444658287575E-9,1.));
#1175=DIRECTION('',(-1.,-8.23825573478926E-9,4.89804275569922E-16));
#1176=DIRECTION('',(0.,8.93444658287575E-9,1.));
#1177=DIRECTION('center_axis',(5.48554428654219E-10,1.84269247140434E-12,
-1.));
#1178=DIRECTION('ref_axis',(4.45044013827048E-10,1.,1.84269271553521E-12));
#1179=DIRECTION('',(-5.45546562415075E-28,1.,1.84269247140434E-12));
#1180=DIRECTION('',(1.,8.23825573969029E-9,5.485544286694E-10));
#1181=DIRECTION('',(4.45044013827048E-10,1.,1.84269271553521E-12));
#1182=DIRECTION('center_axis',(8.23825577455199E-9,-0.999999999999998,-6.35519712838262E-8));
#1183=DIRECTION('ref_axis',(5.48553910641308E-10,6.35519712883454E-8,-0.999999999999998));
#1184=DIRECTION('',(-1.,-8.23825577455204E-9,4.89804275569922E-16));
#1185=DIRECTION('',(0.,6.35519712838262E-8,-0.999999999999998));
#1186=DIRECTION('',(1.,8.23825577455204E-9,-4.89804275569922E-16));
#1187=DIRECTION('',(2.96059473233374E-16,6.35519712838262E-8,-0.999999999999998));
#1188=DIRECTION('',(1.,8.23825573969029E-9,5.485544286694E-10));
#1189=DIRECTION('',(5.48553910641308E-10,6.35519712883454E-8,-0.999999999999998));
#1190=DIRECTION('',(2.96059473233374E-16,6.35519712838262E-8,-0.999999999999998));
#1191=DIRECTION('center_axis',(-5.48553978745075E-10,-5.4614027343415E-8,
0.999999999999999));
#1192=DIRECTION('ref_axis',(8.23825580736172E-9,-0.999999999999998,-5.46140273388959E-8));
#1193=DIRECTION('',(1.61690001664446E-23,-0.999999999999999,-5.4614027343415E-8));
#1194=DIRECTION('',(8.23825580736172E-9,-0.999999999999998,-5.46140273388959E-8));
#1195=DIRECTION('center_axis',(1.,8.23825573969029E-9,5.485544286694E-10));
#1196=DIRECTION('ref_axis',(5.485544286694E-10,0.,-1.));
#1197=DIRECTION('center_axis',(4.89804275569922E-16,0.,1.));
#1198=DIRECTION('ref_axis',(1.,0.,-4.89804275569922E-16));
#1199=DIRECTION('',(0.,1.,0.));
#1200=DIRECTION('',(1.,0.,-4.89804275569922E-16));
#1201=DIRECTION('',(0.,1.,0.));
#1202=DIRECTION('center_axis',(4.89804275569922E-16,0.,1.));
#1203=DIRECTION('ref_axis',(1.,0.,-4.89804275569922E-16));
#1204=DIRECTION('',(0.,1.,0.));
#1205=DIRECTION('',(-1.,9.73758679957687E-47,4.89804275569922E-16));
#1206=DIRECTION('',(0.,1.,0.));
#1207=DIRECTION('center_axis',(-1.,0.,-2.96059473233375E-16));
#1208=DIRECTION('ref_axis',(-2.96059473233375E-16,1.98805671678682E-31,
1.));
#1209=DIRECTION('',(0.,0.,1.));
#1210=DIRECTION('',(0.,1.,0.));
#1211=DIRECTION('',(-2.96059473233375E-16,1.98805671678682E-31,1.));
#1212=DIRECTION('',(0.,1.,0.));
#1213=DIRECTION('',(-2.96059473233375E-16,1.98805671678682E-31,1.));
#1214=DIRECTION('',(0.,1.,0.));
#1215=DIRECTION('',(-2.96059473233375E-16,1.98805671678682E-31,1.));
#1216=DIRECTION('',(0.,1.,0.));
#1217=DIRECTION('',(0.,0.,1.));
#1218=DIRECTION('',(0.,1.,0.));
#1219=DIRECTION('',(0.,1.,0.));
#1220=DIRECTION('',(-2.96059473233375E-16,1.98805671678682E-31,1.));
#1221=DIRECTION('center_axis',(-1.,0.,0.));
#1222=DIRECTION('ref_axis',(0.,0.,1.));
#1223=DIRECTION('',(0.,1.,0.));
#1224=DIRECTION('',(0.,0.,1.));
#1225=DIRECTION('center_axis',(-4.89804275569922E-16,0.,-1.));
#1226=DIRECTION('ref_axis',(-1.,0.,4.89804275569922E-16));
#1227=DIRECTION('',(-1.,0.,4.89804275569922E-16));
#1228=DIRECTION('center_axis',(0.,0.,-1.));
#1229=DIRECTION('ref_axis',(-1.,0.,0.));
#1230=DIRECTION('',(1.,0.,0.));
#1231=DIRECTION('',(-1.,0.,0.));
#1232=DIRECTION('',(0.,1.,0.));
#1233=DIRECTION('center_axis',(1.,0.,0.));
#1234=DIRECTION('ref_axis',(0.,0.,-1.));
#1235=DIRECTION('',(0.,1.98805671678682E-31,1.));
#1236=DIRECTION('',(0.,0.,-1.));
#1237=DIRECTION('',(0.,1.,0.));
#1238=DIRECTION('center_axis',(0.,0.,1.));
#1239=DIRECTION('ref_axis',(1.,0.,0.));
#1240=DIRECTION('',(-1.,0.,0.));
#1241=DIRECTION('',(1.,0.,0.));
#1242=DIRECTION('center_axis',(-4.89804275569922E-16,0.,-1.));
#1243=DIRECTION('ref_axis',(-1.,0.,4.89804275569922E-16));
#1244=DIRECTION('',(0.,1.,0.));
#1245=DIRECTION('',(1.,-9.73758679957687E-47,-4.89804275569922E-16));
#1246=DIRECTION('center_axis',(-1.,0.,0.));
#1247=DIRECTION('ref_axis',(0.,0.,1.));
#1248=DIRECTION('',(0.,-1.98805671678682E-31,-1.));
#1249=DIRECTION('center_axis',(0.,1.,0.));
#1250=DIRECTION('ref_axis',(0.,0.,1.));
#1251=DIRECTION('center_axis',(0.,1.,-1.98805671678682E-31));
#1252=DIRECTION('ref_axis',(-1.,0.,0.));
#1253=DIRECTION('center_axis',(0.,1.,-1.98805671678682E-31));
#1254=DIRECTION('ref_axis',(-1.,0.,0.));
#1255=DIRECTION('',(-1.,1.45968590033835E-47,1.48029736616688E-16));
#1256=DIRECTION('',(0.,1.98805671678682E-31,1.));
#1257=DIRECTION('',(-1.,1.45968590033835E-47,1.48029736616688E-16));
#1258=DIRECTION('',(1.48029736616688E-16,-1.98805671678682E-31,-1.));
#1259=DIRECTION('',(1.,-2.35433209731992E-47,-1.1842378929335E-16));
#1260=DIRECTION('',(-1.,0.,0.));
#1261=DIRECTION('',(-1.,0.,0.));
#1262=DIRECTION('',(0.,-1.98805671678682E-31,-1.));
#1263=DIRECTION('',(-1.,0.,0.));
#1264=DIRECTION('',(0.,1.98805671678682E-31,1.));
#1265=DIRECTION('',(-1.,1.63496664829404E-47,8.22394368575431E-17));
#1266=DIRECTION('',(0.,1.98805671678682E-31,1.));
#1267=DIRECTION('',(1.,-5.94242476486999E-46,-2.98906198937542E-15));
#1268=DIRECTION('',(-2.96059473233375E-16,1.98805671678682E-31,1.));
#1269=DIRECTION('',(-1.,-7.06299629195976E-47,-3.5527136788005E-16));
#1270=DIRECTION('',(1.48029736616688E-16,-1.98805671678682E-31,-1.));
#1271=DIRECTION('',(1.,0.,0.));
#1272=DIRECTION('',(0.,1.98805671678682E-31,1.));
#1273=DIRECTION('',(-1.,0.,0.));
#1274=DIRECTION('',(1.48029736616688E-16,-1.98805671678682E-31,-1.));
#1275=DIRECTION('center_axis',(0.,-1.,1.98805671678682E-31));
#1276=DIRECTION('ref_axis',(-1.,0.,0.));
#1277=DIRECTION('center_axis',(0.,-1.,1.98805671678682E-31));
#1278=DIRECTION('ref_axis',(-1.,0.,0.));
#1279=DIRECTION('center_axis',(0.,1.,0.));
#1280=DIRECTION('ref_axis',(-1.,0.,0.));
#1281=DIRECTION('center_axis',(0.,-1.,1.98805671678682E-31));
#1282=DIRECTION('ref_axis',(-1.,0.,0.));
#1283=DIRECTION('',(0.,-1.,0.));
#1284=DIRECTION('center_axis',(0.,1.,0.));
#1285=DIRECTION('ref_axis',(-1.,0.,0.));
#1286=DIRECTION('center_axis',(0.,-1.,1.98805671678682E-31));
#1287=DIRECTION('ref_axis',(-1.,0.,0.));
#1288=DIRECTION('',(0.,-1.,0.));
#1289=DIRECTION('center_axis',(-1.,0.,-2.96059473233375E-16));
#1290=DIRECTION('ref_axis',(-2.96059473233375E-16,1.98805671678682E-31,
1.));
#1291=DIRECTION('',(0.,1.,0.));
#1292=DIRECTION('',(-2.96059473233375E-16,1.98805671678682E-31,1.));
#1293=DIRECTION('',(0.,1.,0.));
#1294=DIRECTION('center_axis',(3.5527136788005E-16,0.,-1.));
#1295=DIRECTION('ref_axis',(-1.,-7.06299629195976E-47,-3.5527136788005E-16));
#1296=DIRECTION('',(-1.,-7.06299629195976E-47,-3.5527136788005E-16));
#1297=DIRECTION('',(0.,1.,0.));
#1298=DIRECTION('center_axis',(1.1842378929335E-16,0.,1.));
#1299=DIRECTION('ref_axis',(1.,-2.35433209731992E-47,-1.1842378929335E-16));
#1300=DIRECTION('',(0.,1.,0.));
#1301=DIRECTION('',(1.,-2.35433209731992E-47,-1.1842378929335E-16));
#1302=DIRECTION('center_axis',(0.,0.,-1.));
#1303=DIRECTION('ref_axis',(-1.,0.,0.));
#1304=DIRECTION('',(-1.,0.,0.));
#1305=DIRECTION('',(0.,1.,0.));
#1306=DIRECTION('center_axis',(0.,1.,-1.98805671678682E-31));
#1307=DIRECTION('ref_axis',(-1.,0.,0.));
#1308=DIRECTION('',(1.48029736616688E-16,-1.98805671678682E-31,-1.));
#1309=DIRECTION('',(8.4423330603148E-6,1.98805671671598E-31,0.999999999964363));
#1310=DIRECTION('center_axis',(-5.59597597357432E-19,-1.,-6.37834012161998E-14));
#1311=DIRECTION('ref_axis',(-8.77340497297372E-6,6.37834012186546E-14,-0.999999999961514));
#1312=DIRECTION('',(1.,-5.59597597357432E-19,0.));
#1313=DIRECTION('',(0.,6.37834012161998E-14,-1.));
#1314=DIRECTION('',(0.999999999961514,0.,-8.77340478346531E-6));
#1315=DIRECTION('',(-8.77340497297372E-6,6.37834012186546E-14,-0.999999999961514));
#1316=DIRECTION('',(0.999999999961514,0.,-8.77340478346531E-6));
#1317=DIRECTION('',(-8.4423330603148E-6,6.37834012186511E-14,-0.999999999964363));
#1318=DIRECTION('',(-1.,5.59597597357432E-19,0.));
#1319=DIRECTION('',(0.,6.37834012161998E-14,-1.));
#1320=DIRECTION('center_axis',(8.77340478346531E-6,3.60352728889754E-12,
0.999999999961514));
#1321=DIRECTION('ref_axis',(6.9024151473826E-12,-1.,3.60346673135415E-12));
#1322=DIRECTION('',(0.,-1.,3.60352728903622E-12));
#1323=DIRECTION('',(0.999999999961514,0.,-8.77340478346531E-6));
#1324=DIRECTION('',(6.9024151473826E-12,-1.,3.60346673135415E-12));
#1325=DIRECTION('center_axis',(5.16816074556096E-19,1.,5.89071275396088E-14));
#1326=DIRECTION('ref_axis',(8.77340478349653E-6,-5.89071275418759E-14,0.999999999961514));
#1327=DIRECTION('',(-1.,5.16816074556096E-19,0.));
#1328=DIRECTION('',(0.,-5.89071275396088E-14,1.));
#1329=DIRECTION('',(1.,-5.16816074556096E-19,0.));
#1330=DIRECTION('',(8.4423330603148E-6,-5.89071275418727E-14,0.999999999964363));
#1331=DIRECTION('',(0.999999999961514,0.,-8.77340478346531E-6));
#1332=DIRECTION('',(8.77340478349653E-6,-5.89071275418759E-14,0.999999999961514));
#1333=DIRECTION('',(0.,-5.89071275396088E-14,1.));
#1334=DIRECTION('center_axis',(-8.77340478346531E-6,1.58603289226061E-15,
-0.999999999961514));
#1335=DIRECTION('ref_axis',(0.,1.,1.58603289232165E-15));
#1336=DIRECTION('',(1.33898179210792E-20,1.,1.58603289220418E-15));
#1337=DIRECTION('',(0.,1.,1.58603289232165E-15));
#1338=DIRECTION('center_axis',(0.999999999961514,0.,-8.77340478346531E-6));
#1339=DIRECTION('ref_axis',(-8.77340478346531E-6,0.,-0.999999999961514));
#1340=DIRECTION('center_axis',(0.,0.,-1.));
#1341=DIRECTION('ref_axis',(1.,0.,0.));
#1342=DIRECTION('',(0.,-1.,0.));
#1343=DIRECTION('',(0.,-1.,0.));
#1344=DIRECTION('center_axis',(0.,0.,-1.));
#1345=DIRECTION('ref_axis',(1.,0.,0.));
#1346=DIRECTION('',(0.,-1.,0.));
#1347=DIRECTION('',(1.,0.,0.));
#1348=DIRECTION('',(0.,-1.,0.));
#1349=DIRECTION('center_axis',(-1.,0.,0.));
#1350=DIRECTION('ref_axis',(0.,-1.98805671678682E-31,-1.));
#1351=DIRECTION('',(0.,-1.,0.));
#1352=DIRECTION('center_axis',(-1.,0.,0.));
#1353=DIRECTION('ref_axis',(0.,-1.98805671678682E-31,-1.));
#1354=DIRECTION('',(0.,-1.,0.));
#1355=DIRECTION('',(0.,-1.98805671678682E-31,-1.));
#1356=DIRECTION('center_axis',(0.,0.,1.));
#1357=DIRECTION('ref_axis',(-1.,0.,0.));
#1358=DIRECTION('',(0.,-1.,0.));
#1359=DIRECTION('center_axis',(0.,0.,1.));
#1360=DIRECTION('ref_axis',(-1.,0.,0.));
#1361=DIRECTION('',(0.,-1.,0.));
#1362=DIRECTION('',(-1.,0.,0.));
#1363=DIRECTION('center_axis',(-0.999999999964364,0.,8.4423330603148E-6));
#1364=DIRECTION('ref_axis',(-8.4423330603148E-6,-1.98805671671598E-31,-0.999999999964363));
#1365=DIRECTION('',(0.,-1.,0.));
#1366=DIRECTION('',(-8.4423330603148E-6,-1.98805671671598E-31,-0.999999999964363));
#1367=DIRECTION('center_axis',(-1.,0.,0.));
#1368=DIRECTION('ref_axis',(0.,-1.98805671678682E-31,-1.));
#1369=DIRECTION('',(0.,-1.98805671678682E-31,-1.));
#1370=DIRECTION('',(0.,-1.,0.));
#1371=DIRECTION('center_axis',(8.22394368575431E-17,0.,1.));
#1372=DIRECTION('ref_axis',(-1.,1.63496664829404E-47,8.22394368575431E-17));
#1373=DIRECTION('',(-1.,1.63496664829404E-47,8.22394368575431E-17));
#1374=DIRECTION('',(0.,-1.,0.));
#1375=DIRECTION('center_axis',(1.,0.,0.));
#1376=DIRECTION('ref_axis',(0.,1.98805671678682E-31,1.));
#1377=DIRECTION('',(0.,1.98805671678682E-31,1.));
#1378=DIRECTION('',(0.,-1.,0.));
#1379=DIRECTION('center_axis',(-2.98906198937542E-15,0.,-1.));
#1380=DIRECTION('ref_axis',(1.,-5.94242476486999E-46,-2.98906198937542E-15));
#1381=DIRECTION('',(1.,-5.94242476486999E-46,-2.98906198937542E-15));
#1382=DIRECTION('center_axis',(0.,-1.,0.));
#1383=DIRECTION('ref_axis',(0.,0.,-1.));
#1384=DIRECTION('center_axis',(0.,1.98805671678682E-31,1.));
#1385=DIRECTION('ref_axis',(1.,0.,0.));
#1386=DIRECTION('center_axis',(0.,-1.97215226305253E-31,-1.));
#1387=DIRECTION('ref_axis',(1.,0.,0.));
#1388=DIRECTION('',(0.,-1.98805671678682E-31,-1.));
#1389=DIRECTION('center_axis',(0.,-1.97215226305253E-31,-1.));
#1390=DIRECTION('ref_axis',(1.,0.,0.));
#1391=DIRECTION('center_axis',(-1.,1.48029736616688E-16,-2.9429151216499E-47));
#1392=DIRECTION('ref_axis',(-1.48029736616688E-16,-1.,1.97215226305253E-31));
#1393=DIRECTION('',(1.48029736616688E-16,1.,-1.97215226305253E-31));
#1394=DIRECTION('',(0.,1.98805671678682E-31,1.));
#1395=DIRECTION('',(-1.48029736616688E-16,-1.,1.97215226305253E-31));
#1396=DIRECTION('center_axis',(0.,1.98805671678682E-31,1.));
#1397=DIRECTION('ref_axis',(1.,0.,0.));
#1398=DIRECTION('center_axis',(0.,1.97215226305253E-31,1.));
#1399=DIRECTION('ref_axis',(1.,0.,0.));
#1400=DIRECTION('',(0.,1.98805671678682E-31,1.));
#1401=DIRECTION('center_axis',(0.,1.97215226305253E-31,1.));
#1402=DIRECTION('ref_axis',(1.,0.,0.));
#1403=DIRECTION('center_axis',(0.,1.97215226305253E-31,1.));
#1404=DIRECTION('ref_axis',(1.,0.,0.));
#1405=DIRECTION('',(2.22044604925031E-16,1.,-1.97215226305253E-31));
#1406=DIRECTION('center_axis',(0.,1.97215226305253E-31,1.));
#1407=DIRECTION('ref_axis',(1.,0.,0.));
#1408=DIRECTION('',(-2.22044604925031E-16,-1.,1.97215226305253E-31));
#1409=DIRECTION('center_axis',(0.,1.98805671678682E-31,1.));
#1410=DIRECTION('ref_axis',(1.,0.,0.));
#1411=DIRECTION('center_axis',(0.,-9.86076131526265E-32,-1.));
#1412=DIRECTION('ref_axis',(1.,0.,0.));
#1413=DIRECTION('',(0.,-1.98805671678682E-31,-1.));
#1414=DIRECTION('center_axis',(0.,-9.86076131526265E-32,-1.));
#1415=DIRECTION('ref_axis',(1.,0.,0.));
#1416=DIRECTION('center_axis',(1.,-2.96059473233375E-16,5.8858302432998E-47));
#1417=DIRECTION('ref_axis',(2.96059473233375E-16,1.,-9.86076131526265E-32));
#1418=DIRECTION('',(2.96059473233375E-16,1.,-9.86076131526265E-32));
#1419=DIRECTION('',(2.96059473233375E-16,1.,-9.86076131526265E-32));
#1420=DIRECTION('',(0.,1.98805671678682E-31,1.));
#1421=DIRECTION('center_axis',(0.,1.98805671678682E-31,1.));
#1422=DIRECTION('ref_axis',(-1.,6.12323399573677E-17,-1.21733364736819E-47));
#1423=DIRECTION('center_axis',(-1.20759497818924E-47,1.97215226305253E-31,
1.));
#1424=DIRECTION('ref_axis',(-1.,6.12323399573677E-17,-2.41518995637849E-47));
#1425=DIRECTION('center_axis',(-1.20759497818924E-47,1.97215226305253E-31,
1.));
#1426=DIRECTION('ref_axis',(-1.,6.12323399573677E-17,-2.41518995637849E-47));
#1427=DIRECTION('',(0.,1.98805671678682E-31,1.));
#1428=DIRECTION('center_axis',(-1.,1.48029736616688E-16,-2.9429151216499E-47));
#1429=DIRECTION('ref_axis',(-1.48029736616688E-16,-1.,-1.48029736616687E-16));
#1430=DIRECTION('',(-1.48029736616688E-16,-1.,-1.48029736616687E-16));
#1431=DIRECTION('',(-1.48029736616688E-16,-1.,-1.48029736616687E-16));
#1432=DIRECTION('center_axis',(-1.20759497818924E-47,1.97215226305253E-31,
1.));
#1433=DIRECTION('ref_axis',(1.,1.19078058454339E-78,1.20759497818924E-47));
#1434=DIRECTION('center_axis',(-1.20759497818924E-47,1.97215226305253E-31,
1.));
#1435=DIRECTION('ref_axis',(1.,1.19078058454339E-78,1.20759497818924E-47));
#1436=CARTESIAN_POINT('',(0.,0.,0.));
#1437=CARTESIAN_POINT('Origin',(-67.5000000082502,24.9999995553422,-3.20000546694428));
#1438=CARTESIAN_POINT('',(-67.500000010673,24.9999995732112,-1.2));
#1439=CARTESIAN_POINT('',(-40.3,24.9999997972917,-1.20000000000002));
#1440=CARTESIAN_POINT('',(-67.5000000247207,24.9999995732112,-1.2));
#1441=CARTESIAN_POINT('',(-67.5000000082502,24.9999995553422,-3.20000546694428));
#1442=CARTESIAN_POINT('',(-67.5,24.9999995021823,-9.15000277814412));
#1443=CARTESIAN_POINT('',(-38.3000000082502,24.9999997958993,-3.20000545092649));
#1444=CARTESIAN_POINT('',(-67.5000000082502,24.9999995553422,-3.20000546694428));
#1445=CARTESIAN_POINT('',(-38.3000000399889,25.0000000299818,22.999994531201));
#1446=CARTESIAN_POINT('',(-38.3000000082502,24.9999997958993,-3.20000545092649));
#1447=CARTESIAN_POINT('',(-67.5000000399889,24.9999997894247,22.9999945151832));
#1448=CARTESIAN_POINT('',(-67.5000000399889,24.9999997894247,22.9999945151832));
#1449=CARTESIAN_POINT('',(-67.5000000375661,24.9999997715559,21.));
#1450=CARTESIAN_POINT('',(-67.5,24.9999995021823,-9.15000277814412));
#1451=CARTESIAN_POINT('',(-40.3,24.9999999956365,21.));
#1452=CARTESIAN_POINT('',(-53.9000000247207,24.9999998835962,21.));
#1453=CARTESIAN_POINT('',(-40.3,24.9999997883573,-2.20000275580826));
#1454=CARTESIAN_POINT('Origin',(-67.5000000091403,22.9999996100596,-3.20000546694796));
#1455=CARTESIAN_POINT('',(-67.5000000091403,22.9999996100596,-3.20000546694796));
#1456=CARTESIAN_POINT('',(-67.5,18.9999998050188,-3.20000546695533));
#1457=CARTESIAN_POINT('',(-38.3000000091403,22.9999998506166,-3.20000545093017));
#1458=CARTESIAN_POINT('',(-67.5000000091403,22.9999996100596,-3.20000546694796));
#1459=CARTESIAN_POINT('',(-38.3000000091403,22.9999998506166,-3.20000545093017));
#1460=CARTESIAN_POINT('Origin',(-67.5000000235124,22.9999979449979,22.9999944059551));
#1461=CARTESIAN_POINT('',(-40.3,22.9999997070358,-1.20000000000002));
#1462=CARTESIAN_POINT('',(-67.5000000102374,22.9999994829553,-1.2));
#1463=CARTESIAN_POINT('',(-67.5000000241136,22.9999994829553,-1.2));
#1464=CARTESIAN_POINT('',(-40.3,22.9999982961821,21.));
#1465=CARTESIAN_POINT('',(-40.3,22.9999989380571,10.8999972983055));
#1466=CARTESIAN_POINT('',(-67.5000000224153,22.9999980721015,21.));
#1467=CARTESIAN_POINT('',(-53.9000000241136,22.9999981841418,21.));
#1468=CARTESIAN_POINT('',(-67.5000000235124,22.9999979449979,22.9999944059551));
#1469=CARTESIAN_POINT('',(-67.5,22.9999991556628,3.94999745718569));
#1470=CARTESIAN_POINT('',(-38.3000000235124,22.999998185555,22.9999944219729));
#1471=CARTESIAN_POINT('',(-67.5000000235124,22.9999979449979,22.9999944059551));
#1472=CARTESIAN_POINT('',(-38.3000000235124,22.999998185555,22.9999944219729));
#1473=CARTESIAN_POINT('',(-67.5,22.9999991556628,3.94999745718569));
#1474=CARTESIAN_POINT('Origin',(-67.5000000399889,24.9999997894247,22.9999945151832));
#1475=CARTESIAN_POINT('',(-67.5,19.9999988543153,22.9999942421131));
#1476=CARTESIAN_POINT('',(-38.3000000399889,25.0000000299818,22.999994531201));
#1477=CARTESIAN_POINT('Origin',(-38.300000007198,23.9999991077684,9.89999454013543));
#1478=CARTESIAN_POINT('Origin',(-67.5,20.,-1.2));
#1479=CARTESIAN_POINT('',(-40.3,28.,-1.20000000000001));
#1480=CARTESIAN_POINT('',(-40.3,20.,-1.20000000000002));
#1481=CARTESIAN_POINT('',(-67.5,28.,-1.2));
#1482=CARTESIAN_POINT('',(-40.3,28.,-1.20000000000002));
#1483=CARTESIAN_POINT('',(-67.5,20.,-1.2));
#1484=CARTESIAN_POINT('Origin',(-67.5,20.,-1.2));
#1485=CARTESIAN_POINT('',(-67.5,20.,-1.2));
#1486=CARTESIAN_POINT('',(-67.5,20.,-1.2));
#1487=CARTESIAN_POINT('',(-40.3,20.,-1.20000000000002));
#1488=CARTESIAN_POINT('',(-48.75,20.,-1.20000000000001));
#1489=CARTESIAN_POINT('',(-40.3,20.,-1.20000000000002));
#1490=CARTESIAN_POINT('Origin',(-67.5,15.,-15.0999999999995));
#1491=CARTESIAN_POINT('',(-67.5,28.,-5.10000000000001));
#1492=CARTESIAN_POINT('',(-67.5,28.,24.9));
#1493=CARTESIAN_POINT('',(-67.5,20.,-5.1));
#1494=CARTESIAN_POINT('',(-67.5,20.,-5.1));
#1495=CARTESIAN_POINT('',(-67.5,20.,-15.0999999999995));
#1496=CARTESIAN_POINT('',(-67.5,20.,-20.1));
#1497=CARTESIAN_POINT('',(-67.5,15.,-15.0999999999995));
#1498=CARTESIAN_POINT('',(-67.5,15.,-15.0999999999995));
#1499=CARTESIAN_POINT('',(-67.5,15.,39.9));
#1500=CARTESIAN_POINT('',(-67.5,15.,-20.1));
#1501=CARTESIAN_POINT('',(-67.5,20.,39.9));
#1502=CARTESIAN_POINT('',(-67.5,15.,39.9));
#1503=CARTESIAN_POINT('',(-67.5,20.,24.9));
#1504=CARTESIAN_POINT('',(-67.5,20.,-20.1));
#1505=CARTESIAN_POINT('',(-67.5,28.,24.9));
#1506=CARTESIAN_POINT('',(-67.5,20.,24.9));
#1507=CARTESIAN_POINT('',(-67.5,28.,21.));
#1508=CARTESIAN_POINT('',(-67.5,28.,24.9));
#1509=CARTESIAN_POINT('',(-67.5,20.,21.));
#1510=CARTESIAN_POINT('',(-67.5,20.,21.));
#1511=CARTESIAN_POINT('',(-67.5,20.,21.));
#1512=CARTESIAN_POINT('',(-67.5,20.,-20.1));
#1513=CARTESIAN_POINT('Origin',(-40.3,20.,-1.20000000000001));
#1514=CARTESIAN_POINT('',(-40.3,28.,21.));
#1515=CARTESIAN_POINT('',(-40.3,20.,21.));
#1516=CARTESIAN_POINT('',(-40.3,28.,21.));
#1517=CARTESIAN_POINT('Origin',(-40.3,20.,21.));
#1518=CARTESIAN_POINT('',(-67.5,28.,21.));
#1519=CARTESIAN_POINT('Origin',(-36.5,20.,-5.1));
#1520=CARTESIAN_POINT('',(-36.5,20.,-5.1));
#1521=CARTESIAN_POINT('',(-33.25,20.,-5.1));
#1522=CARTESIAN_POINT('',(-36.5,28.,-5.10000000000001));
#1523=CARTESIAN_POINT('',(-67.5,28.,-5.1));
#1524=CARTESIAN_POINT('',(-36.5,20.,-5.1));
#1525=CARTESIAN_POINT('Origin',(-36.5,20.,24.9));
#1526=CARTESIAN_POINT('',(-36.5,20.,24.9));
#1527=CARTESIAN_POINT('',(-36.5,20.,17.4));
#1528=CARTESIAN_POINT('',(-36.5,28.,24.9));
#1529=CARTESIAN_POINT('',(-36.5,28.,-5.1));
#1530=CARTESIAN_POINT('',(-36.5,20.,24.9));
#1531=CARTESIAN_POINT('Origin',(-67.5,20.,24.9));
#1532=CARTESIAN_POINT('',(-48.75,20.,24.9));
#1533=CARTESIAN_POINT('',(-36.5,28.,24.9));
#1534=CARTESIAN_POINT('Origin',(-40.3,20.,21.));
#1535=CARTESIAN_POINT('',(-40.3,20.,21.));
#1536=CARTESIAN_POINT('',(-40.3,20.,21.));
#1537=CARTESIAN_POINT('',(-35.15,20.,21.));
#1538=CARTESIAN_POINT('Origin',(-40.3,20.,-1.20000000000001));
#1539=CARTESIAN_POINT('',(-40.3,20.,4.34999999999999));
#1540=CARTESIAN_POINT('Origin',(-52.,28.,9.89999999999999));
#1541=CARTESIAN_POINT('Origin',(-30.,20.,9.89999999999999));
#1542=CARTESIAN_POINT('Origin',(-30.,15.,9.89999999999999));
#1543=CARTESIAN_POINT('',(7.5,15.,11.525));
#1544=CARTESIAN_POINT('',(-7.5,15.,11.525));
#1545=CARTESIAN_POINT('',(7.5,15.,11.525));
#1546=CARTESIAN_POINT('',(-7.5,15.,14.625));
#1547=CARTESIAN_POINT('',(-7.5,15.,11.525));
#1548=CARTESIAN_POINT('',(7.5,15.,14.625));
#1549=CARTESIAN_POINT('',(7.5,15.,14.625));
#1550=CARTESIAN_POINT('',(7.49999999999996,15.,39.9));
#1551=CARTESIAN_POINT('',(7.49999999999996,15.,39.9));
#1552=CARTESIAN_POINT('',(-67.5,15.,39.9));
#1553=CARTESIAN_POINT('',(-67.4999831153339,15.,-15.0999999999995));
#1554=CARTESIAN_POINT('',(-15.5,15.,-15.0999999999995));
#1555=CARTESIAN_POINT('',(-15.5,15.,-15.0999999999995));
#1556=CARTESIAN_POINT('',(-15.5,15.,-15.0999999999995));
#1557=CARTESIAN_POINT('',(-15.5,15.,34.9));
#1558=CARTESIAN_POINT('',(-15.5,15.,36.9));
#1559=CARTESIAN_POINT('',(-67.4995441140148,15.,34.9));
#1560=CARTESIAN_POINT('',(-15.5000000000001,15.,34.9));
#1561=CARTESIAN_POINT('',(-67.4995441140148,15.,36.9));
#1562=CARTESIAN_POINT('',(-67.4995441140148,15.,34.9));
#1563=CARTESIAN_POINT('',(-13.5,15.,36.9));
#1564=CARTESIAN_POINT('',(-13.5,15.,36.9));
#1565=CARTESIAN_POINT('',(-13.5,15.,-17.1));
#1566=CARTESIAN_POINT('',(-13.5,15.,-17.1));
#1567=CARTESIAN_POINT('',(-67.5,15.,-17.0999999999995));
#1568=CARTESIAN_POINT('',(-67.5,15.,-17.0999999999995));
#1569=CARTESIAN_POINT('',(-67.5,15.,-20.1));
#1570=CARTESIAN_POINT('',(-67.5,15.,-20.1));
#1571=CARTESIAN_POINT('',(7.49999999999997,15.,-20.1));
#1572=CARTESIAN_POINT('',(7.49999999999997,15.,-20.1));
#1573=CARTESIAN_POINT('',(7.5,15.,5.175));
#1574=CARTESIAN_POINT('',(7.49999999999996,15.,39.9));
#1575=CARTESIAN_POINT('',(-7.5,15.,5.175));
#1576=CARTESIAN_POINT('',(-7.5,15.,5.175));
#1577=CARTESIAN_POINT('',(-7.5,15.,8.275));
#1578=CARTESIAN_POINT('',(-7.5,15.,5.175));
#1579=CARTESIAN_POINT('',(7.5,15.,8.275));
#1580=CARTESIAN_POINT('',(-7.5,15.,8.275));
#1581=CARTESIAN_POINT('',(7.49999999999996,15.,39.9));
#1582=CARTESIAN_POINT('',(1.6,15.,32.4));
#1583=CARTESIAN_POINT('Origin',(-1.37772764904077E-15,15.,32.4));
#1584=CARTESIAN_POINT('',(1.6,15.,-12.6));
#1585=CARTESIAN_POINT('Origin',(1.37772764904077E-15,15.,-12.6));
#1586=CARTESIAN_POINT('Origin',(-1.37772764904077E-15,15.,32.4));
#1587=CARTESIAN_POINT('',(1.6,20.,32.4));
#1588=CARTESIAN_POINT('Origin',(-1.37772764904077E-15,20.,32.4));
#1589=CARTESIAN_POINT('',(1.6,15.,32.4));
#1590=CARTESIAN_POINT('Origin',(1.37772764904077E-15,15.,-12.6));
#1591=CARTESIAN_POINT('',(1.6,20.,-12.6));
#1592=CARTESIAN_POINT('Origin',(1.37772764904077E-15,20.,-12.6));
#1593=CARTESIAN_POINT('',(1.6,15.,-12.6));
#1594=CARTESIAN_POINT('Origin',(-67.5,15.,-20.1));
#1595=CARTESIAN_POINT('',(-67.5,20.,-17.0999999999995));
#1596=CARTESIAN_POINT('',(-67.5,15.,-17.0999999999995));
#1597=CARTESIAN_POINT('',(-67.5,20.,-20.1));
#1598=CARTESIAN_POINT('',(-67.5,20.,-20.1));
#1599=CARTESIAN_POINT('',(-67.5,15.,-20.1));
#1600=CARTESIAN_POINT('Origin',(7.49999999999997,15.,-20.1));
#1601=CARTESIAN_POINT('',(7.49999999999997,20.,-20.1));
#1602=CARTESIAN_POINT('',(7.49999999999997,20.,-20.1));
#1603=CARTESIAN_POINT('',(7.49999999999997,15.,-20.1));
#1604=CARTESIAN_POINT('Origin',(-67.5,15.,39.9));
#1605=CARTESIAN_POINT('',(7.49999999999996,20.,39.9));
#1606=CARTESIAN_POINT('',(7.49999999999996,15.,39.9));
#1607=CARTESIAN_POINT('',(-67.5,20.,39.9));
#1608=CARTESIAN_POINT('Origin',(-67.4999831153339,15.,-15.0999999999995));
#1609=CARTESIAN_POINT('',(-67.4999831153339,20.,-15.0999999999995));
#1610=CARTESIAN_POINT('',(-15.5,20.,-15.0999999999995));
#1611=CARTESIAN_POINT('',(-67.4999831153339,15.,-15.0999999999995));
#1612=CARTESIAN_POINT('Origin',(-30.,20.,9.89999999999999));
#1613=CARTESIAN_POINT('',(7.49999999999996,20.,39.9));
#1614=CARTESIAN_POINT('',(-67.4995441140148,20.,36.9));
#1615=CARTESIAN_POINT('Origin',(-67.4995398928468,11.2999999999983,35.3999999990246));
#1616=CARTESIAN_POINT('',(-67.4995442795493,11.2999999999983,34.9));
#1617=CARTESIAN_POINT('',(-15.5,11.2999999999983,34.9));
#1618=CARTESIAN_POINT('',(-67.4995420034308,11.2999999999983,34.9));
#1619=CARTESIAN_POINT('',(-67.4995398928468,11.2999999999983,35.3999999990246));
#1620=CARTESIAN_POINT('',(-67.4995441140148,11.2999999999982,36.1499999995122));
#1621=CARTESIAN_POINT('',(-14.4995398948866,11.2999999999983,35.399535008571));
#1622=CARTESIAN_POINT('',(-67.4995398928468,11.2999999999983,35.3999999990246));
#1623=CARTESIAN_POINT('',(-14.4999873385402,11.3000000000015,-15.6004649894712));
#1624=CARTESIAN_POINT('',(-14.4995398948866,11.2999999999983,35.399535008571));
#1625=CARTESIAN_POINT('',(-67.4999873365004,11.3000000000015,-15.5999999990177));
#1626=CARTESIAN_POINT('',(-67.4999873365004,11.3000000000015,-15.5999999990177));
#1627=CARTESIAN_POINT('',(-67.4999831153339,11.3000000000015,-15.0999999999995));
#1628=CARTESIAN_POINT('',(-67.4997699464242,11.2999999999999,10.1499999995837));
#1629=CARTESIAN_POINT('',(-15.5,11.3000000000015,-15.0999999999995));
#1630=CARTESIAN_POINT('',(-41.4997699464234,11.3000000000015,-15.0999999999995));
#1631=CARTESIAN_POINT('',(-15.5,11.2999999999983,35.1499999995122));
#1632=CARTESIAN_POINT('Origin',(-67.4995398928565,12.6999999999985,35.3999999990195));
#1633=CARTESIAN_POINT('',(-67.4995398928565,12.6999999999985,35.3999999990195));
#1634=CARTESIAN_POINT('',(-67.4995441140148,13.8499999999966,35.3999999990524));
#1635=CARTESIAN_POINT('',(-14.4995398948962,12.6999999999985,35.399535008566));
#1636=CARTESIAN_POINT('',(-67.4995398928565,12.6999999999985,35.3999999990195));
#1637=CARTESIAN_POINT('',(-14.4995398948962,12.6999999999985,35.399535008566));
#1638=CARTESIAN_POINT('Origin',(-67.4999873365004,12.7000000000015,-15.5999999990177));
#1639=CARTESIAN_POINT('',(-15.5,12.6999999999985,34.9));
#1640=CARTESIAN_POINT('',(-67.4995442795588,12.6999999999985,34.9));
#1641=CARTESIAN_POINT('',(-67.4997657252576,12.6999999999985,34.9));
#1642=CARTESIAN_POINT('',(-15.5,12.7000000000015,-15.0999999999995));
#1643=CARTESIAN_POINT('',(-15.5,12.7,9.65000000049109));
#1644=CARTESIAN_POINT('',(-67.4999831153339,12.7000000000015,-15.0999999999995));
#1645=CARTESIAN_POINT('',(-41.4999936682502,12.7000000000015,-15.0999999999995));
#1646=CARTESIAN_POINT('',(-67.4999873365004,12.7000000000015,-15.5999999990177));
#1647=CARTESIAN_POINT('',(-67.4999852259172,12.7000000000015,-15.3499999995087));
#1648=CARTESIAN_POINT('',(-14.4999873385402,12.7000000000015,-15.6004649894712));
#1649=CARTESIAN_POINT('',(-67.4999873365004,12.7000000000015,-15.5999999990177));
#1650=CARTESIAN_POINT('',(-14.4999873385402,12.7000000000015,-15.6004649894712));
#1651=CARTESIAN_POINT('',(-67.4995441140148,12.7,10.6500000004911));
#1652=CARTESIAN_POINT('Origin',(-67.4999873365004,11.3000000000015,-15.5999999990177));
#1653=CARTESIAN_POINT('',(-67.4999873365004,13.1500000000008,-15.5999999990177));
#1654=CARTESIAN_POINT('',(-14.4999873385402,11.3000000000015,-15.6004649894712));
#1655=CARTESIAN_POINT('Origin',(-14.4997636167086,11.9999999999999,9.89953500954991));
#1656=CARTESIAN_POINT('Origin',(-67.4995441140148,15.,34.9));
#1657=CARTESIAN_POINT('',(-67.4995441140148,15.,34.9));
#1658=CARTESIAN_POINT('',(-15.5,15.,34.9));
#1659=CARTESIAN_POINT('Origin',(-67.4995441140148,15.,34.9));
#1660=CARTESIAN_POINT('',(-15.5,9.,34.9));
#1661=CARTESIAN_POINT('',(-15.5,15.,34.9));
#1662=CARTESIAN_POINT('',(-67.4995441140148,9.,34.9));
#1663=CARTESIAN_POINT('',(-15.5000000000001,9.,34.9));
#1664=CARTESIAN_POINT('',(-67.4995441140148,15.,34.9));
#1665=CARTESIAN_POINT('Origin',(-15.5,15.,34.9));
#1666=CARTESIAN_POINT('',(-15.5,15.,-15.0999999999995));
#1667=CARTESIAN_POINT('Origin',(-15.5,15.,34.9));
#1668=CARTESIAN_POINT('',(-15.5,9.,-15.0999999999995));
#1669=CARTESIAN_POINT('',(-15.5,15.,-15.0999999999995));
#1670=CARTESIAN_POINT('',(-15.5,9.,36.9));
#1671=CARTESIAN_POINT('Origin',(-15.5,15.,-15.0999999999995));
#1672=CARTESIAN_POINT('',(-67.4999831153339,15.,-15.0999999999995));
#1673=CARTESIAN_POINT('Origin',(-15.5,15.,-15.0999999999995));
#1674=CARTESIAN_POINT('',(-67.4999831153339,9.,-15.0999999999995));
#1675=CARTESIAN_POINT('',(-67.4999831153339,15.,-15.0999999999995));
#1676=CARTESIAN_POINT('',(-15.5,9.,-15.0999999999995));
#1677=CARTESIAN_POINT('Origin',(-67.4999831153339,15.,-15.0999999999995));
#1678=CARTESIAN_POINT('',(-67.5,9.,-17.0999999999995));
#1679=CARTESIAN_POINT('',(-67.5,15.,-17.0999999999995));
#1680=CARTESIAN_POINT('',(-67.4995441140148,9.,36.9));
#1681=CARTESIAN_POINT('Origin',(-67.4995441140148,15.,36.9));
#1682=CARTESIAN_POINT('',(-67.4995441140148,9.,36.9));
#1683=CARTESIAN_POINT('',(-67.4995441140148,9.,34.9));
#1684=CARTESIAN_POINT('',(-67.4995441140148,15.,36.9));
#1685=CARTESIAN_POINT('Origin',(-13.5,15.,36.9));
#1686=CARTESIAN_POINT('',(-13.5,9.,36.9));
#1687=CARTESIAN_POINT('',(-13.5,9.,36.9));
#1688=CARTESIAN_POINT('',(-13.5,15.,36.9));
#1689=CARTESIAN_POINT('Origin',(-13.5,15.,-17.1));
#1690=CARTESIAN_POINT('',(-13.5,9.,-17.1));
#1691=CARTESIAN_POINT('',(-13.5,9.,-17.1));
#1692=CARTESIAN_POINT('',(-13.5,15.,-17.1));
#1693=CARTESIAN_POINT('Origin',(-67.5,15.,-17.0999999999995));
#1694=CARTESIAN_POINT('',(-67.5,9.,-17.0999999999995));
#1695=CARTESIAN_POINT('Origin',(-41.5,9.,-16.0999999999996));
#1696=CARTESIAN_POINT('Origin',(0.,-2.92371572997537E-30,5.175));
#1697=CARTESIAN_POINT('',(-2.63660254037842,-3.22890686169824E-16,8.275));
#1698=CARTESIAN_POINT('Origin',(0.,-2.30741814777146E-30,8.275));
#1699=CARTESIAN_POINT('',(-2.63660254037842,-3.22890686169825E-16,5.175));
#1700=CARTESIAN_POINT('',(-2.63660254037842,-3.22890686169825E-16,5.175));
#1701=CARTESIAN_POINT('Origin',(0.,-2.92371572997537E-30,5.175));
#1702=CARTESIAN_POINT('Origin',(-7.5,15.,5.175));
#1703=CARTESIAN_POINT('',(-7.5,4.59242549680255E-16,5.175));
#1704=CARTESIAN_POINT('',(-7.5,4.59242549680255E-16,5.175));
#1705=CARTESIAN_POINT('',(-7.5,4.59242549680256E-16,8.275));
#1706=CARTESIAN_POINT('',(-7.5,4.59242549680255E-16,5.175));
#1707=CARTESIAN_POINT('',(-7.5,4.59242549680256E-16,8.275));
#1708=CARTESIAN_POINT('Origin',(0.,-2.92371572997537E-30,5.175));
#1709=CARTESIAN_POINT('',(7.5,-2.22044604925031E-15,5.175));
#1710=CARTESIAN_POINT('Origin',(0.,-2.92371572997537E-30,5.175));
#1711=CARTESIAN_POINT('',(7.5,-2.22044604925031E-15,8.275));
#1712=CARTESIAN_POINT('',(7.5,-2.22044604925031E-15,5.175));
#1713=CARTESIAN_POINT('Origin',(0.,-2.30741814777146E-30,8.275));
#1714=CARTESIAN_POINT('Origin',(2.22044604925031E-15,3.75,8.275));
#1715=CARTESIAN_POINT('',(7.5,15.,8.275));
#1716=CARTESIAN_POINT('Origin',(2.22044604925031E-15,3.75,5.175));
#1717=CARTESIAN_POINT('',(7.5,15.,5.175));
#1718=CARTESIAN_POINT('Origin',(-9.05696233641933E-49,-2.80045621353459E-30,
11.525));
#1719=CARTESIAN_POINT('',(-2.63660254037842,-3.22890686169824E-16,14.625));
#1720=CARTESIAN_POINT('Origin',(-9.05696233641933E-49,-2.18415863133068E-30,
14.625));
#1721=CARTESIAN_POINT('',(-2.63660254037842,-3.22890686169824E-16,11.525));
#1722=CARTESIAN_POINT('',(-2.63660254037842,-3.22890686169824E-16,11.525));
#1723=CARTESIAN_POINT('Origin',(-9.05696233641933E-49,-2.80045621353459E-30,
11.525));
#1724=CARTESIAN_POINT('Origin',(7.5,-2.87142652419522E-15,11.525));
#1725=CARTESIAN_POINT('',(7.5,-2.87142652419522E-15,11.525));
#1726=CARTESIAN_POINT('',(7.5,-2.87142652419522E-15,11.525));
#1727=CARTESIAN_POINT('',(7.5,-2.87142652419521E-15,14.625));
#1728=CARTESIAN_POINT('',(7.5,-2.87142652419522E-15,14.625));
#1729=CARTESIAN_POINT('',(7.5,-2.87142652419522E-15,11.525));
#1730=CARTESIAN_POINT('Origin',(-9.05696233641933E-49,-2.80045621353459E-30,
11.525));
#1731=CARTESIAN_POINT('',(-7.5,1.14384831257047E-30,11.525));
#1732=CARTESIAN_POINT('Origin',(-9.05696233641933E-49,-2.80045621353459E-30,
11.525));
#1733=CARTESIAN_POINT('',(-7.5,1.78726298839135E-30,14.625));
#1734=CARTESIAN_POINT('Origin',(-9.05696233641933E-49,-2.18415863133068E-30,
14.625));
#1735=CARTESIAN_POINT('',(-7.5,1.14384831257047E-30,11.525));
#1736=CARTESIAN_POINT('Origin',(-7.5,15.,11.525));
#1737=CARTESIAN_POINT('',(-7.5,15.,11.525));
#1738=CARTESIAN_POINT('',(-7.5,15.,14.625));
#1739=CARTESIAN_POINT('Origin',(2.22044604925031E-15,3.75,14.625));
#1740=CARTESIAN_POINT('Origin',(2.22044604925031E-15,3.75,11.525));
#1741=UNCERTAINTY_MEASURE_WITH_UNIT(LENGTH_MEASURE(0.01),#1745,
'DISTANCE_ACCURACY_VALUE',
'Maximum model space distance between geometric entities at asserted c
onnectivities');
#1742=UNCERTAINTY_MEASURE_WITH_UNIT(LENGTH_MEASURE(0.01),#1745,
'DISTANCE_ACCURACY_VALUE',
'Maximum model space distance between geometric entities at asserted c
onnectivities');
#1743=(
GEOMETRIC_REPRESENTATION_CONTEXT(3)
GLOBAL_UNCERTAINTY_ASSIGNED_CONTEXT((#1741))
GLOBAL_UNIT_ASSIGNED_CONTEXT((#1745,#1747,#1748))
REPRESENTATION_CONTEXT('','3D')
);
#1744=(
GEOMETRIC_REPRESENTATION_CONTEXT(3)
GLOBAL_UNCERTAINTY_ASSIGNED_CONTEXT((#1742))
GLOBAL_UNIT_ASSIGNED_CONTEXT((#1745,#1747,#1748))
REPRESENTATION_CONTEXT('','3D')
);
#1745=(
LENGTH_UNIT()
NAMED_UNIT(*)
SI_UNIT(.MILLI.,.METRE.)
);
#1746=(
LENGTH_UNIT()
NAMED_UNIT(*)
SI_UNIT($,.METRE.)
);
#1747=(
NAMED_UNIT(*)
PLANE_ANGLE_UNIT()
SI_UNIT($,.RADIAN.)
);
#1748=(
NAMED_UNIT(*)
SI_UNIT($,.STERADIAN.)
SOLID_ANGLE_UNIT()
);
#1749=SHAPE_DEFINITION_REPRESENTATION(#1750,#1751);
#1750=PRODUCT_DEFINITION_SHAPE('',$,#1753);
#1751=SHAPE_REPRESENTATION('',(#1099),#1743);
#1752=PRODUCT_DEFINITION_CONTEXT('part definition',#1757,'design');
#1753=PRODUCT_DEFINITION('GoPro Clamp_Clamp Top',
'GoPro Clamp_Clamp Top v4',#1754,#1752);
#1754=PRODUCT_DEFINITION_FORMATION('',$,#1759);
#1755=PRODUCT_RELATED_PRODUCT_CATEGORY('GoPro Clamp_Clamp Top v4',
'GoPro Clamp_Clamp Top v4',(#1759));
#1756=APPLICATION_PROTOCOL_DEFINITION('international standard',
'automotive_design',2009,#1757);
#1757=APPLICATION_CONTEXT(
'Core Data for Automotive Mechanical Design Process');
#1758=PRODUCT_CONTEXT('part definition',#1757,'mechanical');
#1759=PRODUCT('GoPro Clamp_Clamp Top','GoPro Clamp_Clamp Top v4',$,(#1758));
#1760=PRESENTATION_STYLE_ASSIGNMENT((#1761));
#1761=SURFACE_STYLE_USAGE(.BOTH.,#1762);
#1762=SURFACE_SIDE_STYLE('',(#1763));
#1763=SURFACE_STYLE_FILL_AREA(#1764);
#1764=FILL_AREA_STYLE('Steel - Satin',(#1765));
#1765=FILL_AREA_STYLE_COLOUR('Steel - Satin',#1766);
#1766=COLOUR_RGB('Steel - Satin',0.627450980392157,0.627450980392157,0.627450980392157);
ENDSEC;
END-ISO-10303-21;
