# WaveFront *.obj file (generated by Autodesk ATF)

mtllib 02_front_membranes.mtl

g Body1

g Body1:1

g Body1:2

v -7.211958 4.958737 0.563326
v -7.212741 4.958737 0.545650
v -7.215082 4.958737 0.528113
v -7.218965 4.958737 0.510851
v -7.224358 4.958737 0.493999
v -7.231219 4.958737 0.477690
v -7.239495 4.958737 0.462052
v -7.249121 4.958737 0.447206
v -7.260021 4.958737 0.433269
v -7.272110 4.958737 0.420349
v -7.285293 4.958737 0.408549
v -7.299468 4.958737 0.397960
v -7.314523 4.958737 0.388665
v -7.330341 4.958737 0.380737
v -7.346798 4.958737 0.374239
v -7.363764 4.958737 0.369220
v -7.381108 4.958737 0.365720
v -7.398693 4.958737 0.363767
v -7.416382 4.958737 0.363375
v -7.434037 4.958737 0.364549
v -7.451518 4.958737 0.367278
v -7.468690 4.958737 0.371542
v -7.485418 4.958737 0.377306
v -7.501571 4.958737 0.384526
v -7.517023 4.958737 0.393146
v -7.531652 4.958737 0.403098
v -7.545345 4.958737 0.414303
v -7.557994 4.958737 0.426675
v -7.569500 4.958737 0.440117
v -7.579772 4.958737 0.454522
v -7.588732 4.958737 0.469780
v -7.596308 4.958737 0.485769
v -7.602441 4.958737 0.502365
v -7.607083 4.958737 0.519439
v -7.610199 4.958737 0.536856
v -7.611762 4.958737 0.554480
v -7.611762 4.958737 0.572173
v -7.610199 4.958737 0.589797
v -7.607083 4.958737 0.607214
v -7.602441 4.958737 0.624288
v -7.596308 4.958737 0.640884
v -7.588732 4.958737 0.656873
v -7.579772 4.958737 0.672130
v -7.569500 4.958737 0.686536
v -7.557994 4.958737 0.699978
v -7.545345 4.958737 0.712349
v -7.531652 4.958737 0.723555
v -7.517023 4.958737 0.733507
v -7.501571 4.958737 0.742126
v -7.485418 4.958737 0.749347
v -7.468690 4.958737 0.755111
v -7.451518 4.958737 0.759375
v -7.434037 4.958737 0.762104
v -7.416382 4.958737 0.763277
v -7.398693 4.958737 0.762886
v -7.381108 4.958737 0.760933
v -7.363764 4.958737 0.757433
v -7.346798 4.958737 0.752414
v -7.330341 4.958737 0.745915
v -7.314523 4.958737 0.737988
v -7.299468 4.958737 0.728693
v -7.285293 4.958737 0.718104
v -7.272110 4.958737 0.706303
v -7.260021 4.958737 0.693384
v -7.249121 4.958737 0.679447
v -7.239495 4.958737 0.664601
v -7.231219 4.958737 0.648962
v -7.224358 4.958737 0.632654
v -7.218965 4.958737 0.615802
v -7.215082 4.958737 0.598540
v -7.212741 4.958737 0.581002
v -7.211958 4.978737 0.563326
v -7.212741 4.978737 0.581002
v -7.215082 4.978737 0.598540
v -7.218965 4.978737 0.615802
v -7.224358 4.978737 0.632654
v -7.231219 4.978737 0.648962
v -7.239495 4.978737 0.664601
v -7.249121 4.978737 0.679447
v -7.260021 4.978737 0.693384
v -7.272110 4.978737 0.706303
v -7.285293 4.978737 0.718104
v -7.299468 4.978737 0.728693
v -7.314523 4.978737 0.737988
v -7.330341 4.978737 0.745915
v -7.346798 4.978737 0.752414
v -7.363764 4.978737 0.757433
v -7.381108 4.978737 0.760933
v -7.398693 4.978737 0.762886
v -7.416382 4.978737 0.763277
v -7.434037 4.978737 0.762104
v -7.451518 4.978737 0.759375
v -7.468690 4.978737 0.755111
v -7.485418 4.978737 0.749347
v -7.501571 4.978737 0.742126
v -7.517023 4.978737 0.733507
v -7.531652 4.978737 0.723555
v -7.545345 4.978737 0.712349
v -7.557994 4.978737 0.699978
v -7.569500 4.978737 0.686536
v -7.579772 4.978737 0.672130
v -7.588732 4.978737 0.656873
v -7.596308 4.978737 0.640884
v -7.602441 4.978737 0.624288
v -7.607083 4.978737 0.607214
v -7.610199 4.978737 0.589797
v -7.611762 4.978737 0.572173
v -7.611762 4.978737 0.554480
v -7.610199 4.978737 0.536856
v -7.607083 4.978737 0.519439
v -7.602441 4.978737 0.502365
v -7.596308 4.978737 0.485769
v -7.588732 4.978737 0.469780
v -7.579772 4.978737 0.454522
v -7.569500 4.978737 0.440117
v -7.557994 4.978737 0.426675
v -7.545345 4.978737 0.414303
v -7.531652 4.978737 0.403098
v -7.517023 4.978737 0.393146
v -7.501571 4.978737 0.384526
v -7.485418 4.978737 0.377306
v -7.468690 4.978737 0.371542
v -7.451518 4.978737 0.367278
v -7.434037 4.978737 0.364549
v -7.416382 4.978737 0.363375
v -7.398693 4.978737 0.363767
v -7.381108 4.978737 0.365720
v -7.363764 4.978737 0.369220
v -7.346798 4.978737 0.374239
v -7.330341 4.978737 0.380737
v -7.314523 4.978737 0.388665
v -7.299468 4.978737 0.397960
v -7.285293 4.978737 0.408549
v -7.272110 4.978737 0.420349
v -7.260021 4.978737 0.433269
v -7.249121 4.978737 0.447206
v -7.239495 4.978737 0.462052
v -7.231219 4.978737 0.477690
v -7.224358 4.978737 0.493999
v -7.218965 4.978737 0.510851
v -7.215082 4.978737 0.528113
v -7.212741 4.978737 0.545650
vt 0.000000 0.017699 0.000000
vt -0.020000 0.000000 0.000000
vt -0.000000 0.000000 0.000000
vt -0.020000 -0.017699 0.000000
vt -0.000000 -0.017699 0.000000
vt -0.020000 -0.035398 0.000000
vt -0.000000 -0.035398 0.000000
vt -0.020000 -0.053097 0.000000
vt -0.000000 -0.053097 0.000000
vt -0.020000 -0.070796 0.000000
vt -0.000000 -0.070796 0.000000
vt -0.020000 -0.088496 0.000000
vt -0.000000 -0.088496 0.000000
vt -0.020000 -0.106195 0.000000
vt -0.000000 -0.106195 0.000000
vt -0.020000 -0.123894 0.000000
vt -0.000000 -0.123894 0.000000
vt -0.020000 -0.141593 0.000000
vt -0.000000 -0.141593 0.000000
vt -0.020000 -0.159292 0.000000
vt -0.000000 -0.159292 0.000000
vt -0.020000 -0.176991 0.000000
vt -0.000000 -0.176991 0.000000
vt -0.020000 -0.194690 0.000000
vt -0.000000 -0.194690 0.000000
vt -0.020000 -0.212389 0.000000
vt -0.000000 -0.212389 0.000000
vt -0.020000 -0.230088 0.000000
vt -0.000000 -0.230088 0.000000
vt -0.020000 -0.247788 0.000000
vt -0.000000 -0.247788 0.000000
vt -0.020000 -0.265487 0.000000
vt -0.000000 -0.265487 0.000000
vt -0.020000 -0.283186 0.000000
vt -0.000000 -0.283186 0.000000
vt -0.020000 -0.300885 0.000000
vt -0.000000 -0.300885 0.000000
vt -0.020000 -0.318584 0.000000
vt -0.000000 -0.318584 0.000000
vt -0.020000 -0.336283 0.000000
vt -0.000000 -0.336283 0.000000
vt -0.020000 -0.353982 0.000000
vt -0.000000 -0.353982 0.000000
vt -0.020000 -0.371681 0.000000
vt -0.000000 -0.371681 0.000000
vt -0.020000 -0.389380 0.000000
vt -0.000000 -0.389380 0.000000
vt -0.020000 -0.407080 0.000000
vt -0.000000 -0.407080 0.000000
vt -0.020000 -0.424779 0.000000
vt -0.000000 -0.424779 0.000000
vt -0.020000 -0.442478 0.000000
vt -0.000000 -0.442478 0.000000
vt -0.020000 -0.460177 0.000000
vt -0.000000 -0.460177 0.000000
vt -0.020000 -0.477876 0.000000
vt -0.000000 -0.477876 0.000000
vt -0.020000 -0.495575 0.000000
vt -0.000000 -0.495575 0.000000
vt -0.020000 -0.513274 0.000000
vt -0.000000 -0.513274 0.000000
vt -0.020000 -0.530973 0.000000
vt -0.000000 -0.530973 0.000000
vt -0.020000 -0.548673 0.000000
vt -0.000000 -0.548673 0.000000
vt -0.020000 -0.566372 0.000000
vt -0.000000 -0.566372 0.000000
vt -0.020000 -0.584071 0.000000
vt -0.000000 -0.584071 0.000000
vt -0.020000 -0.601770 0.000000
vt -0.000000 -0.601770 0.000000
vt -0.020000 -0.619469 0.000000
vt -0.000000 -0.619469 0.000000
vt -0.000000 0.637168 0.000000
vt -0.020000 0.637168 0.000000
vt -0.020000 0.619469 0.000000
vt 0.000000 0.619469 0.000000
vt -0.020000 0.601770 0.000000
vt 0.000000 0.601770 0.000000
vt -0.020000 0.584071 0.000000
vt 0.000000 0.584071 0.000000
vt -0.020000 0.566372 0.000000
vt 0.000000 0.566372 0.000000
vt -0.020000 0.548673 0.000000
vt 0.000000 0.548673 0.000000
vt -0.020000 0.530973 0.000000
vt 0.000000 0.530973 0.000000
vt -0.020000 0.513274 0.000000
vt 0.000000 0.513274 0.000000
vt -0.020000 0.495575 0.000000
vt 0.000000 0.495575 0.000000
vt -0.020000 0.477876 0.000000
vt 0.000000 0.477876 0.000000
vt -0.020000 0.460177 0.000000
vt 0.000000 0.460177 0.000000
vt -0.020000 0.442478 0.000000
vt 0.000000 0.442478 0.000000
vt -0.020000 0.424779 0.000000
vt 0.000000 0.424779 0.000000
vt -0.020000 0.407080 0.000000
vt 0.000000 0.407080 0.000000
vt -0.020000 0.389380 0.000000
vt 0.000000 0.389380 0.000000
vt -0.020000 0.371681 0.000000
vt 0.000000 0.371681 0.000000
vt -0.020000 0.353982 0.000000
vt 0.000000 0.353982 0.000000
vt -0.020000 0.336283 0.000000
vt 0.000000 0.336283 0.000000
vt -0.020000 0.318584 0.000000
vt 0.000000 0.318584 0.000000
vt -0.020000 0.300885 0.000000
vt 0.000000 0.300885 0.000000
vt -0.020000 0.283186 0.000000
vt 0.000000 0.283186 0.000000
vt -0.020000 0.265487 0.000000
vt 0.000000 0.265487 0.000000
vt -0.020000 0.247788 0.000000
vt 0.000000 0.247788 0.000000
vt -0.020000 0.230088 0.000000
vt 0.000000 0.230088 0.000000
vt -0.020000 0.212389 0.000000
vt 0.000000 0.212389 0.000000
vt -0.020000 0.194690 0.000000
vt 0.000000 0.194690 0.000000
vt -0.020000 0.176991 0.000000
vt 0.000000 0.176991 0.000000
vt -0.020000 0.159292 0.000000
vt 0.000000 0.159292 0.000000
vt -0.020000 0.141593 0.000000
vt 0.000000 0.141593 0.000000
vt -0.020000 0.123894 0.000000
vt 0.000000 0.123894 0.000000
vt -0.020000 0.106195 0.000000
vt 0.000000 0.106195 0.000000
vt -0.020000 0.088496 0.000000
vt 0.000000 0.088496 0.000000
vt -0.020000 0.070796 0.000000
vt 0.000000 0.070796 0.000000
vt -0.020000 0.053097 0.000000
vt 0.000000 0.053097 0.000000
vt -0.020000 0.035398 0.000000
vt 0.000000 0.035398 0.000000
vt -0.020000 0.017699 0.000000
vt 0.199217 0.017676 0.000000
vt 0.112490 0.165366 0.000000
vt 0.200000 0.000000 0.000000
vt 0.097435 0.174661 0.000000
vt 0.081617 0.182589 0.000000
vt 0.196876 0.035214 0.000000
vt 0.192993 0.052476 0.000000
vt 0.187600 0.069327 0.000000
vt 0.180739 0.085636 0.000000
vt 0.172463 0.101275 0.000000
vt 0.162837 0.116121 0.000000
vt 0.151937 0.130058 0.000000
vt 0.139848 0.142977 0.000000
vt 0.126665 0.154777 0.000000
vt 0.065160 0.189088 0.000000
vt 0.048194 0.194107 0.000000
vt 0.030850 0.197606 0.000000
vt 0.013265 0.199560 0.000000
vt -0.004424 0.199951 0.000000
vt -0.022079 0.198778 0.000000
vt -0.039560 0.196048 0.000000
vt -0.056732 0.191785 0.000000
vt -0.073460 0.186020 0.000000
vt -0.089613 0.178800 0.000000
vt -0.105065 0.170180 0.000000
vt -0.119694 0.160229 0.000000
vt -0.133387 0.149023 0.000000
vt -0.146036 0.136651 0.000000
vt -0.157542 0.123210 0.000000
vt -0.167814 0.108804 0.000000
vt -0.176774 0.093547 0.000000
vt -0.184350 0.077558 0.000000
vt -0.190483 0.060961 0.000000
vt -0.195125 0.043888 0.000000
vt -0.198241 0.026471 0.000000
vt -0.199804 0.008847 0.000000
vt -0.199804 -0.008847 0.000000
vt 0.199217 -0.017676 0.000000
vt -0.198241 -0.026471 0.000000
vt 0.196876 -0.035214 0.000000
vt -0.195125 -0.043888 0.000000
vt 0.192993 -0.052476 0.000000
vt -0.190483 -0.060961 0.000000
vt 0.187600 -0.069327 0.000000
vt -0.184350 -0.077558 0.000000
vt 0.180739 -0.085636 0.000000
vt -0.176774 -0.093547 0.000000
vt 0.172463 -0.101275 0.000000
vt -0.167814 -0.108804 0.000000
vt 0.162837 -0.116121 0.000000
vt -0.157542 -0.123210 0.000000
vt 0.151937 -0.130058 0.000000
vt -0.146036 -0.136651 0.000000
vt 0.139848 -0.142977 0.000000
vt -0.133387 -0.149023 0.000000
vt 0.126665 -0.154777 0.000000
vt -0.119694 -0.160229 0.000000
vt 0.112490 -0.165366 0.000000
vt -0.105065 -0.170180 0.000000
vt 0.097435 -0.174661 0.000000
vt -0.089613 -0.178800 0.000000
vt 0.081617 -0.182589 0.000000
vt -0.073460 -0.186020 0.000000
vt 0.065160 -0.189088 0.000000
vt -0.056732 -0.191785 0.000000
vt 0.048194 -0.194107 0.000000
vt -0.039560 -0.196048 0.000000
vt 0.030850 -0.197606 0.000000
vt -0.022079 -0.198778 0.000000
vt 0.013265 -0.199560 0.000000
vt -0.004424 -0.199951 0.000000
vt -0.199217 -0.017676 0.000000
vt 0.199804 -0.008847 0.000000
vt -0.200000 0.000000 0.000000
vt 0.199804 0.008847 0.000000
vt 0.198241 0.026471 0.000000
vt 0.198241 -0.026471 0.000000
vt -0.196876 -0.035214 0.000000
vt 0.195125 -0.043888 0.000000
vt -0.192993 -0.052476 0.000000
vt 0.190483 -0.060961 0.000000
vt -0.187600 -0.069327 0.000000
vt 0.184350 -0.077558 0.000000
vt -0.180739 -0.085636 0.000000
vt 0.176774 -0.093547 0.000000
vt -0.172463 -0.101275 0.000000
vt 0.167814 -0.108804 0.000000
vt -0.162837 -0.116121 0.000000
vt 0.157542 -0.123210 0.000000
vt -0.151937 -0.130058 0.000000
vt 0.146036 -0.136651 0.000000
vt -0.139848 -0.142977 0.000000
vt 0.133387 -0.149023 0.000000
vt -0.126665 -0.154777 0.000000
vt 0.119694 -0.160229 0.000000
vt -0.112490 -0.165366 0.000000
vt 0.105065 -0.170180 0.000000
vt -0.097435 -0.174661 0.000000
vt 0.089613 -0.178800 0.000000
vt -0.081617 -0.182589 0.000000
vt 0.073460 -0.186020 0.000000
vt -0.065160 -0.189088 0.000000
vt 0.056732 -0.191785 0.000000
vt -0.048194 -0.194107 0.000000
vt 0.039560 -0.196048 0.000000
vt -0.030850 -0.197606 0.000000
vt 0.022079 -0.198778 0.000000
vt -0.013265 -0.199560 0.000000
vt 0.004424 -0.199951 0.000000
vt 0.195125 0.043888 0.000000
vt 0.190483 0.060961 0.000000
vt 0.184350 0.077558 0.000000
vt 0.176774 0.093547 0.000000
vt 0.167814 0.108804 0.000000
vt 0.157542 0.123210 0.000000
vt 0.146036 0.136651 0.000000
vt 0.133387 0.149023 0.000000
vt 0.119694 0.160229 0.000000
vt 0.105065 0.170180 0.000000
vt 0.089613 0.178800 0.000000
vt 0.073460 0.186020 0.000000
vt 0.056732 0.191785 0.000000
vt 0.039560 0.196048 0.000000
vt 0.022079 0.198778 0.000000
vt 0.004424 0.199951 0.000000
vt -0.013265 0.199560 0.000000
vt -0.030850 0.197606 0.000000
vt -0.048194 0.194107 0.000000
vt -0.065160 0.189088 0.000000
vt -0.081617 0.182589 0.000000
vt -0.097435 0.174661 0.000000
vt -0.112490 0.165366 0.000000
vt -0.199217 0.017676 0.000000
vt -0.126665 0.154777 0.000000
vt -0.139848 0.142977 0.000000
vt -0.151937 0.130058 0.000000
vt -0.162837 0.116121 0.000000
vt -0.172463 0.101275 0.000000
vt -0.180739 0.085636 0.000000
vt -0.187600 0.069327 0.000000
vt -0.192993 0.052476 0.000000
vt -0.196876 0.035214 0.000000
vn 0.996087 0.000000 -0.088380
vn 1.000000 0.000000 -0.000000
vn 1.000000 -0.000000 -0.000000
vn 0.996087 -0.000000 0.088380
vn 0.996087 -0.000000 0.088380
vn 0.984378 -0.000000 0.176069
vn 0.984378 -0.000000 0.176069
vn 0.964965 -0.000000 0.262379
vn 0.964965 -0.000000 0.262379
vn 0.938000 -0.000000 0.346636
vn 0.938000 -0.000000 0.346636
vn 0.903693 -0.000000 0.428180
vn 0.903693 -0.000000 0.428180
vn 0.862315 -0.000000 0.506373
vn 0.862315 -0.000000 0.506373
vn 0.814187 -0.000000 0.580603
vn 0.814187 -0.000000 0.580603
vn 0.759687 -0.000000 0.650289
vn 0.759687 -0.000000 0.650289
vn 0.699242 -0.000000 0.714885
vn 0.699242 -0.000000 0.714885
vn 0.633324 -0.000000 0.773887
vn 0.633324 -0.000000 0.773887
vn 0.562449 -0.000000 0.826832
vn 0.562449 -0.000000 0.826832
vn 0.487173 -0.000000 0.873306
vn 0.487173 -0.000000 0.873306
vn 0.408084 -0.000000 0.912945
vn 0.408084 -0.000000 0.912945
vn 0.325801 -0.000000 0.945439
vn 0.325801 -0.000000 0.945439
vn 0.240968 -0.000000 0.970533
vn 0.240968 -0.000000 0.970533
vn 0.154249 -0.000000 0.988032
vn 0.154249 -0.000000 0.988032
vn 0.066323 -0.000000 0.997798
vn 0.066323 -0.000000 0.997798
vn -0.022122 -0.000000 0.999755
vn -0.022122 -0.000000 0.999755
vn -0.110394 -0.000000 0.993888
vn -0.110394 -0.000000 0.993888
vn -0.197802 -0.000000 0.980242
vn -0.197802 -0.000000 0.980242
vn -0.283662 -0.000000 0.958924
vn -0.283662 -0.000000 0.958924
vn -0.367302 -0.000000 0.930102
vn -0.367302 -0.000000 0.930102
vn -0.448067 -0.000000 0.894000
vn -0.448067 -0.000000 0.894000
vn -0.525325 -0.000000 0.850902
vn -0.525325 -0.000000 0.850902
vn -0.598472 -0.000000 0.801143
vn -0.598472 -0.000000 0.801143
vn -0.666936 -0.000000 0.745115
vn -0.666936 -0.000000 0.745115
vn -0.730179 -0.000000 0.683256
vn -0.730179 -0.000000 0.683256
vn -0.787708 -0.000000 0.616049
vn -0.787708 -0.000000 0.616049
vn -0.839072 -0.000000 0.544020
vn -0.839072 -0.000000 0.544020
vn -0.883869 -0.000000 0.467734
vn -0.883869 -0.000000 0.467734
vn -0.921749 -0.000000 0.387788
vn -0.921749 -0.000000 0.387788
vn -0.952415 -0.000000 0.304806
vn -0.952415 -0.000000 0.304806
vn -0.975626 -0.000000 0.219439
vn -0.975626 -0.000000 0.219439
vn -0.991203 -0.000000 0.132354
vn -0.991203 -0.000000 0.132354
vn -0.999021 -0.000000 0.044233
vn -0.999021 -0.000000 0.044233
vn -0.999021 0.000000 -0.044233
vn -0.999021 0.000000 -0.044233
vn -0.991203 0.000000 -0.132354
vn -0.991203 0.000000 -0.132354
vn -0.975626 0.000000 -0.219439
vn -0.975626 0.000000 -0.219439
vn -0.952415 0.000000 -0.304806
vn -0.952415 0.000000 -0.304806
vn -0.921749 0.000000 -0.387788
vn -0.921749 0.000000 -0.387788
vn -0.883869 0.000000 -0.467734
vn -0.883869 0.000000 -0.467734
vn -0.839072 0.000000 -0.544020
vn -0.839072 0.000000 -0.544020
vn -0.787708 0.000000 -0.616049
vn -0.787708 0.000000 -0.616049
vn -0.730179 0.000000 -0.683256
vn -0.730179 0.000000 -0.683256
vn -0.666936 0.000000 -0.745115
vn -0.666936 0.000000 -0.745115
vn -0.598472 0.000000 -0.801143
vn -0.598472 0.000000 -0.801143
vn -0.525325 0.000000 -0.850902
vn -0.525325 0.000000 -0.850902
vn -0.448067 0.000000 -0.894000
vn -0.448067 0.000000 -0.894000
vn -0.367302 0.000000 -0.930102
vn -0.367302 0.000000 -0.930102
vn -0.283662 0.000000 -0.958924
vn -0.283662 0.000000 -0.958924
vn -0.197802 0.000000 -0.980242
vn -0.197802 0.000000 -0.980242
vn -0.110394 0.000000 -0.993888
vn -0.110394 0.000000 -0.993888
vn -0.022122 0.000000 -0.999755
vn -0.022122 0.000000 -0.999755
vn 0.066323 0.000000 -0.997798
vn 0.066323 0.000000 -0.997798
vn 0.154249 0.000000 -0.988032
vn 0.154249 0.000000 -0.988032
vn 0.240968 0.000000 -0.970533
vn 0.240968 0.000000 -0.970533
vn 0.325801 0.000000 -0.945439
vn 0.325801 0.000000 -0.945439
vn 0.408084 0.000000 -0.912945
vn 0.408084 0.000000 -0.912945
vn 0.487173 0.000000 -0.873306
vn 0.487173 0.000000 -0.873306
vn 0.562449 0.000000 -0.826832
vn 0.562449 0.000000 -0.826832
vn 0.633324 0.000000 -0.773887
vn 0.633324 0.000000 -0.773887
vn 0.699242 0.000000 -0.714885
vn 0.699242 0.000000 -0.714885
vn 0.759687 0.000000 -0.650289
vn 0.759687 0.000000 -0.650289
vn 0.814187 0.000000 -0.580603
vn 0.814187 0.000000 -0.580603
vn 0.862315 0.000000 -0.506373
vn 0.862315 0.000000 -0.506373
vn 0.903693 0.000000 -0.428180
vn 0.903693 0.000000 -0.428180
vn 0.938000 0.000000 -0.346636
vn 0.938000 0.000000 -0.346636
vn 0.964965 0.000000 -0.262379
vn 0.964965 0.000000 -0.262379
vn 0.984378 0.000000 -0.176069
vn 0.984378 0.000000 -0.176069
vn 0.996087 0.000000 -0.088380
vn 0.000000 1.000000 0.000000
vn 0.000000 1.000000 0.000000
vn 0.000000 1.000000 0.000000
vn 0.000000 1.000000 0.000000
vn 0.000000 1.000000 0.000000
vn 0.000000 1.000000 0.000000
vn 0.000000 1.000000 0.000000
vn 0.000000 1.000000 0.000000
vn 0.000000 1.000000 0.000000
vn 0.000000 1.000000 0.000000
vn 0.000000 1.000000 0.000000
vn 0.000000 1.000000 0.000000
vn 0.000000 1.000000 0.000000
vn 0.000000 1.000000 0.000000
vn 0.000000 1.000000 0.000000
vn 0.000000 1.000000 0.000000
vn 0.000000 1.000000 0.000000
vn 0.000000 1.000000 0.000000
vn 0.000000 1.000000 0.000000
vn 0.000000 1.000000 0.000000
vn 0.000000 1.000000 0.000000
vn 0.000000 1.000000 0.000000
vn 0.000000 1.000000 0.000000
vn 0.000000 1.000000 0.000000
vn 0.000000 1.000000 0.000000
vn 0.000000 1.000000 0.000000
vn 0.000000 1.000000 0.000000
vn 0.000000 1.000000 0.000000
vn 0.000000 1.000000 0.000000
vn 0.000000 1.000000 0.000000
vn 0.000000 1.000000 0.000000
vn 0.000000 1.000000 0.000000
vn 0.000000 1.000000 0.000000
vn 0.000000 1.000000 0.000000
vn 0.000000 1.000000 0.000000
vn 0.000000 1.000000 0.000000
vn 0.000000 1.000000 0.000000
vn 0.000000 1.000000 0.000000
vn 0.000000 1.000000 0.000000
vn 0.000000 1.000000 0.000000
vn 0.000000 1.000000 0.000000
vn 0.000000 1.000000 0.000000
vn 0.000000 1.000000 0.000000
vn 0.000000 1.000000 0.000000
vn 0.000000 1.000000 0.000000
vn 0.000000 1.000000 0.000000
vn 0.000000 1.000000 0.000000
vn 0.000000 1.000000 0.000000
vn 0.000000 1.000000 0.000000
vn 0.000000 1.000000 0.000000
vn 0.000000 1.000000 0.000000
vn 0.000000 1.000000 0.000000
vn 0.000000 1.000000 0.000000
vn 0.000000 1.000000 0.000000
vn 0.000000 1.000000 0.000000
vn 0.000000 1.000000 0.000000
vn 0.000000 1.000000 0.000000
vn 0.000000 1.000000 0.000000
vn 0.000000 1.000000 0.000000
vn 0.000000 1.000000 0.000000
vn 0.000000 1.000000 0.000000
vn 0.000000 1.000000 0.000000
vn 0.000000 1.000000 0.000000
vn 0.000000 1.000000 0.000000
vn 0.000000 1.000000 0.000000
vn 0.000000 1.000000 0.000000
vn 0.000000 1.000000 0.000000
vn 0.000000 1.000000 0.000000
vn 0.000000 1.000000 0.000000
vn 0.000000 1.000000 0.000000
vn 0.000000 1.000000 0.000000
vn -0.000000 -1.000000 -0.000000
vn -0.000000 -1.000000 -0.000000
vn -0.000000 -1.000000 -0.000000
vn -0.000000 -1.000000 -0.000000
vn -0.000000 -1.000000 -0.000000
vn -0.000000 -1.000000 -0.000000
vn -0.000000 -1.000000 -0.000000
vn -0.000000 -1.000000 -0.000000
vn -0.000000 -1.000000 -0.000000
vn -0.000000 -1.000000 -0.000000
vn -0.000000 -1.000000 -0.000000
vn -0.000000 -1.000000 -0.000000
vn -0.000000 -1.000000 -0.000000
vn -0.000000 -1.000000 -0.000000
vn -0.000000 -1.000000 -0.000000
vn -0.000000 -1.000000 -0.000000
vn -0.000000 -1.000000 -0.000000
vn -0.000000 -1.000000 -0.000000
vn -0.000000 -1.000000 -0.000000
vn -0.000000 -1.000000 -0.000000
vn -0.000000 -1.000000 -0.000000
vn -0.000000 -1.000000 -0.000000
vn -0.000000 -1.000000 -0.000000
vn -0.000000 -1.000000 -0.000000
vn -0.000000 -1.000000 -0.000000
vn -0.000000 -1.000000 -0.000000
vn -0.000000 -1.000000 -0.000000
vn -0.000000 -1.000000 -0.000000
vn -0.000000 -1.000000 -0.000000
vn -0.000000 -1.000000 -0.000000
vn -0.000000 -1.000000 -0.000000
vn -0.000000 -1.000000 -0.000000
vn -0.000000 -1.000000 -0.000000
vn -0.000000 -1.000000 -0.000000
vn -0.000000 -1.000000 -0.000000
vn -0.000000 -1.000000 -0.000000
vn -0.000000 -1.000000 -0.000000
vn -0.000000 -1.000000 -0.000000
vn -0.000000 -1.000000 -0.000000
vn -0.000000 -1.000000 -0.000000
vn -0.000000 -1.000000 -0.000000
vn -0.000000 -1.000000 -0.000000
vn -0.000000 -1.000000 -0.000000
vn -0.000000 -1.000000 -0.000000
vn -0.000000 -1.000000 -0.000000
vn -0.000000 -1.000000 -0.000000
vn -0.000000 -1.000000 -0.000000
vn -0.000000 -1.000000 -0.000000
vn -0.000000 -1.000000 -0.000000
vn -0.000000 -1.000000 -0.000000
vn -0.000000 -1.000000 -0.000000
vn -0.000000 -1.000000 -0.000000
vn -0.000000 -1.000000 -0.000000
vn -0.000000 -1.000000 -0.000000
vn -0.000000 -1.000000 -0.000000
vn -0.000000 -1.000000 -0.000000
vn -0.000000 -1.000000 -0.000000
vn -0.000000 -1.000000 -0.000000
vn -0.000000 -1.000000 -0.000000
vn -0.000000 -1.000000 -0.000000
vn -0.000000 -1.000000 -0.000000
vn -0.000000 -1.000000 -0.000000
vn -0.000000 -1.000000 -0.000000
vn -0.000000 -1.000000 -0.000000
vn -0.000000 -1.000000 -0.000000
vn -0.000000 -1.000000 -0.000000
vn -0.000000 -1.000000 -0.000000
vn -0.000000 -1.000000 -0.000000
vn -0.000000 -1.000000 -0.000000
vn -0.000000 -1.000000 -0.000000
vn -0.000000 -1.000000 -0.000000
usemtl Steel_-_Satin
f 2/1/1 72/2/2 1/3/3
f 1/3/3 72/2/2 73/4/4
f 1/3/3 73/4/4 71/5/5
f 71/5/5 73/4/4 74/6/6
f 71/5/5 74/6/6 70/7/7
f 70/7/7 74/6/6 75/8/8
f 70/7/7 75/8/8 69/9/9
f 69/9/9 75/8/8 76/10/10
f 69/9/9 76/10/10 68/11/11
f 68/11/11 76/10/10 77/12/12
f 68/11/11 77/12/12 67/13/13
f 67/13/13 77/12/12 78/14/14
f 67/13/13 78/14/14 66/15/15
f 66/15/15 78/14/14 79/16/16
f 66/15/15 79/16/16 65/17/17
f 65/17/17 79/16/16 80/18/18
f 65/17/17 80/18/18 64/19/19
f 64/19/19 80/18/18 81/20/20
f 64/19/19 81/20/20 63/21/21
f 63/21/21 81/20/20 82/22/22
f 63/21/21 82/22/22 62/23/23
f 62/23/23 82/22/22 83/24/24
f 62/23/23 83/24/24 61/25/25
f 61/25/25 83/24/24 84/26/26
f 61/25/25 84/26/26 60/27/27
f 60/27/27 84/26/26 85/28/28
f 60/27/27 85/28/28 59/29/29
f 59/29/29 85/28/28 86/30/30
f 59/29/29 86/30/30 58/31/31
f 58/31/31 86/30/30 87/32/32
f 58/31/31 87/32/32 57/33/33
f 57/33/33 87/32/32 88/34/34
f 57/33/33 88/34/34 56/35/35
f 56/35/35 88/34/34 89/36/36
f 56/35/35 89/36/36 55/37/37
f 55/37/37 89/36/36 90/38/38
f 55/37/37 90/38/38 54/39/39
f 54/39/39 90/38/38 91/40/40
f 54/39/39 91/40/40 53/41/41
f 53/41/41 91/40/40 92/42/42
f 53/41/41 92/42/42 52/43/43
f 52/43/43 92/42/42 93/44/44
f 52/43/43 93/44/44 51/45/45
f 51/45/45 93/44/44 94/46/46
f 51/45/45 94/46/46 50/47/47
f 50/47/47 94/46/46 95/48/48
f 50/47/47 95/48/48 49/49/49
f 49/49/49 95/48/48 96/50/50
f 49/49/49 96/50/50 48/51/51
f 48/51/51 96/50/50 97/52/52
f 48/51/51 97/52/52 47/53/53
f 47/53/53 97/52/52 98/54/54
f 47/53/53 98/54/54 46/55/55
f 46/55/55 98/54/54 99/56/56
f 46/55/55 99/56/56 45/57/57
f 45/57/57 99/56/56 100/58/58
f 45/57/57 100/58/58 44/59/59
f 44/59/59 100/58/58 101/60/60
f 44/59/59 101/60/60 43/61/61
f 43/61/61 101/60/60 102/62/62
f 43/61/61 102/62/62 42/63/63
f 42/63/63 102/62/62 103/64/64
f 42/63/63 103/64/64 41/65/65
f 41/65/65 103/64/64 104/66/66
f 41/65/65 104/66/66 40/67/67
f 40/67/67 104/66/66 105/68/68
f 40/67/67 105/68/68 39/69/69
f 39/69/69 105/68/68 106/70/70
f 39/69/69 106/70/70 38/71/71
f 38/71/71 106/70/70 107/72/72
f 38/71/71 107/72/72 37/73/73
f 37/74/73 107/75/72 108/76/74
f 37/74/73 108/76/74 36/77/75
f 36/77/75 108/76/74 109/78/76
f 36/77/75 109/78/76 35/79/77
f 35/79/77 109/78/76 110/80/78
f 35/79/77 110/80/78 34/81/79
f 34/81/79 110/80/78 111/82/80
f 34/81/79 111/82/80 33/83/81
f 33/83/81 111/82/80 112/84/82
f 33/83/81 112/84/82 32/85/83
f 32/85/83 112/84/82 113/86/84
f 32/85/83 113/86/84 31/87/85
f 31/87/85 113/86/84 114/88/86
f 31/87/85 114/88/86 30/89/87
f 30/89/87 114/88/86 115/90/88
f 30/89/87 115/90/88 29/91/89
f 29/91/89 115/90/88 116/92/90
f 29/91/89 116/92/90 28/93/91
f 28/93/91 116/92/90 117/94/92
f 28/93/91 117/94/92 27/95/93
f 27/95/93 117/94/92 118/96/94
f 27/95/93 118/96/94 26/97/95
f 26/97/95 118/96/94 119/98/96
f 26/97/95 119/98/96 25/99/97
f 25/99/97 119/98/96 120/100/98
f 25/99/97 120/100/98 24/101/99
f 24/101/99 120/100/98 121/102/100
f 24/101/99 121/102/100 23/103/101
f 23/103/101 121/102/100 122/104/102
f 23/103/101 122/104/102 22/105/103
f 22/105/103 122/104/102 123/106/104
f 22/105/103 123/106/104 21/107/105
f 21/107/105 123/106/104 124/108/106
f 21/107/105 124/108/106 20/109/107
f 20/109/107 124/108/106 125/110/108
f 20/109/107 125/110/108 19/111/109
f 19/111/109 125/110/108 126/112/110
f 19/111/109 126/112/110 18/113/111
f 18/113/111 126/112/110 127/114/112
f 18/113/111 127/114/112 17/115/113
f 17/115/113 127/114/112 128/116/114
f 17/115/113 128/116/114 16/117/115
f 16/117/115 128/116/114 129/118/116
f 16/117/115 129/118/116 15/119/117
f 15/119/117 129/118/116 130/120/118
f 15/119/117 130/120/118 14/121/119
f 14/121/119 130/120/118 131/122/120
f 14/121/119 131/122/120 13/123/121
f 13/123/121 131/122/120 132/124/122
f 13/123/121 132/124/122 12/125/123
f 12/125/123 132/124/122 133/126/124
f 12/125/123 133/126/124 11/127/125
f 11/127/125 133/126/124 134/128/126
f 11/127/125 134/128/126 10/129/127
f 10/129/127 134/128/126 135/130/128
f 10/129/127 135/130/128 9/131/129
f 9/131/129 135/130/128 136/132/130
f 9/131/129 136/132/130 8/133/131
f 8/133/131 136/132/130 137/134/132
f 8/133/131 137/134/132 7/135/133
f 7/135/133 137/134/132 138/136/134
f 7/135/133 138/136/134 6/137/135
f 6/137/135 138/136/134 139/138/136
f 6/137/135 139/138/136 5/139/137
f 5/139/137 139/138/136 140/140/138
f 5/139/137 140/140/138 4/141/139
f 4/141/139 140/140/138 141/142/140
f 4/141/139 141/142/140 3/143/141
f 3/143/141 141/142/140 142/144/142
f 3/143/141 142/144/142 2/1/1
f 2/1/1 142/144/142 72/2/2
f 142/145/143 132/146/144 72/147/145
f 72/147/145 132/146/144 131/148/146
f 72/147/145 131/148/146 130/149/147
f 141/150/148 140/151/149 142/145/143
f 142/145/143 140/151/149 139/152/150
f 142/145/143 139/152/150 138/153/151
f 138/153/151 137/154/152 142/145/143
f 142/145/143 137/154/152 136/155/153
f 142/145/143 136/155/153 135/156/154
f 135/156/154 134/157/155 142/145/143
f 142/145/143 134/157/155 133/158/156
f 142/145/143 133/158/156 132/146/144
f 130/149/147 129/159/157 72/147/145
f 72/147/145 129/159/157 128/160/158
f 72/147/145 128/160/158 127/161/159
f 127/161/159 126/162/160 72/147/145
f 72/147/145 126/162/160 125/163/161
f 72/147/145 125/163/161 124/164/162
f 124/164/162 123/165/163 72/147/145
f 72/147/145 123/165/163 122/166/164
f 72/147/145 122/166/164 121/167/165
f 121/167/165 120/168/166 72/147/145
f 72/147/145 120/168/166 119/169/167
f 72/147/145 119/169/167 118/170/168
f 118/170/168 117/171/169 72/147/145
f 72/147/145 117/171/169 116/172/170
f 72/147/145 116/172/170 115/173/171
f 115/173/171 114/174/172 72/147/145
f 72/147/145 114/174/172 113/175/173
f 72/147/145 113/175/173 112/176/174
f 112/176/174 111/177/175 72/147/145
f 72/147/145 111/177/175 110/178/176
f 72/147/145 110/178/176 109/179/177
f 109/179/177 108/180/178 72/147/145
f 72/147/145 108/180/178 107/181/179
f 72/147/145 107/181/179 73/182/180
f 73/182/180 107/181/179 106/183/181
f 73/182/180 106/183/181 74/184/182
f 74/184/182 106/183/181 105/185/183
f 74/184/182 105/185/183 75/186/184
f 75/186/184 105/185/183 104/187/185
f 75/186/184 104/187/185 76/188/186
f 76/188/186 104/187/185 103/189/187
f 76/188/186 103/189/187 77/190/188
f 77/190/188 103/189/187 102/191/189
f 77/190/188 102/191/189 78/192/190
f 78/192/190 102/191/189 101/193/191
f 78/192/190 101/193/191 79/194/192
f 79/194/192 101/193/191 100/195/193
f 79/194/192 100/195/193 80/196/194
f 80/196/194 100/195/193 99/197/195
f 80/196/194 99/197/195 81/198/196
f 81/198/196 99/197/195 98/199/197
f 81/198/196 98/199/197 82/200/198
f 82/200/198 98/199/197 97/201/199
f 82/200/198 97/201/199 83/202/200
f 83/202/200 97/201/199 96/203/201
f 83/202/200 96/203/201 84/204/202
f 84/204/202 96/203/201 95/205/203
f 84/204/202 95/205/203 85/206/204
f 85/206/204 95/205/203 94/207/205
f 85/206/204 94/207/205 86/208/206
f 86/208/206 94/207/205 93/209/207
f 86/208/206 93/209/207 87/210/208
f 87/210/208 93/209/207 92/211/209
f 87/210/208 92/211/209 88/212/210
f 88/212/210 92/211/209 91/213/211
f 88/212/210 91/213/211 89/214/212
f 89/214/212 91/213/211 90/215/213
f 71/216/214 37/217/215 1/218/216
f 1/218/216 37/217/215 36/219/217
f 1/218/216 36/219/217 35/220/218
f 37/217/215 71/216/214 38/221/219
f 38/221/219 71/216/214 70/222/220
f 38/221/219 70/222/220 39/223/221
f 39/223/221 70/222/220 69/224/222
f 39/223/221 69/224/222 40/225/223
f 40/225/223 69/224/222 68/226/224
f 40/225/223 68/226/224 41/227/225
f 41/227/225 68/226/224 67/228/226
f 41/227/225 67/228/226 42/229/227
f 42/229/227 67/228/226 66/230/228
f 42/229/227 66/230/228 43/231/229
f 43/231/229 66/230/228 65/232/230
f 43/231/229 65/232/230 44/233/231
f 44/233/231 65/232/230 64/234/232
f 44/233/231 64/234/232 45/235/233
f 45/235/233 64/234/232 63/236/234
f 45/235/233 63/236/234 46/237/235
f 46/237/235 63/236/234 62/238/236
f 46/237/235 62/238/236 47/239/237
f 47/239/237 62/238/236 61/240/238
f 47/239/237 61/240/238 48/241/239
f 48/241/239 61/240/238 60/242/240
f 48/241/239 60/242/240 49/243/241
f 49/243/241 60/242/240 59/244/242
f 49/243/241 59/244/242 50/245/243
f 50/245/243 59/244/242 58/246/244
f 50/245/243 58/246/244 51/247/245
f 51/247/245 58/246/244 57/248/246
f 51/247/245 57/248/246 52/249/247
f 52/249/247 57/248/246 56/250/248
f 52/249/247 56/250/248 53/251/249
f 53/251/249 56/250/248 55/252/250
f 53/251/249 55/252/250 54/253/251
f 35/220/218 34/254/252 1/218/216
f 1/218/216 34/254/252 33/255/253
f 1/218/216 33/255/253 32/256/254
f 32/256/254 31/257/255 1/218/216
f 1/218/216 31/257/255 30/258/256
f 1/218/216 30/258/256 29/259/257
f 29/259/257 28/260/258 1/218/216
f 1/218/216 28/260/258 27/261/259
f 1/218/216 27/261/259 26/262/260
f 26/262/260 25/263/261 1/218/216
f 1/218/216 25/263/261 24/264/262
f 1/218/216 24/264/262 23/265/263
f 23/265/263 22/266/264 1/218/216
f 1/218/216 22/266/264 21/267/265
f 1/218/216 21/267/265 20/268/266
f 20/268/266 19/269/267 1/218/216
f 1/218/216 19/269/267 18/270/268
f 1/218/216 18/270/268 17/271/269
f 17/271/269 16/272/270 1/218/216
f 1/218/216 16/272/270 15/273/271
f 1/218/216 15/273/271 14/274/272
f 14/274/272 13/275/273 1/218/216
f 1/218/216 13/275/273 12/276/274
f 1/218/216 12/276/274 2/277/275
f 2/277/275 12/276/274 11/278/276
f 2/277/275 11/278/276 10/279/277
f 10/279/277 9/280/278 2/277/275
f 2/277/275 9/280/278 8/281/279
f 2/277/275 8/281/279 7/282/280
f 7/282/280 6/283/281 2/277/275
f 2/277/275 6/283/281 5/284/282
f 2/277/275 5/284/282 4/285/283
f 4/285/283 3/286/284 2/277/275
g Body1:3

v -7.211958 4.958737 1.363326
v -7.212741 4.958737 1.345650
v -7.215082 4.958737 1.328113
v -7.218965 4.958737 1.310851
v -7.224358 4.958737 1.293999
v -7.231219 4.958737 1.277690
v -7.239495 4.958737 1.262052
v -7.249121 4.958737 1.247206
v -7.260021 4.958737 1.233269
v -7.272110 4.958737 1.220349
v -7.285293 4.958737 1.208549
v -7.299468 4.958737 1.197960
v -7.314523 4.958737 1.188665
v -7.330341 4.958737 1.180737
v -7.346798 4.958737 1.174239
v -7.363764 4.958737 1.169220
v -7.381108 4.958737 1.165720
v -7.398693 4.958737 1.163767
v -7.416382 4.958737 1.163375
v -7.434037 4.958737 1.164549
v -7.451518 4.958737 1.167278
v -7.468690 4.958737 1.171542
v -7.485418 4.958737 1.177306
v -7.501571 4.958737 1.184526
v -7.517023 4.958737 1.193146
v -7.531652 4.958737 1.203098
v -7.545345 4.958737 1.214303
v -7.557994 4.958737 1.226675
v -7.569500 4.958737 1.240117
v -7.579772 4.958737 1.254522
v -7.588732 4.958737 1.269780
v -7.596308 4.958737 1.285769
v -7.602441 4.958737 1.302365
v -7.607083 4.958737 1.319439
v -7.610199 4.958737 1.336856
v -7.611762 4.958737 1.354480
v -7.611762 4.958737 1.372173
v -7.610199 4.958737 1.389797
v -7.607083 4.958737 1.407214
v -7.602441 4.958737 1.424288
v -7.596308 4.958737 1.440884
v -7.588732 4.958737 1.456873
v -7.579772 4.958737 1.472130
v -7.569500 4.958737 1.486536
v -7.557994 4.958737 1.499978
v -7.545345 4.958737 1.512349
v -7.531652 4.958737 1.523555
v -7.517023 4.958737 1.533507
v -7.501571 4.958737 1.542126
v -7.485418 4.958737 1.549347
v -7.468690 4.958737 1.555111
v -7.451518 4.958737 1.559375
v -7.434037 4.958737 1.562104
v -7.416382 4.958737 1.563277
v -7.398693 4.958737 1.562886
v -7.381108 4.958737 1.560933
v -7.363764 4.958737 1.557433
v -7.346798 4.958737 1.552414
v -7.330341 4.958737 1.545915
v -7.314523 4.958737 1.537988
v -7.299468 4.958737 1.528693
v -7.285293 4.958737 1.518104
v -7.272110 4.958737 1.506303
v -7.260021 4.958737 1.493384
v -7.249121 4.958737 1.479447
v -7.239495 4.958737 1.464601
v -7.231219 4.958737 1.448962
v -7.224358 4.958737 1.432654
v -7.218965 4.958737 1.415802
v -7.215082 4.958737 1.398540
v -7.212741 4.958737 1.381002
v -7.211958 4.978737 1.363326
v -7.212741 4.978737 1.381002
v -7.215082 4.978737 1.398540
v -7.218965 4.978737 1.415802
v -7.224358 4.978737 1.432654
v -7.231219 4.978737 1.448962
v -7.239495 4.978737 1.464601
v -7.249121 4.978737 1.479447
v -7.260021 4.978737 1.493384
v -7.272110 4.978737 1.506303
v -7.285293 4.978737 1.518104
v -7.299468 4.978737 1.528693
v -7.314523 4.978737 1.537988
v -7.330341 4.978737 1.545915
v -7.346798 4.978737 1.552414
v -7.363764 4.978737 1.557433
v -7.381108 4.978737 1.560933
v -7.398693 4.978737 1.562886
v -7.416382 4.978737 1.563277
v -7.434037 4.978737 1.562104
v -7.451518 4.978737 1.559375
v -7.468690 4.978737 1.555111
v -7.485418 4.978737 1.549347
v -7.501571 4.978737 1.542126
v -7.517023 4.978737 1.533507
v -7.531652 4.978737 1.523555
v -7.545345 4.978737 1.512349
v -7.557994 4.978737 1.499978
v -7.569500 4.978737 1.486536
v -7.579772 4.978737 1.472130
v -7.588732 4.978737 1.456873
v -7.596308 4.978737 1.440884
v -7.602441 4.978737 1.424288
v -7.607083 4.978737 1.407214
v -7.610199 4.978737 1.389797
v -7.611762 4.978737 1.372173
v -7.611762 4.978737 1.354480
v -7.610199 4.978737 1.336856
v -7.607083 4.978737 1.319439
v -7.602441 4.978737 1.302365
v -7.596308 4.978737 1.285769
v -7.588732 4.978737 1.269780
v -7.579772 4.978737 1.254522
v -7.569500 4.978737 1.240117
v -7.557994 4.978737 1.226675
v -7.545345 4.978737 1.214303
v -7.531652 4.978737 1.203098
v -7.517023 4.978737 1.193146
v -7.501571 4.978737 1.184526
v -7.485418 4.978737 1.177306
v -7.468690 4.978737 1.171542
v -7.451518 4.978737 1.167278
v -7.434037 4.978737 1.164549
v -7.416382 4.978737 1.163375
v -7.398693 4.978737 1.163767
v -7.381108 4.978737 1.165720
v -7.363764 4.978737 1.169220
v -7.346798 4.978737 1.174239
v -7.330341 4.978737 1.180737
v -7.314523 4.978737 1.188665
v -7.299468 4.978737 1.197960
v -7.285293 4.978737 1.208549
v -7.272110 4.978737 1.220349
v -7.260021 4.978737 1.233269
v -7.249121 4.978737 1.247206
v -7.239495 4.978737 1.262052
v -7.231219 4.978737 1.277690
v -7.224358 4.978737 1.293999
v -7.218965 4.978737 1.310851
v -7.215082 4.978737 1.328113
v -7.212741 4.978737 1.345650
vt 0.000000 0.017699 0.000000
vt -0.020000 0.000000 0.000000
vt -0.000000 0.000000 0.000000
vt -0.020000 -0.017699 0.000000
vt -0.000000 -0.017699 0.000000
vt -0.020000 -0.035398 0.000000
vt -0.000000 -0.035398 0.000000
vt -0.020000 -0.053097 0.000000
vt -0.000000 -0.053097 0.000000
vt -0.020000 -0.070796 0.000000
vt -0.000000 -0.070796 0.000000
vt -0.020000 -0.088496 0.000000
vt -0.000000 -0.088496 0.000000
vt -0.020000 -0.106195 0.000000
vt -0.000000 -0.106195 0.000000
vt -0.020000 -0.123894 0.000000
vt -0.000000 -0.123894 0.000000
vt -0.020000 -0.141593 0.000000
vt -0.000000 -0.141593 0.000000
vt -0.020000 -0.159292 0.000000
vt -0.000000 -0.159292 0.000000
vt -0.020000 -0.176991 0.000000
vt -0.000000 -0.176991 0.000000
vt -0.020000 -0.194690 0.000000
vt -0.000000 -0.194690 0.000000
vt -0.020000 -0.212389 0.000000
vt -0.000000 -0.212389 0.000000
vt -0.020000 -0.230088 0.000000
vt -0.000000 -0.230088 0.000000
vt -0.020000 -0.247788 0.000000
vt -0.000000 -0.247788 0.000000
vt -0.020000 -0.265487 0.000000
vt -0.000000 -0.265487 0.000000
vt -0.020000 -0.283186 0.000000
vt -0.000000 -0.283186 0.000000
vt -0.020000 -0.300885 0.000000
vt -0.000000 -0.300885 0.000000
vt -0.020000 -0.318584 0.000000
vt -0.000000 -0.318584 0.000000
vt -0.020000 -0.336283 0.000000
vt -0.000000 -0.336283 0.000000
vt -0.020000 -0.353982 0.000000
vt -0.000000 -0.353982 0.000000
vt -0.020000 -0.371681 0.000000
vt -0.000000 -0.371681 0.000000
vt -0.020000 -0.389380 0.000000
vt -0.000000 -0.389380 0.000000
vt -0.020000 -0.407080 0.000000
vt -0.000000 -0.407080 0.000000
vt -0.020000 -0.424779 0.000000
vt -0.000000 -0.424779 0.000000
vt -0.020000 -0.442478 0.000000
vt -0.000000 -0.442478 0.000000
vt -0.020000 -0.460177 0.000000
vt -0.000000 -0.460177 0.000000
vt -0.020000 -0.477876 0.000000
vt -0.000000 -0.477876 0.000000
vt -0.020000 -0.495575 0.000000
vt -0.000000 -0.495575 0.000000
vt -0.020000 -0.513274 0.000000
vt -0.000000 -0.513274 0.000000
vt -0.020000 -0.530973 0.000000
vt -0.000000 -0.530973 0.000000
vt -0.020000 -0.548673 0.000000
vt -0.000000 -0.548673 0.000000
vt -0.020000 -0.566372 0.000000
vt -0.000000 -0.566372 0.000000
vt -0.020000 -0.584071 0.000000
vt -0.000000 -0.584071 0.000000
vt -0.020000 -0.601770 0.000000
vt -0.000000 -0.601770 0.000000
vt -0.020000 -0.619469 0.000000
vt -0.000000 -0.619469 0.000000
vt -0.000000 0.637168 0.000000
vt -0.020000 0.637168 0.000000
vt -0.020000 0.619469 0.000000
vt 0.000000 0.619469 0.000000
vt -0.020000 0.601770 0.000000
vt 0.000000 0.601770 0.000000
vt -0.020000 0.584071 0.000000
vt 0.000000 0.584071 0.000000
vt -0.020000 0.566372 0.000000
vt 0.000000 0.566372 0.000000
vt -0.020000 0.548673 0.000000
vt 0.000000 0.548673 0.000000
vt -0.020000 0.530973 0.000000
vt 0.000000 0.530973 0.000000
vt -0.020000 0.513274 0.000000
vt 0.000000 0.513274 0.000000
vt -0.020000 0.495575 0.000000
vt 0.000000 0.495575 0.000000
vt -0.020000 0.477876 0.000000
vt 0.000000 0.477876 0.000000
vt -0.020000 0.460177 0.000000
vt 0.000000 0.460177 0.000000
vt -0.020000 0.442478 0.000000
vt 0.000000 0.442478 0.000000
vt -0.020000 0.424779 0.000000
vt 0.000000 0.424779 0.000000
vt -0.020000 0.407080 0.000000
vt 0.000000 0.407080 0.000000
vt -0.020000 0.389380 0.000000
vt 0.000000 0.389380 0.000000
vt -0.020000 0.371681 0.000000
vt 0.000000 0.371681 0.000000
vt -0.020000 0.353982 0.000000
vt 0.000000 0.353982 0.000000
vt -0.020000 0.336283 0.000000
vt 0.000000 0.336283 0.000000
vt -0.020000 0.318584 0.000000
vt 0.000000 0.318584 0.000000
vt -0.020000 0.300885 0.000000
vt 0.000000 0.300885 0.000000
vt -0.020000 0.283186 0.000000
vt 0.000000 0.283186 0.000000
vt -0.020000 0.265487 0.000000
vt 0.000000 0.265487 0.000000
vt -0.020000 0.247788 0.000000
vt 0.000000 0.247788 0.000000
vt -0.020000 0.230088 0.000000
vt 0.000000 0.230088 0.000000
vt -0.020000 0.212389 0.000000
vt 0.000000 0.212389 0.000000
vt -0.020000 0.194690 0.000000
vt 0.000000 0.194690 0.000000
vt -0.020000 0.176991 0.000000
vt 0.000000 0.176991 0.000000
vt -0.020000 0.159292 0.000000
vt 0.000000 0.159292 0.000000
vt -0.020000 0.141593 0.000000
vt 0.000000 0.141593 0.000000
vt -0.020000 0.123894 0.000000
vt 0.000000 0.123894 0.000000
vt -0.020000 0.106195 0.000000
vt 0.000000 0.106195 0.000000
vt -0.020000 0.088496 0.000000
vt 0.000000 0.088496 0.000000
vt -0.020000 0.070796 0.000000
vt 0.000000 0.070796 0.000000
vt -0.020000 0.053097 0.000000
vt 0.000000 0.053097 0.000000
vt -0.020000 0.035398 0.000000
vt 0.000000 0.035398 0.000000
vt -0.020000 0.017699 0.000000
vt 0.199217 0.017676 0.000000
vt 0.112490 0.165366 0.000000
vt 0.200000 0.000000 0.000000
vt 0.097435 0.174661 0.000000
vt 0.081617 0.182589 0.000000
vt 0.196876 0.035214 0.000000
vt 0.192993 0.052476 0.000000
vt 0.187600 0.069327 0.000000
vt 0.180739 0.085636 0.000000
vt 0.172463 0.101275 0.000000
vt 0.162837 0.116121 0.000000
vt 0.151937 0.130058 0.000000
vt 0.139848 0.142977 0.000000
vt 0.126665 0.154777 0.000000
vt 0.065160 0.189088 0.000000
vt 0.048194 0.194107 0.000000
vt 0.030850 0.197606 0.000000
vt 0.013265 0.199560 0.000000
vt -0.004424 0.199951 0.000000
vt -0.022079 0.198778 0.000000
vt -0.039560 0.196048 0.000000
vt -0.056732 0.191785 0.000000
vt -0.073460 0.186020 0.000000
vt -0.089613 0.178800 0.000000
vt -0.105065 0.170180 0.000000
vt -0.119694 0.160229 0.000000
vt -0.133387 0.149023 0.000000
vt -0.146036 0.136651 0.000000
vt -0.157542 0.123210 0.000000
vt -0.167814 0.108804 0.000000
vt -0.176774 0.093547 0.000000
vt -0.184350 0.077558 0.000000
vt -0.190483 0.060961 0.000000
vt -0.195125 0.043888 0.000000
vt -0.198241 0.026471 0.000000
vt -0.199804 0.008847 0.000000
vt -0.199804 -0.008847 0.000000
vt 0.199217 -0.017676 0.000000
vt -0.198241 -0.026471 0.000000
vt 0.196876 -0.035214 0.000000
vt -0.195125 -0.043888 0.000000
vt 0.192993 -0.052476 0.000000
vt -0.190483 -0.060961 0.000000
vt 0.187600 -0.069327 0.000000
vt -0.184350 -0.077558 0.000000
vt 0.180739 -0.085636 0.000000
vt -0.176774 -0.093547 0.000000
vt 0.172463 -0.101275 0.000000
vt -0.167814 -0.108804 0.000000
vt 0.162837 -0.116121 0.000000
vt -0.157542 -0.123210 0.000000
vt 0.151937 -0.130058 0.000000
vt -0.146036 -0.136651 0.000000
vt 0.139848 -0.142977 0.000000
vt -0.133387 -0.149023 0.000000
vt 0.126665 -0.154777 0.000000
vt -0.119694 -0.160229 0.000000
vt 0.112490 -0.165366 0.000000
vt -0.105065 -0.170180 0.000000
vt 0.097435 -0.174661 0.000000
vt -0.089613 -0.178800 0.000000
vt 0.081617 -0.182589 0.000000
vt -0.073460 -0.186020 0.000000
vt 0.065160 -0.189088 0.000000
vt -0.056732 -0.191785 0.000000
vt 0.048194 -0.194107 0.000000
vt -0.039560 -0.196048 0.000000
vt 0.030850 -0.197606 0.000000
vt -0.022079 -0.198778 0.000000
vt 0.013265 -0.199560 0.000000
vt -0.004424 -0.199951 0.000000
vt -0.199217 -0.017676 0.000000
vt 0.199804 -0.008847 0.000000
vt -0.200000 0.000000 0.000000
vt 0.199804 0.008847 0.000000
vt 0.198241 0.026471 0.000000
vt 0.198241 -0.026471 0.000000
vt -0.196876 -0.035214 0.000000
vt 0.195125 -0.043888 0.000000
vt -0.192993 -0.052476 0.000000
vt 0.190483 -0.060961 0.000000
vt -0.187600 -0.069327 0.000000
vt 0.184350 -0.077558 0.000000
vt -0.180739 -0.085636 0.000000
vt 0.176774 -0.093547 0.000000
vt -0.172463 -0.101275 0.000000
vt 0.167814 -0.108804 0.000000
vt -0.162837 -0.116121 0.000000
vt 0.157542 -0.123210 0.000000
vt -0.151937 -0.130058 0.000000
vt 0.146036 -0.136651 0.000000
vt -0.139848 -0.142977 0.000000
vt 0.133387 -0.149023 0.000000
vt -0.126665 -0.154777 0.000000
vt 0.119694 -0.160229 0.000000
vt -0.112490 -0.165366 0.000000
vt 0.105065 -0.170180 0.000000
vt -0.097435 -0.174661 0.000000
vt 0.089613 -0.178800 0.000000
vt -0.081617 -0.182589 0.000000
vt 0.073460 -0.186020 0.000000
vt -0.065160 -0.189088 0.000000
vt 0.056732 -0.191785 0.000000
vt -0.048194 -0.194107 0.000000
vt 0.039560 -0.196048 0.000000
vt -0.030850 -0.197606 0.000000
vt 0.022079 -0.198778 0.000000
vt -0.013265 -0.199560 0.000000
vt 0.004424 -0.199951 0.000000
vt 0.195125 0.043888 0.000000
vt 0.190483 0.060961 0.000000
vt 0.184350 0.077558 0.000000
vt 0.176774 0.093547 0.000000
vt 0.167814 0.108804 0.000000
vt 0.157542 0.123210 0.000000
vt 0.146036 0.136651 0.000000
vt 0.133387 0.149023 0.000000
vt 0.119694 0.160229 0.000000
vt 0.105065 0.170180 0.000000
vt 0.089613 0.178800 0.000000
vt 0.073460 0.186020 0.000000
vt 0.056732 0.191785 0.000000
vt 0.039560 0.196048 0.000000
vt 0.022079 0.198778 0.000000
vt 0.004424 0.199951 0.000000
vt -0.013265 0.199560 0.000000
vt -0.030850 0.197606 0.000000
vt -0.048194 0.194107 0.000000
vt -0.065160 0.189088 0.000000
vt -0.081617 0.182589 0.000000
vt -0.097435 0.174661 0.000000
vt -0.112490 0.165366 0.000000
vt -0.199217 0.017676 0.000000
vt -0.126665 0.154777 0.000000
vt -0.139848 0.142977 0.000000
vt -0.151937 0.130058 0.000000
vt -0.162837 0.116121 0.000000
vt -0.172463 0.101275 0.000000
vt -0.180739 0.085636 0.000000
vt -0.187600 0.069327 0.000000
vt -0.192993 0.052476 0.000000
vt -0.196876 0.035214 0.000000
vn 0.996087 0.000000 -0.088380
vn 1.000000 0.000000 -0.000000
vn 1.000000 -0.000000 -0.000000
vn 0.996087 -0.000000 0.088380
vn 0.996087 -0.000000 0.088380
vn 0.984378 -0.000000 0.176069
vn 0.984378 -0.000000 0.176069
vn 0.964965 -0.000000 0.262379
vn 0.964965 -0.000000 0.262379
vn 0.938000 -0.000000 0.346636
vn 0.938000 -0.000000 0.346636
vn 0.903693 -0.000000 0.428180
vn 0.903693 -0.000000 0.428180
vn 0.862315 -0.000000 0.506373
vn 0.862315 -0.000000 0.506373
vn 0.814187 -0.000000 0.580603
vn 0.814187 -0.000000 0.580603
vn 0.759687 -0.000000 0.650289
vn 0.759687 -0.000000 0.650289
vn 0.699242 -0.000000 0.714885
vn 0.699242 -0.000000 0.714885
vn 0.633324 -0.000000 0.773887
vn 0.633324 -0.000000 0.773887
vn 0.562449 -0.000000 0.826832
vn 0.562449 -0.000000 0.826832
vn 0.487173 -0.000000 0.873306
vn 0.487173 -0.000000 0.873306
vn 0.408084 -0.000000 0.912945
vn 0.408084 -0.000000 0.912945
vn 0.325801 -0.000000 0.945439
vn 0.325801 -0.000000 0.945439
vn 0.240968 -0.000000 0.970533
vn 0.240968 -0.000000 0.970533
vn 0.154249 -0.000000 0.988032
vn 0.154249 -0.000000 0.988032
vn 0.066323 -0.000000 0.997798
vn 0.066323 -0.000000 0.997798
vn -0.022122 -0.000000 0.999755
vn -0.022122 -0.000000 0.999755
vn -0.110394 -0.000000 0.993888
vn -0.110394 -0.000000 0.993888
vn -0.197802 -0.000000 0.980242
vn -0.197802 -0.000000 0.980242
vn -0.283662 -0.000000 0.958924
vn -0.283662 -0.000000 0.958924
vn -0.367302 -0.000000 0.930102
vn -0.367302 -0.000000 0.930102
vn -0.448067 -0.000000 0.894000
vn -0.448067 -0.000000 0.894000
vn -0.525325 -0.000000 0.850902
vn -0.525325 -0.000000 0.850902
vn -0.598472 -0.000000 0.801143
vn -0.598472 -0.000000 0.801143
vn -0.666936 -0.000000 0.745115
vn -0.666936 -0.000000 0.745115
vn -0.730179 -0.000000 0.683256
vn -0.730179 -0.000000 0.683256
vn -0.787708 -0.000000 0.616049
vn -0.787708 -0.000000 0.616049
vn -0.839072 -0.000000 0.544020
vn -0.839072 -0.000000 0.544020
vn -0.883869 -0.000000 0.467734
vn -0.883869 -0.000000 0.467734
vn -0.921749 -0.000000 0.387788
vn -0.921749 -0.000000 0.387788
vn -0.952415 -0.000000 0.304806
vn -0.952415 -0.000000 0.304806
vn -0.975626 -0.000000 0.219439
vn -0.975626 -0.000000 0.219439
vn -0.991203 -0.000000 0.132354
vn -0.991203 -0.000000 0.132354
vn -0.999021 -0.000000 0.044233
vn -0.999021 -0.000000 0.044233
vn -0.999021 0.000000 -0.044233
vn -0.999021 0.000000 -0.044233
vn -0.991203 0.000000 -0.132354
vn -0.991203 0.000000 -0.132354
vn -0.975626 0.000000 -0.219439
vn -0.975626 0.000000 -0.219439
vn -0.952415 0.000000 -0.304806
vn -0.952415 0.000000 -0.304806
vn -0.921749 0.000000 -0.387788
vn -0.921749 0.000000 -0.387788
vn -0.883869 0.000000 -0.467734
vn -0.883869 0.000000 -0.467734
vn -0.839072 0.000000 -0.544020
vn -0.839072 0.000000 -0.544020
vn -0.787708 0.000000 -0.616049
vn -0.787708 0.000000 -0.616049
vn -0.730179 0.000000 -0.683256
vn -0.730179 0.000000 -0.683256
vn -0.666936 0.000000 -0.745115
vn -0.666936 0.000000 -0.745115
vn -0.598472 0.000000 -0.801143
vn -0.598472 0.000000 -0.801143
vn -0.525325 0.000000 -0.850902
vn -0.525325 0.000000 -0.850902
vn -0.448067 0.000000 -0.894000
vn -0.448067 0.000000 -0.894000
vn -0.367302 0.000000 -0.930102
vn -0.367302 0.000000 -0.930102
vn -0.283662 0.000000 -0.958924
vn -0.283662 0.000000 -0.958924
vn -0.197802 0.000000 -0.980242
vn -0.197802 0.000000 -0.980242
vn -0.110394 0.000000 -0.993888
vn -0.110394 0.000000 -0.993888
vn -0.022122 0.000000 -0.999755
vn -0.022122 0.000000 -0.999755
vn 0.066323 0.000000 -0.997798
vn 0.066323 0.000000 -0.997798
vn 0.154249 0.000000 -0.988032
vn 0.154249 0.000000 -0.988032
vn 0.240968 0.000000 -0.970533
vn 0.240968 0.000000 -0.970533
vn 0.325801 0.000000 -0.945439
vn 0.325801 0.000000 -0.945439
vn 0.408084 0.000000 -0.912945
vn 0.408084 0.000000 -0.912945
vn 0.487173 0.000000 -0.873306
vn 0.487173 0.000000 -0.873306
vn 0.562449 0.000000 -0.826832
vn 0.562449 0.000000 -0.826832
vn 0.633324 0.000000 -0.773887
vn 0.633324 0.000000 -0.773887
vn 0.699242 0.000000 -0.714885
vn 0.699242 0.000000 -0.714885
vn 0.759687 0.000000 -0.650289
vn 0.759687 0.000000 -0.650289
vn 0.814187 0.000000 -0.580603
vn 0.814187 0.000000 -0.580603
vn 0.862315 0.000000 -0.506373
vn 0.862315 0.000000 -0.506373
vn 0.903693 0.000000 -0.428180
vn 0.903693 0.000000 -0.428180
vn 0.938000 0.000000 -0.346636
vn 0.938000 0.000000 -0.346636
vn 0.964965 0.000000 -0.262379
vn 0.964965 0.000000 -0.262379
vn 0.984378 0.000000 -0.176069
vn 0.984378 0.000000 -0.176069
vn 0.996087 0.000000 -0.088380
vn 0.000000 1.000000 0.000000
vn 0.000000 1.000000 0.000000
vn 0.000000 1.000000 0.000000
vn 0.000000 1.000000 0.000000
vn 0.000000 1.000000 0.000000
vn 0.000000 1.000000 0.000000
vn 0.000000 1.000000 0.000000
vn 0.000000 1.000000 0.000000
vn 0.000000 1.000000 0.000000
vn 0.000000 1.000000 0.000000
vn 0.000000 1.000000 0.000000
vn 0.000000 1.000000 0.000000
vn 0.000000 1.000000 0.000000
vn 0.000000 1.000000 0.000000
vn 0.000000 1.000000 0.000000
vn 0.000000 1.000000 0.000000
vn 0.000000 1.000000 0.000000
vn 0.000000 1.000000 0.000000
vn 0.000000 1.000000 0.000000
vn 0.000000 1.000000 0.000000
vn 0.000000 1.000000 0.000000
vn 0.000000 1.000000 0.000000
vn 0.000000 1.000000 0.000000
vn 0.000000 1.000000 0.000000
vn 0.000000 1.000000 0.000000
vn 0.000000 1.000000 0.000000
vn 0.000000 1.000000 0.000000
vn 0.000000 1.000000 0.000000
vn 0.000000 1.000000 0.000000
vn 0.000000 1.000000 0.000000
vn 0.000000 1.000000 0.000000
vn 0.000000 1.000000 0.000000
vn 0.000000 1.000000 0.000000
vn 0.000000 1.000000 0.000000
vn 0.000000 1.000000 0.000000
vn 0.000000 1.000000 0.000000
vn 0.000000 1.000000 0.000000
vn 0.000000 1.000000 0.000000
vn 0.000000 1.000000 0.000000
vn 0.000000 1.000000 0.000000
vn 0.000000 1.000000 0.000000
vn 0.000000 1.000000 0.000000
vn 0.000000 1.000000 0.000000
vn 0.000000 1.000000 0.000000
vn 0.000000 1.000000 0.000000
vn 0.000000 1.000000 0.000000
vn 0.000000 1.000000 0.000000
vn 0.000000 1.000000 0.000000
vn 0.000000 1.000000 0.000000
vn 0.000000 1.000000 0.000000
vn 0.000000 1.000000 0.000000
vn 0.000000 1.000000 0.000000
vn 0.000000 1.000000 0.000000
vn 0.000000 1.000000 0.000000
vn 0.000000 1.000000 0.000000
vn 0.000000 1.000000 0.000000
vn 0.000000 1.000000 0.000000
vn 0.000000 1.000000 0.000000
vn 0.000000 1.000000 0.000000
vn 0.000000 1.000000 0.000000
vn 0.000000 1.000000 0.000000
vn 0.000000 1.000000 0.000000
vn 0.000000 1.000000 0.000000
vn 0.000000 1.000000 0.000000
vn 0.000000 1.000000 0.000000
vn 0.000000 1.000000 0.000000
vn 0.000000 1.000000 0.000000
vn 0.000000 1.000000 0.000000
vn 0.000000 1.000000 0.000000
vn 0.000000 1.000000 0.000000
vn 0.000000 1.000000 0.000000
vn -0.000000 -1.000000 -0.000000
vn -0.000000 -1.000000 -0.000000
vn -0.000000 -1.000000 -0.000000
vn -0.000000 -1.000000 -0.000000
vn -0.000000 -1.000000 -0.000000
vn -0.000000 -1.000000 -0.000000
vn -0.000000 -1.000000 -0.000000
vn -0.000000 -1.000000 -0.000000
vn -0.000000 -1.000000 -0.000000
vn -0.000000 -1.000000 -0.000000
vn -0.000000 -1.000000 -0.000000
vn -0.000000 -1.000000 -0.000000
vn -0.000000 -1.000000 -0.000000
vn -0.000000 -1.000000 -0.000000
vn -0.000000 -1.000000 -0.000000
vn -0.000000 -1.000000 -0.000000
vn -0.000000 -1.000000 -0.000000
vn -0.000000 -1.000000 -0.000000
vn -0.000000 -1.000000 -0.000000
vn -0.000000 -1.000000 -0.000000
vn -0.000000 -1.000000 -0.000000
vn -0.000000 -1.000000 -0.000000
vn -0.000000 -1.000000 -0.000000
vn -0.000000 -1.000000 -0.000000
vn -0.000000 -1.000000 -0.000000
vn -0.000000 -1.000000 -0.000000
vn -0.000000 -1.000000 -0.000000
vn -0.000000 -1.000000 -0.000000
vn -0.000000 -1.000000 -0.000000
vn -0.000000 -1.000000 -0.000000
vn -0.000000 -1.000000 -0.000000
vn -0.000000 -1.000000 -0.000000
vn -0.000000 -1.000000 -0.000000
vn -0.000000 -1.000000 -0.000000
vn -0.000000 -1.000000 -0.000000
vn -0.000000 -1.000000 -0.000000
vn -0.000000 -1.000000 -0.000000
vn -0.000000 -1.000000 -0.000000
vn -0.000000 -1.000000 -0.000000
vn -0.000000 -1.000000 -0.000000
vn -0.000000 -1.000000 -0.000000
vn -0.000000 -1.000000 -0.000000
vn -0.000000 -1.000000 -0.000000
vn -0.000000 -1.000000 -0.000000
vn -0.000000 -1.000000 -0.000000
vn -0.000000 -1.000000 -0.000000
vn -0.000000 -1.000000 -0.000000
vn -0.000000 -1.000000 -0.000000
vn -0.000000 -1.000000 -0.000000
vn -0.000000 -1.000000 -0.000000
vn -0.000000 -1.000000 -0.000000
vn -0.000000 -1.000000 -0.000000
vn -0.000000 -1.000000 -0.000000
vn -0.000000 -1.000000 -0.000000
vn -0.000000 -1.000000 -0.000000
vn -0.000000 -1.000000 -0.000000
vn -0.000000 -1.000000 -0.000000
vn -0.000000 -1.000000 -0.000000
vn -0.000000 -1.000000 -0.000000
vn -0.000000 -1.000000 -0.000000
vn -0.000000 -1.000000 -0.000000
vn -0.000000 -1.000000 -0.000000
vn -0.000000 -1.000000 -0.000000
vn -0.000000 -1.000000 -0.000000
vn -0.000000 -1.000000 -0.000000
vn -0.000000 -1.000000 -0.000000
vn -0.000000 -1.000000 -0.000000
vn -0.000000 -1.000000 -0.000000
vn -0.000000 -1.000000 -0.000000
vn -0.000000 -1.000000 -0.000000
vn -0.000000 -1.000000 -0.000000
f 144/287/285 214/288/286 143/289/287
f 143/289/287 214/288/286 215/290/288
f 143/289/287 215/290/288 213/291/289
f 213/291/289 215/290/288 216/292/290
f 213/291/289 216/292/290 212/293/291
f 212/293/291 216/292/290 217/294/292
f 212/293/291 217/294/292 211/295/293
f 211/295/293 217/294/292 218/296/294
f 211/295/293 218/296/294 210/297/295
f 210/297/295 218/296/294 219/298/296
f 210/297/295 219/298/296 209/299/297
f 209/299/297 219/298/296 220/300/298
f 209/299/297 220/300/298 208/301/299
f 208/301/299 220/300/298 221/302/300
f 208/301/299 221/302/300 207/303/301
f 207/303/301 221/302/300 222/304/302
f 207/303/301 222/304/302 206/305/303
f 206/305/303 222/304/302 223/306/304
f 206/305/303 223/306/304 205/307/305
f 205/307/305 223/306/304 224/308/306
f 205/307/305 224/308/306 204/309/307
f 204/309/307 224/308/306 225/310/308
f 204/309/307 225/310/308 203/311/309
f 203/311/309 225/310/308 226/312/310
f 203/311/309 226/312/310 202/313/311
f 202/313/311 226/312/310 227/314/312
f 202/313/311 227/314/312 201/315/313
f 201/315/313 227/314/312 228/316/314
f 201/315/313 228/316/314 200/317/315
f 200/317/315 228/316/314 229/318/316
f 200/317/315 229/318/316 199/319/317
f 199/319/317 229/318/316 230/320/318
f 199/319/317 230/320/318 198/321/319
f 198/321/319 230/320/318 231/322/320
f 198/321/319 231/322/320 197/323/321
f 197/323/321 231/322/320 232/324/322
f 197/323/321 232/324/322 196/325/323
f 196/325/323 232/324/322 233/326/324
f 196/325/323 233/326/324 195/327/325
f 195/327/325 233/326/324 234/328/326
f 195/327/325 234/328/326 194/329/327
f 194/329/327 234/328/326 235/330/328
f 194/329/327 235/330/328 193/331/329
f 193/331/329 235/330/328 236/332/330
f 193/331/329 236/332/330 192/333/331
f 192/333/331 236/332/330 237/334/332
f 192/333/331 237/334/332 191/335/333
f 191/335/333 237/334/332 238/336/334
f 191/335/333 238/336/334 190/337/335
f 190/337/335 238/336/334 239/338/336
f 190/337/335 239/338/336 189/339/337
f 189/339/337 239/338/336 240/340/338
f 189/339/337 240/340/338 188/341/339
f 188/341/339 240/340/338 241/342/340
f 188/341/339 241/342/340 187/343/341
f 187/343/341 241/342/340 242/344/342
f 187/343/341 242/344/342 186/345/343
f 186/345/343 242/344/342 243/346/344
f 186/345/343 243/346/344 185/347/345
f 185/347/345 243/346/344 244/348/346
f 185/347/345 244/348/346 184/349/347
f 184/349/347 244/348/346 245/350/348
f 184/349/347 245/350/348 183/351/349
f 183/351/349 245/350/348 246/352/350
f 183/351/349 246/352/350 182/353/351
f 182/353/351 246/352/350 247/354/352
f 182/353/351 247/354/352 181/355/353
f 181/355/353 247/354/352 248/356/354
f 181/355/353 248/356/354 180/357/355
f 180/357/355 248/356/354 249/358/356
f 180/357/355 249/358/356 179/359/357
f 179/360/357 249/361/356 250/362/358
f 179/360/357 250/362/358 178/363/359
f 178/363/359 250/362/358 251/364/360
f 178/363/359 251/364/360 177/365/361
f 177/365/361 251/364/360 252/366/362
f 177/365/361 252/366/362 176/367/363
f 176/367/363 252/366/362 253/368/364
f 176/367/363 253/368/364 175/369/365
f 175/369/365 253/368/364 254/370/366
f 175/369/365 254/370/366 174/371/367
f 174/371/367 254/370/366 255/372/368
f 174/371/367 255/372/368 173/373/369
f 173/373/369 255/372/368 256/374/370
f 173/373/369 256/374/370 172/375/371
f 172/375/371 256/374/370 257/376/372
f 172/375/371 257/376/372 171/377/373
f 171/377/373 257/376/372 258/378/374
f 171/377/373 258/378/374 170/379/375
f 170/379/375 258/378/374 259/380/376
f 170/379/375 259/380/376 169/381/377
f 169/381/377 259/380/376 260/382/378
f 169/381/377 260/382/378 168/383/379
f 168/383/379 260/382/378 261/384/380
f 168/383/379 261/384/380 167/385/381
f 167/385/381 261/384/380 262/386/382
f 167/385/381 262/386/382 166/387/383
f 166/387/383 262/386/382 263/388/384
f 166/387/383 263/388/384 165/389/385
f 165/389/385 263/388/384 264/390/386
f 165/389/385 264/390/386 164/391/387
f 164/391/387 264/390/386 265/392/388
f 164/391/387 265/392/388 163/393/389
f 163/393/389 265/392/388 266/394/390
f 163/393/389 266/394/390 162/395/391
f 162/395/391 266/394/390 267/396/392
f 162/395/391 267/396/392 161/397/393
f 161/397/393 267/396/392 268/398/394
f 161/397/393 268/398/394 160/399/395
f 160/399/395 268/398/394 269/400/396
f 160/399/395 269/400/396 159/401/397
f 159/401/397 269/400/396 270/402/398
f 159/401/397 270/402/398 158/403/399
f 158/403/399 270/402/398 271/404/400
f 158/403/399 271/404/400 157/405/401
f 157/405/401 271/404/400 272/406/402
f 157/405/401 272/406/402 156/407/403
f 156/407/403 272/406/402 273/408/404
f 156/407/403 273/408/404 155/409/405
f 155/409/405 273/408/404 274/410/406
f 155/409/405 274/410/406 154/411/407
f 154/411/407 274/410/406 275/412/408
f 154/411/407 275/412/408 153/413/409
f 153/413/409 275/412/408 276/414/410
f 153/413/409 276/414/410 152/415/411
f 152/415/411 276/414/410 277/416/412
f 152/415/411 277/416/412 151/417/413
f 151/417/413 277/416/412 278/418/414
f 151/417/413 278/418/414 150/419/415
f 150/419/415 278/418/414 279/420/416
f 150/419/415 279/420/416 149/421/417
f 149/421/417 279/420/416 280/422/418
f 149/421/417 280/422/418 148/423/419
f 148/423/419 280/422/418 281/424/420
f 148/423/419 281/424/420 147/425/421
f 147/425/421 281/424/420 282/426/422
f 147/425/421 282/426/422 146/427/423
f 146/427/423 282/426/422 283/428/424
f 146/427/423 283/428/424 145/429/425
f 145/429/425 283/428/424 284/430/426
f 145/429/425 284/430/426 144/287/285
f 144/287/285 284/430/426 214/288/286
f 284/431/427 274/432/428 214/433/429
f 214/433/429 274/432/428 273/434/430
f 214/433/429 273/434/430 272/435/431
f 283/436/432 282/437/433 284/431/427
f 284/431/427 282/437/433 281/438/434
f 284/431/427 281/438/434 280/439/435
f 280/439/435 279/440/436 284/431/427
f 284/431/427 279/440/436 278/441/437
f 284/431/427 278/441/437 277/442/438
f 277/442/438 276/443/439 284/431/427
f 284/431/427 276/443/439 275/444/440
f 284/431/427 275/444/440 274/432/428
f 272/435/431 271/445/441 214/433/429
f 214/433/429 271/445/441 270/446/442
f 214/433/429 270/446/442 269/447/443
f 269/447/443 268/448/444 214/433/429
f 214/433/429 268/448/444 267/449/445
f 214/433/429 267/449/445 266/450/446
f 266/450/446 265/451/447 214/433/429
f 214/433/429 265/451/447 264/452/448
f 214/433/429 264/452/448 263/453/449
f 263/453/449 262/454/450 214/433/429
f 214/433/429 262/454/450 261/455/451
f 214/433/429 261/455/451 260/456/452
f 260/456/452 259/457/453 214/433/429
f 214/433/429 259/457/453 258/458/454
f 214/433/429 258/458/454 257/459/455
f 257/459/455 256/460/456 214/433/429
f 214/433/429 256/460/456 255/461/457
f 214/433/429 255/461/457 254/462/458
f 254/462/458 253/463/459 214/433/429
f 214/433/429 253/463/459 252/464/460
f 214/433/429 252/464/460 251/465/461
f 251/465/461 250/466/462 214/433/429
f 214/433/429 250/466/462 249/467/463
f 214/433/429 249/467/463 215/468/464
f 215/468/464 249/467/463 248/469/465
f 215/468/464 248/469/465 216/470/466
f 216/470/466 248/469/465 247/471/467
f 216/470/466 247/471/467 217/472/468
f 217/472/468 247/471/467 246/473/469
f 217/472/468 246/473/469 218/474/470
f 218/474/470 246/473/469 245/475/471
f 218/474/470 245/475/471 219/476/472
f 219/476/472 245/475/471 244/477/473
f 219/476/472 244/477/473 220/478/474
f 220/478/474 244/477/473 243/479/475
f 220/478/474 243/479/475 221/480/476
f 221/480/476 243/479/475 242/481/477
f 221/480/476 242/481/477 222/482/478
f 222/482/478 242/481/477 241/483/479
f 222/482/478 241/483/479 223/484/480
f 223/484/480 241/483/479 240/485/481
f 223/484/480 240/485/481 224/486/482
f 224/486/482 240/485/481 239/487/483
f 224/486/482 239/487/483 225/488/484
f 225/488/484 239/487/483 238/489/485
f 225/488/484 238/489/485 226/490/486
f 226/490/486 238/489/485 237/491/487
f 226/490/486 237/491/487 227/492/488
f 227/492/488 237/491/487 236/493/489
f 227/492/488 236/493/489 228/494/490
f 228/494/490 236/493/489 235/495/491
f 228/494/490 235/495/491 229/496/492
f 229/496/492 235/495/491 234/497/493
f 229/496/492 234/497/493 230/498/494
f 230/498/494 234/497/493 233/499/495
f 230/498/494 233/499/495 231/500/496
f 231/500/496 233/499/495 232/501/497
f 213/502/498 179/503/499 143/504/500
f 143/504/500 179/503/499 178/505/501
f 143/504/500 178/505/501 177/506/502
f 179/503/499 213/502/498 180/507/503
f 180/507/503 213/502/498 212/508/504
f 180/507/503 212/508/504 181/509/505
f 181/509/505 212/508/504 211/510/506
f 181/509/505 211/510/506 182/511/507
f 182/511/507 211/510/506 210/512/508
f 182/511/507 210/512/508 183/513/509
f 183/513/509 210/512/508 209/514/510
f 183/513/509 209/514/510 184/515/511
f 184/515/511 209/514/510 208/516/512
f 184/515/511 208/516/512 185/517/513
f 185/517/513 208/516/512 207/518/514
f 185/517/513 207/518/514 186/519/515
f 186/519/515 207/518/514 206/520/516
f 186/519/515 206/520/516 187/521/517
f 187/521/517 206/520/516 205/522/518
f 187/521/517 205/522/518 188/523/519
f 188/523/519 205/522/518 204/524/520
f 188/523/519 204/524/520 189/525/521
f 189/525/521 204/524/520 203/526/522
f 189/525/521 203/526/522 190/527/523
f 190/527/523 203/526/522 202/528/524
f 190/527/523 202/528/524 191/529/525
f 191/529/525 202/528/524 201/530/526
f 191/529/525 201/530/526 192/531/527
f 192/531/527 201/530/526 200/532/528
f 192/531/527 200/532/528 193/533/529
f 193/533/529 200/532/528 199/534/530
f 193/533/529 199/534/530 194/535/531
f 194/535/531 199/534/530 198/536/532
f 194/535/531 198/536/532 195/537/533
f 195/537/533 198/536/532 197/538/534
f 195/537/533 197/538/534 196/539/535
f 177/506/502 176/540/536 143/504/500
f 143/504/500 176/540/536 175/541/537
f 143/504/500 175/541/537 174/542/538
f 174/542/538 173/543/539 143/504/500
f 143/504/500 173/543/539 172/544/540
f 143/504/500 172/544/540 171/545/541
f 171/545/541 170/546/542 143/504/500
f 143/504/500 170/546/542 169/547/543
f 143/504/500 169/547/543 168/548/544
f 168/548/544 167/549/545 143/504/500
f 143/504/500 167/549/545 166/550/546
f 143/504/500 166/550/546 165/551/547
f 165/551/547 164/552/548 143/504/500
f 143/504/500 164/552/548 163/553/549
f 143/504/500 163/553/549 162/554/550
f 162/554/550 161/555/551 143/504/500
f 143/504/500 161/555/551 160/556/552
f 143/504/500 160/556/552 159/557/553
f 159/557/553 158/558/554 143/504/500
f 143/504/500 158/558/554 157/559/555
f 143/504/500 157/559/555 156/560/556
f 156/560/556 155/561/557 143/504/500
f 143/504/500 155/561/557 154/562/558
f 143/504/500 154/562/558 144/563/559
f 144/563/559 154/562/558 153/564/560
f 144/563/559 153/564/560 152/565/561
f 152/565/561 151/566/562 144/563/559
f 144/563/559 151/566/562 150/567/563
f 144/563/559 150/567/563 149/568/564
f 149/568/564 148/569/565 144/563/559
f 144/563/559 148/569/565 147/570/566
f 144/563/559 147/570/566 146/571/567
f 146/571/567 145/572/568 144/563/559
# 284 vertices
# 572 texture params
# 568 normals
# 560 facets

# 4 groups
