# WaveFront *.obj file (generated by Autodesk ATF)

mtllib 03_pt3_slot_retainer.mtl

g Body1

v -11.076958 4.958737 2.415826
v -11.076958 4.838737 2.415826
v -8.161958 4.838737 2.415826
v -8.161958 4.958737 2.415826
v -11.076958 4.958737 2.115826
v -11.076958 4.838737 2.115826
v -11.076958 4.238737 2.415826
v -8.161958 4.238737 2.415826
v -7.911958 4.838737 2.415826
v -7.911958 4.958737 2.415826
v -8.161958 4.958737 2.115826
v -11.076958 4.958737 -0.189174
v -11.076958 4.838737 -0.189174
v -11.076958 4.508737 2.115826
v -11.076958 4.508737 2.266826
v -11.076958 4.288737 2.266826
v -11.076958 4.288737 2.115826
v -11.076958 4.238737 2.115826
v -8.161958 4.238737 2.115826
v -7.911958 4.238737 2.415826
v -6.911958 4.838737 2.415826
v -6.911958 4.958737 2.415826
v -7.911958 4.958737 2.115826
v -8.161958 4.958737 -0.189174
v -11.076958 4.958737 -0.489174
v -11.076958 4.838737 -0.489174
v -8.161958 4.838737 2.115826
v -8.161958 4.838737 -0.189174
v -8.161958 4.508737 2.115826
v -8.161958 4.508737 2.266826
v -8.161958 4.288737 2.266826
v -8.161958 4.288737 2.115826
v -7.911958 4.238737 2.115826
v -6.911958 4.238737 2.415826
v -6.911958 4.958737 -0.489174
v -6.911958 4.838737 -0.489174
v -7.911958 4.958737 -0.489174
v -7.911958 4.958737 -0.189174
v -7.411958 4.958737 1.203326
v -7.380744 4.958737 1.206401
v -7.350729 4.958737 1.215506
v -7.323067 4.958737 1.230291
v -7.298821 4.958737 1.250189
v -7.278923 4.958737 1.274435
v -7.264137 4.958737 1.302097
v -7.255032 4.958737 1.332112
v -7.251958 4.958737 1.363326
v -7.255032 4.958737 1.394541
v -7.264137 4.958737 1.424556
v -7.278923 4.958737 1.452218
v -7.298821 4.958737 1.476463
v -7.323067 4.958737 1.496362
v -7.350729 4.958737 1.511147
v -7.380744 4.958737 1.520252
v -7.411958 4.958737 1.523326
v -7.443172 4.958737 1.520252
v -7.473187 4.958737 1.511147
v -7.500849 4.958737 1.496362
v -7.525095 4.958737 1.476463
v -7.544993 4.958737 1.452218
v -7.559779 4.958737 1.424556
v -7.568884 4.958737 1.394541
v -7.571958 4.958737 1.363326
v -7.568884 4.958737 1.332112
v -7.559779 4.958737 1.302097
v -7.544993 4.958737 1.274435
v -7.525095 4.958737 1.250189
v -7.500849 4.958737 1.230291
v -7.473187 4.958737 1.215506
v -7.443172 4.958737 1.206401
v -7.411958 4.958737 0.403326
v -7.380744 4.958737 0.406401
v -7.350729 4.958737 0.415506
v -7.323067 4.958737 0.430291
v -7.298821 4.958737 0.450189
v -7.278923 4.958737 0.474435
v -7.264137 4.958737 0.502097
v -7.255032 4.958737 0.532112
v -7.251958 4.958737 0.563326
v -7.255032 4.958737 0.594541
v -7.264137 4.958737 0.624556
v -7.278923 4.958737 0.652218
v -7.298821 4.958737 0.676463
v -7.323067 4.958737 0.696362
v -7.350729 4.958737 0.711147
v -7.380744 4.958737 0.720252
v -7.411958 4.958737 0.723326
v -7.443172 4.958737 0.720252
v -7.473187 4.958737 0.711147
v -7.500849 4.958737 0.696362
v -7.525095 4.958737 0.676463
v -7.544993 4.958737 0.652218
v -7.559779 4.958737 0.624556
v -7.568884 4.958737 0.594541
v -7.571958 4.958737 0.563326
v -7.568884 4.958737 0.532112
v -7.559779 4.958737 0.502097
v -7.544993 4.958737 0.474435
v -7.525095 4.958737 0.450189
v -7.500849 4.958737 0.430291
v -7.473187 4.958737 0.415506
v -7.443172 4.958737 0.406401
v -8.161958 4.958737 -0.489174
v -8.161958 4.838737 -0.489174
v -11.076958 4.238737 -0.489174
v -11.076958 4.238737 -0.189174
v -11.076958 4.288737 -0.189174
v -11.076958 4.288737 -0.340174
v -11.076958 4.508737 -0.340174
v -11.076958 4.508737 -0.189174
v -8.161958 4.508737 -0.189174
v -8.161958 4.508737 -0.340174
v -8.161958 4.288737 -0.340174
v -8.161958 4.288737 -0.189174
v -8.161958 4.238737 -0.189174
v -7.911958 4.238737 -0.189174
v -7.911958 4.238737 -0.489174
v -6.911958 4.238737 -0.489174
v -7.411958 4.238737 1.063326
v -7.455638 4.238737 1.066523
v -7.498388 4.238737 1.076046
v -7.539295 4.238737 1.091692
v -7.577488 4.238737 1.113127
v -7.612154 4.238737 1.139895
v -7.642552 4.238737 1.171424
v -7.668036 4.238737 1.207044
v -7.688062 4.238737 1.245995
v -7.702203 4.238737 1.287446
v -7.710158 4.238737 1.330515
v -7.711758 4.238737 1.374283
v -7.706968 4.238737 1.417817
v -7.695890 4.238737 1.460191
v -7.678761 4.238737 1.500499
v -7.655945 4.238737 1.537884
v -7.627929 4.238737 1.571549
v -7.595310 4.238737 1.600775
v -7.558783 4.238737 1.624941
v -7.519127 4.238737 1.643531
v -7.477187 4.238737 1.656149
v -7.433857 4.238737 1.662526
v -7.390059 4.238737 1.662526
v -7.346729 4.238737 1.656149
v -7.304789 4.238737 1.643531
v -7.265133 4.238737 1.624941
v -7.228606 4.238737 1.600775
v -7.195987 4.238737 1.571549
v -7.167971 4.238737 1.537884
v -7.145155 4.238737 1.500499
v -7.128026 4.238737 1.460191
v -7.116948 4.238737 1.417817
v -7.112158 4.238737 1.374283
v -7.113758 4.238737 1.330515
v -7.121713 4.238737 1.287446
v -7.135854 4.238737 1.245995
v -7.155880 4.238737 1.207044
v -7.181364 4.238737 1.171424
v -7.211762 4.238737 1.139895
v -7.246428 4.238737 1.113127
v -7.284621 4.238737 1.091692
v -7.325528 4.238737 1.076046
v -7.368278 4.238737 1.066523
v -7.411958 4.238737 0.263326
v -7.455638 4.238737 0.266523
v -7.498388 4.238737 0.276046
v -7.539295 4.238737 0.291692
v -7.577488 4.238737 0.313127
v -7.612154 4.238737 0.339895
v -7.642552 4.238737 0.371424
v -7.668036 4.238737 0.407044
v -7.688062 4.238737 0.445995
v -7.702203 4.238737 0.487446
v -7.710158 4.238737 0.530515
v -7.711758 4.238737 0.574283
v -7.706968 4.238737 0.617817
v -7.695890 4.238737 0.660191
v -7.678761 4.238737 0.700499
v -7.655945 4.238737 0.737884
v -7.627929 4.238737 0.771549
v -7.595310 4.238737 0.800775
v -7.558783 4.238737 0.824941
v -7.519127 4.238737 0.843531
v -7.477187 4.238737 0.856149
v -7.433857 4.238737 0.862526
v -7.390059 4.238737 0.862526
v -7.346729 4.238737 0.856149
v -7.304789 4.238737 0.843531
v -7.265133 4.238737 0.824941
v -7.228606 4.238737 0.800775
v -7.195987 4.238737 0.771549
v -7.167971 4.238737 0.737884
v -7.145155 4.238737 0.700499
v -7.128026 4.238737 0.660191
v -7.116948 4.238737 0.617817
v -7.112158 4.238737 0.574283
v -7.113758 4.238737 0.530515
v -7.121713 4.238737 0.487446
v -7.135854 4.238737 0.445995
v -7.155880 4.238737 0.407044
v -7.181364 4.238737 0.371424
v -7.211762 4.238737 0.339895
v -7.246428 4.238737 0.313127
v -7.284621 4.238737 0.291692
v -7.325528 4.238737 0.276046
v -7.368278 4.238737 0.266523
v -7.911958 4.838737 -0.489174
v -7.411958 4.558737 1.203326
v -7.380744 4.558737 1.206401
v -7.350729 4.558737 1.215506
v -7.323067 4.558737 1.230291
v -7.298821 4.558737 1.250189
v -7.278923 4.558737 1.274435
v -7.264137 4.558737 1.302097
v -7.255032 4.558737 1.332112
v -7.251958 4.558737 1.363326
v -7.255032 4.558737 1.394541
v -7.264137 4.558737 1.424556
v -7.278923 4.558737 1.452218
v -7.298821 4.558737 1.476463
v -7.323067 4.558737 1.496362
v -7.350729 4.558737 1.511147
v -7.380744 4.558737 1.520252
v -7.411958 4.558737 1.523326
v -7.443172 4.558737 1.520252
v -7.473187 4.558737 1.511147
v -7.500849 4.558737 1.496362
v -7.525095 4.558737 1.476463
v -7.544993 4.558737 1.452218
v -7.559779 4.558737 1.424556
v -7.568884 4.558737 1.394541
v -7.571958 4.558737 1.363326
v -7.568884 4.558737 1.332112
v -7.559779 4.558737 1.302097
v -7.544993 4.558737 1.274435
v -7.525095 4.558737 1.250189
v -7.500849 4.558737 1.230291
v -7.473187 4.558737 1.215506
v -7.443172 4.558737 1.206401
v -7.411958 4.558737 0.403326
v -7.380744 4.558737 0.406401
v -7.350729 4.558737 0.415506
v -7.323067 4.558737 0.430291
v -7.298821 4.558737 0.450189
v -7.278923 4.558737 0.474435
v -7.264137 4.558737 0.502097
v -7.255032 4.558737 0.532112
v -7.251958 4.558737 0.563326
v -7.255032 4.558737 0.594541
v -7.264137 4.558737 0.624556
v -7.278923 4.558737 0.652218
v -7.298821 4.558737 0.676463
v -7.323067 4.558737 0.696362
v -7.350729 4.558737 0.711147
v -7.380744 4.558737 0.720252
v -7.411958 4.558737 0.723326
v -7.443172 4.558737 0.720252
v -7.473187 4.558737 0.711147
v -7.500849 4.558737 0.696362
v -7.525095 4.558737 0.676463
v -7.544993 4.558737 0.652218
v -7.559779 4.558737 0.624556
v -7.568884 4.558737 0.594541
v -7.571958 4.558737 0.563326
v -7.568884 4.558737 0.532112
v -7.559779 4.558737 0.502097
v -7.544993 4.558737 0.474435
v -7.525095 4.558737 0.450189
v -7.500849 4.558737 0.430291
v -7.473187 4.558737 0.415506
v -7.443172 4.558737 0.406401
v -8.161958 4.238737 -0.489174
v -7.411958 4.558737 1.063326
v -7.455638 4.558737 1.066523
v -7.498388 4.558737 1.076046
v -7.539295 4.558737 1.091692
v -7.577488 4.558737 1.113127
v -7.612154 4.558737 1.139895
v -7.642552 4.558737 1.171424
v -7.668036 4.558737 1.207044
v -7.688062 4.558737 1.245995
v -7.702203 4.558737 1.287446
v -7.710158 4.558737 1.330515
v -7.711758 4.558737 1.374283
v -7.706968 4.558737 1.417817
v -7.695890 4.558737 1.460191
v -7.678761 4.558737 1.500499
v -7.655945 4.558737 1.537884
v -7.627929 4.558737 1.571549
v -7.595310 4.558737 1.600775
v -7.558783 4.558737 1.624941
v -7.519127 4.558737 1.643531
v -7.477187 4.558737 1.656149
v -7.433857 4.558737 1.662526
v -7.390059 4.558737 1.662526
v -7.346729 4.558737 1.656149
v -7.304789 4.558737 1.643531
v -7.265133 4.558737 1.624941
v -7.228606 4.558737 1.600775
v -7.195987 4.558737 1.571549
v -7.167971 4.558737 1.537884
v -7.145155 4.558737 1.500499
v -7.128026 4.558737 1.460191
v -7.116948 4.558737 1.417817
v -7.112158 4.558737 1.374283
v -7.113758 4.558737 1.330515
v -7.121713 4.558737 1.287446
v -7.135854 4.558737 1.245995
v -7.155880 4.558737 1.207044
v -7.181364 4.558737 1.171424
v -7.211762 4.558737 1.139895
v -7.246428 4.558737 1.113127
v -7.284621 4.558737 1.091692
v -7.325528 4.558737 1.076046
v -7.368278 4.558737 1.066523
v -7.411958 4.558737 0.263326
v -7.455638 4.558737 0.266523
v -7.498388 4.558737 0.276046
v -7.539295 4.558737 0.291692
v -7.577488 4.558737 0.313127
v -7.612154 4.558737 0.339895
v -7.642552 4.558737 0.371424
v -7.668036 4.558737 0.407044
v -7.688062 4.558737 0.445995
v -7.702203 4.558737 0.487446
v -7.710158 4.558737 0.530515
v -7.711758 4.558737 0.574283
v -7.706968 4.558737 0.617817
v -7.695890 4.558737 0.660191
v -7.678761 4.558737 0.700499
v -7.655945 4.558737 0.737884
v -7.627929 4.558737 0.771549
v -7.595310 4.558737 0.800775
v -7.558783 4.558737 0.824941
v -7.519127 4.558737 0.843531
v -7.477187 4.558737 0.856149
v -7.433857 4.558737 0.862526
v -7.390059 4.558737 0.862526
v -7.346729 4.558737 0.856149
v -7.304789 4.558737 0.843531
v -7.265133 4.558737 0.824941
v -7.228606 4.558737 0.800775
v -7.195987 4.558737 0.771549
v -7.167971 4.558737 0.737884
v -7.145155 4.558737 0.700499
v -7.128026 4.558737 0.660191
v -7.116948 4.558737 0.617817
v -7.112158 4.558737 0.574283
v -7.113758 4.558737 0.530515
v -7.121713 4.558737 0.487446
v -7.135854 4.558737 0.445995
v -7.155880 4.558737 0.407044
v -7.181364 4.558737 0.371424
v -7.211762 4.558737 0.339895
v -7.246428 4.558737 0.313127
v -7.284621 4.558737 0.291692
v -7.325528 4.558737 0.276046
v -7.368278 4.558737 0.266523
vt -0.000000 -0.000000 0.000000
vt -0.120000 0.000000 0.000000
vt -0.000000 -2.915000 0.000000
vt -0.120000 -2.915000 0.000000
vt -0.000000 0.300000 0.000000
vt -0.120000 0.300000 0.000000
vt -0.000000 0.000000 0.000000
vt -0.120000 0.000000 0.000000
vt -0.720000 0.000000 0.000000
vt -0.120000 -2.915000 0.000000
vt -0.720000 -2.915000 0.000000
vt -0.000000 -2.915000 0.000000
vt -0.120000 -2.915000 0.000000
vt -0.000000 -3.165000 0.000000
vt -0.120000 -3.165000 0.000000
vt -0.000000 2.915000 0.000000
vt -0.300000 2.915000 0.000000
vt -0.000000 0.000000 0.000000
vt -0.300000 -0.000000 0.000000
vt 0.000000 2.605000 0.000000
vt -0.120000 2.605000 0.000000
vt -0.000000 0.300000 0.000000
vt -0.120000 0.300000 0.000000
vt -0.450000 0.300000 0.000000
vt -0.450000 0.149000 0.000000
vt -0.120000 0.300000 0.000000
vt -0.120000 0.000000 0.000000
vt -0.720000 0.000000 0.000000
vt -0.670000 0.149000 0.000000
vt -0.720000 0.300000 0.000000
vt -0.670000 0.300000 0.000000
vt 0.000000 0.000000 0.000000
vt 0.300000 -0.000000 0.000000
vt 0.000000 2.915000 0.000000
vt 0.300000 2.915000 0.000000
vt -0.120000 -2.915000 0.000000
vt -0.720000 -2.915000 0.000000
vt -0.120000 -3.165000 0.000000
vt -0.720000 -3.165000 0.000000
vt -0.000000 -3.165000 0.000000
vt -0.120000 -3.165000 0.000000
vt -0.000000 -4.165000 0.000000
vt -0.120000 -4.165000 0.000000
vt -0.000000 3.165000 0.000000
vt -0.300000 3.165000 0.000000
vt -0.000000 2.915000 0.000000
vt -0.300000 2.915000 0.000000
vt -2.605000 2.915000 0.000000
vt -0.300000 -0.000000 0.000000
vt -2.605000 -0.000000 0.000000
vt 0.000000 2.905000 0.000000
vt -0.120000 2.905000 0.000000
vt 0.000000 2.605000 0.000000
vt -0.120000 2.605000 0.000000
vt 0.300000 -0.000000 0.000000
vt 2.605000 -0.000000 0.000000
vt 0.300000 2.915000 0.000000
vt 2.605000 2.915000 0.000000
vt 0.450000 0.000000 0.000000
vt 0.120000 0.000000 0.000000
vt 0.450000 -2.915000 0.000000
vt 0.120000 -2.915000 0.000000
vt 0.000000 0.030000 0.000000
vt 0.151000 0.030000 0.000000
vt 0.000000 2.945000 0.000000
vt 0.151000 2.945000 0.000000
vt 0.220000 -0.030000 0.000000
vt 0.000000 -0.030000 0.000000
vt 0.220000 -2.945000 0.000000
vt 0.000000 -2.945000 0.000000
vt -0.000000 2.945000 0.000000
vt -0.151000 2.945000 0.000000
vt -0.000000 0.030000 0.000000
vt -0.151000 0.030000 0.000000
vt 0.670000 -2.915000 0.000000
vt 0.720000 -2.915000 0.000000
vt 0.670000 0.000000 0.000000
vt 0.720000 0.000000 0.000000
vt 0.000000 2.915000 0.000000
vt 0.300000 2.915000 0.000000
vt 0.000000 3.165000 0.000000
vt 0.300000 3.165000 0.000000
vt -0.120000 0.000000 0.000000
vt -0.720000 0.000000 0.000000
vt -0.120000 -1.000000 0.000000
vt -0.720000 -1.000000 0.000000
vt 0.000000 0.000000 0.000000
vt 0.120000 0.000000 0.000000
vt -0.000000 2.905000 0.000000
vt 0.120000 2.905000 0.000000
vt -0.000000 4.165000 0.000000
vt -0.892500 3.665000 0.000000
vt -0.000000 3.165000 0.000000
vt -0.895574 3.633786 0.000000
vt -0.904679 3.603771 0.000000
vt -2.905000 4.165000 0.000000
vt -1.052500 3.825000 0.000000
vt -1.021286 3.821926 0.000000
vt -0.991271 3.812821 0.000000
vt -2.905000 3.165000 0.000000
vt -2.012500 3.665000 0.000000
vt -2.009426 3.696214 0.000000
vt -2.000321 3.726229 0.000000
vt -2.605000 3.165000 0.000000
vt -1.965637 3.551863 0.000000
vt -1.985535 3.576109 0.000000
vt -2.000321 3.603771 0.000000
vt -0.300000 3.165000 0.000000
vt -1.821286 3.508074 0.000000
vt -1.852500 3.505000 0.000000
vt -1.883714 3.508074 0.000000
vt -0.939363 3.551863 0.000000
vt -0.963609 3.531965 0.000000
vt -0.991271 3.517179 0.000000
vt -1.209426 3.696214 0.000000
vt -1.695574 3.696214 0.000000
vt -1.212500 3.665000 0.000000
vt -1.692500 3.665000 0.000000
vt -1.209426 3.633786 0.000000
vt -1.695574 3.633786 0.000000
vt -1.200321 3.603771 0.000000
vt -1.704679 3.603771 0.000000
vt -1.185535 3.576109 0.000000
vt -1.719465 3.576109 0.000000
vt -1.165637 3.551863 0.000000
vt -1.739363 3.551863 0.000000
vt -1.141391 3.531965 0.000000
vt -1.763609 3.531965 0.000000
vt -1.113729 3.517179 0.000000
vt -1.791271 3.517179 0.000000
vt -1.083714 3.508074 0.000000
vt -1.704679 3.726229 0.000000
vt -1.200321 3.726229 0.000000
vt -1.719465 3.753891 0.000000
vt -1.185535 3.753891 0.000000
vt -1.739363 3.778137 0.000000
vt -1.165637 3.778137 0.000000
vt -1.763609 3.798035 0.000000
vt -1.141391 3.798035 0.000000
vt -1.791271 3.812821 0.000000
vt -1.113729 3.812821 0.000000
vt -1.821286 3.821926 0.000000
vt -1.083714 3.821926 0.000000
vt -1.852500 3.825000 0.000000
vt -0.963609 3.798035 0.000000
vt -0.939363 3.778137 0.000000
vt -0.919465 3.753891 0.000000
vt -0.904679 3.726229 0.000000
vt -0.895574 3.696214 0.000000
vt -0.919465 3.576109 0.000000
vt -1.021286 3.508074 0.000000
vt -1.052500 3.505000 0.000000
vt -1.985535 3.753891 0.000000
vt -1.965637 3.778137 0.000000
vt -1.941391 3.798035 0.000000
vt -1.913729 3.812821 0.000000
vt -1.883714 3.821926 0.000000
vt -1.913729 3.517179 0.000000
vt -1.941391 3.531965 0.000000
vt -2.009426 3.633786 0.000000
vt -0.300000 2.915000 0.000000
vt -2.605000 3.165000 0.000000
vt -2.605000 2.915000 0.000000
vt -2.905000 2.915000 0.000000
vt -2.605000 -0.000000 0.000000
vt -2.905000 -0.000000 0.000000
vt 0.120000 0.000000 0.000000
vt 0.000000 -0.000000 0.000000
vt 0.120000 -2.915000 0.000000
vt 0.000000 -2.915000 0.000000
vt -0.120000 0.000000 0.000000
vt -0.120000 0.300000 0.000000
vt -0.450000 0.151000 0.000000
vt -0.720000 0.300000 0.000000
vt -0.670000 0.151000 0.000000
vt -0.720000 0.000000 0.000000
vt -0.670000 0.000000 0.000000
vt -0.450000 0.000000 0.000000
vt -0.120000 2.605000 0.000000
vt -0.450000 2.605000 0.000000
vt -0.120000 0.300000 0.000000
vt -0.450000 0.300000 0.000000
vt -0.670000 2.605000 0.000000
vt -0.670000 0.300000 0.000000
vt -0.720000 2.605000 0.000000
vt -0.720000 0.300000 0.000000
vt -0.450000 2.756000 0.000000
vt -0.670000 2.756000 0.000000
vt -0.670000 0.149000 0.000000
vt -0.450000 0.149000 0.000000
vt -0.120000 0.000000 0.000000
vt -0.450000 0.000000 0.000000
vt -0.120000 -2.915000 0.000000
vt -0.450000 -2.915000 0.000000
vt 0.000000 0.000000 0.000000
vt 0.753300 0.521899 0.000000
vt 0.000000 1.000000 0.000000
vt 0.759677 0.565229 0.000000
vt 0.772295 0.607169 0.000000
vt 0.300000 -0.000000 0.000000
vt 0.815051 0.316648 0.000000
vt 0.790885 0.353175 0.000000
vt 0.772295 0.392831 0.000000
vt 2.605000 -0.000000 0.000000
vt 1.841543 0.200200 0.000000
vt 1.085311 0.201800 0.000000
vt 1.041543 0.200200 0.000000
vt 2.905000 -0.000000 0.000000
vt 2.075932 0.299804 0.000000
vt 2.044402 0.269406 0.000000
vt 2.008782 0.243922 0.000000
vt 2.905000 1.000000 0.000000
vt 2.152500 0.500000 0.000000
vt 2.149303 0.456320 0.000000
vt 2.139780 0.413570 0.000000
vt 1.841543 0.799800 0.000000
vt 1.885311 0.798200 0.000000
vt 1.928380 0.790245 0.000000
vt 1.349303 0.456320 0.000000
vt 1.553300 0.478101 0.000000
vt 1.352500 0.500000 0.000000
vt 1.553300 0.521899 0.000000
vt 1.349303 0.543680 0.000000
vt 1.559677 0.565229 0.000000
vt 1.339780 0.586430 0.000000
vt 1.572295 0.607169 0.000000
vt 1.324134 0.627337 0.000000
vt 1.590885 0.646825 0.000000
vt 1.302699 0.665530 0.000000
vt 1.615051 0.683352 0.000000
vt 1.275932 0.700196 0.000000
vt 1.644278 0.715971 0.000000
vt 1.244402 0.730594 0.000000
vt 1.677942 0.743987 0.000000
vt 1.208782 0.756078 0.000000
vt 1.715327 0.766803 0.000000
vt 1.169831 0.776104 0.000000
vt 1.755636 0.783932 0.000000
vt 1.128380 0.790245 0.000000
vt 1.798009 0.795010 0.000000
vt 1.085311 0.798200 0.000000
vt 1.559677 0.434771 0.000000
vt 1.339780 0.413570 0.000000
vt 1.572295 0.392831 0.000000
vt 1.324134 0.372663 0.000000
vt 1.590885 0.353175 0.000000
vt 1.302699 0.334470 0.000000
vt 1.615051 0.316648 0.000000
vt 1.275932 0.299804 0.000000
vt 1.644278 0.284029 0.000000
vt 1.244402 0.269406 0.000000
vt 1.677942 0.256013 0.000000
vt 1.208782 0.243922 0.000000
vt 1.715327 0.233197 0.000000
vt 1.169831 0.223896 0.000000
vt 1.755636 0.216068 0.000000
vt 1.128380 0.209755 0.000000
vt 1.798009 0.204990 0.000000
vt 0.998009 0.204990 0.000000
vt 0.955636 0.216068 0.000000
vt 0.915327 0.233197 0.000000
vt 0.877942 0.256013 0.000000
vt 0.844278 0.284029 0.000000
vt 0.759677 0.434771 0.000000
vt 0.753300 0.478101 0.000000
vt 0.790885 0.646825 0.000000
vt 0.815051 0.683352 0.000000
vt 0.844278 0.715971 0.000000
vt 0.877942 0.743987 0.000000
vt 0.915327 0.766803 0.000000
vt 0.955636 0.783932 0.000000
vt 0.998009 0.795010 0.000000
vt 1.041543 0.799800 0.000000
vt 2.124134 0.372663 0.000000
vt 2.102699 0.334470 0.000000
vt 1.969831 0.223896 0.000000
vt 1.928380 0.209755 0.000000
vt 1.885311 0.201800 0.000000
vt 1.969831 0.776104 0.000000
vt 2.008782 0.756078 0.000000
vt 2.044402 0.730594 0.000000
vt 2.075932 0.700196 0.000000
vt 2.102699 0.665530 0.000000
vt 2.124134 0.627337 0.000000
vt 2.139780 0.586430 0.000000
vt 2.149303 0.543680 0.000000
vt 0.300000 -0.000000 0.000000
vt 2.605000 -0.000000 0.000000
vt 0.300000 0.250000 0.000000
vt 2.605000 0.250000 0.000000
vt 0.120000 0.000000 0.000000
vt 0.720000 0.000000 0.000000
vt 0.120000 2.905000 0.000000
vt 0.720000 2.905000 0.000000
vt 0.120000 -3.165000 0.000000
vt 0.000000 -3.165000 0.000000
vt 0.120000 -4.165000 0.000000
vt 0.000000 -4.165000 0.000000
vt -2.605000 3.165000 0.000000
vt -2.905000 3.165000 0.000000
vt -2.605000 2.915000 0.000000
vt -2.905000 2.915000 0.000000
vt 0.050000 -0.031416 0.000000
vt 0.450000 -0.031416 0.000000
vt 0.050000 -0.000000 0.000000
vt 0.450000 -0.000000 0.000000
vt 0.050000 0.031416 0.000000
vt 0.450000 0.031416 0.000000
vt 0.050000 0.062832 0.000000
vt 0.450000 0.062832 0.000000
vt 0.050000 0.094248 0.000000
vt 0.450000 0.094248 0.000000
vt 0.050000 0.125664 0.000000
vt 0.450000 0.125664 0.000000
vt 0.050000 0.157080 0.000000
vt 0.450000 0.157080 0.000000
vt 0.050000 0.188496 0.000000
vt 0.450000 0.188496 0.000000
vt 0.050000 0.219911 0.000000
vt 0.450000 0.219911 0.000000
vt 0.050000 0.251327 0.000000
vt 0.450000 0.251327 0.000000
vt 0.050000 0.282743 0.000000
vt 0.450000 0.282743 0.000000
vt 0.050000 0.314159 0.000000
vt 0.450000 0.314159 0.000000
vt 0.050000 0.345575 0.000000
vt 0.450000 0.345575 0.000000
vt 0.050000 0.376991 0.000000
vt 0.450000 0.376991 0.000000
vt 0.050000 0.408407 0.000000
vt 0.450000 0.408407 0.000000
vt 0.050000 0.439823 0.000000
vt 0.450000 0.439823 0.000000
vt 0.050000 0.471239 0.000000
vt 0.450000 0.471239 0.000000
vt 0.050000 0.502655 0.000000
vt 0.450000 0.502655 0.000000
vt 0.050000 -0.502655 0.000000
vt 0.450000 -0.502655 0.000000
vt 0.050000 -0.471239 0.000000
vt 0.450000 -0.471239 0.000000
vt 0.050000 -0.439823 0.000000
vt 0.450000 -0.439823 0.000000
vt 0.050000 -0.408407 0.000000
vt 0.450000 -0.408407 0.000000
vt 0.050000 -0.376991 0.000000
vt 0.450000 -0.376991 0.000000
vt 0.050000 -0.345575 0.000000
vt 0.450000 -0.345575 0.000000
vt 0.050000 -0.314159 0.000000
vt 0.450000 -0.314159 0.000000
vt 0.050000 -0.282743 0.000000
vt 0.450000 -0.282743 0.000000
vt 0.050000 -0.251327 0.000000
vt 0.450000 -0.251327 0.000000
vt 0.050000 -0.219911 0.000000
vt 0.450000 -0.219911 0.000000
vt 0.050000 -0.188496 0.000000
vt 0.450000 -0.188496 0.000000
vt 0.050000 -0.157080 0.000000
vt 0.450000 -0.157080 0.000000
vt 0.050000 -0.125664 0.000000
vt 0.450000 -0.125664 0.000000
vt 0.050000 -0.094248 0.000000
vt 0.450000 -0.094248 0.000000
vt 0.050000 -0.062832 0.000000
vt 0.450000 -0.062832 0.000000
vt 0.050000 -0.031416 0.000000
vt 0.450000 -0.031416 0.000000
vt 0.050000 -0.000000 0.000000
vt 0.450000 -0.000000 0.000000
vt 0.050000 0.031416 0.000000
vt 0.450000 0.031416 0.000000
vt 0.050000 0.062832 0.000000
vt 0.450000 0.062832 0.000000
vt 0.050000 0.094248 0.000000
vt 0.450000 0.094248 0.000000
vt 0.050000 0.125664 0.000000
vt 0.450000 0.125664 0.000000
vt 0.050000 0.157080 0.000000
vt 0.450000 0.157080 0.000000
vt 0.050000 0.188496 0.000000
vt 0.450000 0.188496 0.000000
vt 0.050000 0.219911 0.000000
vt 0.450000 0.219911 0.000000
vt 0.050000 0.251327 0.000000
vt 0.450000 0.251327 0.000000
vt 0.050000 0.282743 0.000000
vt 0.450000 0.282743 0.000000
vt 0.050000 0.314159 0.000000
vt 0.450000 0.314159 0.000000
vt 0.050000 0.345575 0.000000
vt 0.450000 0.345575 0.000000
vt 0.050000 0.376991 0.000000
vt 0.450000 0.376991 0.000000
vt 0.050000 0.408407 0.000000
vt 0.450000 0.408407 0.000000
vt 0.050000 0.439823 0.000000
vt 0.450000 0.439823 0.000000
vt 0.050000 0.471239 0.000000
vt 0.450000 0.471239 0.000000
vt 0.050000 0.502655 0.000000
vt 0.450000 0.502655 0.000000
vt 0.050000 -0.502655 0.000000
vt 0.450000 -0.502655 0.000000
vt 0.050000 -0.471239 0.000000
vt 0.450000 -0.471239 0.000000
vt 0.050000 -0.439823 0.000000
vt 0.450000 -0.439823 0.000000
vt 0.050000 -0.408407 0.000000
vt 0.450000 -0.408407 0.000000
vt 0.050000 -0.376991 0.000000
vt 0.450000 -0.376991 0.000000
vt 0.050000 -0.345575 0.000000
vt 0.450000 -0.345575 0.000000
vt 0.050000 -0.314159 0.000000
vt 0.450000 -0.314159 0.000000
vt 0.050000 -0.282743 0.000000
vt 0.450000 -0.282743 0.000000
vt 0.050000 -0.251327 0.000000
vt 0.450000 -0.251327 0.000000
vt 0.050000 -0.219911 0.000000
vt 0.450000 -0.219911 0.000000
vt 0.050000 -0.188496 0.000000
vt 0.450000 -0.188496 0.000000
vt 0.050000 -0.157080 0.000000
vt 0.450000 -0.157080 0.000000
vt 0.050000 -0.125664 0.000000
vt 0.450000 -0.125664 0.000000
vt 0.050000 -0.094248 0.000000
vt 0.450000 -0.094248 0.000000
vt 0.050000 -0.062832 0.000000
vt 0.450000 -0.062832 0.000000
vt 0.720000 0.000000 0.000000
vt 0.120000 0.000000 0.000000
vt 0.720000 -2.915000 0.000000
vt 0.120000 -2.915000 0.000000
vt 0.000000 -2.915000 0.000000
vt 0.120000 -3.165000 0.000000
vt 0.000000 -3.165000 0.000000
vt 0.000000 0.000000 0.000000
vt 0.300000 -0.000000 0.000000
vt 0.000000 2.915000 0.000000
vt 0.300000 2.915000 0.000000
vt -0.720000 -2.915000 0.000000
vt -0.670000 -2.915000 0.000000
vt -0.720000 0.000000 0.000000
vt -0.670000 0.000000 0.000000
vt -0.001000 2.945000 0.000000
vt -0.152000 2.945000 0.000000
vt -0.001000 0.030000 0.000000
vt -0.152000 0.030000 0.000000
vt -0.220000 -2.945000 0.000000
vt -0.000000 -2.945000 0.000000
vt -0.220000 -0.030000 0.000000
vt -0.000000 -0.030000 0.000000
vt 0.152000 2.945000 0.000000
vt 0.001000 2.945000 0.000000
vt 0.152000 0.030000 0.000000
vt 0.001000 0.030000 0.000000
vt 0.720000 0.000000 0.000000
vt 0.120000 0.000000 0.000000
vt 0.720000 -1.000000 0.000000
vt 0.120000 -1.000000 0.000000
vt 0.000000 2.915000 0.000000
vt 0.300000 2.915000 0.000000
vt 0.000000 3.165000 0.000000
vt 0.300000 3.165000 0.000000
vt 0.000000 -0.043836 0.000000
vt 0.320000 -0.000000 0.000000
vt -0.000000 -0.000000 0.000000
vt 0.320000 0.043836 0.000000
vt 0.000000 0.043836 0.000000
vt 0.320000 0.087672 0.000000
vt 0.000000 0.087672 0.000000
vt 0.320000 0.131509 0.000000
vt 0.000000 0.131509 0.000000
vt 0.320000 0.175345 0.000000
vt 0.000000 0.175345 0.000000
vt 0.320000 0.219181 0.000000
vt 0.000000 0.219181 0.000000
vt 0.320000 0.263017 0.000000
vt 0.000000 0.263017 0.000000
vt 0.320000 0.306853 0.000000
vt 0.000000 0.306853 0.000000
vt 0.320000 0.350689 0.000000
vt 0.000000 0.350689 0.000000
vt 0.320000 0.394526 0.000000
vt 0.000000 0.394526 0.000000
vt 0.320000 0.438362 0.000000
vt 0.000000 0.438362 0.000000
vt 0.320000 0.482198 0.000000
vt 0.000000 0.482198 0.000000
vt 0.320000 0.526034 0.000000
vt 0.000000 0.526034 0.000000
vt 0.320000 0.569870 0.000000
vt 0.000000 0.569870 0.000000
vt 0.320000 0.613706 0.000000
vt 0.000000 0.613706 0.000000
vt 0.320000 0.657543 0.000000
vt -0.000000 0.657543 0.000000
vt 0.320000 0.701379 0.000000
vt -0.000000 0.701379 0.000000
vt 0.320000 0.745215 0.000000
vt -0.000000 0.745215 0.000000
vt 0.320000 0.789051 0.000000
vt -0.000000 0.789051 0.000000
vt 0.320000 0.832887 0.000000
vt -0.000000 0.832887 0.000000
vt 0.320000 0.876724 0.000000
vt -0.000000 0.876724 0.000000
vt 0.320000 0.920560 0.000000
vt -0.000000 0.920560 0.000000
vt -0.000000 -0.964396 0.000000
vt 0.320000 -0.964396 0.000000
vt 0.320000 -0.920560 0.000000
vt -0.000000 -0.920560 0.000000
vt 0.320000 -0.876724 0.000000
vt -0.000000 -0.876724 0.000000
vt 0.320000 -0.832887 0.000000
vt -0.000000 -0.832887 0.000000
vt 0.320000 -0.789051 0.000000
vt -0.000000 -0.789051 0.000000
vt 0.320000 -0.745215 0.000000
vt -0.000000 -0.745215 0.000000
vt 0.320000 -0.701379 0.000000
vt -0.000000 -0.701379 0.000000
vt 0.320000 -0.657543 0.000000
vt -0.000000 -0.657543 0.000000
vt 0.320000 -0.613706 0.000000
vt -0.000000 -0.613706 0.000000
vt 0.320000 -0.569870 0.000000
vt -0.000000 -0.569870 0.000000
vt 0.320000 -0.526034 0.000000
vt -0.000000 -0.526034 0.000000
vt 0.320000 -0.482198 0.000000
vt -0.000000 -0.482198 0.000000
vt 0.320000 -0.438362 0.000000
vt -0.000000 -0.438362 0.000000
vt 0.320000 -0.394526 0.000000
vt -0.000000 -0.394526 0.000000
vt 0.320000 -0.350689 0.000000
vt -0.000000 -0.350689 0.000000
vt 0.320000 -0.306853 0.000000
vt 0.000000 -0.306853 0.000000
vt 0.320000 -0.263017 0.000000
vt 0.000000 -0.263017 0.000000
vt 0.320000 -0.219181 0.000000
vt 0.000000 -0.219181 0.000000
vt 0.320000 -0.175345 0.000000
vt 0.000000 -0.175345 0.000000
vt 0.320000 -0.131509 0.000000
vt 0.000000 -0.131509 0.000000
vt 0.320000 -0.087672 0.000000
vt 0.000000 -0.087672 0.000000
vt 0.320000 -0.043836 0.000000
vt 0.000000 -0.043836 0.000000
vt 0.320000 -0.000000 0.000000
vt 0.000000 -0.000000 0.000000
vt 0.320000 0.043836 0.000000
vt 0.000000 0.043836 0.000000
vt 0.320000 0.087672 0.000000
vt 0.000000 0.087672 0.000000
vt 0.320000 0.131509 0.000000
vt 0.000000 0.131509 0.000000
vt 0.320000 0.175345 0.000000
vt 0.000000 0.175345 0.000000
vt 0.320000 0.219181 0.000000
vt 0.000000 0.219181 0.000000
vt 0.320000 0.263017 0.000000
vt 0.000000 0.263017 0.000000
vt 0.320000 0.306853 0.000000
vt 0.000000 0.306853 0.000000
vt 0.320000 0.350689 0.000000
vt 0.000000 0.350689 0.000000
vt 0.320000 0.394526 0.000000
vt 0.000000 0.394526 0.000000
vt 0.320000 0.438362 0.000000
vt 0.000000 0.438362 0.000000
vt 0.320000 0.482198 0.000000
vt 0.000000 0.482198 0.000000
vt 0.320000 0.526034 0.000000
vt 0.000000 0.526034 0.000000
vt 0.320000 0.569870 0.000000
vt 0.000000 0.569870 0.000000
vt 0.320000 0.613706 0.000000
vt 0.000000 0.613706 0.000000
vt 0.320000 0.657543 0.000000
vt -0.000000 0.657543 0.000000
vt 0.320000 0.701379 0.000000
vt -0.000000 0.701379 0.000000
vt 0.320000 0.745215 0.000000
vt -0.000000 0.745215 0.000000
vt 0.320000 0.789051 0.000000
vt -0.000000 0.789051 0.000000
vt 0.320000 0.832887 0.000000
vt -0.000000 0.832887 0.000000
vt 0.320000 0.876724 0.000000
vt -0.000000 0.876724 0.000000
vt 0.320000 0.920560 0.000000
vt -0.000000 0.920560 0.000000
vt -0.000000 -0.964396 0.000000
vt 0.320000 -0.964396 0.000000
vt 0.320000 -0.920560 0.000000
vt -0.000000 -0.920560 0.000000
vt 0.320000 -0.876724 0.000000
vt -0.000000 -0.876724 0.000000
vt 0.320000 -0.832887 0.000000
vt -0.000000 -0.832887 0.000000
vt 0.320000 -0.789051 0.000000
vt -0.000000 -0.789051 0.000000
vt 0.320000 -0.745215 0.000000
vt -0.000000 -0.745215 0.000000
vt 0.320000 -0.701379 0.000000
vt -0.000000 -0.701379 0.000000
vt 0.320000 -0.657543 0.000000
vt -0.000000 -0.657543 0.000000
vt 0.320000 -0.613706 0.000000
vt -0.000000 -0.613706 0.000000
vt 0.320000 -0.569870 0.000000
vt -0.000000 -0.569870 0.000000
vt 0.320000 -0.526034 0.000000
vt -0.000000 -0.526034 0.000000
vt 0.320000 -0.482198 0.000000
vt -0.000000 -0.482198 0.000000
vt 0.320000 -0.438362 0.000000
vt -0.000000 -0.438362 0.000000
vt 0.320000 -0.394526 0.000000
vt -0.000000 -0.394526 0.000000
vt 0.320000 -0.350689 0.000000
vt -0.000000 -0.350689 0.000000
vt 0.320000 -0.306853 0.000000
vt 0.000000 -0.306853 0.000000
vt 0.320000 -0.263017 0.000000
vt 0.000000 -0.263017 0.000000
vt 0.320000 -0.219181 0.000000
vt 0.000000 -0.219181 0.000000
vt 0.320000 -0.175345 0.000000
vt 0.000000 -0.175345 0.000000
vt 0.320000 -0.131509 0.000000
vt 0.000000 -0.131509 0.000000
vt 0.320000 -0.087672 0.000000
vt 0.000000 -0.087672 0.000000
vt 0.320000 -0.043836 0.000000
vt 0.296803 -0.043680 0.000000
vt 0.300000 -0.000000 0.000000
vt 0.160000 -0.000000 0.000000
vt 0.296803 0.043680 0.000000
vt 0.156926 0.031214 0.000000
vt 0.287280 0.086430 0.000000
vt 0.147821 0.061229 0.000000
vt 0.271634 0.127337 0.000000
vt 0.133035 0.088891 0.000000
vt 0.250199 0.165530 0.000000
vt 0.223432 0.200196 0.000000
vt 0.113137 0.113137 0.000000
vt 0.191902 0.230594 0.000000
vt 0.088891 0.133035 0.000000
vt 0.156282 0.256078 0.000000
vt 0.061229 0.147821 0.000000
vt 0.117331 0.276104 0.000000
vt 0.075880 0.290245 0.000000
vt 0.031214 0.156926 0.000000
vt 0.032811 0.298200 0.000000
vt 0.000000 0.160000 0.000000
vt -0.010957 0.299800 0.000000
vt -0.031214 0.156926 0.000000
vt -0.054491 0.295010 0.000000
vt -0.096864 0.283932 0.000000
vt -0.061229 0.147821 0.000000
vt -0.137173 0.266803 0.000000
vt -0.088891 0.133035 0.000000
vt -0.174558 0.243987 0.000000
vt -0.113137 0.113137 0.000000
vt -0.208222 0.215971 0.000000
vt -0.237449 0.183352 0.000000
vt -0.133035 0.088891 0.000000
vt -0.261615 0.146825 0.000000
vt -0.147821 0.061229 0.000000
vt -0.280205 0.107169 0.000000
vt -0.156926 0.031214 0.000000
vt -0.292823 0.065229 0.000000
vt -0.299200 0.021899 0.000000
vt -0.160000 0.000000 0.000000
vt -0.299200 -0.021899 0.000000
vt -0.156926 -0.031214 0.000000
vt -0.292823 -0.065229 0.000000
vt -0.280205 -0.107169 0.000000
vt -0.147821 -0.061229 0.000000
vt -0.261615 -0.146825 0.000000
vt -0.133035 -0.088891 0.000000
vt -0.237449 -0.183352 0.000000
vt -0.113137 -0.113137 0.000000
vt -0.208222 -0.215971 0.000000
vt -0.174558 -0.243987 0.000000
vt -0.088891 -0.133035 0.000000
vt -0.137173 -0.266803 0.000000
vt -0.061229 -0.147821 0.000000
vt -0.096864 -0.283932 0.000000
vt -0.031214 -0.156926 0.000000
vt -0.054491 -0.295010 0.000000
vt -0.010957 -0.299800 0.000000
vt -0.000000 -0.160000 0.000000
vt 0.032811 -0.298200 0.000000
vt 0.031214 -0.156926 0.000000
vt 0.075880 -0.290245 0.000000
vt 0.061229 -0.147821 0.000000
vt 0.117331 -0.276104 0.000000
vt 0.156282 -0.256078 0.000000
vt 0.088891 -0.133035 0.000000
vt 0.191902 -0.230594 0.000000
vt 0.113137 -0.113137 0.000000
vt 0.223432 -0.200196 0.000000
vt 0.133035 -0.088891 0.000000
vt 0.250199 -0.165530 0.000000
vt 0.271634 -0.127337 0.000000
vt 0.147821 -0.061229 0.000000
vt 0.287280 -0.086430 0.000000
vt 0.156926 -0.031214 0.000000
vt 0.296803 -0.043680 0.000000
vt 0.300000 -0.000000 0.000000
vt 0.160000 -0.000000 0.000000
vt 0.296803 0.043680 0.000000
vt 0.156926 0.031214 0.000000
vt 0.287280 0.086430 0.000000
vt 0.147821 0.061229 0.000000
vt 0.271634 0.127337 0.000000
vt 0.133035 0.088891 0.000000
vt 0.250199 0.165530 0.000000
vt 0.223432 0.200196 0.000000
vt 0.113137 0.113137 0.000000
vt 0.191902 0.230594 0.000000
vt 0.088891 0.133035 0.000000
vt 0.156282 0.256078 0.000000
vt 0.061229 0.147821 0.000000
vt 0.117331 0.276104 0.000000
vt 0.075880 0.290245 0.000000
vt 0.031214 0.156926 0.000000
vt 0.032811 0.298200 0.000000
vt 0.000000 0.160000 0.000000
vt -0.010957 0.299800 0.000000
vt -0.031214 0.156926 0.000000
vt -0.054491 0.295010 0.000000
vt -0.096864 0.283932 0.000000
vt -0.061229 0.147821 0.000000
vt -0.137173 0.266803 0.000000
vt -0.088891 0.133035 0.000000
vt -0.174558 0.243987 0.000000
vt -0.113137 0.113137 0.000000
vt -0.208222 0.215971 0.000000
vt -0.237449 0.183352 0.000000
vt -0.133035 0.088891 0.000000
vt -0.261615 0.146825 0.000000
vt -0.147821 0.061229 0.000000
vt -0.280205 0.107169 0.000000
vt -0.156926 0.031214 0.000000
vt -0.292823 0.065229 0.000000
vt -0.299200 0.021899 0.000000
vt -0.160000 0.000000 0.000000
vt -0.299200 -0.021899 0.000000
vt -0.156926 -0.031214 0.000000
vt -0.292823 -0.065229 0.000000
vt -0.280205 -0.107169 0.000000
vt -0.147821 -0.061229 0.000000
vt -0.261615 -0.146825 0.000000
vt -0.133035 -0.088891 0.000000
vt -0.237449 -0.183352 0.000000
vt -0.113137 -0.113137 0.000000
vt -0.208222 -0.215971 0.000000
vt -0.174558 -0.243987 0.000000
vt -0.088891 -0.133035 0.000000
vt -0.137173 -0.266803 0.000000
vt -0.061229 -0.147821 0.000000
vt -0.096864 -0.283932 0.000000
vt -0.031214 -0.156926 0.000000
vt -0.054491 -0.295010 0.000000
vt -0.010957 -0.299800 0.000000
vt -0.000000 -0.160000 0.000000
vt 0.032811 -0.298200 0.000000
vt 0.031214 -0.156926 0.000000
vt 0.075880 -0.290245 0.000000
vt 0.061229 -0.147821 0.000000
vt 0.117331 -0.276104 0.000000
vt 0.156282 -0.256078 0.000000
vt 0.088891 -0.133035 0.000000
vt 0.191902 -0.230594 0.000000
vt 0.113137 -0.113137 0.000000
vt 0.223432 -0.200196 0.000000
vt 0.133035 -0.088891 0.000000
vt 0.250199 -0.165530 0.000000
vt 0.271634 -0.127337 0.000000
vt 0.147821 -0.061229 0.000000
vt 0.287280 -0.086430 0.000000
vt 0.156926 -0.031214 0.000000
vt 0.720000 -2.915000 0.000000
vt 0.120000 -2.915000 0.000000
vt 0.720000 -3.165000 0.000000
vt 0.120000 -3.165000 0.000000
vn -0.000000 -0.000000 1.000000
vn -0.000000 -0.000000 1.000000
vn -0.000000 -0.000000 1.000000
vn -0.000000 -0.000000 1.000000
vn -1.000000 -0.000000 -0.000000
vn -1.000000 -0.000000 -0.000000
vn -1.000000 -0.000000 -0.000000
vn -1.000000 -0.000000 -0.000000
vn -0.000000 -0.000000 1.000000
vn -0.000000 -0.000000 1.000000
vn -0.000000 -0.000000 1.000000
vn -0.000000 -0.000000 1.000000
vn -0.000000 1.000000 0.000000
vn -0.000000 1.000000 0.000000
vn -0.000000 1.000000 0.000000
vn -0.000000 1.000000 0.000000
vn -1.000000 -0.000000 -0.000000
vn -1.000000 -0.000000 -0.000000
vn -1.000000 -0.000000 -0.000000
vn -1.000000 -0.000000 -0.000000
vn -1.000000 -0.000000 -0.000000
vn -1.000000 -0.000000 -0.000000
vn -1.000000 -0.000000 -0.000000
vn -1.000000 -0.000000 -0.000000
vn 0.000000 -1.000000 -0.000000
vn 0.000000 -1.000000 -0.000000
vn 0.000000 -1.000000 -0.000000
vn 0.000000 -1.000000 -0.000000
vn -0.000000 -0.000000 1.000000
vn -0.000000 -0.000000 1.000000
vn -0.000000 -0.000000 1.000000
vn -0.000000 1.000000 0.000000
vn -0.000000 1.000000 0.000000
vn -0.000000 1.000000 0.000000
vn -0.000000 1.000000 0.000000
vn -1.000000 -0.000000 -0.000000
vn -1.000000 -0.000000 -0.000000
vn 0.000000 -1.000000 -0.000000
vn 0.000000 -1.000000 -0.000000
vn 0.000000 -1.000000 -0.000000
vn 0.000000 -1.000000 -0.000000
vn 0.000000 0.000000 -1.000000
vn 0.000000 0.000000 -1.000000
vn 0.000000 0.000000 -1.000000
vn 0.000000 0.000000 -1.000000
vn 0.000000 -1.000000 -0.000000
vn 0.000000 -1.000000 -0.000000
vn 0.000000 -1.000000 -0.000000
vn 0.000000 -1.000000 -0.000000
vn 0.000000 0.000000 -1.000000
vn 0.000000 0.000000 -1.000000
vn 0.000000 0.000000 -1.000000
vn 0.000000 0.000000 -1.000000
vn -0.000000 1.000000 0.000000
vn -0.000000 1.000000 0.000000
vn -0.000000 1.000000 0.000000
vn -0.000000 1.000000 0.000000
vn 0.000000 0.000000 -1.000000
vn 0.000000 0.000000 -1.000000
vn 0.000000 0.000000 -1.000000
vn 0.000000 0.000000 -1.000000
vn 0.000000 -1.000000 -0.000000
vn 0.000000 -1.000000 -0.000000
vn -0.000000 -0.000000 1.000000
vn 1.000000 0.000000 0.000000
vn 1.000000 0.000000 0.000000
vn 1.000000 0.000000 0.000000
vn 1.000000 0.000000 0.000000
vn -0.000000 1.000000 0.000000
vn -0.000000 1.000000 0.000000
vn -0.000000 1.000000 0.000000
vn -0.000000 1.000000 0.000000
vn -0.000000 1.000000 0.000000
vn -0.000000 1.000000 0.000000
vn -0.000000 1.000000 0.000000
vn -0.000000 1.000000 0.000000
vn -0.000000 1.000000 0.000000
vn -0.000000 1.000000 0.000000
vn -0.000000 1.000000 0.000000
vn -0.000000 1.000000 0.000000
vn -0.000000 1.000000 0.000000
vn -0.000000 1.000000 0.000000
vn -0.000000 1.000000 0.000000
vn -0.000000 1.000000 0.000000
vn -0.000000 1.000000 0.000000
vn -0.000000 1.000000 0.000000
vn -0.000000 1.000000 0.000000
vn -0.000000 1.000000 0.000000
vn -0.000000 1.000000 0.000000
vn -0.000000 1.000000 0.000000
vn -0.000000 1.000000 0.000000
vn -0.000000 1.000000 0.000000
vn -0.000000 1.000000 0.000000
vn -0.000000 1.000000 0.000000
vn -0.000000 1.000000 0.000000
vn -0.000000 1.000000 0.000000
vn -0.000000 1.000000 0.000000
vn -0.000000 1.000000 0.000000
vn -0.000000 1.000000 0.000000
vn -0.000000 1.000000 0.000000
vn -0.000000 1.000000 0.000000
vn -0.000000 1.000000 0.000000
vn -0.000000 1.000000 0.000000
vn -0.000000 1.000000 0.000000
vn -0.000000 1.000000 0.000000
vn -0.000000 1.000000 0.000000
vn -0.000000 1.000000 0.000000
vn -0.000000 1.000000 0.000000
vn -0.000000 1.000000 0.000000
vn -0.000000 1.000000 0.000000
vn -0.000000 1.000000 0.000000
vn -0.000000 1.000000 0.000000
vn -0.000000 1.000000 0.000000
vn -0.000000 1.000000 0.000000
vn -0.000000 1.000000 0.000000
vn -0.000000 1.000000 0.000000
vn -0.000000 1.000000 0.000000
vn -0.000000 1.000000 0.000000
vn -0.000000 1.000000 0.000000
vn -0.000000 1.000000 0.000000
vn -0.000000 1.000000 0.000000
vn -0.000000 1.000000 0.000000
vn -0.000000 1.000000 0.000000
vn -0.000000 1.000000 0.000000
vn -0.000000 1.000000 0.000000
vn -0.000000 1.000000 0.000000
vn -0.000000 1.000000 0.000000
vn -0.000000 1.000000 0.000000
vn -0.000000 1.000000 0.000000
vn -0.000000 1.000000 0.000000
vn -0.000000 1.000000 0.000000
vn -0.000000 1.000000 0.000000
vn -0.000000 1.000000 0.000000
vn -0.000000 1.000000 0.000000
vn -0.000000 1.000000 0.000000
vn -0.000000 1.000000 0.000000
vn -0.000000 1.000000 0.000000
vn -0.000000 1.000000 0.000000
vn 0.000000 0.000000 -1.000000
vn 0.000000 0.000000 -1.000000
vn 0.000000 0.000000 -1.000000
vn 0.000000 0.000000 -1.000000
vn -1.000000 -0.000000 -0.000000
vn -1.000000 -0.000000 -0.000000
vn -1.000000 -0.000000 -0.000000
vn -1.000000 -0.000000 -0.000000
vn -1.000000 -0.000000 -0.000000
vn -1.000000 -0.000000 -0.000000
vn -1.000000 -0.000000 -0.000000
vn -1.000000 -0.000000 -0.000000
vn -1.000000 -0.000000 -0.000000
vn -1.000000 -0.000000 -0.000000
vn -1.000000 -0.000000 -0.000000
vn -1.000000 -0.000000 -0.000000
vn -1.000000 -0.000000 -0.000000
vn -1.000000 -0.000000 -0.000000
vn -1.000000 -0.000000 -0.000000
vn -1.000000 -0.000000 -0.000000
vn -1.000000 -0.000000 -0.000000
vn -1.000000 -0.000000 -0.000000
vn -0.000000 -0.000000 1.000000
vn -0.000000 -0.000000 1.000000
vn -0.000000 -0.000000 1.000000
vn -0.000000 -0.000000 1.000000
vn 0.000000 -1.000000 -0.000000
vn 0.000000 -1.000000 -0.000000
vn 0.000000 -1.000000 -0.000000
vn 0.000000 -1.000000 -0.000000
vn 0.000000 -1.000000 -0.000000
vn 0.000000 -1.000000 -0.000000
vn 0.000000 -1.000000 -0.000000
vn 0.000000 -1.000000 -0.000000
vn 0.000000 -1.000000 -0.000000
vn 0.000000 -1.000000 -0.000000
vn 0.000000 -1.000000 -0.000000
vn 0.000000 -1.000000 -0.000000
vn 0.000000 -1.000000 -0.000000
vn 0.000000 -1.000000 -0.000000
vn 0.000000 -1.000000 -0.000000
vn 0.000000 -1.000000 -0.000000
vn 0.000000 -1.000000 -0.000000
vn 0.000000 -1.000000 -0.000000
vn 0.000000 -1.000000 -0.000000
vn 0.000000 -1.000000 -0.000000
vn 0.000000 -1.000000 -0.000000
vn 0.000000 -1.000000 -0.000000
vn 0.000000 -1.000000 -0.000000
vn 0.000000 -1.000000 -0.000000
vn 0.000000 -1.000000 -0.000000
vn 0.000000 -1.000000 -0.000000
vn 0.000000 -1.000000 -0.000000
vn 0.000000 -1.000000 -0.000000
vn 0.000000 -1.000000 -0.000000
vn 0.000000 -1.000000 -0.000000
vn 0.000000 -1.000000 -0.000000
vn 0.000000 -1.000000 -0.000000
vn 0.000000 -1.000000 -0.000000
vn 0.000000 -1.000000 -0.000000
vn 0.000000 -1.000000 -0.000000
vn 0.000000 -1.000000 -0.000000
vn 0.000000 -1.000000 -0.000000
vn 0.000000 -1.000000 -0.000000
vn 0.000000 -1.000000 -0.000000
vn 0.000000 -1.000000 -0.000000
vn 0.000000 -1.000000 -0.000000
vn 0.000000 -1.000000 -0.000000
vn 0.000000 -1.000000 -0.000000
vn 0.000000 -1.000000 -0.000000
vn 0.000000 -1.000000 -0.000000
vn 0.000000 -1.000000 -0.000000
vn 0.000000 -1.000000 -0.000000
vn 0.000000 -1.000000 -0.000000
vn 0.000000 -1.000000 -0.000000
vn 0.000000 -1.000000 -0.000000
vn 0.000000 -1.000000 -0.000000
vn 0.000000 -1.000000 -0.000000
vn 0.000000 -1.000000 -0.000000
vn 0.000000 -1.000000 -0.000000
vn 0.000000 -1.000000 -0.000000
vn 0.000000 -1.000000 -0.000000
vn 0.000000 -1.000000 -0.000000
vn 0.000000 -1.000000 -0.000000
vn 0.000000 -1.000000 -0.000000
vn 0.000000 -1.000000 -0.000000
vn 0.000000 -1.000000 -0.000000
vn 0.000000 -1.000000 -0.000000
vn 0.000000 -1.000000 -0.000000
vn 0.000000 -1.000000 -0.000000
vn 0.000000 -1.000000 -0.000000
vn 0.000000 -1.000000 -0.000000
vn 0.000000 -1.000000 -0.000000
vn 0.000000 -1.000000 -0.000000
vn 0.000000 -1.000000 -0.000000
vn 0.000000 -1.000000 -0.000000
vn 0.000000 -1.000000 -0.000000
vn 0.000000 -1.000000 -0.000000
vn 0.000000 -1.000000 -0.000000
vn 0.000000 -1.000000 -0.000000
vn 0.000000 -1.000000 -0.000000
vn 0.000000 -1.000000 -0.000000
vn 0.000000 -1.000000 -0.000000
vn 0.000000 -1.000000 -0.000000
vn 0.000000 -1.000000 -0.000000
vn 0.000000 -1.000000 -0.000000
vn 0.000000 -1.000000 -0.000000
vn 0.000000 -1.000000 -0.000000
vn 0.000000 -1.000000 -0.000000
vn 0.000000 -1.000000 -0.000000
vn 0.000000 -1.000000 -0.000000
vn 0.000000 -1.000000 -0.000000
vn 0.000000 -1.000000 -0.000000
vn 0.000000 -1.000000 -0.000000
vn 0.000000 -1.000000 -0.000000
vn 0.000000 -1.000000 -0.000000
vn 0.000000 -1.000000 -0.000000
vn 1.000000 0.000000 0.000000
vn 1.000000 0.000000 0.000000
vn 0.000000 0.000000 -1.000000
vn 0.000000 0.000000 -1.000000
vn 0.000000 0.000000 -1.000000
vn 0.000000 0.000000 -1.000000
vn 0.195090 -0.000000 0.980785
vn 0.195090 -0.000000 0.980785
vn 0.000000 -0.000000 1.000000
vn 0.000000 -0.000000 1.000000
vn -0.195090 -0.000000 0.980785
vn -0.195090 -0.000000 0.980785
vn -0.382683 -0.000000 0.923880
vn -0.382683 -0.000000 0.923880
vn -0.555570 -0.000000 0.831470
vn -0.555570 -0.000000 0.831470
vn -0.707107 -0.000000 0.707107
vn -0.707107 -0.000000 0.707107
vn -0.831470 -0.000000 0.555570
vn -0.831470 -0.000000 0.555570
vn -0.923880 -0.000000 0.382683
vn -0.923880 -0.000000 0.382683
vn -0.980785 -0.000000 0.195090
vn -0.980785 -0.000000 0.195090
vn -1.000000 -0.000000 -0.000000
vn -1.000000 -0.000000 0.000000
vn -0.980785 -0.000000 -0.195090
vn -0.980785 -0.000000 -0.195090
vn -0.923880 -0.000000 -0.382683
vn -0.923880 -0.000000 -0.382683
vn -0.831470 0.000000 -0.555570
vn -0.831470 0.000000 -0.555570
vn -0.707107 0.000000 -0.707107
vn -0.707107 0.000000 -0.707107
vn -0.555570 0.000000 -0.831470
vn -0.555570 0.000000 -0.831470
vn -0.382683 0.000000 -0.923880
vn -0.382683 0.000000 -0.923880
vn -0.195090 0.000000 -0.980785
vn -0.195090 0.000000 -0.980785
vn -0.000000 0.000000 -1.000000
vn -0.000000 0.000000 -1.000000
vn 0.195090 0.000000 -0.980785
vn 0.195090 0.000000 -0.980785
vn 0.382683 0.000000 -0.923880
vn 0.382683 0.000000 -0.923880
vn 0.555570 0.000000 -0.831470
vn 0.555570 0.000000 -0.831470
vn 0.707107 0.000000 -0.707107
vn 0.707107 0.000000 -0.707107
vn 0.831470 0.000000 -0.555570
vn 0.831470 0.000000 -0.555570
vn 0.923880 0.000000 -0.382683
vn 0.923880 0.000000 -0.382683
vn 0.980785 0.000000 -0.195090
vn 0.980785 0.000000 -0.195090
vn 1.000000 0.000000 -0.000000
vn 1.000000 0.000000 0.000000
vn 0.980785 0.000000 0.195090
vn 0.980785 0.000000 0.195090
vn 0.923880 0.000000 0.382683
vn 0.923880 0.000000 0.382683
vn 0.831470 -0.000000 0.555570
vn 0.831470 -0.000000 0.555570
vn 0.707107 -0.000000 0.707107
vn 0.707107 -0.000000 0.707107
vn 0.555570 -0.000000 0.831470
vn 0.555570 -0.000000 0.831470
vn 0.382683 -0.000000 0.923880
vn 0.382683 -0.000000 0.923880
vn 0.195090 -0.000000 0.980785
vn 0.195090 -0.000000 0.980785
vn 0.000000 -0.000000 1.000000
vn 0.000000 -0.000000 1.000000
vn -0.195090 -0.000000 0.980785
vn -0.195090 -0.000000 0.980785
vn -0.382683 -0.000000 0.923880
vn -0.382683 -0.000000 0.923880
vn -0.555570 -0.000000 0.831470
vn -0.555570 -0.000000 0.831470
vn -0.707107 -0.000000 0.707107
vn -0.707107 -0.000000 0.707107
vn -0.831470 -0.000000 0.555570
vn -0.831470 -0.000000 0.555570
vn -0.923880 -0.000000 0.382683
vn -0.923880 -0.000000 0.382683
vn -0.980785 -0.000000 0.195090
vn -0.980785 -0.000000 0.195090
vn -1.000000 -0.000000 -0.000000
vn -1.000000 -0.000000 -0.000000
vn -0.980785 -0.000000 -0.195090
vn -0.980785 -0.000000 -0.195090
vn -0.923880 -0.000000 -0.382683
vn -0.923880 -0.000000 -0.382683
vn -0.831470 0.000000 -0.555570
vn -0.831470 0.000000 -0.555570
vn -0.707107 0.000000 -0.707107
vn -0.707107 0.000000 -0.707107
vn -0.555570 0.000000 -0.831470
vn -0.555570 0.000000 -0.831470
vn -0.382683 0.000000 -0.923880
vn -0.382683 0.000000 -0.923880
vn -0.195090 0.000000 -0.980785
vn -0.195090 0.000000 -0.980785
vn -0.000000 0.000000 -1.000000
vn -0.000000 0.000000 -1.000000
vn 0.195090 0.000000 -0.980785
vn 0.195090 0.000000 -0.980785
vn 0.382683 0.000000 -0.923880
vn 0.382683 0.000000 -0.923880
vn 0.555570 0.000000 -0.831470
vn 0.555570 0.000000 -0.831470
vn 0.707107 0.000000 -0.707107
vn 0.707107 0.000000 -0.707107
vn 0.831470 0.000000 -0.555570
vn 0.831470 0.000000 -0.555570
vn 0.923880 0.000000 -0.382683
vn 0.923880 0.000000 -0.382683
vn 0.980785 0.000000 -0.195090
vn 0.980785 0.000000 -0.195090
vn 1.000000 0.000000 -0.000000
vn 1.000000 0.000000 -0.000000
vn 0.980785 0.000000 0.195090
vn 0.980785 0.000000 0.195090
vn 0.923880 0.000000 0.382683
vn 0.923880 0.000000 0.382683
vn 0.831470 -0.000000 0.555570
vn 0.831470 -0.000000 0.555570
vn 0.707107 -0.000000 0.707107
vn 0.707107 -0.000000 0.707107
vn 0.555570 -0.000000 0.831470
vn 0.555570 -0.000000 0.831470
vn 0.382683 -0.000000 0.923880
vn 0.382683 -0.000000 0.923880
vn 0.000000 0.000000 -1.000000
vn 0.000000 0.000000 -1.000000
vn 0.000000 -1.000000 -0.000000
vn 0.000000 -1.000000 -0.000000
vn 0.000000 -1.000000 -0.000000
vn -0.000000 -0.000000 1.000000
vn -0.000000 -0.000000 1.000000
vn -0.000000 -0.000000 1.000000
vn -0.000000 -0.000000 1.000000
vn -0.000000 1.000000 0.000000
vn -0.000000 1.000000 0.000000
vn -0.000000 1.000000 0.000000
vn -0.000000 1.000000 0.000000
vn -0.000000 -0.000000 1.000000
vn -0.000000 -0.000000 1.000000
vn -0.000000 -0.000000 1.000000
vn -0.000000 -0.000000 1.000000
vn 0.000000 -1.000000 -0.000000
vn 0.000000 -1.000000 -0.000000
vn 0.000000 -1.000000 -0.000000
vn 0.000000 -1.000000 -0.000000
vn 0.000000 0.000000 -1.000000
vn 0.000000 0.000000 -1.000000
vn 0.145601 -0.000000 0.989343
vn 0.000000 -0.000000 1.000000
vn -0.000000 -0.000000 1.000000
vn -0.145601 -0.000000 0.989343
vn -0.145601 -0.000000 0.989343
vn -0.288099 -0.000000 0.957601
vn -0.288099 -0.000000 0.957601
vn -0.424457 -0.000000 0.905448
vn -0.424457 -0.000000 0.905448
vn -0.551768 -0.000000 0.833998
vn -0.551768 -0.000000 0.833998
vn -0.667319 -0.000000 0.744772
vn -0.667319 -0.000000 0.744772
vn -0.768647 -0.000000 0.639673
vn -0.768647 -0.000000 0.639673
vn -0.853593 -0.000000 0.520940
vn -0.853593 -0.000000 0.520940
vn -0.920346 -0.000000 0.391105
vn -0.920346 -0.000000 0.391105
vn -0.967484 -0.000000 0.252933
vn -0.967484 -0.000000 0.252933
vn -0.994001 -0.000000 0.109371
vn -0.994001 -0.000000 0.109371
vn -0.999333 -0.000000 -0.036522
vn -0.999333 -0.000000 -0.036522
vn -0.983366 -0.000000 -0.181637
vn -0.983366 -0.000000 -0.181637
vn -0.946440 -0.000000 -0.322880
vn -0.946440 -0.000000 -0.322880
vn -0.889342 -0.000000 -0.457242
vn -0.889342 -0.000000 -0.457242
vn -0.813290 0.000000 -0.581859
vn -0.813290 0.000000 -0.581859
vn -0.719903 0.000000 -0.694074
vn -0.719903 0.000000 -0.694074
vn -0.611174 0.000000 -0.791496
vn -0.611174 0.000000 -0.791496
vn -0.489418 0.000000 -0.872049
vn -0.489418 0.000000 -0.872049
vn -0.357231 0.000000 -0.934016
vn -0.357231 0.000000 -0.934016
vn -0.217430 0.000000 -0.976076
vn -0.217430 0.000000 -0.976076
vn -0.072995 0.000000 -0.997332
vn -0.072995 0.000000 -0.997332
vn 0.072995 0.000000 -0.997332
vn 0.072995 0.000000 -0.997332
vn 0.217430 0.000000 -0.976076
vn 0.217430 0.000000 -0.976076
vn 0.357231 0.000000 -0.934016
vn 0.357231 0.000000 -0.934016
vn 0.489418 0.000000 -0.872049
vn 0.489418 0.000000 -0.872049
vn 0.611174 0.000000 -0.791496
vn 0.611174 0.000000 -0.791496
vn 0.719903 0.000000 -0.694074
vn 0.719903 0.000000 -0.694074
vn 0.813290 0.000000 -0.581859
vn 0.813290 0.000000 -0.581859
vn 0.889342 0.000000 -0.457242
vn 0.889342 0.000000 -0.457242
vn 0.946440 0.000000 -0.322880
vn 0.946440 0.000000 -0.322880
vn 0.983366 0.000000 -0.181637
vn 0.983366 0.000000 -0.181637
vn 0.999333 0.000000 -0.036522
vn 0.999333 0.000000 -0.036522
vn 0.994001 0.000000 0.109371
vn 0.994001 0.000000 0.109371
vn 0.967484 0.000000 0.252933
vn 0.967484 0.000000 0.252933
vn 0.920346 0.000000 0.391105
vn 0.920346 0.000000 0.391105
vn 0.853593 -0.000000 0.520940
vn 0.853593 -0.000000 0.520940
vn 0.768647 -0.000000 0.639673
vn 0.768647 -0.000000 0.639673
vn 0.667319 -0.000000 0.744772
vn 0.667319 -0.000000 0.744772
vn 0.551768 -0.000000 0.833998
vn 0.551768 -0.000000 0.833998
vn 0.424457 -0.000000 0.905448
vn 0.424457 -0.000000 0.905448
vn 0.288099 -0.000000 0.957601
vn 0.288099 -0.000000 0.957601
vn 0.145601 -0.000000 0.989343
vn 0.145601 -0.000000 0.989343
vn 0.000000 -0.000000 1.000000
vn -0.000000 -0.000000 1.000000
vn -0.145601 -0.000000 0.989343
vn -0.145601 -0.000000 0.989343
vn -0.288099 -0.000000 0.957601
vn -0.288099 -0.000000 0.957601
vn -0.424457 -0.000000 0.905448
vn -0.424457 -0.000000 0.905448
vn -0.551768 -0.000000 0.833998
vn -0.551768 -0.000000 0.833998
vn -0.667319 -0.000000 0.744772
vn -0.667319 -0.000000 0.744772
vn -0.768647 -0.000000 0.639673
vn -0.768647 -0.000000 0.639673
vn -0.853593 -0.000000 0.520940
vn -0.853593 -0.000000 0.520940
vn -0.920346 -0.000000 0.391105
vn -0.920346 -0.000000 0.391105
vn -0.967484 -0.000000 0.252933
vn -0.967484 -0.000000 0.252933
vn -0.994001 -0.000000 0.109371
vn -0.994001 -0.000000 0.109371
vn -0.999333 -0.000000 -0.036522
vn -0.999333 -0.000000 -0.036522
vn -0.983366 -0.000000 -0.181637
vn -0.983366 -0.000000 -0.181637
vn -0.946440 -0.000000 -0.322880
vn -0.946440 -0.000000 -0.322880
vn -0.889342 -0.000000 -0.457242
vn -0.889342 -0.000000 -0.457242
vn -0.813290 0.000000 -0.581859
vn -0.813290 0.000000 -0.581859
vn -0.719903 0.000000 -0.694074
vn -0.719903 0.000000 -0.694074
vn -0.611174 0.000000 -0.791496
vn -0.611174 0.000000 -0.791496
vn -0.489418 0.000000 -0.872049
vn -0.489418 0.000000 -0.872049
vn -0.357231 0.000000 -0.934016
vn -0.357231 0.000000 -0.934016
vn -0.217430 0.000000 -0.976076
vn -0.217430 0.000000 -0.976076
vn -0.072995 0.000000 -0.997332
vn -0.072995 0.000000 -0.997332
vn 0.072995 0.000000 -0.997332
vn 0.072995 0.000000 -0.997332
vn 0.217430 0.000000 -0.976076
vn 0.217430 0.000000 -0.976076
vn 0.357231 0.000000 -0.934016
vn 0.357231 0.000000 -0.934016
vn 0.489418 0.000000 -0.872049
vn 0.489418 0.000000 -0.872049
vn 0.611174 0.000000 -0.791496
vn 0.611174 0.000000 -0.791496
vn 0.719903 0.000000 -0.694074
vn 0.719903 0.000000 -0.694074
vn 0.813290 0.000000 -0.581859
vn 0.813290 0.000000 -0.581859
vn 0.889342 0.000000 -0.457242
vn 0.889342 0.000000 -0.457242
vn 0.946440 0.000000 -0.322880
vn 0.946440 0.000000 -0.322880
vn 0.983366 0.000000 -0.181637
vn 0.983366 0.000000 -0.181637
vn 0.999333 0.000000 -0.036522
vn 0.999333 0.000000 -0.036522
vn 0.994001 0.000000 0.109371
vn 0.994001 0.000000 0.109371
vn 0.967484 0.000000 0.252933
vn 0.967484 0.000000 0.252933
vn 0.920346 0.000000 0.391105
vn 0.920346 0.000000 0.391105
vn 0.853593 -0.000000 0.520940
vn 0.853593 -0.000000 0.520940
vn 0.768647 -0.000000 0.639673
vn 0.768647 -0.000000 0.639673
vn 0.667319 -0.000000 0.744772
vn 0.667319 -0.000000 0.744772
vn 0.551768 -0.000000 0.833998
vn 0.551768 -0.000000 0.833998
vn 0.424457 -0.000000 0.905448
vn 0.424457 -0.000000 0.905448
vn 0.288099 -0.000000 0.957601
vn 0.288099 -0.000000 0.957601
vn 0.145601 -0.000000 0.989343
vn 0.000000 -1.000000 -0.000000
vn 0.000000 -1.000000 -0.000000
vn 0.000000 -1.000000 -0.000000
vn 0.000000 -1.000000 -0.000000
vn 0.000000 -1.000000 -0.000000
vn 0.000000 -1.000000 -0.000000
vn 0.000000 -1.000000 -0.000000
vn 0.000000 -1.000000 -0.000000
vn 0.000000 -1.000000 -0.000000
vn 0.000000 -1.000000 -0.000000
vn 0.000000 -1.000000 -0.000000
vn 0.000000 -1.000000 -0.000000
vn 0.000000 -1.000000 -0.000000
vn 0.000000 -1.000000 -0.000000
vn 0.000000 -1.000000 -0.000000
vn 0.000000 -1.000000 -0.000000
vn 0.000000 -1.000000 -0.000000
vn 0.000000 -1.000000 -0.000000
vn 0.000000 -1.000000 -0.000000
vn 0.000000 -1.000000 -0.000000
vn 0.000000 -1.000000 -0.000000
vn 0.000000 -1.000000 -0.000000
vn 0.000000 -1.000000 -0.000000
vn 0.000000 -1.000000 -0.000000
vn 0.000000 -1.000000 -0.000000
vn 0.000000 -1.000000 -0.000000
vn 0.000000 -1.000000 -0.000000
vn 0.000000 -1.000000 -0.000000
vn 0.000000 -1.000000 -0.000000
vn 0.000000 -1.000000 -0.000000
vn 0.000000 -1.000000 -0.000000
vn 0.000000 -1.000000 -0.000000
vn 0.000000 -1.000000 -0.000000
vn 0.000000 -1.000000 -0.000000
vn 0.000000 -1.000000 -0.000000
vn 0.000000 -1.000000 -0.000000
vn 0.000000 -1.000000 -0.000000
vn 0.000000 -1.000000 -0.000000
vn 0.000000 -1.000000 -0.000000
vn 0.000000 -1.000000 -0.000000
vn 0.000000 -1.000000 -0.000000
vn 0.000000 -1.000000 -0.000000
vn 0.000000 -1.000000 -0.000000
vn 0.000000 -1.000000 -0.000000
vn 0.000000 -1.000000 -0.000000
vn 0.000000 -1.000000 -0.000000
vn 0.000000 -1.000000 -0.000000
vn 0.000000 -1.000000 -0.000000
vn 0.000000 -1.000000 -0.000000
vn 0.000000 -1.000000 -0.000000
vn 0.000000 -1.000000 -0.000000
vn 0.000000 -1.000000 -0.000000
vn 0.000000 -1.000000 -0.000000
vn 0.000000 -1.000000 -0.000000
vn 0.000000 -1.000000 -0.000000
vn 0.000000 -1.000000 -0.000000
vn 0.000000 -1.000000 -0.000000
vn 0.000000 -1.000000 -0.000000
vn 0.000000 -1.000000 -0.000000
vn 0.000000 -1.000000 -0.000000
vn 0.000000 -1.000000 -0.000000
vn 0.000000 -1.000000 -0.000000
vn 0.000000 -1.000000 -0.000000
vn 0.000000 -1.000000 -0.000000
vn 0.000000 -1.000000 -0.000000
vn 0.000000 -1.000000 -0.000000
vn 0.000000 -1.000000 -0.000000
vn 0.000000 -1.000000 -0.000000
vn 0.000000 -1.000000 -0.000000
vn 0.000000 -1.000000 -0.000000
vn 0.000000 -1.000000 -0.000000
vn 0.000000 -1.000000 -0.000000
vn 0.000000 -1.000000 -0.000000
vn 0.000000 -1.000000 -0.000000
vn 0.000000 -1.000000 -0.000000
vn 0.000000 -1.000000 -0.000000
vn 0.000000 -1.000000 -0.000000
vn 0.000000 -1.000000 -0.000000
vn 0.000000 -1.000000 -0.000000
vn 0.000000 -1.000000 -0.000000
vn 0.000000 -1.000000 -0.000000
vn 0.000000 -1.000000 -0.000000
vn 0.000000 -1.000000 -0.000000
vn 0.000000 -1.000000 -0.000000
vn 0.000000 -1.000000 -0.000000
vn 0.000000 -1.000000 -0.000000
vn 0.000000 -1.000000 -0.000000
vn 0.000000 -1.000000 -0.000000
vn 0.000000 -1.000000 -0.000000
vn 0.000000 -1.000000 -0.000000
vn 0.000000 -1.000000 -0.000000
vn 0.000000 -1.000000 -0.000000
vn 0.000000 -1.000000 -0.000000
vn 0.000000 -1.000000 -0.000000
vn 0.000000 -1.000000 -0.000000
vn 0.000000 -1.000000 -0.000000
vn 0.000000 -1.000000 -0.000000
vn 0.000000 -1.000000 -0.000000
vn 0.000000 -1.000000 -0.000000
vn 0.000000 -1.000000 -0.000000
vn 0.000000 -1.000000 -0.000000
vn 0.000000 -1.000000 -0.000000
vn 0.000000 -1.000000 -0.000000
vn 0.000000 -1.000000 -0.000000
vn 0.000000 -1.000000 -0.000000
vn 0.000000 -1.000000 -0.000000
vn 0.000000 -1.000000 -0.000000
vn 0.000000 -1.000000 -0.000000
vn 0.000000 -1.000000 -0.000000
vn 0.000000 -1.000000 -0.000000
vn 0.000000 -1.000000 -0.000000
vn 0.000000 -1.000000 -0.000000
vn 0.000000 -1.000000 -0.000000
vn 0.000000 -1.000000 -0.000000
vn 0.000000 -1.000000 -0.000000
vn 0.000000 -1.000000 -0.000000
vn 0.000000 -1.000000 -0.000000
vn 0.000000 -1.000000 -0.000000
vn 0.000000 -1.000000 -0.000000
vn 0.000000 -1.000000 -0.000000
vn 0.000000 -1.000000 -0.000000
vn 0.000000 -1.000000 -0.000000
vn 0.000000 -1.000000 -0.000000
vn 0.000000 -1.000000 -0.000000
vn 0.000000 -1.000000 -0.000000
vn 0.000000 -1.000000 -0.000000
vn 0.000000 -1.000000 -0.000000
vn 0.000000 -1.000000 -0.000000
vn 0.000000 -1.000000 -0.000000
vn 0.000000 -1.000000 -0.000000
vn 0.000000 -1.000000 -0.000000
vn 0.000000 -1.000000 -0.000000
vn 0.000000 -1.000000 -0.000000
vn 0.000000 -1.000000 -0.000000
vn 0.000000 -1.000000 -0.000000
vn 0.000000 -1.000000 -0.000000
vn 0.000000 -1.000000 -0.000000
vn 0.000000 -1.000000 -0.000000
vn 0.000000 -1.000000 -0.000000
vn 0.000000 -1.000000 -0.000000
vn 0.000000 -1.000000 -0.000000
vn 0.000000 -1.000000 -0.000000
vn 0.000000 -1.000000 -0.000000
vn 0.000000 -1.000000 -0.000000
vn 0.000000 -1.000000 -0.000000
vn 0.000000 -1.000000 -0.000000
vn 0.000000 -1.000000 -0.000000
vn 0.000000 -1.000000 -0.000000
vn 0.000000 -1.000000 -0.000000
vn 0.000000 -1.000000 -0.000000
usemtl Steel_-_Satin
f 1/1/1 2/2/2 4/3/3
f 4/3/3 2/2/2 3/4/4
f 5/5/5 6/6/6 1/7/7
f 1/7/7 6/6/6 2/8/8
f 2/8/2 7/9/9 3/10/4
f 3/10/4 7/9/9 8/11/10
f 4/12/3 3/13/4 10/14/11
f 10/14/11 3/13/4 9/15/12
f 4/16/13 11/17/14 1/18/15
f 1/18/15 11/17/14 5/19/16
f 12/20/17 13/21/18 5/22/5
f 5/22/5 13/21/18 6/23/6
f 14/24/19 15/25/20 6/26/6
f 6/26/6 15/25/20 2/27/8
f 2/27/8 15/25/20 7/28/21
f 7/28/21 15/25/20 16/29/22
f 7/28/21 16/29/22 18/30/23
f 18/30/23 16/29/22 17/31/24
f 7/32/25 18/33/26 8/34/27
f 8/34/27 18/33/26 19/35/28
f 3/36/4 8/37/10 9/38/12
f 9/38/12 8/37/10 20/39/29
f 10/40/11 9/41/12 22/42/30
f 22/42/30 9/41/12 21/43/31
f 10/44/32 23/45/33 4/46/13
f 4/46/13 23/45/33 11/47/14
f 11/47/14 24/48/34 5/49/16
f 5/49/16 24/48/34 12/50/35
f 25/51/36 26/52/37 12/53/17
f 12/53/17 26/52/37 13/54/18
f 6/55/38 13/56/39 27/57/40
f 27/57/40 13/56/39 28/58/41
f 14/59/42 6/60/43 29/61/44
f 29/61/44 6/60/43 27/62/45
f 15/63/46 14/64/47 30/65/48
f 30/65/48 14/64/47 29/66/49
f 16/67/50 15/68/51 31/69/52
f 31/69/52 15/68/51 30/70/53
f 31/71/54 32/72/55 16/73/56
f 16/73/56 32/72/55 17/74/57
f 32/75/58 19/76/59 17/77/60
f 17/77/60 19/76/59 18/78/61
f 8/79/27 19/80/28 20/81/62
f 20/81/62 19/80/28 33/82/63
f 9/83/12 20/84/29 21/85/31
f 21/85/31 20/84/29 34/86/64
f 22/87/65 21/88/66 35/89/67
f 35/89/67 21/88/66 36/90/68
f 22/91/69 55/92/70 10/93/32
f 10/93/32 55/92/70 56/94/71
f 10/93/32 56/94/71 57/95/72
f 35/96/73 47/97/74 22/91/69
f 22/91/69 47/97/74 48/98/75
f 22/91/69 48/98/75 49/99/76
f 37/100/77 71/101/78 35/96/73
f 35/96/73 71/101/78 72/102/79
f 35/96/73 72/102/79 73/103/80
f 38/104/81 99/105/82 37/100/77
f 37/100/77 99/105/82 100/106/83
f 37/100/77 100/106/83 101/107/84
f 23/108/33 94/109/85 38/104/81
f 38/104/81 94/109/85 95/110/86
f 38/104/81 95/110/86 96/111/87
f 10/93/32 59/112/88 23/108/33
f 23/108/33 59/112/88 60/113/89
f 23/108/33 60/113/89 61/114/90
f 40/115/91 86/116/92 39/117/93
f 39/117/93 86/116/92 87/118/94
f 39/117/93 87/118/94 70/119/95
f 70/119/95 87/118/94 88/120/96
f 70/119/95 88/120/96 69/121/97
f 69/121/97 88/120/96 89/122/98
f 69/121/97 89/122/98 68/123/99
f 68/123/99 89/122/98 90/124/100
f 68/123/99 90/124/100 67/125/101
f 67/125/101 90/124/100 91/126/102
f 67/125/101 91/126/102 66/127/103
f 66/127/103 91/126/102 92/128/104
f 66/127/103 92/128/104 65/129/105
f 65/129/105 92/128/104 93/130/106
f 65/129/105 93/130/106 64/131/107
f 64/131/107 93/130/106 94/109/85
f 64/131/107 94/109/85 23/108/33
f 86/116/92 40/115/91 85/132/108
f 85/132/108 40/115/91 41/133/109
f 85/132/108 41/133/109 84/134/110
f 84/134/110 41/133/109 42/135/111
f 84/134/110 42/135/111 83/136/112
f 83/136/112 42/135/111 43/137/113
f 83/136/112 43/137/113 82/138/114
f 82/138/114 43/137/113 44/139/115
f 82/138/114 44/139/115 81/140/116
f 81/140/116 44/139/115 45/141/117
f 81/140/116 45/141/117 80/142/118
f 80/142/118 45/141/117 46/143/119
f 80/142/118 46/143/119 79/144/120
f 79/144/120 46/143/119 47/97/74
f 79/144/120 47/97/74 35/96/73
f 49/99/76 50/145/121 22/91/69
f 22/91/69 50/145/121 51/146/122
f 22/91/69 51/146/122 52/147/123
f 52/147/123 53/148/124 22/91/69
f 22/91/69 53/148/124 54/149/125
f 22/91/69 54/149/125 55/92/70
f 57/95/72 58/150/126 10/93/32
f 10/93/32 58/150/126 59/112/88
f 61/114/90 62/151/127 23/108/33
f 23/108/33 62/151/127 63/152/128
f 23/108/33 63/152/128 64/131/107
f 73/103/80 74/153/129 35/96/73
f 35/96/73 74/153/129 75/154/130
f 35/96/73 75/154/130 76/155/131
f 76/155/131 77/156/132 35/96/73
f 35/96/73 77/156/132 78/157/133
f 35/96/73 78/157/133 79/144/120
f 96/111/87 97/158/134 38/104/81
f 38/104/81 97/158/134 98/159/135
f 38/104/81 98/159/135 99/105/82
f 101/107/84 102/160/136 37/100/77
f 37/100/77 102/160/136 71/101/78
f 23/108/33 38/104/81 11/161/14
f 11/161/14 38/162/81 24/163/34
f 24/163/34 103/164/137 12/165/35
f 12/165/35 103/164/137 25/166/138
f 26/167/139 25/168/140 104/169/141
f 104/169/141 25/168/140 103/170/142
f 13/171/18 26/172/37 109/173/143
f 109/173/143 26/172/37 105/174/144
f 109/173/143 105/174/144 108/175/145
f 108/175/145 105/174/144 106/176/146
f 108/175/145 106/176/146 107/177/147
f 109/173/143 110/178/148 13/171/18
f 28/179/149 111/180/150 27/181/151
f 27/181/151 111/180/150 29/182/152
f 29/182/152 111/180/150 114/183/153
f 29/182/152 114/183/153 32/184/154
f 32/184/154 114/183/153 115/185/155
f 32/184/154 115/185/155 19/186/156
f 112/187/157 113/188/158 111/180/150
f 111/180/150 113/188/158 114/183/153
f 31/189/159 30/190/160 32/184/154
f 32/184/154 30/190/160 29/182/152
f 13/191/161 110/192/162 28/193/163
f 28/193/163 110/192/162 111/194/164
f 20/195/62 141/196/165 34/197/166
f 34/197/166 141/196/165 142/198/167
f 34/197/166 142/198/167 143/199/168
f 33/200/63 136/201/169 20/195/62
f 20/195/62 136/201/169 137/202/170
f 20/195/62 137/202/170 138/203/171
f 116/204/172 173/205/173 33/200/63
f 33/200/63 173/205/173 129/206/174
f 33/200/63 129/206/174 130/207/175
f 117/208/176 167/209/177 116/204/172
f 116/204/172 167/209/177 168/210/178
f 116/204/172 168/210/178 169/211/179
f 118/212/180 162/213/181 117/208/176
f 117/208/176 162/213/181 163/214/182
f 117/208/176 163/214/182 164/215/183
f 34/197/166 194/216/184 118/212/180
f 118/212/180 194/216/184 195/217/185
f 118/212/180 195/217/185 196/218/186
f 120/219/187 183/220/188 119/221/189
f 119/221/189 183/220/188 184/222/190
f 119/221/189 184/222/190 161/223/191
f 161/223/191 184/222/190 185/224/192
f 161/223/191 185/224/192 160/225/193
f 160/225/193 185/224/192 186/226/194
f 160/225/193 186/226/194 159/227/195
f 159/227/195 186/226/194 187/228/196
f 159/227/195 187/228/196 158/229/197
f 158/229/197 187/228/196 188/230/198
f 158/229/197 188/230/198 157/231/199
f 157/231/199 188/230/198 189/232/200
f 157/231/199 189/232/200 156/233/201
f 156/233/201 189/232/200 190/234/202
f 156/233/201 190/234/202 155/235/203
f 155/235/203 190/234/202 191/236/204
f 155/235/203 191/236/204 154/237/205
f 154/237/205 191/236/204 192/238/206
f 154/237/205 192/238/206 153/239/207
f 153/239/207 192/238/206 193/240/208
f 153/239/207 193/240/208 152/241/209
f 152/241/209 193/240/208 194/216/184
f 152/241/209 194/216/184 34/197/166
f 183/220/188 120/219/187 182/242/210
f 182/242/210 120/219/187 121/243/211
f 182/242/210 121/243/211 181/244/212
f 181/244/212 121/243/211 122/245/213
f 181/244/212 122/245/213 180/246/214
f 180/246/214 122/245/213 123/247/215
f 180/246/214 123/247/215 179/248/216
f 179/248/216 123/247/215 124/249/217
f 179/248/216 124/249/217 178/250/218
f 178/250/218 124/249/217 125/251/219
f 178/250/218 125/251/219 177/252/220
f 177/252/220 125/251/219 126/253/221
f 177/252/220 126/253/221 176/254/222
f 176/254/222 126/253/221 127/255/223
f 176/254/222 127/255/223 175/256/224
f 175/256/224 127/255/223 128/257/225
f 175/256/224 128/257/225 174/258/226
f 174/258/226 128/257/225 129/206/174
f 174/258/226 129/206/174 173/205/173
f 130/207/175 131/259/227 33/200/63
f 33/200/63 131/259/227 132/260/228
f 33/200/63 132/260/228 133/261/229
f 133/261/229 134/262/230 33/200/63
f 33/200/63 134/262/230 135/263/231
f 33/200/63 135/263/231 136/201/169
f 138/203/171 139/264/232 20/195/62
f 20/195/62 139/264/232 140/265/233
f 20/195/62 140/265/233 141/196/165
f 143/199/168 144/266/234 34/197/166
f 34/197/166 144/266/234 145/267/235
f 34/197/166 145/267/235 146/268/236
f 146/268/236 147/269/237 34/197/166
f 34/197/166 147/269/237 148/270/238
f 34/197/166 148/270/238 149/271/239
f 149/271/239 150/272/240 34/197/166
f 34/197/166 150/272/240 151/273/241
f 34/197/166 151/273/241 152/241/209
f 164/215/183 165/274/242 117/208/176
f 117/208/176 165/274/242 166/275/243
f 117/208/176 166/275/243 167/209/177
f 169/211/179 170/276/244 116/204/172
f 116/204/172 170/276/244 171/277/245
f 116/204/172 171/277/245 172/278/246
f 172/278/246 173/205/173 116/204/172
f 196/218/186 197/279/247 118/212/180
f 118/212/180 197/279/247 198/280/248
f 118/212/180 198/280/248 199/281/249
f 199/281/249 200/282/250 118/212/180
f 118/212/180 200/282/250 201/283/251
f 118/212/180 201/283/251 202/284/252
f 202/284/252 203/285/253 118/212/180
f 118/212/180 203/285/253 204/286/254
f 118/212/180 204/286/254 162/213/181
f 19/287/28 115/288/255 33/289/63
f 33/289/63 115/288/255 116/290/172
f 21/291/66 34/292/256 36/293/68
f 36/293/68 34/292/256 118/294/257
f 205/295/258 37/296/259 36/297/260
f 36/297/260 37/296/259 35/298/261
f 38/299/81 37/300/77 24/301/34
f 24/301/34 37/300/77 103/302/137
f 70/303/262 237/304/263 39/305/264
f 39/305/264 237/304/263 206/306/265
f 39/305/264 206/306/265 40/307/266
f 40/307/266 206/306/265 207/308/267
f 40/307/266 207/308/267 41/309/268
f 41/309/268 207/308/267 208/310/269
f 41/309/268 208/310/269 42/311/270
f 42/311/270 208/310/269 209/312/271
f 42/311/270 209/312/271 43/313/272
f 43/313/272 209/312/271 210/314/273
f 43/313/272 210/314/273 44/315/274
f 44/315/274 210/314/273 211/316/275
f 44/315/274 211/316/275 45/317/276
f 45/317/276 211/316/275 212/318/277
f 45/317/276 212/318/277 46/319/278
f 46/319/278 212/318/277 213/320/279
f 46/319/278 213/320/279 47/321/280
f 47/321/280 213/320/279 214/322/281
f 47/321/280 214/322/281 48/323/282
f 48/323/282 214/322/281 215/324/283
f 48/323/282 215/324/283 49/325/284
f 49/325/284 215/324/283 216/326/285
f 49/325/284 216/326/285 50/327/286
f 50/327/286 216/326/285 217/328/287
f 50/327/286 217/328/287 51/329/288
f 51/329/288 217/328/287 218/330/289
f 51/329/288 218/330/289 52/331/290
f 52/331/290 218/330/289 219/332/291
f 52/331/290 219/332/291 53/333/292
f 53/333/292 219/332/291 220/334/293
f 53/333/292 220/334/293 54/335/294
f 54/335/294 220/334/293 221/336/295
f 54/335/294 221/336/295 55/337/296
f 55/337/296 221/336/295 222/338/297
f 55/339/296 222/340/297 56/341/298
f 56/341/298 222/340/297 223/342/299
f 56/341/298 223/342/299 57/343/300
f 57/343/300 223/342/299 224/344/301
f 57/343/300 224/344/301 58/345/302
f 58/345/302 224/344/301 225/346/303
f 58/345/302 225/346/303 59/347/304
f 59/347/304 225/346/303 226/348/305
f 59/347/304 226/348/305 60/349/306
f 60/349/306 226/348/305 227/350/307
f 60/349/306 227/350/307 61/351/308
f 61/351/308 227/350/307 228/352/309
f 61/351/308 228/352/309 62/353/310
f 62/353/310 228/352/309 229/354/311
f 62/353/310 229/354/311 63/355/312
f 63/355/312 229/354/311 230/356/313
f 63/355/312 230/356/313 64/357/314
f 64/357/314 230/356/313 231/358/315
f 64/357/314 231/358/315 65/359/316
f 65/359/316 231/358/315 232/360/317
f 65/359/316 232/360/317 66/361/318
f 66/361/318 232/360/317 233/362/319
f 66/361/318 233/362/319 67/363/320
f 67/363/320 233/362/319 234/364/321
f 67/363/320 234/364/321 68/365/322
f 68/365/322 234/364/321 235/366/323
f 68/365/322 235/366/323 69/367/324
f 69/367/324 235/366/323 236/368/325
f 69/367/324 236/368/325 70/303/262
f 70/303/262 236/368/325 237/304/263
f 102/369/326 269/370/327 71/371/328
f 71/371/328 269/370/327 238/372/329
f 71/371/328 238/372/329 72/373/330
f 72/373/330 238/372/329 239/374/331
f 72/373/330 239/374/331 73/375/332
f 73/375/332 239/374/331 240/376/333
f 73/375/332 240/376/333 74/377/334
f 74/377/334 240/376/333 241/378/335
f 74/377/334 241/378/335 75/379/336
f 75/379/336 241/378/335 242/380/337
f 75/379/336 242/380/337 76/381/338
f 76/381/338 242/380/337 243/382/339
f 76/381/338 243/382/339 77/383/340
f 77/383/340 243/382/339 244/384/341
f 77/383/340 244/384/341 78/385/342
f 78/385/342 244/384/341 245/386/343
f 78/385/342 245/386/343 79/387/344
f 79/387/344 245/386/343 246/388/345
f 79/387/344 246/388/345 80/389/346
f 80/389/346 246/388/345 247/390/347
f 80/389/346 247/390/347 81/391/348
f 81/391/348 247/390/347 248/392/349
f 81/391/348 248/392/349 82/393/350
f 82/393/350 248/392/349 249/394/351
f 82/393/350 249/394/351 83/395/352
f 83/395/352 249/394/351 250/396/353
f 83/395/352 250/396/353 84/397/354
f 84/397/354 250/396/353 251/398/355
f 84/397/354 251/398/355 85/399/356
f 85/399/356 251/398/355 252/400/357
f 85/399/356 252/400/357 86/401/358
f 86/401/358 252/400/357 253/402/359
f 86/401/358 253/402/359 87/403/360
f 87/403/360 253/402/359 254/404/361
f 87/405/360 254/406/361 88/407/362
f 88/407/362 254/406/361 255/408/363
f 88/407/362 255/408/363 89/409/364
f 89/409/364 255/408/363 256/410/365
f 89/409/364 256/410/365 90/411/366
f 90/411/366 256/410/365 257/412/367
f 90/411/366 257/412/367 91/413/368
f 91/413/368 257/412/367 258/414/369
f 91/413/368 258/414/369 92/415/370
f 92/415/370 258/414/369 259/416/371
f 92/415/370 259/416/371 93/417/372
f 93/417/372 259/416/371 260/418/373
f 93/417/372 260/418/373 94/419/374
f 94/419/374 260/418/373 261/420/375
f 94/419/374 261/420/375 95/421/376
f 95/421/376 261/420/375 262/422/377
f 95/421/376 262/422/377 96/423/378
f 96/423/378 262/422/377 263/424/379
f 96/423/378 263/424/379 97/425/380
f 97/425/380 263/424/379 264/426/381
f 97/425/380 264/426/381 98/427/382
f 98/427/382 264/426/381 265/428/383
f 98/427/382 265/428/383 99/429/384
f 99/429/384 265/428/383 266/430/385
f 99/429/384 266/430/385 100/431/386
f 100/431/386 266/430/385 267/432/387
f 100/431/386 267/432/387 101/433/388
f 101/433/388 267/432/387 268/434/389
f 101/433/388 268/434/389 102/369/326
f 102/369/326 268/434/389 269/370/327
f 105/435/390 26/436/139 270/437/391
f 270/437/391 26/436/139 104/438/141
f 104/438/141 103/439/142 205/440/258
f 205/440/258 103/439/142 37/441/259
f 106/442/392 105/443/393 115/444/255
f 115/444/255 105/443/393 270/445/394
f 115/446/395 114/447/396 106/448/397
f 106/448/397 114/447/396 107/449/398
f 114/450/399 113/451/400 107/452/401
f 107/452/401 113/451/400 108/453/402
f 113/454/403 112/455/404 108/456/405
f 108/456/405 112/455/404 109/457/406
f 112/458/407 111/459/408 109/460/409
f 109/460/409 111/459/408 110/461/410
f 117/462/411 205/463/258 118/464/412
f 118/464/412 205/463/258 36/465/260
f 115/466/255 270/467/394 116/468/172
f 116/468/172 270/467/394 117/469/176
f 272/470/413 119/471/414 271/472/415
f 271/472/415 119/471/414 161/473/416
f 271/472/415 161/473/416 313/474/417
f 313/474/417 161/473/416 160/475/418
f 313/474/417 160/475/418 312/476/419
f 312/476/419 160/475/418 159/477/420
f 312/476/419 159/477/420 311/478/421
f 311/478/421 159/477/420 158/479/422
f 311/478/421 158/479/422 310/480/423
f 310/480/423 158/479/422 157/481/424
f 310/480/423 157/481/424 309/482/425
f 309/482/425 157/481/424 156/483/426
f 309/482/425 156/483/426 308/484/427
f 308/484/427 156/483/426 155/485/428
f 308/484/427 155/485/428 307/486/429
f 307/486/429 155/485/428 154/487/430
f 307/486/429 154/487/430 306/488/431
f 306/488/431 154/487/430 153/489/432
f 306/488/431 153/489/432 305/490/433
f 305/490/433 153/489/432 152/491/434
f 305/490/433 152/491/434 304/492/435
f 304/492/435 152/491/434 151/493/436
f 304/492/435 151/493/436 303/494/437
f 303/494/437 151/493/436 150/495/438
f 303/494/437 150/495/438 302/496/439
f 302/496/439 150/495/438 149/497/440
f 302/496/439 149/497/440 301/498/441
f 301/498/441 149/497/440 148/499/442
f 301/498/441 148/499/442 300/500/443
f 300/500/443 148/499/442 147/501/444
f 300/500/443 147/501/444 299/502/445
f 299/502/445 147/501/444 146/503/446
f 299/502/445 146/503/446 298/504/447
f 298/504/447 146/503/446 145/505/448
f 298/504/447 145/505/448 297/506/449
f 297/506/449 145/505/448 144/507/450
f 297/506/449 144/507/450 296/508/451
f 296/508/451 144/507/450 143/509/452
f 296/508/451 143/509/452 295/510/453
f 295/510/453 143/509/452 142/511/454
f 295/510/453 142/511/454 294/512/455
f 294/512/455 142/511/454 141/513/456
f 294/512/455 141/513/456 293/514/457
f 293/515/457 141/516/456 140/517/458
f 293/515/457 140/517/458 292/518/459
f 292/518/459 140/517/458 139/519/460
f 292/518/459 139/519/460 291/520/461
f 291/520/461 139/519/460 138/521/462
f 291/520/461 138/521/462 290/522/463
f 290/522/463 138/521/462 137/523/464
f 290/522/463 137/523/464 289/524/465
f 289/524/465 137/523/464 136/525/466
f 289/524/465 136/525/466 288/526/467
f 288/526/467 136/525/466 135/527/468
f 288/526/467 135/527/468 287/528/469
f 287/528/469 135/527/468 134/529/470
f 287/528/469 134/529/470 286/530/471
f 286/530/471 134/529/470 133/531/472
f 286/530/471 133/531/472 285/532/473
f 285/532/473 133/531/472 132/533/474
f 285/532/473 132/533/474 284/534/475
f 284/534/475 132/533/474 131/535/476
f 284/534/475 131/535/476 283/536/477
f 283/536/477 131/535/476 130/537/478
f 283/536/477 130/537/478 282/538/479
f 282/538/479 130/537/478 129/539/480
f 282/538/479 129/539/480 281/540/481
f 281/540/481 129/539/480 128/541/482
f 281/540/481 128/541/482 280/542/483
f 280/542/483 128/541/482 127/543/484
f 280/542/483 127/543/484 279/544/485
f 279/544/485 127/543/484 126/545/486
f 279/544/485 126/545/486 278/546/487
f 278/546/487 126/545/486 125/547/488
f 278/546/487 125/547/488 277/548/489
f 277/548/489 125/547/488 124/549/490
f 277/548/489 124/549/490 276/550/491
f 276/550/491 124/549/490 123/551/492
f 276/550/491 123/551/492 275/552/493
f 275/552/493 123/551/492 122/553/494
f 275/552/493 122/553/494 274/554/495
f 274/554/495 122/553/494 121/555/496
f 274/554/495 121/555/496 273/556/497
f 273/556/497 121/555/496 120/557/498
f 273/556/497 120/557/498 272/470/413
f 272/470/413 120/557/498 119/471/414
f 315/558/499 162/559/500 314/560/501
f 314/560/501 162/559/500 204/561/502
f 314/560/501 204/561/502 356/562/503
f 356/562/503 204/561/502 203/563/504
f 356/562/503 203/563/504 355/564/505
f 355/564/505 203/563/504 202/565/506
f 355/564/505 202/565/506 354/566/507
f 354/566/507 202/565/506 201/567/508
f 354/566/507 201/567/508 353/568/509
f 353/568/509 201/567/508 200/569/510
f 353/568/509 200/569/510 352/570/511
f 352/570/511 200/569/510 199/571/512
f 352/570/511 199/571/512 351/572/513
f 351/572/513 199/571/512 198/573/514
f 351/572/513 198/573/514 350/574/515
f 350/574/515 198/573/514 197/575/516
f 350/574/515 197/575/516 349/576/517
f 349/576/517 197/575/516 196/577/518
f 349/576/517 196/577/518 348/578/519
f 348/578/519 196/577/518 195/579/520
f 348/578/519 195/579/520 347/580/521
f 347/580/521 195/579/520 194/581/522
f 347/580/521 194/581/522 346/582/523
f 346/582/523 194/581/522 193/583/524
f 346/582/523 193/583/524 345/584/525
f 345/584/525 193/583/524 192/585/526
f 345/584/525 192/585/526 344/586/527
f 344/586/527 192/585/526 191/587/528
f 344/586/527 191/587/528 343/588/529
f 343/588/529 191/587/528 190/589/530
f 343/588/529 190/589/530 342/590/531
f 342/590/531 190/589/530 189/591/532
f 342/590/531 189/591/532 341/592/533
f 341/592/533 189/591/532 188/593/534
f 341/592/533 188/593/534 340/594/535
f 340/594/535 188/593/534 187/595/536
f 340/594/535 187/595/536 339/596/537
f 339/596/537 187/595/536 186/597/538
f 339/596/537 186/597/538 338/598/539
f 338/598/539 186/597/538 185/599/540
f 338/598/539 185/599/540 337/600/541
f 337/600/541 185/599/540 184/601/542
f 337/600/541 184/601/542 336/602/543
f 336/603/543 184/604/542 183/605/544
f 336/603/543 183/605/544 335/606/545
f 335/606/545 183/605/544 182/607/546
f 335/606/545 182/607/546 334/608/547
f 334/608/547 182/607/546 181/609/548
f 334/608/547 181/609/548 333/610/549
f 333/610/549 181/609/548 180/611/550
f 333/610/549 180/611/550 332/612/551
f 332/612/551 180/611/550 179/613/552
f 332/612/551 179/613/552 331/614/553
f 331/614/553 179/613/552 178/615/554
f 331/614/553 178/615/554 330/616/555
f 330/616/555 178/615/554 177/617/556
f 330/616/555 177/617/556 329/618/557
f 329/618/557 177/617/556 176/619/558
f 329/618/557 176/619/558 328/620/559
f 328/620/559 176/619/558 175/621/560
f 328/620/559 175/621/560 327/622/561
f 327/622/561 175/621/560 174/623/562
f 327/622/561 174/623/562 326/624/563
f 326/624/563 174/623/562 173/625/564
f 326/624/563 173/625/564 325/626/565
f 325/626/565 173/625/564 172/627/566
f 325/626/565 172/627/566 324/628/567
f 324/628/567 172/627/566 171/629/568
f 324/628/567 171/629/568 323/630/569
f 323/630/569 171/629/568 170/631/570
f 323/630/569 170/631/570 322/632/571
f 322/632/571 170/631/570 169/633/572
f 322/632/571 169/633/572 321/634/573
f 321/634/573 169/633/572 168/635/574
f 321/634/573 168/635/574 320/636/575
f 320/636/575 168/635/574 167/637/576
f 320/636/575 167/637/576 319/638/577
f 319/638/577 167/637/576 166/639/578
f 319/638/577 166/639/578 318/640/579
f 318/640/579 166/639/578 165/641/580
f 318/640/579 165/641/580 317/642/581
f 317/642/581 165/641/580 164/643/582
f 317/642/581 164/643/582 316/644/583
f 316/644/583 164/643/582 163/645/584
f 316/644/583 163/645/584 315/558/499
f 315/558/499 163/645/584 162/559/500
f 272/646/585 271/647/586 206/648/587
f 206/648/587 271/647/586 313/649/588
f 206/648/587 313/649/588 207/650/589
f 207/650/589 313/649/588 312/651/590
f 207/650/589 312/651/590 208/652/591
f 208/652/591 312/651/590 311/653/592
f 208/652/591 311/653/592 209/654/593
f 209/654/593 311/653/592 310/655/594
f 209/654/593 310/655/594 309/656/595
f 209/654/593 309/656/595 210/657/596
f 210/657/596 309/656/595 308/658/597
f 210/657/596 308/658/597 211/659/598
f 211/659/598 308/658/597 307/660/599
f 211/659/598 307/660/599 212/661/600
f 212/661/600 307/660/599 306/662/601
f 212/661/600 306/662/601 305/663/602
f 212/661/600 305/663/602 213/664/603
f 213/664/603 305/663/602 304/665/604
f 213/664/603 304/665/604 214/666/605
f 214/666/605 304/665/604 303/667/606
f 214/666/605 303/667/606 215/668/607
f 215/668/607 303/667/606 302/669/608
f 215/668/607 302/669/608 301/670/609
f 215/668/607 301/670/609 216/671/610
f 216/671/610 301/670/609 300/672/611
f 216/671/610 300/672/611 217/673/612
f 217/673/612 300/672/611 299/674/613
f 217/673/612 299/674/613 218/675/614
f 218/675/614 299/674/613 298/676/615
f 218/675/614 298/676/615 297/677/616
f 218/675/614 297/677/616 219/678/617
f 219/678/617 297/677/616 296/679/618
f 219/678/617 296/679/618 220/680/619
f 220/680/619 296/679/618 295/681/620
f 220/680/619 295/681/620 221/682/621
f 221/682/621 295/681/620 294/683/622
f 221/682/621 294/683/622 293/684/623
f 221/682/621 293/684/623 222/685/624
f 222/685/624 293/684/623 292/686/625
f 222/685/624 292/686/625 223/687/626
f 223/687/626 292/686/625 291/688/627
f 223/687/626 291/688/627 290/689/628
f 223/687/626 290/689/628 224/690/629
f 224/690/629 290/689/628 289/691/630
f 224/690/629 289/691/630 225/692/631
f 225/692/631 289/691/630 288/693/632
f 225/692/631 288/693/632 226/694/633
f 226/694/633 288/693/632 287/695/634
f 226/694/633 287/695/634 286/696/635
f 226/694/633 286/696/635 227/697/636
f 227/697/636 286/696/635 285/698/637
f 227/697/636 285/698/637 228/699/638
f 228/699/638 285/698/637 284/700/639
f 228/699/638 284/700/639 229/701/640
f 229/701/640 284/700/639 283/702/641
f 229/701/640 283/702/641 282/703/642
f 229/701/640 282/703/642 230/704/643
f 230/704/643 282/703/642 281/705/644
f 230/704/643 281/705/644 231/706/645
f 231/706/645 281/705/644 280/707/646
f 231/706/645 280/707/646 232/708/647
f 232/708/647 280/707/646 279/709/648
f 232/708/647 279/709/648 278/710/649
f 232/708/647 278/710/649 233/711/650
f 233/711/650 278/710/649 277/712/651
f 233/711/650 277/712/651 234/713/652
f 234/713/652 277/712/651 276/714/653
f 234/713/652 276/714/653 235/715/654
f 235/715/654 276/714/653 275/716/655
f 235/715/654 275/716/655 274/717/656
f 235/715/654 274/717/656 236/718/657
f 236/718/657 274/717/656 273/719/658
f 236/718/657 273/719/658 237/720/659
f 237/720/659 273/719/658 272/646/585
f 237/720/659 272/646/585 206/648/587
f 315/721/660 314/722/661 238/723/662
f 238/723/662 314/722/661 356/724/663
f 238/723/662 356/724/663 239/725/664
f 239/725/664 356/724/663 355/726/665
f 239/725/664 355/726/665 240/727/666
f 240/727/666 355/726/665 354/728/667
f 240/727/666 354/728/667 241/729/668
f 241/729/668 354/728/667 353/730/669
f 241/729/668 353/730/669 352/731/670
f 241/729/668 352/731/670 242/732/671
f 242/732/671 352/731/670 351/733/672
f 242/732/671 351/733/672 243/734/673
f 243/734/673 351/733/672 350/735/674
f 243/734/673 350/735/674 244/736/675
f 244/736/675 350/735/674 349/737/676
f 244/736/675 349/737/676 348/738/677
f 244/736/675 348/738/677 245/739/678
f 245/739/678 348/738/677 347/740/679
f 245/739/678 347/740/679 246/741/680
f 246/741/680 347/740/679 346/742/681
f 246/741/680 346/742/681 247/743/682
f 247/743/682 346/742/681 345/744/683
f 247/743/682 345/744/683 344/745/684
f 247/743/682 344/745/684 248/746/685
f 248/746/685 344/745/684 343/747/686
f 248/746/685 343/747/686 249/748/687
f 249/748/687 343/747/686 342/749/688
f 249/748/687 342/749/688 250/750/689
f 250/750/689 342/749/688 341/751/690
f 250/750/689 341/751/690 340/752/691
f 250/750/689 340/752/691 251/753/692
f 251/753/692 340/752/691 339/754/693
f 251/753/692 339/754/693 252/755/694
f 252/755/694 339/754/693 338/756/695
f 252/755/694 338/756/695 253/757/696
f 253/757/696 338/756/695 337/758/697
f 253/757/696 337/758/697 336/759/698
f 253/757/696 336/759/698 254/760/699
f 254/760/699 336/759/698 335/761/700
f 254/760/699 335/761/700 255/762/701
f 255/762/701 335/761/700 334/763/702
f 255/762/701 334/763/702 333/764/703
f 255/762/701 333/764/703 256/765/704
f 256/765/704 333/764/703 332/766/705
f 256/765/704 332/766/705 257/767/706
f 257/767/706 332/766/705 331/768/707
f 257/767/706 331/768/707 258/769/708
f 258/769/708 331/768/707 330/770/709
f 258/769/708 330/770/709 329/771/710
f 258/769/708 329/771/710 259/772/711
f 259/772/711 329/771/710 328/773/712
f 259/772/711 328/773/712 260/774/713
f 260/774/713 328/773/712 327/775/714
f 260/774/713 327/775/714 261/776/715
f 261/776/715 327/775/714 326/777/716
f 261/776/715 326/777/716 325/778/717
f 261/776/715 325/778/717 262/779/718
f 262/779/718 325/778/717 324/780/719
f 262/779/718 324/780/719 263/781/720
f 263/781/720 324/780/719 323/782/721
f 263/781/720 323/782/721 264/783/722
f 264/783/722 323/782/721 322/784/723
f 264/783/722 322/784/723 321/785/724
f 264/783/722 321/785/724 265/786/725
f 265/786/725 321/785/724 320/787/726
f 265/786/725 320/787/726 266/788/727
f 266/788/727 320/787/726 319/789/728
f 266/788/727 319/789/728 267/790/729
f 267/790/729 319/789/728 318/791/730
f 267/790/729 318/791/730 317/792/731
f 267/790/729 317/792/731 268/793/732
f 268/793/732 317/792/731 316/794/733
f 268/793/732 316/794/733 269/795/734
f 269/795/734 316/794/733 315/721/660
f 269/795/734 315/721/660 238/723/662
f 270/796/391 104/797/141 117/798/411
f 117/798/411 104/797/141 205/799/258
# 356 vertices
# 799 texture params
# 734 normals
# 716 facets

# 1 groups
