# WaveFront *.obj file (generated by Autodesk ATF)

mtllib 05_orico_hub_pcb.mtl

g Body1

v -11.506958 5.958737 0.413326
v -11.506958 5.958737 4.913326
v -11.506958 6.118737 4.913326
v -11.506958 6.118737 0.413326
v -11.206958 5.958737 0.113326
v -6.706958 5.958737 0.113326
v -6.654864 5.958737 0.117884
v -6.604352 5.958737 0.131419
v -6.556958 5.958737 0.153519
v -6.514122 5.958737 0.183513
v -6.477145 5.958737 0.220490
v -6.447150 5.958737 0.263326
v -6.425050 5.958737 0.310720
v -6.411516 5.958737 0.361232
v -6.406958 5.958737 0.413326
v -6.406958 5.958737 4.913326
v -6.411516 5.958737 4.965421
v -6.425050 5.958737 5.015932
v -6.447150 5.958737 5.063326
v -6.477145 5.958737 5.106163
v -6.514122 5.958737 5.143140
v -6.556958 5.958737 5.173134
v -6.604352 5.958737 5.195234
v -6.654864 5.958737 5.208769
v -6.706958 5.958737 5.213326
v -11.206958 5.958737 5.213326
v -11.259052 5.958737 5.208769
v -11.309564 5.958737 5.195234
v -11.356958 5.958737 5.173134
v -11.399794 5.958737 5.143140
v -11.436771 5.958737 5.106163
v -11.466766 5.958737 5.063326
v -11.488866 5.958737 5.015932
v -11.502400 5.958737 4.965421
v -11.502400 5.958737 0.361232
v -11.488866 5.958737 0.310720
v -11.466766 5.958737 0.263326
v -11.436771 5.958737 0.220490
v -11.399794 5.958737 0.183513
v -11.356958 5.958737 0.153519
v -11.309564 5.958737 0.131419
v -11.259052 5.958737 0.117884
v -10.936958 5.958737 0.513326
v -10.941220 5.958737 0.475498
v -10.953793 5.958737 0.439566
v -10.974047 5.958737 0.407333
v -11.000965 5.958737 0.380415
v -11.033198 5.958737 0.360162
v -11.069129 5.958737 0.347589
v -11.106958 5.958737 0.343326
v -11.144787 5.958737 0.347589
v -11.180718 5.958737 0.360162
v -11.212951 5.958737 0.380415
v -11.239869 5.958737 0.407333
v -11.260123 5.958737 0.439566
v -11.272696 5.958737 0.475498
v -11.276958 5.958737 0.513326
v -11.272696 5.958737 0.551155
v -11.260123 5.958737 0.587087
v -11.239869 5.958737 0.619320
v -11.212951 5.958737 0.646238
v -11.180718 5.958737 0.666491
v -11.144787 5.958737 0.679064
v -11.106958 5.958737 0.683326
v -11.069129 5.958737 0.679064
v -11.033198 5.958737 0.666491
v -11.000965 5.958737 0.646238
v -10.974047 5.958737 0.619320
v -10.953793 5.958737 0.587087
v -10.941220 5.958737 0.551155
v -10.936958 5.958737 4.813326
v -10.941220 5.958737 4.775498
v -10.953793 5.958737 4.739566
v -10.974047 5.958737 4.707333
v -11.000965 5.958737 4.680415
v -11.033198 5.958737 4.660162
v -11.069129 5.958737 4.647589
v -11.106958 5.958737 4.643326
v -11.144787 5.958737 4.647589
v -11.180718 5.958737 4.660162
v -11.212951 5.958737 4.680415
v -11.239869 5.958737 4.707333
v -11.260123 5.958737 4.739566
v -11.272696 5.958737 4.775498
v -11.276958 5.958737 4.813326
v -11.272696 5.958737 4.851155
v -11.260123 5.958737 4.887087
v -11.239869 5.958737 4.919320
v -11.212951 5.958737 4.946238
v -11.180718 5.958737 4.966491
v -11.144787 5.958737 4.979064
v -11.106958 5.958737 4.983326
v -11.069129 5.958737 4.979064
v -11.033198 5.958737 4.966491
v -11.000965 5.958737 4.946238
v -10.974047 5.958737 4.919320
v -10.953793 5.958737 4.887087
v -10.941220 5.958737 4.851155
v -6.636958 5.958737 0.513326
v -6.641220 5.958737 0.475498
v -6.653793 5.958737 0.439566
v -6.674047 5.958737 0.407333
v -6.700965 5.958737 0.380415
v -6.733198 5.958737 0.360162
v -6.769129 5.958737 0.347589
v -6.806958 5.958737 0.343326
v -6.844787 5.958737 0.347589
v -6.880718 5.958737 0.360162
v -6.912951 5.958737 0.380415
v -6.939869 5.958737 0.407333
v -6.960123 5.958737 0.439566
v -6.972696 5.958737 0.475498
v -6.976958 5.958737 0.513326
v -6.972696 5.958737 0.551155
v -6.960123 5.958737 0.587087
v -6.939869 5.958737 0.619320
v -6.912951 5.958737 0.646238
v -6.880718 5.958737 0.666491
v -6.844787 5.958737 0.679064
v -6.806958 5.958737 0.683326
v -6.769129 5.958737 0.679064
v -6.733198 5.958737 0.666491
v -6.700965 5.958737 0.646238
v -6.674047 5.958737 0.619320
v -6.653793 5.958737 0.587087
v -6.641220 5.958737 0.551155
v -6.636958 5.958737 4.813326
v -6.641220 5.958737 4.775498
v -6.653793 5.958737 4.739566
v -6.674047 5.958737 4.707333
v -6.700965 5.958737 4.680415
v -6.733198 5.958737 4.660162
v -6.769129 5.958737 4.647589
v -6.806958 5.958737 4.643326
v -6.844787 5.958737 4.647589
v -6.880718 5.958737 4.660162
v -6.912951 5.958737 4.680415
v -6.939869 5.958737 4.707333
v -6.960123 5.958737 4.739566
v -6.972696 5.958737 4.775498
v -6.976958 5.958737 4.813326
v -6.972696 5.958737 4.851155
v -6.960123 5.958737 4.887087
v -6.939869 5.958737 4.919320
v -6.912951 5.958737 4.946238
v -6.880718 5.958737 4.966491
v -6.844787 5.958737 4.979064
v -6.806958 5.958737 4.983326
v -6.769129 5.958737 4.979064
v -6.733198 5.958737 4.966491
v -6.700965 5.958737 4.946238
v -6.674047 5.958737 4.919320
v -6.653793 5.958737 4.887087
v -6.641220 5.958737 4.851155
v -11.502400 6.118737 0.361232
v -11.488866 6.118737 0.310720
v -11.466766 6.118737 0.263326
v -11.436771 6.118737 0.220490
v -11.399794 6.118737 0.183513
v -11.356958 6.118737 0.153519
v -11.309564 6.118737 0.131419
v -11.259052 6.118737 0.117884
v -11.206958 6.118737 0.113326
v -11.206958 6.118737 5.213326
v -11.259052 6.118737 5.208769
v -11.309564 6.118737 5.195234
v -11.356958 6.118737 5.173134
v -11.399794 6.118737 5.143140
v -11.436771 6.118737 5.106163
v -11.466766 6.118737 5.063326
v -11.488866 6.118737 5.015932
v -11.502400 6.118737 4.965421
v -6.706958 6.118737 0.113326
v -6.706958 6.118737 5.213326
v -6.654864 6.118737 5.208769
v -6.604352 6.118737 5.195234
v -6.556958 6.118737 5.173134
v -6.514122 6.118737 5.143140
v -6.477145 6.118737 5.106163
v -6.447150 6.118737 5.063326
v -6.425050 6.118737 5.015932
v -6.411516 6.118737 4.965421
v -6.406958 6.118737 4.913326
v -6.406958 6.118737 0.413326
v -6.411516 6.118737 0.361232
v -6.425050 6.118737 0.310720
v -6.447150 6.118737 0.263326
v -6.477145 6.118737 0.220490
v -6.514122 6.118737 0.183513
v -6.556958 6.118737 0.153519
v -6.604352 6.118737 0.131419
v -6.654864 6.118737 0.117884
v -10.936958 6.118737 0.513326
v -10.941220 6.118737 0.551155
v -10.953793 6.118737 0.587087
v -10.974047 6.118737 0.619320
v -11.000965 6.118737 0.646238
v -11.033198 6.118737 0.666491
v -11.069129 6.118737 0.679064
v -11.106958 6.118737 0.683326
v -11.144787 6.118737 0.679064
v -11.180718 6.118737 0.666491
v -11.212951 6.118737 0.646238
v -11.239869 6.118737 0.619320
v -11.260123 6.118737 0.587087
v -11.272696 6.118737 0.551155
v -11.276958 6.118737 0.513326
v -11.272696 6.118737 0.475498
v -11.260123 6.118737 0.439566
v -11.239869 6.118737 0.407333
v -11.212951 6.118737 0.380415
v -11.180718 6.118737 0.360162
v -11.144787 6.118737 0.347589
v -11.106958 6.118737 0.343326
v -11.069129 6.118737 0.347589
v -11.033198 6.118737 0.360162
v -11.000965 6.118737 0.380415
v -10.974047 6.118737 0.407333
v -10.953793 6.118737 0.439566
v -10.941220 6.118737 0.475498
v -10.936958 6.118737 4.813326
v -10.941220 6.118737 4.851155
v -10.953793 6.118737 4.887087
v -10.974047 6.118737 4.919320
v -11.000965 6.118737 4.946238
v -11.033198 6.118737 4.966491
v -11.069129 6.118737 4.979064
v -11.106958 6.118737 4.983326
v -11.144787 6.118737 4.979064
v -11.180718 6.118737 4.966491
v -11.212951 6.118737 4.946238
v -11.239869 6.118737 4.919320
v -11.260123 6.118737 4.887087
v -11.272696 6.118737 4.851155
v -11.276958 6.118737 4.813326
v -11.272696 6.118737 4.775498
v -11.260123 6.118737 4.739566
v -11.239869 6.118737 4.707333
v -11.212951 6.118737 4.680415
v -11.180718 6.118737 4.660162
v -11.144787 6.118737 4.647589
v -11.106958 6.118737 4.643326
v -11.069129 6.118737 4.647589
v -11.033198 6.118737 4.660162
v -11.000965 6.118737 4.680415
v -10.974047 6.118737 4.707333
v -10.953793 6.118737 4.739566
v -10.941220 6.118737 4.775498
v -6.636958 6.118737 0.513326
v -6.641220 6.118737 0.551155
v -6.653793 6.118737 0.587087
v -6.674047 6.118737 0.619320
v -6.700965 6.118737 0.646238
v -6.733198 6.118737 0.666491
v -6.769129 6.118737 0.679064
v -6.806958 6.118737 0.683326
v -6.844787 6.118737 0.679064
v -6.880718 6.118737 0.666491
v -6.912951 6.118737 0.646238
v -6.939869 6.118737 0.619320
v -6.960123 6.118737 0.587087
v -6.972696 6.118737 0.551155
v -6.976958 6.118737 0.513326
v -6.972696 6.118737 0.475498
v -6.960123 6.118737 0.439566
v -6.939869 6.118737 0.407333
v -6.912951 6.118737 0.380415
v -6.880718 6.118737 0.360162
v -6.844787 6.118737 0.347589
v -6.806958 6.118737 0.343326
v -6.769129 6.118737 0.347589
v -6.733198 6.118737 0.360162
v -6.700965 6.118737 0.380415
v -6.674047 6.118737 0.407333
v -6.653793 6.118737 0.439566
v -6.641220 6.118737 0.475498
v -6.636958 6.118737 4.813326
v -6.641220 6.118737 4.851155
v -6.653793 6.118737 4.887087
v -6.674047 6.118737 4.919320
v -6.700965 6.118737 4.946238
v -6.733198 6.118737 4.966491
v -6.769129 6.118737 4.979064
v -6.806958 6.118737 4.983326
v -6.844787 6.118737 4.979064
v -6.880718 6.118737 4.966491
v -6.912951 6.118737 4.946238
v -6.939869 6.118737 4.919320
v -6.960123 6.118737 4.887087
v -6.972696 6.118737 4.851155
v -6.976958 6.118737 4.813326
v -6.972696 6.118737 4.775498
v -6.960123 6.118737 4.739566
v -6.939869 6.118737 4.707333
v -6.912951 6.118737 4.680415
v -6.880718 6.118737 4.660162
v -6.844787 6.118737 4.647589
v -6.806958 6.118737 4.643326
v -6.769129 6.118737 4.647589
v -6.733198 6.118737 4.660162
v -6.700965 6.118737 4.680415
v -6.674047 6.118737 4.707333
v -6.653793 6.118737 4.739566
v -6.641220 6.118737 4.775498
vt -0.300000 -0.000000 0.000000
vt -4.800000 -0.000000 0.000000
vt -0.300000 -0.160000 0.000000
vt -4.800000 -0.160000 0.000000
vt -0.000000 4.800000 0.000000
vt -0.294007 4.567089 0.000000
vt -0.000000 0.300000 0.000000
vt -0.294007 0.532911 0.000000
vt -0.267089 0.505993 0.000000
vt -0.004558 4.852094 0.000000
vt -0.246835 4.773760 0.000000
vt -0.234262 4.737829 0.000000
vt -0.230000 4.700000 0.000000
vt -0.018092 4.902606 0.000000
vt -0.267089 4.805993 0.000000
vt -0.040192 4.950000 0.000000
vt -0.070187 4.992836 0.000000
vt -0.294007 4.832911 0.000000
vt -0.107164 5.029813 0.000000
vt -0.150000 5.059808 0.000000
vt -0.197394 5.081908 0.000000
vt -0.326240 4.853165 0.000000
vt -0.247906 5.095442 0.000000
vt -0.300000 5.100000 0.000000
vt -4.800000 5.100000 0.000000
vt -0.532911 4.805993 0.000000
vt -0.505993 4.832911 0.000000
vt -0.473760 4.853165 0.000000
vt -4.852094 5.095442 0.000000
vt -4.773760 4.853165 0.000000
vt -4.737829 4.865738 0.000000
vt -4.700000 4.870000 0.000000
vt -4.902606 5.081908 0.000000
vt -4.805993 4.832911 0.000000
vt -4.950000 5.059808 0.000000
vt -4.992836 5.029813 0.000000
vt -5.029813 4.992836 0.000000
vt -4.832911 4.805993 0.000000
vt -5.059808 4.950000 0.000000
vt -5.081908 4.902606 0.000000
vt -4.853165 4.773760 0.000000
vt -5.095442 4.852094 0.000000
vt -5.100000 4.800000 0.000000
vt -5.100000 0.300000 0.000000
vt -4.805993 4.567089 0.000000
vt -4.832911 4.594007 0.000000
vt -4.853165 4.626240 0.000000
vt -5.095442 0.247906 0.000000
vt -4.853165 0.326240 0.000000
vt -4.865738 0.362171 0.000000
vt -4.870000 0.400000 0.000000
vt -5.081908 0.197394 0.000000
vt -4.832911 0.294007 0.000000
vt -5.059808 0.150000 0.000000
vt -5.029813 0.107164 0.000000
vt -4.805993 0.267089 0.000000
vt -4.992836 0.070187 0.000000
vt -4.950000 0.040192 0.000000
vt -4.902606 0.018092 0.000000
vt -4.773760 0.246835 0.000000
vt -4.852094 0.004558 0.000000
vt -4.800000 0.000000 0.000000
vt -0.300000 0.000000 0.000000
vt -4.567089 0.294007 0.000000
vt -4.594007 0.267089 0.000000
vt -4.626240 0.246835 0.000000
vt -0.247906 0.004558 0.000000
vt -0.326240 0.246835 0.000000
vt -0.362171 0.234262 0.000000
vt -0.400000 0.230000 0.000000
vt -0.197394 0.018092 0.000000
vt -0.294007 0.267089 0.000000
vt -0.150000 0.040192 0.000000
vt -0.107164 0.070187 0.000000
vt -0.070187 0.107164 0.000000
vt -0.267089 0.294007 0.000000
vt -0.040192 0.150000 0.000000
vt -0.018092 0.197394 0.000000
vt -0.246835 0.326240 0.000000
vt -0.004558 0.247906 0.000000
vt -0.437829 0.565738 0.000000
vt -0.400000 0.570000 0.000000
vt -0.400000 4.530000 0.000000
vt -0.362171 0.565738 0.000000
vt -0.362171 4.534262 0.000000
vt -0.326240 0.553165 0.000000
vt -0.326240 4.546835 0.000000
vt -0.246835 0.473760 0.000000
vt -0.234262 0.437829 0.000000
vt -0.230000 0.400000 0.000000
vt -0.234262 0.362171 0.000000
vt -0.437829 0.234262 0.000000
vt -0.473760 0.246835 0.000000
vt -0.505993 0.267089 0.000000
vt -0.532911 0.294007 0.000000
vt -4.546835 0.326240 0.000000
vt -0.553165 0.326240 0.000000
vt -4.534262 0.362171 0.000000
vt -0.565738 0.362171 0.000000
vt -4.530000 0.400000 0.000000
vt -0.570000 0.400000 0.000000
vt -4.534262 0.437829 0.000000
vt -0.565738 0.437829 0.000000
vt -4.546835 0.473760 0.000000
vt -0.553165 0.473760 0.000000
vt -4.567089 0.505993 0.000000
vt -0.532911 0.505993 0.000000
vt -4.594007 0.532911 0.000000
vt -4.594007 4.567089 0.000000
vt -4.626240 4.546835 0.000000
vt -0.505993 0.532911 0.000000
vt -4.567089 4.594007 0.000000
vt -0.505993 4.567089 0.000000
vt -0.532911 4.594007 0.000000
vt -0.473760 4.546835 0.000000
vt -0.473760 0.553165 0.000000
vt -0.437829 4.534262 0.000000
vt -4.737829 0.565738 0.000000
vt -4.700000 0.570000 0.000000
vt -4.700000 4.530000 0.000000
vt -4.662171 0.565738 0.000000
vt -4.662171 4.534262 0.000000
vt -4.626240 0.553165 0.000000
vt -4.662171 0.234262 0.000000
vt -4.700000 0.230000 0.000000
vt -4.737829 0.234262 0.000000
vt -4.865738 0.437829 0.000000
vt -4.853165 0.473760 0.000000
vt -4.832911 0.505993 0.000000
vt -4.805993 0.532911 0.000000
vt -4.773760 4.546835 0.000000
vt -4.773760 0.553165 0.000000
vt -4.737829 4.534262 0.000000
vt -0.437829 4.865738 0.000000
vt -0.400000 4.870000 0.000000
vt -0.362171 4.865738 0.000000
vt -0.234262 4.662171 0.000000
vt -0.246835 4.626240 0.000000
vt -0.267089 4.594007 0.000000
vt -4.546835 4.626240 0.000000
vt -0.553165 4.626240 0.000000
vt -4.534262 4.662171 0.000000
vt -0.565738 4.662171 0.000000
vt -4.530000 4.700000 0.000000
vt -0.570000 4.700000 0.000000
vt -4.534262 4.737829 0.000000
vt -0.565738 4.737829 0.000000
vt -4.546835 4.773760 0.000000
vt -0.553165 4.773760 0.000000
vt -4.567089 4.805993 0.000000
vt -4.662171 4.865738 0.000000
vt -4.626240 4.853165 0.000000
vt -4.594007 4.832911 0.000000
vt -4.865738 4.662171 0.000000
vt -4.870000 4.700000 0.000000
vt -4.865738 4.737829 0.000000
vt -0.160000 -0.471239 0.000000
vt 0.000000 -0.471239 0.000000
vt -0.160000 -0.418879 0.000000
vt 0.000000 -0.418879 0.000000
vt -0.160000 -0.366519 0.000000
vt 0.000000 -0.366519 0.000000
vt -0.160000 -0.314159 0.000000
vt 0.000000 -0.314159 0.000000
vt -0.160000 -0.261799 0.000000
vt 0.000000 -0.261799 0.000000
vt -0.160000 -0.209440 0.000000
vt 0.000000 -0.209440 0.000000
vt -0.160000 -0.157080 0.000000
vt 0.000000 -0.157080 0.000000
vt -0.160000 -0.104720 0.000000
vt 0.000000 -0.104720 0.000000
vt -0.160000 -0.052360 0.000000
vt 0.000000 -0.052360 0.000000
vt -0.160000 0.000000 0.000000
vt -0.000000 0.000000 0.000000
vt -0.160000 0.000000 0.000000
vt -0.000000 0.000000 0.000000
vt -0.160000 0.052360 0.000000
vt -0.000000 0.052360 0.000000
vt -0.160000 0.104720 0.000000
vt -0.000000 0.104720 0.000000
vt -0.160000 0.157080 0.000000
vt -0.000000 0.157080 0.000000
vt -0.160000 0.209440 0.000000
vt -0.000000 0.209440 0.000000
vt -0.160000 0.261799 0.000000
vt -0.000000 0.261799 0.000000
vt -0.160000 0.314159 0.000000
vt -0.000000 0.314159 0.000000
vt -0.160000 0.366519 0.000000
vt -0.000000 0.366519 0.000000
vt -0.160000 0.418879 0.000000
vt -0.000000 0.418879 0.000000
vt -0.160000 0.471239 0.000000
vt -0.000000 0.471239 0.000000
vt 0.000000 0.300000 0.000000
vt 0.294007 4.567089 0.000000
vt 0.000000 4.800000 0.000000
vt 0.267089 4.594007 0.000000
vt 0.246835 4.626240 0.000000
vt 0.004558 0.247906 0.000000
vt 0.246835 0.326240 0.000000
vt 0.234262 0.362171 0.000000
vt 0.230000 0.400000 0.000000
vt 0.018092 0.197394 0.000000
vt 0.267089 0.294007 0.000000
vt 0.040192 0.150000 0.000000
vt 0.070187 0.107164 0.000000
vt 0.294007 0.267089 0.000000
vt 0.107164 0.070187 0.000000
vt 0.150000 0.040192 0.000000
vt 0.197394 0.018092 0.000000
vt 0.326240 0.246835 0.000000
vt 0.247906 0.004558 0.000000
vt 0.300000 0.000000 0.000000
vt 4.800000 0.000000 0.000000
vt 0.532911 0.294007 0.000000
vt 0.505993 0.267089 0.000000
vt 0.473760 0.246835 0.000000
vt 4.852094 0.004558 0.000000
vt 4.773760 0.246835 0.000000
vt 4.737829 0.234262 0.000000
vt 4.700000 0.230000 0.000000
vt 4.902606 0.018092 0.000000
vt 4.805993 0.267089 0.000000
vt 4.950000 0.040192 0.000000
vt 4.992836 0.070187 0.000000
vt 5.029813 0.107164 0.000000
vt 4.832911 0.294007 0.000000
vt 5.059808 0.150000 0.000000
vt 5.081908 0.197394 0.000000
vt 4.853165 0.326240 0.000000
vt 5.095442 0.247906 0.000000
vt 5.100000 0.300000 0.000000
vt 5.100000 4.800000 0.000000
vt 4.805993 4.567089 0.000000
vt 4.805993 0.532911 0.000000
vt 4.832911 0.505993 0.000000
vt 5.095442 4.852094 0.000000
vt 4.853165 4.773760 0.000000
vt 4.865738 4.737829 0.000000
vt 4.870000 4.700000 0.000000
vt 5.081908 4.902606 0.000000
vt 4.832911 4.805993 0.000000
vt 5.059808 4.950000 0.000000
vt 5.029813 4.992836 0.000000
vt 4.805993 4.832911 0.000000
vt 4.992836 5.029813 0.000000
vt 4.950000 5.059808 0.000000
vt 4.902606 5.081908 0.000000
vt 4.773760 4.853165 0.000000
vt 4.852094 5.095442 0.000000
vt 4.800000 5.100000 0.000000
vt 0.300000 5.100000 0.000000
vt 4.567089 4.805993 0.000000
vt 4.594007 4.832911 0.000000
vt 4.626240 4.853165 0.000000
vt 0.247906 5.095442 0.000000
vt 0.326240 4.853165 0.000000
vt 0.362171 4.865738 0.000000
vt 0.400000 4.870000 0.000000
vt 0.197394 5.081908 0.000000
vt 0.294007 4.832911 0.000000
vt 0.150000 5.059808 0.000000
vt 0.107164 5.029813 0.000000
vt 0.070187 4.992836 0.000000
vt 0.267089 4.805993 0.000000
vt 0.040192 4.950000 0.000000
vt 0.018092 4.902606 0.000000
vt 0.246835 4.773760 0.000000
vt 0.004558 4.852094 0.000000
vt 0.362171 0.565738 0.000000
vt 0.400000 0.570000 0.000000
vt 0.400000 4.530000 0.000000
vt 0.437829 0.565738 0.000000
vt 0.437829 4.534262 0.000000
vt 0.473760 0.553165 0.000000
vt 0.473760 4.546835 0.000000
vt 0.505993 0.532911 0.000000
vt 0.505993 4.567089 0.000000
vt 4.567089 0.505993 0.000000
vt 4.594007 0.532911 0.000000
vt 0.532911 0.505993 0.000000
vt 4.546835 0.473760 0.000000
vt 0.553165 0.473760 0.000000
vt 4.534262 0.437829 0.000000
vt 0.565738 0.437829 0.000000
vt 4.530000 0.400000 0.000000
vt 0.570000 0.400000 0.000000
vt 4.534262 0.362171 0.000000
vt 0.565738 0.362171 0.000000
vt 4.546835 0.326240 0.000000
vt 0.553165 0.326240 0.000000
vt 4.567089 0.294007 0.000000
vt 0.437829 0.234262 0.000000
vt 0.400000 0.230000 0.000000
vt 0.362171 0.234262 0.000000
vt 0.234262 0.437829 0.000000
vt 0.246835 0.473760 0.000000
vt 0.267089 0.505993 0.000000
vt 0.294007 0.532911 0.000000
vt 0.326240 4.546835 0.000000
vt 0.326240 0.553165 0.000000
vt 0.362171 4.534262 0.000000
vt 4.662171 0.565738 0.000000
vt 4.700000 0.570000 0.000000
vt 4.700000 4.530000 0.000000
vt 4.737829 0.565738 0.000000
vt 4.737829 4.534262 0.000000
vt 4.773760 0.553165 0.000000
vt 4.773760 4.546835 0.000000
vt 4.853165 0.473760 0.000000
vt 4.865738 0.437829 0.000000
vt 4.870000 0.400000 0.000000
vt 4.865738 0.362171 0.000000
vt 4.662171 0.234262 0.000000
vt 4.626240 0.246835 0.000000
vt 4.594007 0.267089 0.000000
vt 4.626240 0.553165 0.000000
vt 4.626240 4.546835 0.000000
vt 4.594007 4.567089 0.000000
vt 0.532911 4.594007 0.000000
vt 4.567089 4.594007 0.000000
vt 0.553165 4.626240 0.000000
vt 4.546835 4.626240 0.000000
vt 0.565738 4.662171 0.000000
vt 4.534262 4.662171 0.000000
vt 0.570000 4.700000 0.000000
vt 4.530000 4.700000 0.000000
vt 0.565738 4.737829 0.000000
vt 4.534262 4.737829 0.000000
vt 0.553165 4.773760 0.000000
vt 4.546835 4.773760 0.000000
vt 0.532911 4.805993 0.000000
vt 4.662171 4.534262 0.000000
vt 0.437829 4.865738 0.000000
vt 0.473760 4.853165 0.000000
vt 0.505993 4.832911 0.000000
vt 0.234262 4.662171 0.000000
vt 0.230000 4.700000 0.000000
vt 0.234262 4.737829 0.000000
vt 4.662171 4.865738 0.000000
vt 4.700000 4.870000 0.000000
vt 4.737829 4.865738 0.000000
vt 4.865738 4.662171 0.000000
vt 4.853165 4.626240 0.000000
vt 4.832911 4.594007 0.000000
vt -0.300000 0.160000 0.000000
vt -4.800000 0.160000 0.000000
vt -0.300000 0.000000 0.000000
vt -4.800000 0.000000 0.000000
vt -0.160000 -0.000000 0.000000
vt -0.000000 0.000000 0.000000
vt -0.160000 0.052360 0.000000
vt 0.000000 0.052360 0.000000
vt -0.160000 0.104720 0.000000
vt 0.000000 0.104720 0.000000
vt -0.160000 0.157080 0.000000
vt 0.000000 0.157080 0.000000
vt -0.160000 0.209440 0.000000
vt 0.000000 0.209440 0.000000
vt -0.160000 0.261799 0.000000
vt 0.000000 0.261799 0.000000
vt -0.160000 0.314159 0.000000
vt 0.000000 0.314159 0.000000
vt -0.160000 0.366519 0.000000
vt 0.000000 0.366519 0.000000
vt -0.160000 0.418879 0.000000
vt 0.000000 0.418879 0.000000
vt -0.160000 0.471239 0.000000
vt 0.000000 0.471239 0.000000
vt 4.800000 -0.000000 0.000000
vt 0.300000 -0.000000 0.000000
vt 4.800000 -0.160000 0.000000
vt 0.300000 -0.160000 0.000000
vt -0.160000 -0.471239 0.000000
vt -0.000000 -0.471239 0.000000
vt -0.160000 -0.418879 0.000000
vt -0.000000 -0.418879 0.000000
vt -0.160000 -0.366519 0.000000
vt -0.000000 -0.366519 0.000000
vt -0.160000 -0.314159 0.000000
vt -0.000000 -0.314159 0.000000
vt -0.160000 -0.261799 0.000000
vt -0.000000 -0.261799 0.000000
vt -0.160000 -0.209440 0.000000
vt -0.000000 -0.209440 0.000000
vt -0.160000 -0.157080 0.000000
vt -0.000000 -0.157080 0.000000
vt -0.160000 -0.104720 0.000000
vt -0.000000 -0.104720 0.000000
vt -0.160000 -0.052360 0.000000
vt -0.000000 -0.052360 0.000000
vt -0.160000 -0.000000 0.000000
vt -0.000000 0.000000 0.000000
vt 4.800000 0.160000 0.000000
vt 0.300000 0.160000 0.000000
vt 4.800000 0.000000 0.000000
vt 0.300000 0.000000 0.000000
vt 0.120000 -0.038148 0.000000
vt 0.280000 0.000000 0.000000
vt 0.120000 0.000000 0.000000
vt 0.280000 0.038148 0.000000
vt 0.120000 0.038148 0.000000
vt 0.280000 0.076296 0.000000
vt 0.120000 0.076296 0.000000
vt 0.280000 0.114444 0.000000
vt 0.120000 0.114444 0.000000
vt 0.280000 0.152592 0.000000
vt 0.120000 0.152592 0.000000
vt 0.280000 0.190740 0.000000
vt 0.120000 0.190740 0.000000
vt 0.280000 0.228887 0.000000
vt 0.120000 0.228887 0.000000
vt 0.280000 0.267035 0.000000
vt 0.120000 0.267035 0.000000
vt 0.280000 0.305183 0.000000
vt 0.120000 0.305183 0.000000
vt 0.280000 0.343331 0.000000
vt 0.120000 0.343331 0.000000
vt 0.280000 0.381479 0.000000
vt 0.120000 0.381479 0.000000
vt 0.280000 0.419627 0.000000
vt 0.120000 0.419627 0.000000
vt 0.280000 0.457775 0.000000
vt 0.120000 0.457775 0.000000
vt 0.280000 0.495923 0.000000
vt 0.120000 0.495923 0.000000
vt 0.120000 0.534071 0.000000
vt 0.280000 0.534071 0.000000
vt 0.120000 -0.534071 0.000000
vt 0.280000 -0.534071 0.000000
vt 0.120000 -0.495923 0.000000
vt 0.280000 -0.495923 0.000000
vt 0.280000 -0.457775 0.000000
vt 0.280000 -0.038148 0.000000
vt 0.120000 -0.076296 0.000000
vt 0.280000 -0.076296 0.000000
vt 0.120000 -0.114444 0.000000
vt 0.280000 -0.114444 0.000000
vt 0.120000 -0.152592 0.000000
vt 0.280000 -0.152592 0.000000
vt 0.120000 -0.190740 0.000000
vt 0.280000 -0.190740 0.000000
vt 0.120000 -0.228887 0.000000
vt 0.280000 -0.228887 0.000000
vt 0.120000 -0.267035 0.000000
vt 0.280000 -0.267035 0.000000
vt 0.120000 -0.305183 0.000000
vt 0.280000 -0.305183 0.000000
vt 0.120000 -0.343331 0.000000
vt 0.280000 -0.343331 0.000000
vt 0.120000 -0.381479 0.000000
vt 0.280000 -0.381479 0.000000
vt 0.120000 -0.419627 0.000000
vt 0.280000 -0.419627 0.000000
vt 0.120000 -0.457775 0.000000
vt 0.120000 -0.038148 0.000000
vt 0.280000 0.000000 0.000000
vt 0.120000 0.000000 0.000000
vt 0.280000 0.038148 0.000000
vt 0.120000 0.038148 0.000000
vt 0.280000 0.076296 0.000000
vt 0.120000 0.076296 0.000000
vt 0.280000 0.114444 0.000000
vt 0.120000 0.114444 0.000000
vt 0.280000 0.152592 0.000000
vt 0.120000 0.152592 0.000000
vt 0.280000 0.190740 0.000000
vt 0.120000 0.190740 0.000000
vt 0.280000 0.228887 0.000000
vt 0.120000 0.228887 0.000000
vt 0.280000 0.267035 0.000000
vt 0.120000 0.267035 0.000000
vt 0.280000 0.305183 0.000000
vt 0.120000 0.305183 0.000000
vt 0.280000 0.343331 0.000000
vt 0.120000 0.343331 0.000000
vt 0.280000 0.381479 0.000000
vt 0.120000 0.381479 0.000000
vt 0.280000 0.419627 0.000000
vt 0.120000 0.419627 0.000000
vt 0.280000 0.457775 0.000000
vt 0.120000 0.457775 0.000000
vt 0.280000 0.495923 0.000000
vt 0.120000 0.495923 0.000000
vt 0.120000 0.534071 0.000000
vt 0.280000 0.534071 0.000000
vt 0.120000 -0.534071 0.000000
vt 0.280000 -0.534071 0.000000
vt 0.120000 -0.495923 0.000000
vt 0.280000 -0.495923 0.000000
vt 0.280000 -0.457775 0.000000
vt 0.280000 -0.038148 0.000000
vt 0.120000 -0.076296 0.000000
vt 0.280000 -0.076296 0.000000
vt 0.120000 -0.114444 0.000000
vt 0.280000 -0.114444 0.000000
vt 0.120000 -0.152592 0.000000
vt 0.280000 -0.152592 0.000000
vt 0.120000 -0.190740 0.000000
vt 0.280000 -0.190740 0.000000
vt 0.120000 -0.228887 0.000000
vt 0.280000 -0.228887 0.000000
vt 0.120000 -0.267035 0.000000
vt 0.280000 -0.267035 0.000000
vt 0.120000 -0.305183 0.000000
vt 0.280000 -0.305183 0.000000
vt 0.120000 -0.343331 0.000000
vt 0.280000 -0.343331 0.000000
vt 0.120000 -0.381479 0.000000
vt 0.280000 -0.381479 0.000000
vt 0.120000 -0.419627 0.000000
vt 0.280000 -0.419627 0.000000
vt 0.120000 -0.457775 0.000000
vt 0.120000 -0.038148 0.000000
vt 0.280000 0.000000 0.000000
vt 0.120000 0.000000 0.000000
vt 0.280000 0.038148 0.000000
vt 0.120000 0.038148 0.000000
vt 0.280000 0.076296 0.000000
vt 0.120000 0.076296 0.000000
vt 0.280000 0.114444 0.000000
vt 0.120000 0.114444 0.000000
vt 0.280000 0.152592 0.000000
vt 0.120000 0.152592 0.000000
vt 0.280000 0.190740 0.000000
vt 0.120000 0.190740 0.000000
vt 0.280000 0.228887 0.000000
vt 0.120000 0.228887 0.000000
vt 0.280000 0.267035 0.000000
vt 0.120000 0.267035 0.000000
vt 0.280000 0.305183 0.000000
vt 0.120000 0.305183 0.000000
vt 0.280000 0.343331 0.000000
vt 0.120000 0.343331 0.000000
vt 0.280000 0.381479 0.000000
vt 0.120000 0.381479 0.000000
vt 0.280000 0.419627 0.000000
vt 0.120000 0.419627 0.000000
vt 0.280000 0.457775 0.000000
vt 0.120000 0.457775 0.000000
vt 0.280000 0.495923 0.000000
vt 0.120000 0.495923 0.000000
vt 0.120000 0.534071 0.000000
vt 0.280000 0.534071 0.000000
vt 0.120000 -0.534071 0.000000
vt 0.280000 -0.534071 0.000000
vt 0.120000 -0.495923 0.000000
vt 0.280000 -0.495923 0.000000
vt 0.280000 -0.457775 0.000000
vt 0.280000 -0.038148 0.000000
vt 0.120000 -0.076296 0.000000
vt 0.280000 -0.076296 0.000000
vt 0.120000 -0.114444 0.000000
vt 0.280000 -0.114444 0.000000
vt 0.120000 -0.152592 0.000000
vt 0.280000 -0.152592 0.000000
vt 0.120000 -0.190740 0.000000
vt 0.280000 -0.190740 0.000000
vt 0.120000 -0.228887 0.000000
vt 0.280000 -0.228887 0.000000
vt 0.120000 -0.267035 0.000000
vt 0.280000 -0.267035 0.000000
vt 0.120000 -0.305183 0.000000
vt 0.280000 -0.305183 0.000000
vt 0.120000 -0.343331 0.000000
vt 0.280000 -0.343331 0.000000
vt 0.120000 -0.381479 0.000000
vt 0.280000 -0.381479 0.000000
vt 0.120000 -0.419627 0.000000
vt 0.280000 -0.419627 0.000000
vt 0.120000 -0.457775 0.000000
vt 0.120000 -0.038148 0.000000
vt 0.280000 0.000000 0.000000
vt 0.120000 0.000000 0.000000
vt 0.280000 0.038148 0.000000
vt 0.120000 0.038148 0.000000
vt 0.280000 0.076296 0.000000
vt 0.120000 0.076296 0.000000
vt 0.280000 0.114444 0.000000
vt 0.120000 0.114444 0.000000
vt 0.280000 0.152592 0.000000
vt 0.120000 0.152592 0.000000
vt 0.280000 0.190740 0.000000
vt 0.120000 0.190740 0.000000
vt 0.280000 0.228887 0.000000
vt 0.120000 0.228887 0.000000
vt 0.280000 0.267035 0.000000
vt 0.120000 0.267035 0.000000
vt 0.280000 0.305183 0.000000
vt 0.120000 0.305183 0.000000
vt 0.280000 0.343331 0.000000
vt 0.120000 0.343331 0.000000
vt 0.280000 0.381479 0.000000
vt 0.120000 0.381479 0.000000
vt 0.280000 0.419627 0.000000
vt 0.120000 0.419627 0.000000
vt 0.280000 0.457775 0.000000
vt 0.120000 0.457775 0.000000
vt 0.280000 0.495923 0.000000
vt 0.120000 0.495923 0.000000
vt 0.120000 0.534071 0.000000
vt 0.280000 0.534071 0.000000
vt 0.120000 -0.534071 0.000000
vt 0.280000 -0.534071 0.000000
vt 0.120000 -0.495923 0.000000
vt 0.280000 -0.495923 0.000000
vt 0.280000 -0.457775 0.000000
vt 0.280000 -0.038148 0.000000
vt 0.120000 -0.076296 0.000000
vt 0.280000 -0.076296 0.000000
vt 0.120000 -0.114444 0.000000
vt 0.280000 -0.114444 0.000000
vt 0.120000 -0.152592 0.000000
vt 0.280000 -0.152592 0.000000
vt 0.120000 -0.190740 0.000000
vt 0.280000 -0.190740 0.000000
vt 0.120000 -0.228887 0.000000
vt 0.280000 -0.228887 0.000000
vt 0.120000 -0.267035 0.000000
vt 0.280000 -0.267035 0.000000
vt 0.120000 -0.305183 0.000000
vt 0.280000 -0.305183 0.000000
vt 0.120000 -0.343331 0.000000
vt 0.280000 -0.343331 0.000000
vt 0.120000 -0.381479 0.000000
vt 0.280000 -0.381479 0.000000
vt 0.120000 -0.419627 0.000000
vt 0.280000 -0.419627 0.000000
vt 0.120000 -0.457775 0.000000
vn -1.000000 -0.000000 -0.000000
vn -1.000000 -0.000000 -0.000000
vn -1.000000 -0.000000 -0.000000
vn -1.000000 -0.000000 -0.000000
vn -0.000000 -1.000000 -0.000000
vn -0.000000 -1.000000 -0.000000
vn -0.000000 -1.000000 -0.000000
vn -0.000000 -1.000000 -0.000000
vn -0.000000 -1.000000 -0.000000
vn -0.000000 -1.000000 -0.000000
vn -0.000000 -1.000000 -0.000000
vn -0.000000 -1.000000 -0.000000
vn -0.000000 -1.000000 -0.000000
vn -0.000000 -1.000000 -0.000000
vn -0.000000 -1.000000 -0.000000
vn -0.000000 -1.000000 -0.000000
vn -0.000000 -1.000000 -0.000000
vn -0.000000 -1.000000 -0.000000
vn -0.000000 -1.000000 -0.000000
vn -0.000000 -1.000000 -0.000000
vn -0.000000 -1.000000 -0.000000
vn -0.000000 -1.000000 -0.000000
vn -0.000000 -1.000000 -0.000000
vn -0.000000 -1.000000 -0.000000
vn -0.000000 -1.000000 -0.000000
vn -0.000000 -1.000000 -0.000000
vn -0.000000 -1.000000 -0.000000
vn -0.000000 -1.000000 -0.000000
vn -0.000000 -1.000000 -0.000000
vn -0.000000 -1.000000 -0.000000
vn -0.000000 -1.000000 -0.000000
vn -0.000000 -1.000000 -0.000000
vn -0.000000 -1.000000 -0.000000
vn -0.000000 -1.000000 -0.000000
vn -0.000000 -1.000000 -0.000000
vn -0.000000 -1.000000 -0.000000
vn -0.000000 -1.000000 -0.000000
vn -0.000000 -1.000000 -0.000000
vn -0.000000 -1.000000 -0.000000
vn -0.000000 -1.000000 -0.000000
vn -0.000000 -1.000000 -0.000000
vn -0.000000 -1.000000 -0.000000
vn -0.000000 -1.000000 -0.000000
vn -0.000000 -1.000000 -0.000000
vn -0.000000 -1.000000 -0.000000
vn -0.000000 -1.000000 -0.000000
vn -0.000000 -1.000000 -0.000000
vn -0.000000 -1.000000 -0.000000
vn -0.000000 -1.000000 -0.000000
vn -0.000000 -1.000000 -0.000000
vn -0.000000 -1.000000 -0.000000
vn -0.000000 -1.000000 -0.000000
vn -0.000000 -1.000000 -0.000000
vn -0.000000 -1.000000 -0.000000
vn -0.000000 -1.000000 -0.000000
vn -0.000000 -1.000000 -0.000000
vn -0.000000 -1.000000 -0.000000
vn -0.000000 -1.000000 -0.000000
vn -0.000000 -1.000000 -0.000000
vn -0.000000 -1.000000 -0.000000
vn -0.000000 -1.000000 -0.000000
vn -0.000000 -1.000000 -0.000000
vn -0.000000 -1.000000 -0.000000
vn -0.000000 -1.000000 -0.000000
vn -0.000000 -1.000000 -0.000000
vn -0.000000 -1.000000 -0.000000
vn -0.000000 -1.000000 -0.000000
vn -0.000000 -1.000000 -0.000000
vn -0.000000 -1.000000 -0.000000
vn -0.000000 -1.000000 -0.000000
vn -0.000000 -1.000000 -0.000000
vn -0.000000 -1.000000 -0.000000
vn -0.000000 -1.000000 -0.000000
vn -0.000000 -1.000000 -0.000000
vn -0.000000 -1.000000 -0.000000
vn -0.000000 -1.000000 -0.000000
vn -0.000000 -1.000000 -0.000000
vn -0.000000 -1.000000 -0.000000
vn -0.000000 -1.000000 -0.000000
vn -0.000000 -1.000000 -0.000000
vn -0.000000 -1.000000 -0.000000
vn -0.000000 -1.000000 -0.000000
vn -0.000000 -1.000000 -0.000000
vn -0.000000 -1.000000 -0.000000
vn -0.000000 -1.000000 -0.000000
vn -0.000000 -1.000000 -0.000000
vn -0.000000 -1.000000 -0.000000
vn -0.000000 -1.000000 -0.000000
vn -0.000000 -1.000000 -0.000000
vn -0.000000 -1.000000 -0.000000
vn -0.000000 -1.000000 -0.000000
vn -0.000000 -1.000000 -0.000000
vn -0.000000 -1.000000 -0.000000
vn -0.000000 -1.000000 -0.000000
vn -0.000000 -1.000000 -0.000000
vn -0.000000 -1.000000 -0.000000
vn -0.000000 -1.000000 -0.000000
vn -0.000000 -1.000000 -0.000000
vn -0.000000 -1.000000 -0.000000
vn -0.000000 -1.000000 -0.000000
vn -0.000000 -1.000000 -0.000000
vn -0.000000 -1.000000 -0.000000
vn -0.000000 -1.000000 -0.000000
vn -0.000000 -1.000000 -0.000000
vn -0.000000 -1.000000 -0.000000
vn -0.000000 -1.000000 -0.000000
vn -0.000000 -1.000000 -0.000000
vn -0.000000 -1.000000 -0.000000
vn -0.000000 -1.000000 -0.000000
vn -0.000000 -1.000000 -0.000000
vn -0.000000 -1.000000 -0.000000
vn -0.000000 -1.000000 -0.000000
vn -0.000000 -1.000000 -0.000000
vn -0.000000 -1.000000 -0.000000
vn -0.000000 -1.000000 -0.000000
vn -0.000000 -1.000000 -0.000000
vn -0.000000 -1.000000 -0.000000
vn -0.000000 -1.000000 -0.000000
vn -0.000000 -1.000000 -0.000000
vn -0.000000 -1.000000 -0.000000
vn -0.000000 -1.000000 -0.000000
vn -0.000000 -1.000000 -0.000000
vn -0.000000 -1.000000 -0.000000
vn -0.000000 -1.000000 -0.000000
vn -0.000000 -1.000000 -0.000000
vn -0.000000 -1.000000 -0.000000
vn -0.000000 -1.000000 -0.000000
vn -0.000000 -1.000000 -0.000000
vn -0.000000 -1.000000 -0.000000
vn -0.000000 -1.000000 -0.000000
vn -0.000000 -1.000000 -0.000000
vn -0.000000 -1.000000 -0.000000
vn -0.000000 -1.000000 -0.000000
vn -0.000000 -1.000000 -0.000000
vn -0.000000 -1.000000 -0.000000
vn -0.000000 -1.000000 -0.000000
vn -0.000000 -1.000000 -0.000000
vn -0.000000 -1.000000 -0.000000
vn -0.000000 -1.000000 -0.000000
vn -0.000000 -1.000000 -0.000000
vn -0.000000 -1.000000 -0.000000
vn -0.000000 -1.000000 -0.000000
vn -0.000000 -1.000000 -0.000000
vn -0.000000 -1.000000 -0.000000
vn -0.000000 -1.000000 -0.000000
vn -0.000000 -1.000000 -0.000000
vn -0.000000 -1.000000 -0.000000
vn -0.000000 -1.000000 -0.000000
vn -0.000000 -1.000000 -0.000000
vn -0.000000 -1.000000 -0.000000
vn -0.000000 -1.000000 -0.000000
vn -0.000000 -1.000000 -0.000000
vn -0.000000 -1.000000 -0.000000
vn -0.000000 -1.000000 -0.000000
vn -0.000000 -1.000000 -0.000000
vn -0.000000 -1.000000 -0.000000
vn -0.000000 0.000000 -1.000000
vn -0.000000 0.000000 -1.000000
vn -0.173648 0.000000 -0.984808
vn -0.173648 0.000000 -0.984808
vn -0.342020 0.000000 -0.939693
vn -0.342020 0.000000 -0.939693
vn -0.500000 0.000000 -0.866025
vn -0.500000 0.000000 -0.866025
vn -0.642788 0.000000 -0.766044
vn -0.642788 0.000000 -0.766044
vn -0.766044 0.000000 -0.642788
vn -0.766044 0.000000 -0.642788
vn -0.866025 0.000000 -0.500000
vn -0.866025 0.000000 -0.500000
vn -0.939693 0.000000 -0.342020
vn -0.939693 0.000000 -0.342020
vn -0.984808 0.000000 -0.173648
vn -0.984808 0.000000 -0.173648
vn -0.984808 -0.000000 0.173648
vn -0.984808 -0.000000 0.173648
vn -0.939693 -0.000000 0.342020
vn -0.939693 -0.000000 0.342020
vn -0.866025 -0.000000 0.500000
vn -0.866025 -0.000000 0.500000
vn -0.766044 -0.000000 0.642788
vn -0.766044 -0.000000 0.642788
vn -0.642788 -0.000000 0.766044
vn -0.642788 -0.000000 0.766044
vn -0.500000 -0.000000 0.866025
vn -0.500000 -0.000000 0.866025
vn -0.342020 -0.000000 0.939693
vn -0.342020 -0.000000 0.939693
vn -0.173648 -0.000000 0.984808
vn -0.173648 -0.000000 0.984808
vn -0.000000 -0.000000 1.000000
vn -0.000000 -0.000000 1.000000
vn 0.000000 1.000000 0.000000
vn 0.000000 1.000000 0.000000
vn 0.000000 1.000000 0.000000
vn 0.000000 1.000000 0.000000
vn 0.000000 1.000000 0.000000
vn 0.000000 1.000000 0.000000
vn 0.000000 1.000000 0.000000
vn 0.000000 1.000000 0.000000
vn 0.000000 1.000000 0.000000
vn 0.000000 1.000000 0.000000
vn 0.000000 1.000000 0.000000
vn 0.000000 1.000000 0.000000
vn 0.000000 1.000000 0.000000
vn 0.000000 1.000000 0.000000
vn 0.000000 1.000000 0.000000
vn 0.000000 1.000000 0.000000
vn 0.000000 1.000000 0.000000
vn 0.000000 1.000000 0.000000
vn 0.000000 1.000000 0.000000
vn 0.000000 1.000000 0.000000
vn 0.000000 1.000000 0.000000
vn 0.000000 1.000000 0.000000
vn 0.000000 1.000000 0.000000
vn 0.000000 1.000000 0.000000
vn 0.000000 1.000000 0.000000
vn 0.000000 1.000000 0.000000
vn 0.000000 1.000000 0.000000
vn 0.000000 1.000000 0.000000
vn 0.000000 1.000000 0.000000
vn 0.000000 1.000000 0.000000
vn 0.000000 1.000000 0.000000
vn 0.000000 1.000000 0.000000
vn 0.000000 1.000000 0.000000
vn 0.000000 1.000000 0.000000
vn 0.000000 1.000000 0.000000
vn 0.000000 1.000000 0.000000
vn 0.000000 1.000000 0.000000
vn 0.000000 1.000000 0.000000
vn 0.000000 1.000000 0.000000
vn 0.000000 1.000000 0.000000
vn 0.000000 1.000000 0.000000
vn 0.000000 1.000000 0.000000
vn 0.000000 1.000000 0.000000
vn 0.000000 1.000000 0.000000
vn 0.000000 1.000000 0.000000
vn 0.000000 1.000000 0.000000
vn 0.000000 1.000000 0.000000
vn 0.000000 1.000000 0.000000
vn 0.000000 1.000000 0.000000
vn 0.000000 1.000000 0.000000
vn 0.000000 1.000000 0.000000
vn 0.000000 1.000000 0.000000
vn 0.000000 1.000000 0.000000
vn 0.000000 1.000000 0.000000
vn 0.000000 1.000000 0.000000
vn 0.000000 1.000000 0.000000
vn 0.000000 1.000000 0.000000
vn 0.000000 1.000000 0.000000
vn 0.000000 1.000000 0.000000
vn 0.000000 1.000000 0.000000
vn 0.000000 1.000000 0.000000
vn 0.000000 1.000000 0.000000
vn 0.000000 1.000000 0.000000
vn 0.000000 1.000000 0.000000
vn 0.000000 1.000000 0.000000
vn 0.000000 1.000000 0.000000
vn 0.000000 1.000000 0.000000
vn 0.000000 1.000000 0.000000
vn 0.000000 1.000000 0.000000
vn 0.000000 1.000000 0.000000
vn 0.000000 1.000000 0.000000
vn 0.000000 1.000000 0.000000
vn 0.000000 1.000000 0.000000
vn 0.000000 1.000000 0.000000
vn 0.000000 1.000000 0.000000
vn 0.000000 1.000000 0.000000
vn 0.000000 1.000000 0.000000
vn 0.000000 1.000000 0.000000
vn 0.000000 1.000000 0.000000
vn 0.000000 1.000000 0.000000
vn 0.000000 1.000000 0.000000
vn 0.000000 1.000000 0.000000
vn 0.000000 1.000000 0.000000
vn 0.000000 1.000000 0.000000
vn 0.000000 1.000000 0.000000
vn 0.000000 1.000000 0.000000
vn 0.000000 1.000000 0.000000
vn 0.000000 1.000000 0.000000
vn 0.000000 1.000000 0.000000
vn 0.000000 1.000000 0.000000
vn 0.000000 1.000000 0.000000
vn 0.000000 1.000000 0.000000
vn 0.000000 1.000000 0.000000
vn 0.000000 1.000000 0.000000
vn 0.000000 1.000000 0.000000
vn 0.000000 1.000000 0.000000
vn 0.000000 1.000000 0.000000
vn 0.000000 1.000000 0.000000
vn 0.000000 1.000000 0.000000
vn 0.000000 1.000000 0.000000
vn 0.000000 1.000000 0.000000
vn 0.000000 1.000000 0.000000
vn 0.000000 1.000000 0.000000
vn 0.000000 1.000000 0.000000
vn 0.000000 1.000000 0.000000
vn 0.000000 1.000000 0.000000
vn 0.000000 1.000000 0.000000
vn 0.000000 1.000000 0.000000
vn 0.000000 1.000000 0.000000
vn 0.000000 1.000000 0.000000
vn 0.000000 1.000000 0.000000
vn 0.000000 1.000000 0.000000
vn 0.000000 1.000000 0.000000
vn 0.000000 1.000000 0.000000
vn 0.000000 1.000000 0.000000
vn 0.000000 1.000000 0.000000
vn 0.000000 1.000000 0.000000
vn 0.000000 1.000000 0.000000
vn 0.000000 1.000000 0.000000
vn 0.000000 1.000000 0.000000
vn 0.000000 1.000000 0.000000
vn 0.000000 1.000000 0.000000
vn 0.000000 1.000000 0.000000
vn 0.000000 1.000000 0.000000
vn 0.000000 1.000000 0.000000
vn 0.000000 1.000000 0.000000
vn 0.000000 1.000000 0.000000
vn 0.000000 1.000000 0.000000
vn 0.000000 1.000000 0.000000
vn 0.000000 1.000000 0.000000
vn 0.000000 1.000000 0.000000
vn 0.000000 1.000000 0.000000
vn 0.000000 1.000000 0.000000
vn 0.000000 1.000000 0.000000
vn 0.000000 1.000000 0.000000
vn 0.000000 1.000000 0.000000
vn 0.000000 1.000000 0.000000
vn 0.000000 1.000000 0.000000
vn 0.000000 1.000000 0.000000
vn 0.000000 1.000000 0.000000
vn 0.000000 1.000000 0.000000
vn 0.000000 1.000000 0.000000
vn 0.000000 1.000000 0.000000
vn 0.000000 1.000000 0.000000
vn 0.000000 1.000000 0.000000
vn 0.000000 1.000000 0.000000
vn 0.000000 1.000000 0.000000
vn 0.000000 1.000000 0.000000
vn 0.000000 1.000000 0.000000
vn 0.000000 1.000000 0.000000
vn 0.000000 1.000000 0.000000
vn 0.000000 1.000000 0.000000
vn -0.000000 0.000000 -1.000000
vn -0.000000 0.000000 -1.000000
vn 1.000000 -0.000000 0.000000
vn 1.000000 -0.000000 -0.000000
vn 0.984808 0.000000 -0.173648
vn 0.984808 0.000000 -0.173648
vn 0.939693 0.000000 -0.342020
vn 0.939693 0.000000 -0.342020
vn 0.866025 0.000000 -0.500000
vn 0.866025 0.000000 -0.500000
vn 0.766044 0.000000 -0.642788
vn 0.766044 0.000000 -0.642788
vn 0.642788 0.000000 -0.766044
vn 0.642788 0.000000 -0.766044
vn 0.500000 0.000000 -0.866025
vn 0.500000 0.000000 -0.866025
vn 0.342020 0.000000 -0.939693
vn 0.342020 0.000000 -0.939693
vn 0.173648 0.000000 -0.984808
vn 0.173648 0.000000 -0.984808
vn 1.000000 0.000000 0.000000
vn 1.000000 0.000000 0.000000
vn 0.000000 -0.000000 1.000000
vn 0.000000 -0.000000 1.000000
vn 0.173648 -0.000000 0.984808
vn 0.173648 -0.000000 0.984808
vn 0.342020 -0.000000 0.939693
vn 0.342020 -0.000000 0.939693
vn 0.500000 -0.000000 0.866025
vn 0.500000 -0.000000 0.866025
vn 0.642788 -0.000000 0.766044
vn 0.642788 -0.000000 0.766044
vn 0.766044 -0.000000 0.642788
vn 0.766044 -0.000000 0.642788
vn 0.866025 -0.000000 0.500000
vn 0.866025 -0.000000 0.500000
vn 0.939693 -0.000000 0.342020
vn 0.939693 -0.000000 0.342020
vn 0.984808 -0.000000 0.173648
vn 0.984808 -0.000000 0.173648
vn -0.974928 0.000000 -0.222521
vn -1.000000 -0.000000 0.000000
vn -1.000000 -0.000000 0.000000
vn -0.974928 -0.000000 0.222521
vn -0.974928 -0.000000 0.222521
vn -0.900969 -0.000000 0.433884
vn -0.900969 -0.000000 0.433884
vn -0.781831 -0.000000 0.623490
vn -0.781831 -0.000000 0.623490
vn -0.623490 -0.000000 0.781831
vn -0.623490 -0.000000 0.781831
vn -0.433884 -0.000000 0.900969
vn -0.433884 -0.000000 0.900969
vn -0.222521 -0.000000 0.974928
vn -0.222521 -0.000000 0.974928
vn -0.000000 -0.000000 1.000000
vn -0.000000 -0.000000 1.000000
vn 0.222521 -0.000000 0.974928
vn 0.222521 -0.000000 0.974928
vn 0.433884 -0.000000 0.900969
vn 0.433884 -0.000000 0.900969
vn 0.623490 -0.000000 0.781831
vn 0.623490 -0.000000 0.781831
vn 0.781831 -0.000000 0.623490
vn 0.781831 -0.000000 0.623490
vn 0.900969 -0.000000 0.433884
vn 0.900969 -0.000000 0.433884
vn 0.974928 -0.000000 0.222521
vn 0.974928 -0.000000 0.222521
vn 1.000000 -0.000000 0.000000
vn 1.000000 -0.000000 0.000000
vn 0.974928 0.000000 -0.222521
vn 0.974928 0.000000 -0.222521
vn 0.900969 0.000000 -0.433884
vn -0.974928 0.000000 -0.222521
vn -0.900969 0.000000 -0.433884
vn -0.900969 0.000000 -0.433884
vn -0.781831 0.000000 -0.623490
vn -0.781831 0.000000 -0.623490
vn -0.623490 0.000000 -0.781831
vn -0.623490 0.000000 -0.781831
vn -0.433884 0.000000 -0.900969
vn -0.433884 0.000000 -0.900969
vn -0.222521 0.000000 -0.974928
vn -0.222521 0.000000 -0.974928
vn -0.000000 0.000000 -1.000000
vn -0.000000 0.000000 -1.000000
vn 0.222521 0.000000 -0.974928
vn 0.222521 0.000000 -0.974928
vn 0.433884 0.000000 -0.900969
vn 0.433884 0.000000 -0.900969
vn 0.623490 0.000000 -0.781831
vn 0.623490 0.000000 -0.781831
vn 0.781831 0.000000 -0.623490
vn 0.781831 0.000000 -0.623490
vn 0.900969 0.000000 -0.433884
vn -0.974928 0.000000 -0.222521
vn -1.000000 -0.000000 0.000000
vn -1.000000 -0.000000 0.000000
vn -0.974928 -0.000000 0.222521
vn -0.974928 -0.000000 0.222521
vn -0.900969 -0.000000 0.433884
vn -0.900969 -0.000000 0.433884
vn -0.781831 -0.000000 0.623490
vn -0.781831 -0.000000 0.623490
vn -0.623490 -0.000000 0.781831
vn -0.623490 -0.000000 0.781831
vn -0.433884 -0.000000 0.900969
vn -0.433884 -0.000000 0.900969
vn -0.222521 -0.000000 0.974928
vn -0.222521 -0.000000 0.974928
vn -0.000000 -0.000000 1.000000
vn -0.000000 -0.000000 1.000000
vn 0.222521 -0.000000 0.974928
vn 0.222521 -0.000000 0.974928
vn 0.433884 -0.000000 0.900969
vn 0.433884 -0.000000 0.900969
vn 0.623490 -0.000000 0.781831
vn 0.623490 -0.000000 0.781831
vn 0.781831 -0.000000 0.623490
vn 0.781831 -0.000000 0.623490
vn 0.900969 -0.000000 0.433884
vn 0.900969 -0.000000 0.433884
vn 0.974928 -0.000000 0.222521
vn 0.974928 -0.000000 0.222521
vn 1.000000 -0.000000 0.000000
vn 1.000000 -0.000000 0.000000
vn 0.974928 0.000000 -0.222521
vn 0.974928 0.000000 -0.222521
vn 0.900969 0.000000 -0.433884
vn -0.974928 0.000000 -0.222521
vn -0.900969 0.000000 -0.433884
vn -0.900969 0.000000 -0.433884
vn -0.781831 0.000000 -0.623490
vn -0.781831 0.000000 -0.623490
vn -0.623490 0.000000 -0.781831
vn -0.623490 0.000000 -0.781831
vn -0.433884 0.000000 -0.900969
vn -0.433884 0.000000 -0.900969
vn -0.222521 0.000000 -0.974928
vn -0.222521 0.000000 -0.974928
vn -0.000000 0.000000 -1.000000
vn -0.000000 0.000000 -1.000000
vn 0.222521 0.000000 -0.974928
vn 0.222521 0.000000 -0.974928
vn 0.433884 0.000000 -0.900969
vn 0.433884 0.000000 -0.900969
vn 0.623490 0.000000 -0.781831
vn 0.623490 0.000000 -0.781831
vn 0.781831 0.000000 -0.623490
vn 0.781831 0.000000 -0.623490
vn 0.900969 0.000000 -0.433884
vn -0.974928 0.000000 -0.222521
vn -1.000000 -0.000000 0.000000
vn -1.000000 -0.000000 0.000000
vn -0.974928 -0.000000 0.222521
vn -0.974928 -0.000000 0.222521
vn -0.900969 -0.000000 0.433884
vn -0.900969 -0.000000 0.433884
vn -0.781831 -0.000000 0.623490
vn -0.781831 -0.000000 0.623490
vn -0.623490 -0.000000 0.781831
vn -0.623490 -0.000000 0.781831
vn -0.433884 -0.000000 0.900969
vn -0.433884 -0.000000 0.900969
vn -0.222521 -0.000000 0.974928
vn -0.222521 -0.000000 0.974928
vn -0.000000 -0.000000 1.000000
vn -0.000000 -0.000000 1.000000
vn 0.222521 -0.000000 0.974928
vn 0.222521 -0.000000 0.974928
vn 0.433884 -0.000000 0.900969
vn 0.433884 -0.000000 0.900969
vn 0.623490 -0.000000 0.781831
vn 0.623490 -0.000000 0.781831
vn 0.781831 -0.000000 0.623490
vn 0.781831 -0.000000 0.623490
vn 0.900969 -0.000000 0.433884
vn 0.900969 -0.000000 0.433884
vn 0.974928 -0.000000 0.222521
vn 0.974928 -0.000000 0.222521
vn 1.000000 -0.000000 0.000000
vn 1.000000 -0.000000 0.000000
vn 0.974928 0.000000 -0.222521
vn 0.974928 0.000000 -0.222521
vn 0.900969 0.000000 -0.433884
vn -0.974928 0.000000 -0.222521
vn -0.900969 0.000000 -0.433884
vn -0.900969 0.000000 -0.433884
vn -0.781831 0.000000 -0.623490
vn -0.781831 0.000000 -0.623490
vn -0.623490 0.000000 -0.781831
vn -0.623490 0.000000 -0.781831
vn -0.433884 0.000000 -0.900969
vn -0.433884 0.000000 -0.900969
vn -0.222521 0.000000 -0.974928
vn -0.222521 0.000000 -0.974928
vn -0.000000 0.000000 -1.000000
vn -0.000000 0.000000 -1.000000
vn 0.222521 0.000000 -0.974928
vn 0.222521 0.000000 -0.974928
vn 0.433884 0.000000 -0.900969
vn 0.433884 0.000000 -0.900969
vn 0.623490 0.000000 -0.781831
vn 0.623490 0.000000 -0.781831
vn 0.781831 0.000000 -0.623490
vn 0.781831 0.000000 -0.623490
vn 0.900969 0.000000 -0.433884
vn -0.974928 0.000000 -0.222521
vn -1.000000 -0.000000 0.000000
vn -1.000000 -0.000000 0.000000
vn -0.974928 -0.000000 0.222521
vn -0.974928 -0.000000 0.222521
vn -0.900969 -0.000000 0.433884
vn -0.900969 -0.000000 0.433884
vn -0.781831 -0.000000 0.623490
vn -0.781831 -0.000000 0.623490
vn -0.623490 -0.000000 0.781831
vn -0.623490 -0.000000 0.781831
vn -0.433884 -0.000000 0.900969
vn -0.433884 -0.000000 0.900969
vn -0.222521 -0.000000 0.974928
vn -0.222521 -0.000000 0.974928
vn -0.000000 -0.000000 1.000000
vn -0.000000 -0.000000 1.000000
vn 0.222521 -0.000000 0.974928
vn 0.222521 -0.000000 0.974928
vn 0.433884 -0.000000 0.900969
vn 0.433884 -0.000000 0.900969
vn 0.623490 -0.000000 0.781831
vn 0.623490 -0.000000 0.781831
vn 0.781831 -0.000000 0.623490
vn 0.781831 -0.000000 0.623490
vn 0.900969 -0.000000 0.433884
vn 0.900969 -0.000000 0.433884
vn 0.974928 -0.000000 0.222521
vn 0.974928 -0.000000 0.222521
vn 1.000000 -0.000000 0.000000
vn 1.000000 -0.000000 0.000000
vn 0.974928 0.000000 -0.222521
vn 0.974928 0.000000 -0.222521
vn 0.900969 0.000000 -0.433884
vn -0.974928 0.000000 -0.222521
vn -0.900969 0.000000 -0.433884
vn -0.900969 0.000000 -0.433884
vn -0.781831 0.000000 -0.623490
vn -0.781831 0.000000 -0.623490
vn -0.623490 0.000000 -0.781831
vn -0.623490 0.000000 -0.781831
vn -0.433884 0.000000 -0.900969
vn -0.433884 0.000000 -0.900969
vn -0.222521 0.000000 -0.974928
vn -0.222521 0.000000 -0.974928
vn -0.000000 0.000000 -1.000000
vn -0.000000 0.000000 -1.000000
vn 0.222521 0.000000 -0.974928
vn 0.222521 0.000000 -0.974928
vn 0.433884 0.000000 -0.900969
vn 0.433884 0.000000 -0.900969
vn 0.623490 0.000000 -0.781831
vn 0.623490 0.000000 -0.781831
vn 0.781831 0.000000 -0.623490
vn 0.781831 0.000000 -0.623490
vn 0.900969 0.000000 -0.433884
usemtl Steel_-_Satin
f 1/1/1 2/2/2 4/3/3
f 4/3/3 2/2/2 3/4/4
f 6/5/5 110/6/6 5/7/7
f 5/7/7 110/6/6 46/8/8
f 5/7/7 46/8/8 47/9/9
f 7/10/10 104/11/11 6/5/5
f 6/5/5 104/11/11 105/12/12
f 6/5/5 105/12/12 106/13/13
f 7/10/10 8/14/14 104/11/11
f 104/11/11 8/14/14 103/15/15
f 103/15/15 8/14/14 9/16/16
f 103/15/15 9/16/16 10/17/17
f 103/15/15 10/17/17 102/18/18
f 102/18/18 10/17/17 11/19/19
f 102/18/18 11/19/19 12/20/20
f 12/20/20 13/21/21 102/18/18
f 102/18/18 13/21/21 101/22/22
f 101/22/22 13/21/21 14/23/23
f 101/22/22 14/23/23 15/24/24
f 16/25/25 123/26/26 15/24/24
f 15/24/24 123/26/26 124/27/27
f 15/24/24 124/27/27 125/28/28
f 17/29/29 153/30/30 16/25/25
f 16/25/25 153/30/30 154/31/31
f 16/25/25 154/31/31 127/32/32
f 17/29/29 18/33/33 153/30/30
f 153/30/30 18/33/33 152/34/34
f 152/34/34 18/33/33 19/35/35
f 152/34/34 19/35/35 20/36/36
f 20/36/36 21/37/37 152/34/34
f 152/34/34 21/37/37 151/38/38
f 151/38/38 21/37/37 22/39/39
f 151/38/38 22/39/39 23/40/40
f 151/38/38 23/40/40 150/41/41
f 150/41/41 23/40/40 24/42/42
f 150/41/41 24/42/42 25/43/43
f 26/44/44 144/45/45 25/43/43
f 25/43/43 144/45/45 145/46/46
f 25/43/43 145/46/46 146/47/47
f 27/48/48 90/49/49 26/44/44
f 26/44/44 90/49/49 91/50/50
f 26/44/44 91/50/50 92/51/51
f 27/48/48 28/52/52 90/49/49
f 90/49/49 28/52/52 89/53/53
f 89/53/53 28/52/52 29/54/54
f 89/53/53 29/54/54 30/55/55
f 89/53/53 30/55/55 88/56/56
f 88/56/56 30/55/55 31/57/57
f 88/56/56 31/57/57 32/58/58
f 32/58/58 33/59/59 88/56/56
f 88/56/56 33/59/59 87/60/60
f 87/60/60 33/59/59 34/61/61
f 87/60/60 34/61/61 2/62/62
f 1/63/63 81/64/64 2/62/62
f 2/62/62 81/64/64 82/65/65
f 2/62/62 82/65/65 83/66/66
f 35/67/67 55/68/68 1/63/63
f 1/63/63 55/68/68 56/69/69
f 1/63/63 56/69/69 57/70/70
f 35/67/67 36/71/71 55/68/68
f 55/68/68 36/71/71 54/72/72
f 54/72/72 36/71/71 37/73/73
f 54/72/72 37/73/73 38/74/74
f 38/74/74 39/75/75 54/72/72
f 54/72/72 39/75/75 53/76/76
f 53/76/76 39/75/75 40/77/77
f 53/76/76 40/77/77 41/78/78
f 53/76/76 41/78/78 52/79/79
f 52/79/79 41/78/78 42/80/80
f 52/79/79 42/80/80 5/7/7
f 70/81/81 43/82/82 113/83/83
f 113/83/83 43/82/82 44/84/84
f 113/83/83 44/84/84 112/85/85
f 112/85/85 44/84/84 45/86/86
f 112/85/85 45/86/86 111/87/87
f 111/87/87 45/86/86 46/8/8
f 111/87/87 46/8/8 110/6/6
f 47/9/9 48/88/88 5/7/7
f 5/7/7 48/88/88 49/89/89
f 5/7/7 49/89/89 50/90/90
f 50/90/90 51/91/91 5/7/7
f 5/7/7 51/91/91 52/79/79
f 57/70/70 58/92/92 1/63/63
f 1/63/63 58/92/92 59/93/93
f 1/63/63 59/93/93 60/94/94
f 60/94/94 61/95/95 1/63/63
f 1/63/63 61/95/95 81/64/64
f 81/64/64 61/95/95 80/96/96
f 80/96/96 61/95/95 62/97/97
f 80/96/96 62/97/97 79/98/98
f 79/98/98 62/97/97 63/99/99
f 79/98/98 63/99/99 78/100/100
f 78/100/100 63/99/99 64/101/101
f 78/100/100 64/101/101 77/102/102
f 77/102/102 64/101/101 65/103/103
f 77/102/102 65/103/103 76/104/104
f 76/104/104 65/103/103 66/105/105
f 76/104/104 66/105/105 75/106/106
f 75/106/106 66/105/105 67/107/107
f 75/106/106 67/107/107 74/108/108
f 74/108/108 67/107/107 138/109/109
f 74/108/108 138/109/109 139/110/110
f 67/107/107 68/111/111 138/109/109
f 138/109/109 68/111/111 137/112/112
f 137/112/112 68/111/111 116/113/113
f 137/112/112 116/113/113 117/114/114
f 116/113/113 68/111/111 115/115/115
f 115/115/115 68/111/111 69/116/116
f 115/115/115 69/116/116 114/117/117
f 114/117/117 69/116/116 70/81/81
f 114/117/117 70/81/81 113/83/83
f 98/118/118 71/119/119 141/120/120
f 141/120/120 71/119/119 72/121/121
f 141/120/120 72/121/121 140/122/122
f 140/122/122 72/121/121 73/123/123
f 140/122/122 73/123/123 139/110/110
f 139/110/110 73/123/123 74/108/108
f 83/66/66 84/124/124 2/62/62
f 2/62/62 84/124/124 85/125/125
f 2/62/62 85/125/125 86/126/126
f 86/126/126 87/60/60 2/62/62
f 92/51/51 93/127/127 26/44/44
f 26/44/44 93/127/127 94/128/128
f 26/44/44 94/128/128 95/129/129
f 95/129/129 96/130/130 26/44/44
f 26/44/44 96/130/130 144/45/45
f 144/45/45 96/130/130 143/131/131
f 143/131/131 96/130/130 97/132/132
f 143/131/131 97/132/132 142/133/133
f 142/133/133 97/132/132 98/118/118
f 142/133/133 98/118/118 141/120/120
f 126/134/134 99/135/135 15/24/24
f 15/24/24 99/135/135 100/136/136
f 15/24/24 100/136/136 101/22/22
f 106/13/13 107/137/137 6/5/5
f 6/5/5 107/137/137 108/138/138
f 6/5/5 108/138/138 109/139/139
f 109/139/139 110/6/6 6/5/5
f 137/112/112 117/114/114 136/140/140
f 136/140/140 117/114/114 118/141/141
f 136/140/140 118/141/141 135/142/142
f 135/142/142 118/141/141 119/143/143
f 135/142/142 119/143/143 134/144/144
f 134/144/144 119/143/143 120/145/145
f 134/144/144 120/145/145 133/146/146
f 133/146/146 120/145/145 121/147/147
f 133/146/146 121/147/147 132/148/148
f 132/148/148 121/147/147 122/149/149
f 132/148/148 122/149/149 131/150/150
f 131/150/150 122/149/149 123/26/26
f 131/150/150 123/26/26 16/25/25
f 125/28/28 126/134/134 15/24/24
f 127/32/32 128/151/151 16/25/25
f 16/25/25 128/151/151 129/152/152
f 16/25/25 129/152/152 130/153/153
f 130/153/153 131/150/150 16/25/25
f 146/47/47 147/154/154 25/43/43
f 25/43/43 147/154/154 148/155/155
f 25/43/43 148/155/155 149/156/156
f 149/156/156 150/41/41 25/43/43
f 163/157/157 5/158/158 162/159/159
f 162/159/159 5/158/158 42/160/160
f 162/159/159 42/160/160 161/161/161
f 161/161/161 42/160/160 41/162/162
f 161/161/161 41/162/162 160/163/163
f 160/163/163 41/162/162 40/164/164
f 160/163/163 40/164/164 159/165/165
f 159/165/165 40/164/164 39/166/166
f 159/165/165 39/166/166 158/167/167
f 158/167/167 39/166/166 38/168/168
f 158/167/167 38/168/168 157/169/169
f 157/169/169 38/168/168 37/170/170
f 157/169/169 37/170/170 156/171/171
f 156/171/171 37/170/170 36/172/172
f 156/171/171 36/172/172 155/173/173
f 155/173/173 36/172/172 35/174/174
f 155/173/173 35/174/174 4/175/3
f 4/175/3 35/174/174 1/176/1
f 3/177/4 2/178/2 172/179/175
f 172/179/175 2/178/2 34/180/176
f 172/179/175 34/180/176 171/181/177
f 171/181/177 34/180/176 33/182/178
f 171/181/177 33/182/178 170/183/179
f 170/183/179 33/182/178 32/184/180
f 170/183/179 32/184/180 169/185/181
f 169/185/181 32/184/180 31/186/182
f 169/185/181 31/186/182 168/187/183
f 168/187/183 31/186/182 30/188/184
f 168/187/183 30/188/184 167/189/185
f 167/189/185 30/188/184 29/190/186
f 167/189/185 29/190/186 166/191/187
f 166/191/187 29/190/186 28/192/188
f 166/191/187 28/192/188 165/193/189
f 165/193/189 28/192/188 27/194/190
f 165/193/189 27/194/190 164/195/191
f 164/195/191 27/194/190 26/196/192
f 163/197/193 266/198/194 173/199/195
f 173/199/195 266/198/194 267/200/196
f 173/199/195 267/200/196 268/201/197
f 162/202/198 212/203/199 163/197/193
f 163/197/193 212/203/199 213/204/200
f 163/197/193 213/204/200 214/205/201
f 162/202/198 161/206/202 212/203/199
f 212/203/199 161/206/202 211/207/203
f 211/207/203 161/206/202 160/208/204
f 211/207/203 160/208/204 159/209/205
f 211/207/203 159/209/205 210/210/206
f 210/210/206 159/209/205 158/211/207
f 210/210/206 158/211/207 157/212/208
f 157/212/208 156/213/209 210/210/206
f 210/210/206 156/213/209 209/214/210
f 209/214/210 156/213/209 155/215/211
f 209/214/210 155/215/211 4/216/212
f 3/217/213 203/218/214 4/216/212
f 4/216/212 203/218/214 204/219/215
f 4/216/212 204/219/215 205/220/216
f 172/221/217 233/222/218 3/217/213
f 3/217/213 233/222/218 234/223/219
f 3/217/213 234/223/219 235/224/220
f 172/221/217 171/225/221 233/222/218
f 233/222/218 171/225/221 232/226/222
f 232/226/222 171/225/221 170/227/223
f 232/226/222 170/227/223 169/228/224
f 169/228/224 168/229/225 232/226/222
f 232/226/222 168/229/225 231/230/226
f 231/230/226 168/229/225 167/231/227
f 231/230/226 167/231/227 166/232/228
f 231/230/226 166/232/228 230/233/229
f 230/233/229 166/232/228 165/234/230
f 230/233/229 165/234/230 164/235/231
f 174/236/232 288/237/233 164/235/231
f 164/235/231 288/237/233 224/238/234
f 164/235/231 224/238/234 225/239/235
f 175/240/236 282/241/237 174/236/232
f 174/236/232 282/241/237 283/242/238
f 174/236/232 283/242/238 284/243/239
f 175/240/236 176/244/240 282/241/237
f 282/241/237 176/244/240 281/245/241
f 281/245/241 176/244/240 177/246/242
f 281/245/241 177/246/242 178/247/243
f 281/245/241 178/247/243 280/248/244
f 280/248/244 178/247/243 179/249/245
f 280/248/244 179/249/245 180/250/246
f 180/250/246 181/251/247 280/248/244
f 280/248/244 181/251/247 279/252/248
f 279/252/248 181/251/247 182/253/249
f 279/252/248 182/253/249 183/254/250
f 184/255/251 301/256/252 183/254/250
f 183/254/250 301/256/252 302/257/253
f 183/254/250 302/257/253 303/258/254
f 185/259/255 275/260/256 184/255/251
f 184/255/251 275/260/256 276/261/257
f 184/255/251 276/261/257 249/262/258
f 185/259/255 186/263/259 275/260/256
f 275/260/256 186/263/259 274/264/260
f 274/264/260 186/263/259 187/265/261
f 274/264/260 187/265/261 188/266/262
f 188/266/262 189/267/263 274/264/260
f 274/264/260 189/267/263 273/268/264
f 273/268/264 189/267/263 190/269/265
f 273/268/264 190/269/265 191/270/266
f 273/268/264 191/270/266 272/271/267
f 272/271/267 191/270/266 192/272/268
f 272/271/267 192/272/268 173/199/195
f 220/273/269 193/274/270 263/275/271
f 263/275/271 193/274/270 194/276/272
f 263/275/271 194/276/272 262/277/273
f 262/277/273 194/276/272 195/278/274
f 262/277/273 195/278/274 261/279/275
f 261/279/275 195/278/274 196/280/276
f 261/279/275 196/280/276 260/281/277
f 260/281/277 196/280/276 245/282/278
f 260/281/277 245/282/278 246/283/279
f 196/280/276 197/284/280 245/282/278
f 245/282/278 197/284/280 244/285/281
f 244/285/281 197/284/280 198/286/282
f 244/285/281 198/286/282 243/287/283
f 243/287/283 198/286/282 199/288/284
f 243/287/283 199/288/284 242/289/285
f 242/289/285 199/288/284 200/290/286
f 242/289/285 200/290/286 241/291/287
f 241/291/287 200/290/286 201/292/288
f 241/291/287 201/292/288 240/293/289
f 240/293/289 201/292/288 202/294/290
f 240/293/289 202/294/290 239/295/291
f 239/295/291 202/294/290 203/218/214
f 239/295/291 203/218/214 3/217/213
f 205/220/216 206/296/292 4/216/212
f 4/216/212 206/296/292 207/297/293
f 4/216/212 207/297/293 208/298/294
f 208/298/294 209/214/210 4/216/212
f 214/205/201 215/299/295 163/197/193
f 163/197/193 215/299/295 216/300/296
f 163/197/193 216/300/296 217/301/297
f 217/301/297 218/302/298 163/197/193
f 163/197/193 218/302/298 266/198/194
f 266/198/194 218/302/298 265/303/299
f 265/303/299 218/302/298 219/304/300
f 265/303/299 219/304/300 264/305/301
f 264/305/301 219/304/300 220/273/269
f 264/305/301 220/273/269 263/275/271
f 248/306/302 221/307/303 291/308/304
f 291/308/304 221/307/303 222/309/305
f 291/308/304 222/309/305 290/310/306
f 290/310/306 222/309/305 223/311/307
f 290/310/306 223/311/307 289/312/308
f 289/312/308 223/311/307 224/238/234
f 289/312/308 224/238/234 288/237/233
f 225/239/235 226/313/309 164/235/231
f 164/235/231 226/313/309 227/314/310
f 164/235/231 227/314/310 228/315/311
f 228/315/311 229/316/312 164/235/231
f 164/235/231 229/316/312 230/233/229
f 235/224/220 236/317/313 3/217/213
f 3/217/213 236/317/313 237/318/314
f 3/217/213 237/318/314 238/319/315
f 238/319/315 239/295/291 3/217/213
f 247/320/316 293/321/317 246/283/279
f 246/283/279 293/321/317 294/322/318
f 246/283/279 294/322/318 259/323/319
f 259/323/319 294/322/318 295/324/320
f 259/323/319 295/324/320 258/325/321
f 258/325/321 295/324/320 296/326/322
f 258/325/321 296/326/322 257/327/323
f 257/327/323 296/326/322 297/328/324
f 257/327/323 297/328/324 256/329/325
f 256/329/325 297/328/324 298/330/326
f 256/329/325 298/330/326 255/331/327
f 255/331/327 298/330/326 299/332/328
f 255/331/327 299/332/328 254/333/329
f 254/333/329 299/332/328 300/334/330
f 254/333/329 300/334/330 253/335/331
f 253/335/331 300/334/330 301/256/252
f 253/335/331 301/256/252 184/255/251
f 293/321/317 247/320/316 292/336/332
f 292/336/332 247/320/316 248/306/302
f 292/336/332 248/306/302 291/308/304
f 249/262/258 250/337/333 184/255/251
f 184/255/251 250/337/333 251/338/334
f 184/255/251 251/338/334 252/339/335
f 252/339/335 253/335/331 184/255/251
f 259/323/319 260/281/277 246/283/279
f 268/201/197 269/340/336 173/199/195
f 173/199/195 269/340/336 270/341/337
f 173/199/195 270/341/337 271/342/338
f 271/342/338 272/271/267 173/199/195
f 304/343/339 277/344/340 183/254/250
f 183/254/250 277/344/340 278/345/341
f 183/254/250 278/345/341 279/252/248
f 284/243/239 285/346/342 174/236/232
f 174/236/232 285/346/342 286/347/343
f 174/236/232 286/347/343 287/348/344
f 287/348/344 288/237/233 174/236/232
f 303/258/254 304/343/339 183/254/250
f 163/349/157 173/350/345 5/351/158
f 5/351/158 173/350/345 6/352/346
f 184/353/347 15/354/348 185/355/349
f 185/355/349 15/354/348 14/356/350
f 185/355/349 14/356/350 186/357/351
f 186/357/351 14/356/350 13/358/352
f 186/357/351 13/358/352 187/359/353
f 187/359/353 13/358/352 12/360/354
f 187/359/353 12/360/354 188/361/355
f 188/361/355 12/360/354 11/362/356
f 188/361/355 11/362/356 189/363/357
f 189/363/357 11/362/356 10/364/358
f 189/363/357 10/364/358 190/365/359
f 190/365/359 10/364/358 9/366/360
f 190/365/359 9/366/360 191/367/361
f 191/367/361 9/366/360 8/368/362
f 191/367/361 8/368/362 192/369/363
f 192/369/363 8/368/362 7/370/364
f 192/369/363 7/370/364 173/371/345
f 173/371/345 7/370/364 6/372/346
f 16/373/365 15/374/348 183/375/366
f 183/375/366 15/374/348 184/376/347
f 174/377/367 25/378/368 175/379/369
f 175/379/369 25/378/368 24/380/370
f 175/379/369 24/380/370 176/381/371
f 176/381/371 24/380/370 23/382/372
f 176/381/371 23/382/372 177/383/373
f 177/383/373 23/382/372 22/384/374
f 177/383/373 22/384/374 178/385/375
f 178/385/375 22/384/374 21/386/376
f 178/385/375 21/386/376 179/387/377
f 179/387/377 21/386/376 20/388/378
f 179/387/377 20/388/378 180/389/379
f 180/389/379 20/388/378 19/390/380
f 180/389/379 19/390/380 181/391/381
f 181/391/381 19/390/380 18/392/382
f 181/391/381 18/392/382 182/393/383
f 182/393/383 18/392/382 17/394/384
f 182/393/383 17/394/384 183/395/366
f 183/395/366 17/394/384 16/396/365
f 174/397/367 164/398/191 25/399/368
f 25/399/368 164/398/191 26/400/192
f 70/401/385 193/402/386 43/403/387
f 43/403/387 193/402/386 220/404/388
f 43/403/387 220/404/388 44/405/389
f 44/405/389 220/404/388 219/406/390
f 44/405/389 219/406/390 45/407/391
f 45/407/391 219/406/390 218/408/392
f 45/407/391 218/408/392 46/409/393
f 46/409/393 218/408/392 217/410/394
f 46/409/393 217/410/394 47/411/395
f 47/411/395 217/410/394 216/412/396
f 47/411/395 216/412/396 48/413/397
f 48/413/397 216/412/396 215/414/398
f 48/413/397 215/414/398 49/415/399
f 49/415/399 215/414/398 214/416/400
f 49/415/399 214/416/400 50/417/401
f 50/417/401 214/416/400 213/418/402
f 50/417/401 213/418/402 51/419/403
f 51/419/403 213/418/402 212/420/404
f 51/419/403 212/420/404 52/421/405
f 52/421/405 212/420/404 211/422/406
f 52/421/405 211/422/406 53/423/407
f 53/423/407 211/422/406 210/424/408
f 53/423/407 210/424/408 54/425/409
f 54/425/409 210/424/408 209/426/410
f 54/425/409 209/426/410 55/427/411
f 55/427/411 209/426/410 208/428/412
f 55/427/411 208/428/412 56/429/413
f 56/429/413 208/428/412 57/430/414
f 57/430/414 208/428/412 207/431/415
f 57/432/414 207/433/415 58/434/416
f 58/434/416 207/433/415 206/435/417
f 58/434/416 206/435/417 205/436/418
f 193/402/386 70/401/385 194/437/419
f 194/437/419 70/401/385 69/438/420
f 194/437/419 69/438/420 195/439/421
f 195/439/421 69/438/420 68/440/422
f 195/439/421 68/440/422 196/441/423
f 196/441/423 68/440/422 67/442/424
f 196/441/423 67/442/424 197/443/425
f 197/443/425 67/442/424 66/444/426
f 197/443/425 66/444/426 198/445/427
f 198/445/427 66/444/426 65/446/428
f 198/445/427 65/446/428 199/447/429
f 199/447/429 65/446/428 64/448/430
f 199/447/429 64/448/430 200/449/431
f 200/449/431 64/448/430 63/450/432
f 200/449/431 63/450/432 201/451/433
f 201/451/433 63/450/432 62/452/434
f 201/451/433 62/452/434 202/453/435
f 202/453/435 62/452/434 61/454/436
f 202/453/435 61/454/436 203/455/437
f 203/455/437 61/454/436 60/456/438
f 203/455/437 60/456/438 204/457/439
f 204/457/439 60/456/438 59/458/440
f 204/457/439 59/458/440 205/436/418
f 205/436/418 59/458/440 58/434/416
f 98/459/441 221/460/442 71/461/443
f 71/461/443 221/460/442 248/462/444
f 71/461/443 248/462/444 72/463/445
f 72/463/445 248/462/444 247/464/446
f 72/463/445 247/464/446 73/465/447
f 73/465/447 247/464/446 246/466/448
f 73/465/447 246/466/448 74/467/449
f 74/467/449 246/466/448 245/468/450
f 74/467/449 245/468/450 75/469/451
f 75/469/451 245/468/450 244/470/452
f 75/469/451 244/470/452 76/471/453
f 76/471/453 244/470/452 243/472/454
f 76/471/453 243/472/454 77/473/455
f 77/473/455 243/472/454 242/474/456
f 77/473/455 242/474/456 78/475/457
f 78/475/457 242/474/456 241/476/458
f 78/475/457 241/476/458 79/477/459
f 79/477/459 241/476/458 240/478/460
f 79/477/459 240/478/460 80/479/461
f 80/479/461 240/478/460 239/480/462
f 80/479/461 239/480/462 81/481/463
f 81/481/463 239/480/462 238/482/464
f 81/481/463 238/482/464 82/483/465
f 82/483/465 238/482/464 237/484/466
f 82/483/465 237/484/466 83/485/467
f 83/485/467 237/484/466 236/486/468
f 83/485/467 236/486/468 84/487/469
f 84/487/469 236/486/468 85/488/470
f 85/488/470 236/486/468 235/489/471
f 85/490/470 235/491/471 86/492/472
f 86/492/472 235/491/471 234/493/473
f 86/492/472 234/493/473 233/494/474
f 221/460/442 98/459/441 222/495/475
f 222/495/475 98/459/441 97/496/476
f 222/495/475 97/496/476 223/497/477
f 223/497/477 97/496/476 96/498/478
f 223/497/477 96/498/478 224/499/479
f 224/499/479 96/498/478 95/500/480
f 224/499/479 95/500/480 225/501/481
f 225/501/481 95/500/480 94/502/482
f 225/501/481 94/502/482 226/503/483
f 226/503/483 94/502/482 93/504/484
f 226/503/483 93/504/484 227/505/485
f 227/505/485 93/504/484 92/506/486
f 227/505/485 92/506/486 228/507/487
f 228/507/487 92/506/486 91/508/488
f 228/507/487 91/508/488 229/509/489
f 229/509/489 91/508/488 90/510/490
f 229/509/489 90/510/490 230/511/491
f 230/511/491 90/510/490 89/512/492
f 230/511/491 89/512/492 231/513/493
f 231/513/493 89/512/492 88/514/494
f 231/513/493 88/514/494 232/515/495
f 232/515/495 88/514/494 87/516/496
f 232/515/495 87/516/496 233/494/474
f 233/494/474 87/516/496 86/492/472
f 126/517/497 249/518/498 99/519/499
f 99/519/499 249/518/498 276/520/500
f 99/519/499 276/520/500 100/521/501
f 100/521/501 276/520/500 275/522/502
f 100/521/501 275/522/502 101/523/503
f 101/523/503 275/522/502 274/524/504
f 101/523/503 274/524/504 102/525/505
f 102/525/505 274/524/504 273/526/506
f 102/525/505 273/526/506 103/527/507
f 103/527/507 273/526/506 272/528/508
f 103/527/507 272/528/508 104/529/509
f 104/529/509 272/528/508 271/530/510
f 104/529/509 271/530/510 105/531/511
f 105/531/511 271/530/510 270/532/512
f 105/531/511 270/532/512 106/533/513
f 106/533/513 270/532/512 269/534/514
f 106/533/513 269/534/514 107/535/515
f 107/535/515 269/534/514 268/536/516
f 107/535/515 268/536/516 108/537/517
f 108/537/517 268/536/516 267/538/518
f 108/537/517 267/538/518 109/539/519
f 109/539/519 267/538/518 266/540/520
f 109/539/519 266/540/520 110/541/521
f 110/541/521 266/540/520 265/542/522
f 110/541/521 265/542/522 111/543/523
f 111/543/523 265/542/522 264/544/524
f 111/543/523 264/544/524 112/545/525
f 112/545/525 264/544/524 113/546/526
f 113/546/526 264/544/524 263/547/527
f 113/548/526 263/549/527 114/550/528
f 114/550/528 263/549/527 262/551/529
f 114/550/528 262/551/529 261/552/530
f 249/518/498 126/517/497 250/553/531
f 250/553/531 126/517/497 125/554/532
f 250/553/531 125/554/532 251/555/533
f 251/555/533 125/554/532 124/556/534
f 251/555/533 124/556/534 252/557/535
f 252/557/535 124/556/534 123/558/536
f 252/557/535 123/558/536 253/559/537
f 253/559/537 123/558/536 122/560/538
f 253/559/537 122/560/538 254/561/539
f 254/561/539 122/560/538 121/562/540
f 254/561/539 121/562/540 255/563/541
f 255/563/541 121/562/540 120/564/542
f 255/563/541 120/564/542 256/565/543
f 256/565/543 120/564/542 119/566/544
f 256/565/543 119/566/544 257/567/545
f 257/567/545 119/566/544 118/568/546
f 257/567/545 118/568/546 258/569/547
f 258/569/547 118/568/546 117/570/548
f 258/569/547 117/570/548 259/571/549
f 259/571/549 117/570/548 116/572/550
f 259/571/549 116/572/550 260/573/551
f 260/573/551 116/572/550 115/574/552
f 260/573/551 115/574/552 261/552/530
f 261/552/530 115/574/552 114/550/528
f 154/575/553 277/576/554 127/577/555
f 127/577/555 277/576/554 304/578/556
f 127/577/555 304/578/556 128/579/557
f 128/579/557 304/578/556 303/580/558
f 128/579/557 303/580/558 129/581/559
f 129/581/559 303/580/558 302/582/560
f 129/581/559 302/582/560 130/583/561
f 130/583/561 302/582/560 301/584/562
f 130/583/561 301/584/562 131/585/563
f 131/585/563 301/584/562 300/586/564
f 131/585/563 300/586/564 132/587/565
f 132/587/565 300/586/564 299/588/566
f 132/587/565 299/588/566 133/589/567
f 133/589/567 299/588/566 298/590/568
f 133/589/567 298/590/568 134/591/569
f 134/591/569 298/590/568 297/592/570
f 134/591/569 297/592/570 135/593/571
f 135/593/571 297/592/570 296/594/572
f 135/593/571 296/594/572 136/595/573
f 136/595/573 296/594/572 295/596/574
f 136/595/573 295/596/574 137/597/575
f 137/597/575 295/596/574 294/598/576
f 137/597/575 294/598/576 138/599/577
f 138/599/577 294/598/576 293/600/578
f 138/599/577 293/600/578 139/601/579
f 139/601/579 293/600/578 292/602/580
f 139/601/579 292/602/580 140/603/581
f 140/603/581 292/602/580 141/604/582
f 141/604/582 292/602/580 291/605/583
f 141/606/582 291/607/583 142/608/584
f 142/608/584 291/607/583 290/609/585
f 142/608/584 290/609/585 289/610/586
f 277/576/554 154/575/553 278/611/587
f 278/611/587 154/575/553 153/612/588
f 278/611/587 153/612/588 279/613/589
f 279/613/589 153/612/588 152/614/590
f 279/613/589 152/614/590 280/615/591
f 280/615/591 152/614/590 151/616/592
f 280/615/591 151/616/592 281/617/593
f 281/617/593 151/616/592 150/618/594
f 281/617/593 150/618/594 282/619/595
f 282/619/595 150/618/594 149/620/596
f 282/619/595 149/620/596 283/621/597
f 283/621/597 149/620/596 148/622/598
f 283/621/597 148/622/598 284/623/599
f 284/623/599 148/622/598 147/624/600
f 284/623/599 147/624/600 285/625/601
f 285/625/601 147/624/600 146/626/602
f 285/625/601 146/626/602 286/627/603
f 286/627/603 146/626/602 145/628/604
f 286/627/603 145/628/604 287/629/605
f 287/629/605 145/628/604 144/630/606
f 287/629/605 144/630/606 288/631/607
f 288/631/607 144/630/606 143/632/608
f 288/631/607 143/632/608 289/610/586
f 289/610/586 143/632/608 142/608/584
# 304 vertices
# 632 texture params
# 608 normals
# 620 facets

# 1 groups
